<svg width="322" height="321" viewBox="0 0 322 321" fill="none" xmlns="http://www.w3.org/2000/svg">
<g clip-path="url(#clip0_486_597)">
<path d="M208.052 283.216C208.455 283.262 208.655 283.378 209.021 283.552C209.181 283.785 209.326 283.874 209.295 284.178C209.168 285.465 207.25 286.915 206.343 287.724C205.788 287.689 205.541 287.548 205.159 287.165L205.153 286.655C205.818 285.324 207.025 284.257 208.052 283.216Z" fill="#4B2D10"/>
<path d="M227.162 286.227C227.737 286.261 228.156 286.257 228.65 286.607C228.783 286.87 228.929 287.018 228.88 287.326C228.69 288.537 227.166 289.526 226.231 290.147C225.806 290.121 225.544 289.957 225.168 289.77C225.021 289.523 224.885 289.411 224.912 289.106C225.017 287.889 226.292 286.888 227.162 286.227Z" fill="#4B2D10"/>
<path d="M156.911 284.38C156.964 284.414 157.023 284.439 157.069 284.482C157.453 284.84 157.514 285.193 157.575 285.696C157.269 287.11 155.149 288.77 154.035 289.568C153.9 289.47 153.664 289.305 153.55 289.19C153.215 288.852 153.173 288.64 153.25 288.167C153.494 286.683 155.741 285.105 156.911 284.38Z" fill="#4B2D10"/>
<path d="M54.6122 267.69C54.8838 267.702 55.3033 267.687 55.5505 267.792C56.0361 267.997 56.049 268.196 56.1878 268.663C55.9295 270.258 54.6137 271.691 53.6883 272.962L53.547 273.023C53.0024 272.869 52.6806 272.396 52.2803 271.994C52.9197 270.545 53.4957 268.819 54.6122 267.69Z" fill="#4B2D10"/>
<path d="M62.5227 273.339C62.9611 273.608 63.3909 273.887 63.4691 274.454C63.6802 275.978 61.6394 277.96 60.7177 279.012C60.5727 278.956 60.2767 278.85 60.1535 278.765C59.8166 278.531 59.7535 278.116 59.7823 277.728C59.9022 276.125 61.3925 274.358 62.5227 273.339Z" fill="#4B2D10"/>
<path d="M219.408 284.389C219.938 284.357 220.239 284.427 220.731 284.595C220.906 284.798 221.099 284.91 221.094 285.202C221.077 286.339 219.327 288.041 218.62 288.912C218.129 289.013 217.836 288.99 217.348 288.875C217.021 288.577 216.869 288.497 216.9 288.002C216.98 286.736 218.608 285.248 219.408 284.389Z" fill="#4B2D10"/>
<path d="M147.581 277.29C147.971 277.521 148.188 277.575 148.279 278.075C148.66 280.164 146.709 283.845 145.818 285.678C145.279 286.787 145.032 287.853 143.832 288.265C143.466 287.927 143.112 287.675 143.004 287.155C143.702 284.688 145.837 279.129 147.581 277.29Z" fill="#4B2D10"/>
<path d="M84.0357 255.164C84.3807 255.141 84.7416 255.105 85.0869 255.124C86.0083 255.176 86.5171 255.937 87.0809 256.593C87.548 257.136 88.0321 257.816 88.5981 258.249C89.9272 259.268 91.6846 259.566 92.8118 260.899C93.0067 261.419 92.8262 261.88 92.6986 262.396C92.4344 262.429 92.1754 262.462 91.9086 262.466C89.6936 262.498 87.3598 261.038 85.8529 259.43C84.6737 258.172 84.0291 256.923 84.0357 255.164Z" fill="#4B2D10"/>
<path d="M78.6768 271.097C78.7052 271.1 78.7336 271.105 78.762 271.108C78.9734 271.134 79.1852 271.156 79.3933 271.205C80.9966 271.584 80.7992 274.334 81.619 275.484C82.5238 276.753 85.9564 275.795 87.3976 276.126C87.8581 276.232 88.0123 276.387 88.2293 276.796C88.0289 277.527 87.5315 277.866 86.9714 278.305C85.3771 278.985 83.1835 279.13 81.5452 278.534C81.3841 278.477 81.2264 278.411 81.0722 278.337C80.9182 278.263 80.7683 278.18 80.6224 278.09C80.4768 277.999 80.3362 277.901 80.2007 277.795C80.0649 277.689 79.9351 277.576 79.8114 277.456C79.6874 277.335 79.57 277.209 79.459 277.076C79.3483 276.943 79.2447 276.804 79.148 276.66C79.0516 276.516 78.9627 276.367 78.8816 276.213C78.8006 276.059 78.7277 275.9 78.6628 275.738C78.0359 274.214 78.1185 272.616 78.6768 271.097Z" fill="#4B2D10"/>
<path d="M196.264 101.072C196.792 101.043 197.378 100.985 197.902 101.07C201.167 101.601 210.938 107.048 212.702 109.921C213.005 110.415 213.121 110.844 213.007 111.428C211.453 112.949 209.367 114.055 207.614 115.339C204.481 117.634 201.402 121.032 197.695 122.304C197.205 122.472 196.969 122.534 196.518 122.277C195.539 120.619 196.79 115.478 197.026 113.367C194.733 114.522 192.698 116.124 190.689 117.732C188.309 119.638 185.926 121.897 184.011 124.298C179.786 129.6 174.949 139.56 173.408 146.272C172.326 150.983 171.971 155.92 171.331 160.709C170.954 163.53 170.384 166.321 170.004 169.14C169.543 172.55 169.329 176.042 169.035 179.472C168.738 182.935 168.76 186.449 168.319 189.892L168.269 190.269C167.844 193.194 167.829 196.194 167.346 199.095C166.978 201.304 165.725 209.721 163.912 210.649C163.46 210.88 163.325 210.847 162.875 210.713C162.73 210.529 162.708 210.521 162.601 210.273C161.732 208.268 163.237 203.939 163.65 201.803C163.986 200.069 164.251 198.299 164.471 196.546C164.876 193.325 165.277 190.065 165.549 186.831C165.768 184.228 165.828 181.619 166.103 179.019C166.484 175.415 166.812 171.779 167.323 168.193C167.766 165.082 168.389 162 168.838 158.89C169.656 153.222 170.266 147.59 172.061 142.13C176.208 129.515 184.413 117.101 196.293 111.113C196.108 108.88 195.168 104.148 195.442 102.213C195.532 101.579 195.822 101.456 196.264 101.072Z" fill="#4B2D10"/>
<path d="M197.927 103.604C201.323 104.514 206.388 108.104 209.353 110.218L209.318 110.437L208.875 110.191C208.312 109.854 207.726 109.48 207.097 109.291C204.664 108.561 200.994 109.18 198.789 110.387C198.411 108.142 198.049 105.882 197.927 103.604Z" fill="#FFC34F"/>
<path d="M201.918 111.772C204.037 111.713 206.093 111.934 208.198 112.13C205.979 113.426 203.997 115.085 201.969 116.669C200.872 117.593 199.612 118.454 198.35 119.123C198.595 116.945 198.868 114.858 198.879 112.656C199.892 112.295 200.859 111.966 201.918 111.772Z" fill="#FFC34F"/>
<path d="M222.192 158.304C225.885 158.138 230.218 158.731 233.22 161.093C233.156 162.969 232.962 164.634 232.419 166.432C234.808 167.653 236.9 169.439 239.031 171.073C240.488 170.27 243.255 168.613 244.894 168.981C247.193 169.496 250.231 172.676 251.396 174.726C252.364 176.428 252.92 178.542 252.373 180.487C251.825 182.438 250.067 184.09 248.403 185.091C248.797 186.873 249.17 188.66 249.522 190.452C251.72 192.467 254.87 193.516 256.767 195.882C257.217 196.442 257.403 196.937 257.334 197.661C257.057 200.57 252.957 209.623 250.77 211.214C249.548 212.103 246.168 211.213 244.77 210.898C243.17 213.951 240.982 216.452 238.632 218.905C239.17 220.664 240.517 223.148 240.334 224.977C240.278 225.533 239.937 225.923 239.535 226.264C236.881 228.516 226.609 231.519 223.096 231.994C222.362 232.093 221.624 231.997 220.893 231.906L220.836 231.832C220.422 231.303 219.965 230.758 219.696 230.131C219.113 228.773 218.736 225.556 217.712 224.679L217.235 224.739C214.099 224.892 211.119 223.946 208.247 222.762C207.18 224.505 204.908 227.013 202.927 227.514C201.874 227.78 200.687 226.992 199.799 226.472C198.083 225.467 192.078 221.66 191.709 219.596C191.571 218.82 195.324 214.147 195.99 213.153C193.542 209.953 191.63 206.333 191.382 202.172C189.677 201.931 186.23 202.078 184.804 201.367C184.486 201.208 184.397 200.965 184.314 200.624C183.79 198.469 185.153 188.892 186.23 187.009C187.347 186.36 190.261 187.346 191.59 187.479L191.834 187.501C192.826 184.767 194.258 182.28 195.777 179.83C194.297 177.581 192.503 175.605 191.171 173.236C192.647 170.759 198.358 165.046 200.828 163.62C201.428 163.273 201.936 163.147 202.604 163.355C204.692 164.005 207.348 166.456 208.339 168.402C210.065 167.747 211.735 167.266 213.561 167.014C213.848 164.674 214.141 162.167 214.099 159.81L215.853 158.435C217.966 158.407 220.079 158.364 222.192 158.304Z" fill="#4B2D10"/>
<path d="M248.604 179.248C248.643 179.27 248.688 179.284 248.722 179.313C249.111 179.63 249.184 179.733 249.271 180.209C248.751 181.279 247.156 181.944 246.168 182.499C246.157 182.496 246.144 182.496 246.133 182.49C245.707 182.272 245.606 182.295 245.415 181.831C245.801 180.614 247.587 180.009 248.604 179.248Z" fill="#FFC34F"/>
<path d="M227.242 161.905C228.234 162.077 229.218 162.373 230.195 162.624C230.178 163.353 230.115 164.083 230.066 164.811C229.346 164.777 227.982 164.27 227.51 163.689C227.066 163.142 227.224 162.57 227.242 161.905Z" fill="#FFC34F"/>
<path d="M234.479 218.143L234.783 218.231C235.849 219.941 236.314 222.42 236.847 224.384C236.065 224.774 235.271 225.12 234.471 225.467C233.865 225.143 232.547 220.726 232.112 219.751C232.981 219.278 233.71 218.766 234.479 218.143Z" fill="#FFC34F"/>
<path d="M218.763 161.135C220.548 161.094 222.314 161.088 224.099 161.17C224.177 163.61 223.356 165.956 223.394 168.422C226.787 169.593 230.872 170.722 233.725 173.014C234.657 173.762 235.311 174.726 236.2 175.501C237.707 175.744 240.876 173.407 242.377 172.75L242.622 172.644C243.89 174.139 244.93 175.854 246.014 177.493C244.103 178.48 241.271 179.792 239.906 181.499C239.792 182.062 239.872 182.535 239.977 183.091C240.268 184.638 240.898 186.138 241.29 187.665C241.851 189.851 242.177 192.052 242.826 194.226C244.572 195.094 246.351 196.057 247.976 197.146C248.775 197.682 249.484 198.451 250.328 198.896C251.245 199.379 252.28 199.472 253.209 199.973C253.449 201.094 249.791 207.505 249.147 208.957C248.546 208.766 247.593 208.609 247.168 208.117C247.332 206.534 249.585 203.205 250.145 201.272C250.312 200.693 250.377 200.186 250.102 199.629C249.83 199.383 249.644 199.265 249.287 199.214C248.915 199.161 248.445 199.192 248.169 199.487C247.631 200.063 245.486 205.57 245.595 206.359C245.646 206.734 245.68 207.065 245.702 207.442C244.526 207.484 243.201 205.9 241.819 205.882C241.582 205.879 241.365 205.888 241.139 205.97C240.036 206.368 238.945 209.355 238.322 210.399C235.741 214.725 233.297 215.815 229.656 218.887C229.871 221.389 231.078 224.052 231.709 226.503C230.198 227.071 228.64 227.479 227.088 227.91C225.458 228.376 223.827 228.779 222.174 229.148C221.5 226.943 221.179 223.577 219.833 221.754C218.194 221.389 216.166 222.417 214.451 222.191C211.853 221.849 209.349 220.248 206.78 220.054C205.053 220.747 203.354 223.313 202.239 224.806C199.944 223.859 197.268 221.795 195.684 219.84C196.425 217.37 198 215.659 199.043 213.373C197.012 210.541 194.359 207.244 193.583 203.734C193.332 202.598 193.741 201.418 193.386 200.269C192.284 198.993 188.773 198.706 187.13 198.383C187.248 195.326 187.535 192.38 188.044 189.366C189.915 189.543 190.997 189.328 192.526 190.63C193.979 188.154 194.487 185.143 195.851 182.635C196.676 181.117 198.438 179.556 198.84 177.873C197.307 176.203 195.904 174.581 194.649 172.674C195.887 171.416 197.122 170.164 198.474 169.033C199.489 168.182 200.579 167.461 201.574 166.578C203.381 167.835 205.065 170.558 206.203 171.254C207.125 171.818 210.835 169.476 211.988 169.122C213.248 168.736 214.685 169.003 215.934 168.665C217.75 168.173 215.919 163.433 217.038 161.572C217.542 161.115 218.127 161.17 218.763 161.135Z" fill="#FFC34F"/>
<path d="M218.657 175.924C221.185 175.637 224.483 177.222 226.544 178.615C230.616 181.367 234.246 186.01 235.192 191.007C235.962 195.071 234.971 199.993 232.715 203.419C229.368 208.5 223.811 211.011 218.141 212.117C214.047 211.941 210.127 210.864 206.849 208.254C203.67 205.724 201.342 202.483 200.877 198.297C200.308 193.187 201.717 187.725 204.879 183.734C208.508 179.155 212.961 176.541 218.657 175.924Z" fill="#4B2D10"/>
<path d="M217.073 178.752C217.144 178.739 217.213 178.722 217.284 178.712C220.297 178.289 223.286 179.613 225.699 181.365C228.872 183.669 232.332 188.248 232.943 192.242C233.454 195.586 232.734 199.227 230.775 201.97C228.18 205.601 223.944 208.299 219.622 208.992C215.988 209.497 212.81 208.719 209.704 206.693C206.869 204.844 204.25 201.568 203.563 198.131C202.852 194.573 203.85 190.204 205.742 187.176C208.449 182.843 212.133 179.828 217.073 178.752Z" fill="#FFC34F"/>
<path d="M219.757 36.8347L219.889 36.8393C221.016 36.867 221.802 37.9612 222.791 38.4441C224.597 39.3257 226.819 39.8067 228.753 40.35C232.722 41.4651 236.739 42.2841 240.75 43.2116C245.245 44.2668 249.729 45.3702 254.201 46.5219C261.46 48.3667 268.598 50.6986 275.856 52.567C278.159 53.1668 280.467 53.7449 282.78 54.3013C284.028 54.5906 285.495 54.758 286.689 55.2087C288 55.7034 288.98 57.1533 290.465 57.1446C291.198 57.14 291.469 57.1305 292.051 57.6457C292.059 57.924 292.056 58.191 292.032 58.4685C291.503 64.5375 289.948 70.4576 288.664 76.3853C287.717 80.7553 287.017 85.1894 286.113 89.5708C285.835 90.9178 285.407 92.2125 285.114 93.5538C284.438 96.7195 283.794 99.892 283.183 103.071C282.846 104.913 282.619 106.822 282.149 108.633C281.98 109.284 281.827 109.872 281.32 110.303C278.924 110.384 276.29 109.308 273.864 109.029C268.927 108.399 263.835 107.622 259.006 106.402C253.192 104.932 248.682 103.039 242.522 102.491C241.073 104.388 237.036 112.147 234.969 112.438C234.456 112.51 233.887 112.265 233.537 111.886C231.986 110.211 233.224 103.64 233.106 101.226C233.088 100.846 233.013 100.206 232.706 99.9516C231.586 99.0218 218.699 98.0669 216.15 95.5516C215.202 94.6158 215.723 92.1707 215.742 90.8692C214.37 90.5192 212.868 90.5325 211.458 90.4497C211.063 90.198 210.561 89.9284 210.257 89.5616C209.949 89.1911 209.859 88.9352 209.868 88.4466C209.92 85.5622 210.929 81.9512 211.388 79.0361C212.526 71.8221 213.462 64.5845 214.95 57.435C215.681 53.8745 216.467 50.327 217.308 46.7926C217.779 44.7929 218.407 42.7256 218.738 40.7016C218.881 39.8197 218.587 38.9153 218.719 38.0417C218.799 37.5177 219.379 37.151 219.757 36.8347Z" fill="#4B2D10"/>
<path d="M221.181 40.6196C226.711 43.3308 234.079 44.124 240.094 45.6529C250.963 48.4157 261.74 51.4739 272.556 54.444C276.811 55.6123 281.175 56.4559 285.387 57.7726C285.173 61.2871 284.36 64.7015 283.618 68.128C282.003 75.5805 279.922 82.856 278.021 90.2287C277.101 93.7987 276.641 97.5703 275.61 101.081C273.141 100.346 270.601 99.9862 268.067 99.5773C259.262 98.0427 250.381 96.6538 241.63 94.8292C239.288 97.305 237.271 101.976 235.679 105.079C235.703 101.154 236.634 97.3217 235.981 93.4183C232.764 92.5242 229.298 92.1407 226.012 91.2983C221.385 90.1122 217.118 88.3509 212.355 87.6979C212.972 83.6146 213.901 79.5407 214.56 75.4521C215.441 69.991 216.072 64.5181 217.159 59.087C218.395 52.9094 220.062 46.8173 221.181 40.6196Z" fill="#FFC34F"/>
<path d="M221.214 76.5262C221.583 76.5136 222.029 76.473 222.38 76.6101C223.733 77.1382 224.104 80.5369 224.574 81.8669C228.198 80.4918 227.799 78.7081 229.97 77.2369C230.393 76.9502 230.661 76.9912 231.14 77.0789C231.542 77.3329 231.779 77.6484 231.909 78.1181C232.065 78.6792 231.872 79.0376 231.638 79.527C230.67 81.0442 229.122 82.5048 227.6 83.4228C226.433 84.1267 224.662 84.9498 223.287 84.4714C222.681 84.2611 222.379 83.7542 222.117 83.187C221.285 81.3908 220.568 78.4359 221.214 76.5262Z" fill="#4B2D10"/>
<path d="M236.762 50.1221C237.465 50.149 237.84 50.329 238.367 50.7994C238.834 51.2148 238.93 51.5428 238.959 52.1601C238.597 52.7068 238.087 53.0128 237.579 53.3975C235.018 55.3353 233.11 58.179 230.526 60.0659C230.057 60.408 229.558 60.4828 229.007 60.3579C227.939 60.1157 227.445 58.9265 226.935 58.0453L225.643 56.0304C225.653 55.284 225.686 54.6925 225.918 53.9821C226.28 53.601 226.241 53.5846 226.752 53.5713C228.082 54.208 228.709 55.8391 229.632 56.9416L229.775 57.1102C232.107 54.7772 234.494 52.5254 236.762 50.1221Z" fill="#4B2D10"/>
<path d="M235.463 62.657C235.972 62.6634 236.326 62.7325 236.727 63.0871C237.109 63.4243 237.177 63.7459 237.212 64.2364C236.726 65.6134 229.628 71.4527 228.097 72.2903C227.639 72.3419 227.247 72.2565 226.849 72.0127C225.752 71.34 225.52 69.6994 225.221 68.5365C224.954 67.4226 224.32 66.3451 224.298 65.192C224.533 64.6905 224.593 64.5868 225.03 64.2641C225.341 64.2144 225.627 64.1479 225.93 64.2793C227.255 64.8534 227.829 67.4241 228.264 68.7035C230.783 66.9863 233.022 64.5466 235.463 62.657Z" fill="#4B2D10"/>
<path d="M240.505 67.8452C243.158 67.7085 248.101 69.9064 251.041 70.531C253.352 71.0215 255.709 71.3097 258.034 71.7315C260.751 72.2243 263.443 72.8606 266.17 73.3037C268.232 73.6389 270.904 73.6222 272.839 74.3857C273.274 74.5573 273.592 74.8865 273.73 75.3543C273.894 75.9078 273.695 76.2081 273.473 76.6888C273.102 76.8915 272.774 77.0597 272.345 77.0806C270.886 77.152 266.534 76.0001 264.816 75.6644C260.832 74.8861 242.396 71.8575 240.426 69.8639C240.218 69.198 240.396 68.5176 240.505 67.8452Z" fill="#4B2D10"/>
<path d="M242.061 55.6819C242.35 55.6819 242.624 55.6868 242.912 55.7255C245.998 56.1379 249.576 57.6987 252.634 58.5556C259.183 60.3905 265.713 61.9027 272.434 62.8572C273.57 63.0186 274.886 63.1598 275.63 64.1245C275.778 64.828 275.592 65.374 275.412 66.0563C275.183 66.1045 274.981 66.1489 274.746 66.1356C270.965 65.9162 244.162 59.9239 242.401 57.8046C241.861 57.155 241.964 56.4651 242.061 55.6819Z" fill="#4B2D10"/>
<path d="M235.854 80.9368C237.423 80.8331 240.592 81.9368 242.315 82.2789C245.488 82.9091 248.691 83.3609 251.862 83.99C256.012 84.8139 260.146 85.8421 264.276 86.7798C267.148 87.4321 270.178 87.9268 272.962 88.8991C273.168 89.122 273.325 89.1968 273.356 89.5203C273.426 90.2637 273.072 90.8115 272.648 91.3708C272.464 91.3446 272.279 91.3153 272.095 91.291C267.845 90.7322 263.562 89.2275 259.362 88.2886C253.117 86.8922 246.811 85.8831 240.562 84.5337C239.17 84.233 236.933 83.9825 235.732 83.2801C235.297 83.0253 235.179 82.6612 235.043 82.2026C235.235 81.515 235.369 81.4167 235.854 80.9368Z" fill="#4B2D10"/>
<path d="M143.501 0.114956C147.728 -0.48579 154.51 2.81685 158.321 4.69085C166.429 8.67772 175.408 15.2463 178.467 24.29C181.317 32.719 180.217 48.2803 176.401 56.2636C170.065 69.5223 156.643 76.5761 143.593 81.0691C141.626 81.7464 134.811 83.8722 133.01 82.6994C132.58 82.42 132.508 82.0528 132.408 81.5756C132.658 81.0638 132.926 81.2586 133.427 81.3015C136.469 81.5611 141.886 79.5838 144.229 77.6373C144.664 77.2747 144.97 76.9558 145.039 76.3764L144.685 76.1687C142.058 76.1023 134.527 79.4567 131.664 80.6553C131.309 82.62 130.516 84.5286 129.923 86.4307C129.469 87.8853 129.163 89.3538 128.817 90.8368C128.592 91.2552 128.368 91.6975 128.098 92.087C127.814 92.4959 127.479 92.6201 127.007 92.6831C124.402 92.0278 119.995 81.9659 118.205 79.3363L118.038 79.0922C108.564 77.684 99.9244 76.2526 91.5268 71.0831C83.9882 66.4425 77.9982 59.0636 75.8611 50.2341C73.5815 40.8172 75.3076 33.0584 80.2058 24.8394C89.1513 9.82925 108.847 0.977253 125.495 0.251407C127.83 0.149657 130.302 0.170423 132.617 0.48809C134.332 0.723484 136.121 1.24424 137.853 1.20289C139.754 1.15748 141.659 0.56786 143.501 0.114956Z" fill="#4B2D10"/>
<path d="M171.699 17.7144C173.44 19.2926 174.713 21.9309 175.507 24.1357C178.367 32.0783 179.351 43.7526 175.871 51.5624C175.38 51.9656 175.236 52.1562 174.61 52.0909C173.649 50.9504 174.449 48.5755 174.717 47.2004C175.969 40.7909 176.424 32.9967 174.598 26.6616C173.753 23.7306 172.482 20.8906 171.753 17.9433C171.734 17.867 171.717 17.7907 171.699 17.7144Z" fill="#FFC34F"/>
<path d="M125.962 2.6222C129.374 2.25684 132.921 2.6258 136.267 3.31797C147.911 5.72646 159.732 11.68 166.441 22.1345C169.898 27.5235 171.618 31.9572 172.257 38.4028C172.493 40.7883 172.576 43.2622 172.084 45.6207C171.51 48.3687 170.643 51.3179 169.254 53.7562C163.614 63.6605 149.627 70.1281 139.702 74.6036C136.286 76.144 132.752 77.338 129.599 79.4273C128.555 82.2945 127.38 85.565 126.807 88.5602C126.793 88.6335 126.781 88.7067 126.768 88.78C126.337 88.4501 126.07 87.7883 125.803 87.3031C124.372 84.6959 121.75 78.9261 119.531 77.264C117.844 76.0008 114.382 76.196 112.299 75.7559C103.09 73.8094 93.7998 70.247 86.7291 63.6692C81.2162 58.5411 77.7138 51.6069 77.3799 43.9118C77.0375 36.0151 80.2487 27.3014 85.4177 21.4659C87.2099 19.4427 89.0219 17.3678 91.0797 15.6255C100.459 7.68288 113.923 3.19796 125.962 2.6222Z" fill="#FFC34F"/>
<path d="M139.077 19.6971C140.13 19.5813 141.137 19.448 142.074 20.0532C144.769 21.7936 145.831 26.9984 146.455 29.975C147.101 33.0575 149.661 46.582 148.226 48.573C147.11 50.1216 143.214 50.6987 141.468 51.0738C136.786 52.0796 132.046 53.0276 127.28 53.4957C121.232 54.0895 115.18 54.1385 109.123 54.7551C108.019 54.9373 106.812 55.1218 105.822 54.476C103.417 52.9088 102.876 48.0027 102.374 45.3037C101.552 40.8843 100.886 36.4259 100.189 31.9842C99.828 29.6861 99.2019 27.1078 99.206 24.7857C99.2067 24.258 99.3093 23.8263 99.6199 23.3939C100.087 22.7439 100.828 22.3749 101.58 22.2006C104.204 21.5927 107.139 21.8676 109.827 21.6721C114.131 21.3592 118.383 20.7973 122.702 20.5764C128.162 20.2973 133.65 20.3941 139.077 19.6971Z" fill="#4B2D10"/>
<path d="M140.076 22.3732C140.353 22.3576 140.629 22.3967 140.905 22.4206C143.511 24.3968 145.631 40.9206 146.158 44.6076C146.248 45.2333 146.479 46.6779 146.019 47.1825C144.885 48.4289 126.117 51.1565 123.117 51.456C118.119 51.9557 113.098 52.0206 108.096 52.5468C107.863 52.595 107.632 52.554 107.396 52.5362C104.952 50.1454 102.226 28.881 102.029 24.9207C105.437 24.3706 108.872 24.6398 112.294 24.3456C114.871 24.1238 117.434 23.765 120.015 23.5805C124.385 23.2681 128.77 23.1587 133.142 22.8899C135.46 22.7475 137.753 22.4692 140.076 22.3732Z" fill="#FFC34F"/>
<path d="M130.064 40.0093C130.153 39.9906 130.241 39.9671 130.331 39.9534C131.232 39.8179 132.191 39.8312 132.933 40.4379C133.377 40.8005 133.625 41.3518 133.662 41.9296C133.694 42.438 133.556 42.9202 133.218 43.2987C132.412 44.2019 118.058 46.2707 115.476 46.5365C114.954 46.5672 114.429 46.598 113.908 46.5372C113.011 46.4328 112.414 46.262 111.845 45.5156C111.599 44.6549 111.62 43.8636 112.04 43.0663C114.325 42.0363 117.629 42.1483 120.114 41.7523C123.444 41.2208 126.702 40.3498 130.064 40.0093Z" fill="#4B2D10"/>
<path d="M132.173 25.0227C132.509 25.0037 132.823 24.9669 133.138 25.124C133.56 25.3344 133.948 25.8484 134.101 26.2968C134.126 26.3735 134.147 26.4515 134.163 26.5307C134.179 26.6102 134.191 26.6903 134.198 26.771C134.205 26.8515 134.208 26.9324 134.206 27.0136C134.203 27.0946 134.197 27.1751 134.185 27.2551C134.174 27.3354 134.158 27.4146 134.137 27.4928C134.117 27.571 134.092 27.6477 134.062 27.7229C134.033 27.798 133.999 27.8712 133.961 27.9423C133.924 28.0134 133.882 28.082 133.836 28.1481C133.368 28.8296 132.356 29.1113 131.615 29.3167C128.878 30.076 125.773 30.2549 122.962 30.7013C118.598 31.395 114.352 32.3092 109.942 32.7212C109.504 32.6422 108.901 32.586 108.521 32.3377C107.939 31.9588 107.624 31.1664 107.566 30.4739C107.54 30.1618 107.545 29.9978 107.742 29.7583C108.211 29.1876 108.972 28.9329 109.652 28.7461C111.366 28.2764 113.276 28.1428 115.028 27.8022C118.583 27.1116 122.146 26.2463 125.722 25.7129C127.854 25.3947 130.028 25.2323 132.173 25.0227Z" fill="#4B2D10"/>
<path d="M132.975 32.9922C133.939 32.8727 135.393 32.7007 136.221 33.2816C136.651 33.5823 136.928 33.9194 136.998 34.4597C137.083 35.1123 137.004 35.8489 136.57 36.3622C136.172 36.8333 135.423 37.1587 134.835 37.251C132.978 37.5418 130.933 37.5232 129.046 37.6937C123.786 38.169 118.586 38.6326 113.367 39.4952C112.312 39.5502 111.234 39.7378 110.184 39.8695C109.547 39.4265 108.995 39.0073 108.797 38.1998C108.784 38.1481 108.774 38.096 108.767 38.0433C108.76 37.9907 108.756 37.9378 108.755 37.8846C108.754 37.8315 108.756 37.7784 108.76 37.7255C108.765 37.6724 108.773 37.6199 108.783 37.568C108.794 37.5158 108.808 37.4646 108.824 37.4142C108.84 37.3636 108.86 37.3142 108.882 37.2662C108.903 37.2181 108.928 37.1714 108.955 37.1261C108.982 37.0807 109.012 37.0372 109.044 36.9955C110.809 34.7178 129.525 33.2576 132.975 32.9922Z" fill="#4B2D10"/>
<path d="M197.43 77.1267C197.749 77.132 198.02 77.1692 198.334 77.2231C198.622 77.4847 198.831 77.6298 198.957 78.0166C199.114 78.4946 198.8 78.8918 198.46 79.1807C196.796 80.5969 194.184 81.5502 192.25 82.5871C190.037 83.7735 187.892 85.0936 185.749 86.408C185.103 86.7991 184.463 87.1993 183.828 87.6085C183.193 88.0178 182.563 88.4361 181.94 88.8633C181.316 89.2906 180.698 89.7266 180.086 90.1713C179.474 90.6163 178.868 91.0698 178.268 91.532C177.668 91.9942 177.075 92.4649 176.488 92.944C175.901 93.4229 175.32 93.9102 174.746 94.4061C174.172 94.9017 173.605 95.4054 173.044 95.9172C172.484 96.429 171.931 96.9486 171.384 97.4761C170.838 98.0038 170.299 98.5391 169.766 99.0821C169.234 99.625 168.71 100.176 168.193 100.734C167.675 101.291 167.166 101.857 166.664 102.429C166.162 103.001 165.668 103.581 165.182 104.168C164.695 104.754 164.217 105.348 163.747 105.948C163.276 106.548 162.814 107.155 162.36 107.768C161.906 108.382 161.46 109.001 161.023 109.627C160.586 110.253 160.157 110.886 159.737 111.524C158.535 113.384 157.206 115.24 156.369 117.31C156.551 117.88 156.816 118.522 156.857 119.118C156.881 119.458 156.816 119.422 156.609 119.659C156.134 119.673 155.666 119.668 155.191 119.653C151.633 124.139 146.4 137.57 144.338 143.322C147.322 144.705 149.688 146.553 151.443 149.447C153.102 152.183 152.984 155.216 152.299 158.246C151.356 162.422 148.485 167.009 144.861 169.213C143.613 169.971 136.898 171.781 135.356 172.002C134.809 172.081 134.294 172.025 133.764 171.873C130.29 170.876 126.689 167.107 124.923 163.974C123.277 161.057 122.563 157.825 123.458 154.517C124.65 150.104 127.643 145.727 131.584 143.509C134.862 141.664 138.516 141.742 142.036 142.774C144.856 134.057 148.758 125.957 153.138 117.981C146.008 113.833 138.976 109.398 131.67 105.586C128.131 103.74 124.39 102.128 120.756 100.486C115.135 97.9476 109.346 96.1157 103.626 93.881C98.9385 92.0503 94.4082 89.7081 89.5347 88.4187C77.392 85.206 56.5293 84.2003 44.9212 88.9119C34.7227 93.0522 27.3021 101.21 22.9722 111.423C18.4408 122.111 17.1925 137.745 21.3498 148.667C24.9126 145.309 30.9794 142.083 35.5883 140.622C37.7804 139.928 40.0219 139.527 42.2753 139.113C41.9609 136.798 41.355 134.525 41.044 132.203C40.2817 126.515 41.0779 120.146 44.122 115.236C45.347 113.26 46.9451 111.627 48.7066 110.155C52.0735 107.341 61.3607 101.458 65.5172 100.492C65.1353 98.6139 64.3501 96.9237 63.9229 95.0819C63.7284 94.244 63.4281 92.8282 64.0203 92.0871C64.2774 91.7651 64.6789 91.6197 65.0671 91.5639C66.6301 91.3388 74.8273 93.826 76.1309 94.9171C76.6652 95.3644 77.1784 96.0766 77.1928 96.817C77.2123 97.8094 71.6725 105.48 70.6718 106.36C70.2453 106.735 69.7206 107.05 69.1354 106.924C67.6038 106.592 66.7729 103.658 66.1212 102.323C63.2089 103.332 51.7104 110.787 49.1327 113.101C48.5192 113.645 47.9536 114.237 47.4358 114.877C46.9178 115.518 46.4548 116.198 46.047 116.918C42.3125 123.397 43.1712 131.589 44.9308 138.554C47.334 138.409 54.1505 137.512 56.0861 138.017C56.6285 138.67 60.5939 145.474 60.7762 145.997C60.9795 146.581 60.9622 147.263 61.0135 147.875C61.1998 150.104 62.9628 152.924 63.8358 154.986C69.7774 169.017 76.1231 183.053 84.1624 195.967C85.2911 197.78 86.4184 200.03 88.0264 201.434C89.1765 198.762 90.7638 196.208 92.8268 194.181C94.8122 192.229 97.4135 190.969 100.206 191.082C108.999 191.438 121.233 204.775 126.722 211.344C129.227 214.342 131.506 217.811 134.289 220.527C137.084 223.255 141.293 224.011 143.887 227.011C146.938 230.538 146.254 236.201 146.002 240.545C146.566 240.678 147.13 240.786 147.706 240.848C151.737 241.274 155.843 241.17 159.89 241.197L172.125 241.387C177.239 241.435 182.338 241.593 187.457 241.567C202.49 241.5 217.483 240.67 232.436 239.077C240.169 238.198 248.029 237.205 255.562 235.134C264.274 232.739 273.243 228.674 280.175 222.692C285.04 218.493 289.64 210.882 290.177 204.271C290.477 200.576 288.363 189.42 285.948 186.819C285.641 186.488 285.453 186.367 285.001 186.347C284.557 187.389 285.225 188.733 284.815 189.774C284.718 190.021 284.519 190.078 284.291 190.164C281.962 191.051 274.229 190.849 271.893 189.784C271.159 188.718 271.769 183.686 271.87 182.19C270.082 181.116 268.376 179.875 266.629 178.732C265.021 179.504 263.57 179.89 261.814 180.148C259.12 179.048 257.514 175.641 256.221 173.103C255.852 172.382 255.269 171.284 255.568 170.457C256.143 168.864 258.331 167.82 259.716 167.107C258.828 166.882 257.93 166.709 257.024 166.588C256.117 166.466 255.206 166.396 254.292 166.379C251.903 163.207 252.275 159.285 252.347 155.489L253.396 154.528C255.402 154.526 257.345 154.96 259.317 155.284C260.379 152.703 261.485 150.126 262.752 147.644C261.7 146.101 259.771 145.427 258.274 144.38L258.095 142.445C259.03 140.725 261.538 137.06 263.383 136.401C264.383 136.043 266.085 138.162 266.949 138.729C267.603 139.157 268.372 139.469 269.08 139.793C270.914 139.296 272.639 138.753 274.336 137.867C274.182 136.58 273.84 134.996 273.965 133.719C274.036 132.994 274.289 132.448 274.884 132.014C276.419 130.897 283.772 130.652 285.759 131.048C290.66 132.026 289.348 135.321 291.508 138.275C293.981 141.657 296.972 136.31 299.42 136.817C301.639 137.277 303.713 140.315 304.882 142.158C308.032 147.124 305.431 146.519 304.511 151.003C307.233 150.845 309.172 150.756 311.737 151.904C312.069 152.753 312.377 153.6 312.617 154.481C313.052 156.078 314.544 162.525 313.586 163.802C312.568 165.158 309.333 165.161 307.793 165.354C307.575 168.432 306.311 171.413 305.256 174.273C306.391 175.871 309.143 176.966 309.755 178.254C310.089 178.956 309.848 179.834 309.7 180.554C309.68 180.648 309.631 180.741 309.639 180.838C309.653 180.994 311.572 183.456 311.812 183.795C313.915 186.764 316.291 190.129 317.857 193.432C324.61 207.685 321.411 227.068 316.576 241.547C314.207 248.643 310.895 255.8 307.36 262.364C306.316 264.303 305.108 266.148 304.027 268.066C300.769 273.842 297.303 279.859 293.169 285.032C289.646 289.442 285.551 293.519 281.653 297.572C277.422 301.972 272.779 306.58 267.798 310.079C263.982 312.76 259.705 315.217 255.489 317.145C253.031 318.27 250.496 319.148 248.071 320.366C246.907 320.298 244.484 320.161 243.631 319.309C243.421 319.1 243.509 318.98 243.53 318.711C244.245 317.858 245.85 317.936 246.874 317.873C248.673 317.762 250.676 316.492 252.364 315.779C258.635 313.134 265.202 309.481 270.47 305.055C273.422 302.573 276.158 299.651 278.888 296.907C281.5 294.282 284.164 291.677 286.61 288.887C291.191 283.66 295.146 277.779 298.878 271.894C306.373 260.077 313.397 246.985 316.706 233.188C317.533 229.741 317.982 226.192 318.406 222.673C318.853 218.96 319.254 215.151 319.051 211.407C318.724 205.344 317.18 198.397 314.323 193.105C313.304 191.217 311.975 189.523 310.825 187.719C309.521 185.673 308.439 183.478 306.638 181.834C303.674 183.663 296.491 187.253 293.331 187.988C292.444 187.16 291.918 186.16 291.178 185.211C290.818 185.305 290.85 185.215 290.681 185.485C289.726 187.01 291.261 191.237 291.539 192.982C293.001 202.158 293.218 209.467 287.647 217.389C280.314 227.814 265.629 235.118 253.791 238.349C249.861 239.421 245.829 240.066 241.819 240.727C238.885 241.05 235.964 241.503 233.027 241.815C228.414 242.306 223.792 242.537 219.172 242.921C214.42 243.316 209.713 243.812 204.946 244.069C192.931 244.718 180.864 244.738 168.838 244.894C162.681 244.973 156.514 245.249 150.35 245.348C148.755 255.822 146.642 266.013 143.896 276.236C142.674 280.789 141.574 285.445 139.366 289.617C141.128 290.189 142.886 290.57 144.73 290.71C145.656 289.676 146.95 288.188 148.245 287.698C149.016 287.406 149.722 287.339 150.476 287.708L150.567 288.312C150.024 289.427 148.419 290.229 147.537 291.125L147.372 291.295C151.142 291.752 156.243 292.597 159.947 292.275C159.908 291.783 159.889 291.7 160.229 291.301C161.113 290.264 163.594 288.813 164.914 288.644C165.008 288.725 165.118 288.79 165.194 288.887C165.453 289.216 165.482 289.603 165.303 289.974C164.751 291.113 162.197 291.931 161.081 292.422C171.742 292.882 182.356 292.445 193.01 292.244C200.695 292.099 208.386 292.136 216.072 292.071C220.336 292.034 224.645 291.688 228.905 291.831C229.783 291.86 230.922 291.901 231.701 292.332C232.046 292.523 232.033 292.537 232.154 292.942C229.794 295.127 225.247 293.9 222.377 294.871L222.334 295.427L222.258 295.047C222.049 295.741 221.779 296.27 221.406 296.886C224.567 296.596 229.101 296.017 232.141 296.316C232.623 296.364 232.931 296.391 233.263 296.774C233.169 296.957 233.173 296.976 233.007 297.146C231.712 298.47 223.17 298.918 220.94 299.225C212.866 300.339 204.819 301.502 196.695 302.206C189.773 302.749 182.84 303.065 175.898 303.155C168.956 303.245 162.018 303.109 155.084 302.746C150.291 302.477 145.365 301.788 140.618 301.049C136.973 300.482 133.663 299.799 129.961 299.836C129.235 301.795 128.325 303.655 127.335 305.486C126.435 307.15 125.563 308.76 123.657 309.281C119.719 310.358 115.567 308.911 111.742 307.997C108.149 307.139 104.526 306.459 101.004 305.311C87.7917 301.002 75.5309 293.362 63.6406 286.193C61.0614 284.638 58.4697 283.042 56.0474 281.236C45.1766 273.13 34.9942 260.944 29.4725 248.35C26.852 242.372 25.1757 236.299 23.5703 229.979C24.1219 228.497 24.8248 226.997 25.6668 225.666C26.3771 224.543 27.7069 222.695 29.0895 222.553C29.7581 222.485 30.1861 222.686 30.6805 223.151C31.5041 225.296 27.7951 227.886 27.4412 230.061C27.1003 232.158 28.5884 236.716 29.2518 238.785C32.6663 249.428 38.9368 259.127 46.5532 267.065C48.2018 268.783 49.9297 270.438 51.6451 272.086C52.6115 273.014 53.6011 273.752 54.4014 274.851L54.5637 275.076C55.0419 273.52 55.5474 271.881 56.547 270.583C57.0148 269.974 57.4451 269.58 58.2137 269.489C58.69 269.717 58.6856 269.731 58.9217 270.217C58.9704 271.339 56.6795 274.5 56.0145 276.091C59.2033 279.013 63.0229 280.913 66.647 283.18C68.8557 284.561 71.022 286.036 73.2801 287.329C75.4497 288.572 77.7186 289.634 79.9088 290.84C91.3398 297.138 102.475 302.468 115.398 304.665C117.724 305.061 120.174 305.539 122.532 305.528C125.872 301.957 127.313 295.981 129.021 291.428C130.735 286.859 132.636 282.389 134.221 277.763C136.302 271.691 137.834 265.401 139.448 259.184C140.406 255.496 141.54 251.809 142.319 248.08C141.799 247.55 141.313 246.976 140.817 246.422C141.018 245.437 141.411 244.506 141.615 243.52C142.15 240.937 142.421 237.959 142.396 235.316C142.377 233.346 142.163 231.199 140.849 229.656C139.438 227.999 137.256 227.185 135.406 226.179C133.969 225.398 132.349 224.563 131.12 223.457C128.919 221.474 127.165 218.476 125.279 216.142C123.228 213.605 120.823 211.215 118.521 208.915C114.691 205.088 104.682 194.839 99.5119 195.096C97.594 195.191 95.9195 196.458 94.6473 197.842C92.7703 199.885 90.9203 203.374 91.052 206.219C91.3937 213.6 97.3471 216.973 102.662 220.507C106.055 222.763 109.795 225.21 112.756 228.025C112.807 228.074 112.856 228.123 112.907 228.172C111.982 230.73 110.47 232.962 108.216 234.461C102.543 238.236 93.057 235.091 87.9242 231.552C84.8417 229.426 81.9862 226.469 79.1093 224.025C75.4121 220.883 71.6242 217.849 68.3218 214.257C64.2254 209.801 58.6395 199.622 52.9292 198.49C50.1234 197.934 48.1107 199.062 45.8761 200.617C45.4481 201.551 45.1267 202.526 44.7888 203.497C45.2976 205.513 45.8057 207.503 46.62 209.418C49.4799 216.145 55.6633 224.042 60.9552 229.004C62.3137 230.279 63.8207 231.395 65.2416 232.596C67.4204 234.436 78.7543 244.086 78.9015 245.661L78.5145 245.882C77.371 245.955 76.2999 245.407 75.2778 244.942C71.1142 243.049 68.362 240.221 64.8833 237.288C61.626 234.542 58.3273 231.906 55.3843 228.786C52.7174 225.957 50.157 222.803 47.8992 219.62C46.5832 217.798 45.3933 215.892 44.3294 213.903C43.5678 212.46 42.8985 210.782 41.9675 209.454C41.7657 209.166 41.5672 208.992 41.2359 208.876C40.7473 208.704 40.2728 208.82 39.8256 209.048C37.0192 210.477 35.2009 214.367 34.2721 217.226C35.5935 225.855 39.2729 233.593 44.2541 240.597C47.6856 245.422 55.5622 250.808 60.4884 253.937C61.4972 254.577 62.9528 255.72 64.1096 255.905C64.0719 255.686 64.0085 255.423 64.0376 255.2C64.1332 254.471 66.7444 249.689 67.2791 249.202C67.7451 249.156 67.9635 249.297 68.3676 249.521C68.6753 249.98 68.8166 250.247 68.6919 250.838C68.2598 252.889 66.0891 255.203 64.4815 256.365C65.3143 256.97 66.2135 257.467 67.0979 257.986C67.8875 255.93 69.2398 252.267 71.0058 250.905C71.3976 250.603 71.6197 250.589 72.092 250.63C72.5381 250.974 72.5854 251.055 72.8012 251.586C72.802 252.482 71.9249 253.305 71.4415 254.023C70.891 254.84 70.3398 255.683 69.9516 256.597C69.3269 258.068 69.0716 259.958 67.9569 261.142C67.7104 261.186 67.5008 261.192 67.2551 261.132C64.7889 260.535 56.6023 256.144 54.311 254.631C52.9985 253.764 51.8927 252.716 50.6492 251.766C47.5151 249.37 43.9364 247.038 41.3403 244.027C39.16 241.498 35.7554 235.513 34.3201 232.362C33.4715 230.498 32.8243 228.534 32.2369 226.568C31.7421 224.911 31.4598 222.338 30.551 220.925C29.9761 221.213 29.5208 221.578 28.8773 221.507C24.564 218.781 4.86801 173.901 2.95784 167.301C2.6351 166.185 2.25402 165.473 1.24368 164.92L0.612874 164.576C0.218584 164.363 0.31223 164.41 0.178955 164.017C0.311308 163.516 0.3785 163.381 0.776 163.028C1.9257 162.006 3.37136 161.208 4.61142 160.284C7.60309 158.054 10.4959 155.712 13.5618 153.581C15.3144 152.363 17.3073 151.455 18.8474 149.947C18.9083 149.887 18.968 149.826 19.0285 149.765C17.8474 147.524 17.091 145.017 16.5409 142.541C14.0698 131.421 17.5382 114.054 23.4596 104.53C29.519 94.7831 39.0106 87.2277 50.0873 84.7474C61.3367 82.2287 76.7264 83.1315 87.9441 85.7467C93.8743 87.1294 99.3732 89.7016 105.048 91.8695C109.474 93.5609 114.005 94.9422 118.393 96.7429C127.365 100.425 135.72 104.922 144.125 109.781C147.529 111.748 150.913 113.63 154.2 115.804C157.227 110.89 160.331 106.008 164.034 101.595C172.934 90.9902 185.384 83.3115 197.43 77.1267Z" fill="#4B2D10"/>
<path d="M81.4186 213.035C83.7756 214.151 87.0651 217.931 88.9369 219.93C87.3997 219.281 86.4618 217.088 84.9095 216.615C84.4346 216.47 83.7675 216.517 83.2576 216.444C82.399 215.501 81.8724 214.226 81.4186 213.035Z" fill="#FFC34F"/>
<path d="M102.423 225.728C103.756 226.528 106.471 228.221 107.39 229.469L107.237 229.826C106.867 230.068 106.506 230.262 106.105 230.446C104.784 229.714 103.024 227.121 102.423 225.728Z" fill="#FFC34F"/>
<path d="M89.2906 220.43C91.6233 221.505 100.006 229.22 102.528 231.382C101.622 231.435 100.71 231.433 99.8032 231.451C98.4944 229.934 97.427 228.222 96.0378 226.76C93.9191 224.531 91.4702 222.611 89.2906 220.43Z" fill="#FFC34F"/>
<path d="M138.368 292.002C139.865 292.693 141.219 292.887 142.831 293.066C142.071 293.943 141.265 294.762 140.45 295.584C140.307 295.803 140.153 296.061 139.933 296.209C139.165 296.727 137.493 296.211 136.638 296.048C137.18 294.679 137.739 293.332 138.368 292.002Z" fill="#FFC34F"/>
<path d="M57.4642 165.557C58.8892 166.285 60.8688 169.03 62.1189 170.241C64.242 172.297 66.095 174.044 69.1708 173.942C70.1508 175.886 71.1917 177.801 72.1902 179.735C70.0361 178.825 64.463 173.305 62.3554 171.435C61.4411 170.623 60.3153 169.984 59.4682 169.108C58.6143 168.226 58.0251 166.669 57.4642 165.557Z" fill="#FFC34F"/>
<path d="M66.5283 94.8254L73.9806 96.9239C73.2808 98.0153 72.5588 99.091 71.8147 100.151C71.2988 101.021 70.7162 101.853 70.1565 102.694C68.6773 100.457 67.1272 97.4694 66.5283 94.8254Z" fill="#FFC34F"/>
<path d="M72.9832 196.43C74.7044 197.089 77.257 199.483 78.9304 200.626C81.0811 202.095 83.7237 203.248 85.7111 204.878C87.325 206.202 87.5548 208.337 87.7703 210.28C86.8139 209.505 85.9505 208.343 85.031 207.478C82.7338 205.319 76.8342 200.19 74.234 199.144C73.7916 198.254 73.396 197.335 72.9832 196.43Z" fill="#FFC34F"/>
<path d="M77.204 204.64C77.9334 204.888 78.5902 205.47 79.2042 205.934C82.566 208.478 85.4344 212.475 89.4448 213.845C90.254 214.842 90.7909 216.032 91.6008 217.041C92.4129 218.053 93.3737 218.882 94.2689 219.809C95.0913 220.66 95.761 221.66 96.5742 222.514C97.1181 223.085 97.8229 223.571 98.4158 224.098C95.7293 223.19 84.6252 211.992 81.6897 209.567C80.9285 208.938 79.7049 208.757 79.074 208.048C78.3272 207.21 77.7287 205.668 77.204 204.64Z" fill="#FFC34F"/>
<path d="M68.2856 187.375C71.4876 189.607 74.8509 191.447 78.548 192.636C79.9428 195.007 81.2947 197.404 82.6038 199.826C81.857 199.983 75.1117 194.728 73.8605 193.901C72.9193 193.28 71.9585 192.773 70.9382 192.305C69.9077 190.728 69.09 189.081 68.2856 187.375Z" fill="#FFC34F"/>
<path d="M53.4524 155.253C53.7524 155.492 53.6653 155.395 53.8763 155.649C55.6928 157.836 59.6191 162.305 62.2625 163.057C62.9425 163.251 63.4159 162.83 63.9672 162.475L64.1963 162.325C65.6246 163.657 66.8939 168.73 67.5134 170.685L67.5599 170.922C66.0622 171.59 59.3988 163.316 57.9074 162.325C57.5207 162.068 57.0798 161.961 56.64 161.839L56.4005 161.776C54.9899 160.089 54.2486 157.311 53.4524 155.253Z" fill="#FFC34F"/>
<path d="M61.5895 174.64C65.5261 176.92 69.2008 182.134 73.844 183.079C74.3443 184.136 76.6836 188.492 76.5681 189.353C75.0967 188.369 73.3839 187.659 71.8556 186.749C70.3365 185.844 68.9369 184.679 67.357 183.899L66.9784 184.118C65.8006 182.433 64.9689 180.549 63.9978 178.735C63.2488 177.338 62.3887 176.007 61.5895 174.64Z" fill="#FFC34F"/>
<path d="M219.227 294.781C219.561 294.764 219.899 294.779 220.233 294.781L220.273 294.985C218.689 296.092 217.017 297.201 215.098 297.57C214.619 297.662 214.358 297.705 213.937 297.421C214.226 296.983 214.54 296.625 214.514 296.069C214.168 295.642 213.627 295.581 213.127 295.449L212.849 295.377C212.281 295.758 211.773 296.111 211.335 296.652C211.086 296.959 210.783 297.454 210.436 297.647C209.135 298.37 202.058 298.759 200.222 298.948C200.55 298.728 200.887 298.507 201.187 298.249C201.71 297.798 202.291 297.058 202.334 296.331C202.353 296.016 202.231 295.98 202.046 295.76C201.776 295.682 201.525 295.609 201.241 295.642C199.761 295.815 198.348 297.233 197.474 298.384L197.062 299.085C195.677 300.083 191.792 299.774 190.037 299.833C191.141 298.937 193.058 298.247 193.617 296.863C193.852 296.278 193.554 295.635 193.368 295.074C201.976 294.793 210.619 295.089 219.227 294.781Z" fill="#FFC34F"/>
<path d="M54.4591 140.266L54.6373 140.234C55.6192 141.144 62.6674 158.584 63.9064 161.123C62.1073 159.853 60.3056 158.781 58.6603 157.279C57.6386 156.347 54.4761 152.548 53.523 152.164C53.2961 152.073 53.2123 152.19 53.0124 152.291C52.8496 152.69 52.8699 152.918 52.9341 153.332C52.9843 153.654 53.0297 153.908 52.991 154.236C51.6003 151.597 50.7767 148.21 49.9318 145.334L49.1222 142.544C51.1505 146.141 55.9081 154.195 59.5595 155.637C60.0292 155.823 60.2923 155.882 60.7554 155.685C60.7952 155.492 60.8137 155.47 60.7804 155.243C60.6059 154.056 59.006 152.548 58.2301 151.681C55.3292 148.437 54.4104 147.034 52.2939 143.19C51.9759 142.612 51.6512 142.007 51.1306 141.594C50.7431 141.287 50.5871 141.205 50.1048 141.274C49.8698 141.651 49.7008 141.991 49.2942 142.194C48.7761 141.885 48.5444 141.275 48.2407 140.748C50.3059 140.796 52.4054 140.476 54.4591 140.266Z" fill="#FFC34F"/>
<path d="M146.155 293.841C150.684 294.817 155.645 294.967 160.256 295.282C159.25 295.931 157.115 296.654 156.801 297.846C157.012 298.323 157.067 298.403 157.58 298.594C158.271 298.852 159.315 298.517 159.916 298.15C160.906 297.547 161.447 296.618 161.786 295.52C164.187 295.826 166.657 295.487 169.068 295.611C169.009 295.625 168.949 295.639 168.891 295.655C167.813 295.946 166.301 296.912 165.731 297.933C165.54 298.276 165.573 298.401 165.558 298.781C165.863 299.224 165.916 299.284 166.398 299.501C167.337 299.482 168.094 299.067 168.745 298.371C169.219 297.863 169.849 297.082 169.802 296.339C169.778 295.973 169.5 295.776 169.279 295.508C171.469 295.895 174.359 295.431 176.616 295.375L191.944 295.095C191.325 295.815 189.253 297.63 189.109 298.498C189.048 298.869 189.134 299.409 189.145 299.795C188.282 300.146 181.884 300.337 181.033 300.102C181.493 299.719 182.166 299.264 182.409 298.696C182.535 298.403 182.407 298.281 182.303 298.005C181.92 297.742 181.689 297.499 181.196 297.579C180.023 297.767 178.839 299.337 178.093 300.208C168.489 300.486 158.482 299.773 148.975 298.391C149.8 297.783 150.57 297.434 150.798 296.389C150.655 295.92 150.696 295.863 150.291 295.62C147.822 295.57 146.716 296.985 144.715 297.39C144.254 297.483 144.159 297.287 143.821 297.003C144.243 296 145.417 295.088 146.016 294.079L146.155 293.841Z" fill="#FFC34F"/>
<path d="M135.536 144.613C138.465 144.071 141.925 145.163 144.418 146.717C146.776 148.185 148.952 150.742 149.552 153.553C150.238 156.768 149.06 160.755 147.344 163.451C145.275 166.705 142.849 167.715 139.27 168.476C138.259 168.741 137.21 169.052 136.17 169.16C134.191 169.365 132.254 168.239 130.775 166.983C128.28 164.864 126.071 161.555 125.814 158.154C125.55 154.635 127.469 150.694 129.612 148.051C131.243 146.038 132.977 144.869 135.536 144.613Z" fill="#FFC34F"/>
<path d="M129.906 150.934C133.371 151.457 135.637 156.365 137.753 158.972C139.35 157.776 145.046 152.62 146.454 152.344C146.799 152.276 146.662 152.264 146.967 152.466C146.981 152.551 147 152.635 147.007 152.721C147.095 153.678 146.381 154.349 145.838 155.04C144.327 156.927 140.274 160.753 138.194 161.907C137.6 162.236 137.149 162.396 136.495 162.194C136.069 161.573 136.059 161.44 136.062 160.683C136.065 159.764 130.333 153.783 129.493 152.104C129.511 151.526 129.597 151.427 129.906 150.934Z" fill="#4B2D10"/>
<path d="M280.632 133.846L280.912 133.82C282.038 135.245 282.206 138.279 283.197 140.07C286.45 140.549 289.654 141.019 292.764 142.151L295.923 141.223C295.525 141.825 295.153 142.368 294.919 143.059C295.103 143.749 295.178 144.388 295.219 145.1C295.016 145.435 294.905 145.667 294.836 146.057C296.294 148.565 297.495 151.534 299.29 153.782C301.352 153.52 303.109 153.328 305.203 153.498C305.415 154.685 305.452 155.906 305.56 157.107C305.648 158.068 305.668 159.86 306.403 160.487C306.949 160.527 307.461 160.46 308.001 160.393L308.26 160.614L308.25 161.09C307.374 161.955 302.216 162.458 300.77 162.748C300.873 163.957 301.101 165.181 301.076 166.395C301.004 169.858 299.576 172.2 297.183 174.515C298.262 176.176 299.461 177.975 300.795 179.43C301.189 179.86 301.532 180.302 301.874 180.778C299.252 182.086 296.654 183.446 293.927 184.51C293.052 182.939 292.275 181.413 291.723 179.688C290.924 179.688 281.147 181.126 280.749 181.321C280.517 181.435 280.13 181.687 280.111 181.976C280.031 183.145 281.399 184.645 280.616 187.184L280.001 187.36C277.783 187.311 275.578 187.516 273.352 187.429C273.642 185.853 274.266 182.767 273.686 181.244C273.675 181.215 267.959 175.777 267.575 175.464C267.167 175.131 266.678 174.895 266.211 174.663C264.347 175.329 262.706 175.83 260.729 175.912C259.67 174.242 258.778 172.436 257.839 170.692C259.387 169.92 261.003 169.3 262.604 168.654C262.206 167.422 262.297 165.788 261.486 164.738C261.256 164.44 261.058 164.319 260.707 164.213C260.458 164.137 256.193 164.158 255.279 164.081C254.636 161.736 254.497 159.174 254.692 156.754C256.438 157.039 258.687 158.215 260.42 157.875C261.814 156.587 264.784 148.986 265.467 146.806C264.21 145.313 262.766 144.171 261.239 142.987L263.378 139.533C264.978 140.385 266.403 141.781 268.072 142.442C268.204 142.494 268.573 142.657 268.719 142.652C269.812 142.617 275.669 139.895 277.093 139.286C276.921 138.083 276.679 136.842 276.613 135.629C276.593 135.264 276.642 134.857 276.907 134.592C277.717 133.783 279.569 133.937 280.632 133.846Z" fill="#FFC34F"/>
<path d="M278.428 147.05C281.935 146.729 285.272 147.442 288.374 149.173C291.774 151.07 294.345 154.159 295.445 158.001C296.325 161.076 295.891 164.35 294.38 167.133C292.478 170.636 289.158 173.091 285.453 174.199C284.928 174.331 284.4 174.452 283.87 174.561C280.35 175.262 276.756 174.655 273.797 172.528C270.932 170.469 269.105 167.172 268.532 163.649C267.897 159.748 268.707 155.144 270.956 151.901C272.801 149.241 275.281 147.569 278.428 147.05Z" fill="#4B2D10"/>
<path d="M280.065 149.116C282.973 149.434 284.999 149.61 287.662 151.083C290.516 152.661 292.531 155.349 293.426 158.541C294.153 161.134 294.061 163.794 292.726 166.175C292.623 166.355 292.517 166.532 292.406 166.707C292.295 166.882 292.18 167.054 292.06 167.223C291.941 167.392 291.818 167.558 291.69 167.72C291.563 167.883 291.432 168.042 291.297 168.198C291.162 168.354 291.023 168.506 290.88 168.655C290.738 168.804 290.592 168.949 290.443 169.09C290.293 169.231 290.141 169.369 289.985 169.502C289.828 169.636 289.669 169.765 289.507 169.89C289.344 170.016 289.179 170.137 289.011 170.253C288.843 170.37 288.672 170.482 288.498 170.59C288.324 170.698 288.148 170.802 287.97 170.901C287.791 171 287.61 171.094 287.426 171.184C287.243 171.274 287.058 171.359 286.87 171.439C286.683 171.519 286.494 171.594 286.303 171.665C286.112 171.735 285.919 171.801 285.725 171.862C285.531 171.922 285.335 171.978 285.138 172.028C282.645 172.545 280.106 172.673 277.713 171.63C275.145 170.51 272.997 168.221 271.967 165.556C270.755 162.419 271.1 158.654 272.365 155.59C273.84 152.02 276.766 150.469 280.065 149.116Z" fill="#FFC34F"/>
<path d="M45.9577 141.177C46.0547 141.217 46.1824 141.213 46.2484 141.296C46.368 141.447 47.4989 146.385 47.6992 147.101C49.343 152.972 51.8757 158.667 54.2571 164.257C55.4271 167.003 56.4931 169.841 57.8048 172.515C59.1874 175.332 60.7662 178.051 62.179 180.854L76.5238 208.795C78.8237 213.227 80.5737 217.896 82.7854 222.367C79.5517 219.267 76.1172 216.565 73.0395 213.263C67.2067 207.003 61.0692 196.201 52.7937 193.677C50.2212 192.893 48.3667 193.168 46.0311 194.474C42.935 196.205 41.034 198.11 39.8754 201.599C40.1241 202.616 40.434 203.641 40.4857 204.692C38.8227 204.739 37.3446 205.442 35.989 206.407C32.5069 208.886 30.9281 213.488 30.1757 217.59C28.9363 214.203 26.8859 211.455 25.2875 208.281L14.0281 185.871C12.3024 182.518 10.3542 179.287 8.63993 175.937C7.69399 174.044 6.82615 172.114 6.03639 170.146C5.24665 168.179 4.53774 166.181 3.90967 164.153C8.24446 161.25 12.3009 157.806 16.5357 154.738C19.7281 152.424 23.2865 150.342 26.6516 148.304C29.5477 146.551 32.408 144.806 35.5908 143.648C39.005 142.407 42.4085 141.804 45.9577 141.177Z" fill="#FFC34F"/>
<path d="M15.6285 159.381L16.3616 159.431C16.9712 159.47 17.4782 159.543 18.0456 159.798C19.3518 160.387 20.4149 161.497 20.9015 162.88C20.9559 163.033 21.0024 163.188 21.041 163.345C21.0799 163.503 21.1105 163.662 21.1329 163.823C21.1555 163.983 21.1698 164.145 21.1757 164.307C21.1818 164.469 21.1796 164.632 21.169 164.794C21.1587 164.956 21.1401 165.117 21.1133 165.277C21.0865 165.437 21.0517 165.595 21.0089 165.751C20.9659 165.908 20.9152 166.061 20.8569 166.212C20.7983 166.363 20.7323 166.51 20.6587 166.654C19.8418 168.269 18.4593 168.987 16.8575 169.521C15.4414 169.68 14.1736 169.619 12.946 168.786C11.8959 168.074 11.235 166.894 11.0354 165.629C11.0074 165.448 10.9878 165.267 10.9768 165.084C10.9659 164.902 10.9637 164.719 10.9701 164.536C10.9768 164.354 10.9919 164.172 11.0155 163.991C11.0394 163.81 11.0717 163.63 11.1125 163.452C11.1536 163.274 11.2029 163.099 11.2605 162.926C11.3181 162.753 11.3837 162.583 11.4575 162.417C11.5311 162.251 11.6125 162.088 11.7018 161.93C11.7908 161.772 11.8873 161.619 11.9911 161.47C12.9589 160.107 14.0485 159.605 15.6285 159.381Z" fill="#4B2D10"/>
<path d="M15.9391 162.008C16.7457 162.063 17.6246 162.206 18.1467 162.917C18.4503 163.33 18.4917 163.784 18.3983 164.278C18.2692 164.965 17.6629 165.607 17.1036 165.959C16.128 166.572 15.421 166.589 14.3432 166.293L13.9071 165.778L14.0119 165.623C14.6473 165.637 15.2033 165.65 15.8029 165.402C16.2143 165.232 16.415 165.116 16.577 164.679C16.1616 164.092 15.3207 163.938 14.6602 163.712L14.6152 163.427L15.9391 162.008Z" fill="#FFC34F"/>
<path d="M35.4795 149.335C36.2436 149.267 37.9885 149.913 38.6202 150.359C39.6061 151.055 40.2209 152.209 40.4046 153.411C40.6227 154.838 40.2304 156.332 39.3984 157.488C38.3298 158.974 36.962 159.605 35.2301 159.883C34.7006 159.886 34.1309 159.913 33.6054 159.84C31.9137 159.603 30.8019 158.226 29.857 156.896C29.7884 155.065 29.9194 153.355 30.9868 151.798C32.1074 150.164 33.6586 149.646 35.4795 149.335Z" fill="#4B2D10"/>
<path d="M34.6437 151.975C35.5341 151.907 36.4336 151.936 37.3266 151.937C37.7077 152.478 38.1398 153.13 38.2302 153.808C38.3427 154.652 38.0047 155.576 37.4922 156.228C36.8568 157.036 35.968 157.542 34.9633 157.65C33.8423 157.771 33.3903 157.496 32.5546 156.77L32.8095 156.558C33.4102 156.492 34.1183 156.442 34.6699 156.171C35.1267 155.947 35.4319 155.653 35.6245 155.17L35.4817 154.879C34.785 154.636 34.06 154.717 33.3346 154.737C33.9511 154.368 34.7186 154.154 35.2739 153.707C35.6252 153.423 35.6293 153.345 35.6772 152.918L35.3673 152.568C34.9544 152.544 34.56 152.505 34.1519 152.435L34.6437 151.975Z" fill="#FFC34F"/>
</g>
<defs>
<clipPath id="clip0_486_597">
<rect width="321.07" height="320" fill="white" transform="translate(0.464844 0.31958)"/>
</clipPath>
</defs>
</svg>
