<svg width="368" height="320" viewBox="0 0 368 320" fill="none" xmlns="http://www.w3.org/2000/svg">
<g clip-path="url(#clip0_486_546)">
<path d="M69.7613 301.548C70.8305 301.539 71.6776 301.669 72.4791 302.427C73.0278 302.945 73.263 303.534 73.2779 304.293C73.2968 305.26 72.7249 305.874 72.1091 306.531C72.0117 306.547 71.9151 306.569 71.8172 306.579C71.0579 306.658 70.2766 306.388 69.6854 305.908C69.0647 305.405 68.725 304.607 68.7136 303.816C68.7 302.82 69.0814 302.233 69.7613 301.548Z" fill="#4B2D10"/>
<path d="M205.505 11.5652C206.149 11.57 206.704 11.5498 207.168 12.0682C207.663 12.6226 207.718 13.3781 207.627 14.0813C207.367 16.0917 206.067 18.2527 204.514 19.5033C203.858 19.4449 203.249 19.3404 202.818 18.786C202.505 18.3844 202.472 17.8493 202.512 17.3616C202.667 15.4609 204.082 12.8026 205.505 11.5652Z" fill="#4B2D10"/>
<path d="M191.454 16.4589C191.95 16.4233 192.498 16.3847 192.978 16.5409C194.705 17.1024 196.344 19.2392 197.026 20.8058C197.573 22.0643 197.225 22.9436 196.748 24.1647C196.199 24.0998 195.645 24.0361 195.147 23.7798C193.562 22.9624 191.272 20.0346 190.889 18.3235C190.714 17.5387 191.04 17.0747 191.454 16.4589Z" fill="#4B2D10"/>
<path d="M209.635 21.9229C209.963 21.9378 210.293 21.9536 210.62 21.9905C211.568 22.0976 212.277 22.6032 212.826 23.3714C213.518 24.3419 213.839 25.5065 213.561 26.6829C213.315 27.7254 212.745 28.5673 211.825 29.1046C211.295 29.0366 210.752 28.9905 210.232 28.8628C208.802 28.5112 208.147 26.9217 207.508 25.7519C207.545 25.5005 207.589 25.2501 207.64 25.0008C207.946 23.5242 208.388 22.767 209.635 21.9229Z" fill="#4B2D10"/>
<path d="M56.8072 310.32C57.4059 310.327 58.0138 310.316 58.5436 310.644C59.2625 311.088 59.665 311.849 59.838 312.656C60.2975 314.796 59.4346 317.483 58.3162 319.303C57.9668 319.223 57.6157 319.141 57.2747 319.029C55.954 318.596 55.5651 317.665 54.9866 316.506C55.1196 314.241 55.4575 312.22 56.8072 310.32Z" fill="#4B2D10"/>
<path d="M193.529 90.3816C194.067 90.515 194.352 90.6454 194.783 90.9939C195.01 91.4109 195.166 91.7415 195.123 92.23C195.014 93.4626 193.166 97.9549 192.618 99.464C192.379 100.124 192.046 100.28 191.466 100.593C190.765 100.173 190.141 99.7516 189.8 98.9812C189.122 97.451 189.669 95.4041 190.317 93.9573C191.001 92.428 191.914 90.9852 193.529 90.3816Z" fill="#4B2D10"/>
<path d="M60.8449 289.03C61.1712 289.046 61.4929 289.094 61.8101 289.172C62.565 289.355 63.1014 289.78 63.4635 290.47C64.2307 291.935 64.7618 295.207 64.1675 296.846C63.9296 297.503 63.399 297.713 62.8152 297.988C61.7882 297.563 60.9819 297.081 60.309 296.172C59.3877 294.928 58.8777 293.329 59.1208 291.783C59.3188 290.525 59.8205 289.761 60.8449 289.03Z" fill="#4B2D10"/>
<path d="M199.629 31.8509C200.22 31.7899 200.823 31.7285 201.411 31.8496C202.493 32.073 203.495 32.814 204.053 33.7639C204.493 34.5132 204.606 35.3907 204.329 36.219C203.979 37.2694 203.241 37.7694 202.313 38.2808C201.75 38.3944 201.188 38.4915 200.611 38.4752C199.734 38.4502 198.911 37.9849 198.354 37.3177C197.719 36.557 197.511 35.5417 197.668 34.5764C197.883 33.2565 198.593 32.6094 199.629 31.8509Z" fill="#4B2D10"/>
<path d="M46.7268 292.015C47.009 292.022 47.3294 292.015 47.6099 292.069C50.0946 292.549 52.3757 296.88 53.6679 298.811L52.6772 301.172C52.0689 301.169 51.4777 301.086 50.904 300.876C49.0197 300.189 47.3694 298.645 46.6105 296.784C45.9249 295.105 46.0451 293.663 46.7268 292.015Z" fill="#4B2D10"/>
<path d="M60.3859 134.437C60.4658 134.435 60.5457 134.43 60.6251 134.43C61.5609 134.427 62.4857 134.417 63.1406 135.211C63.7033 135.893 63.7002 136.791 63.5396 137.613C62.8145 141.33 60.3473 144.414 57.2885 146.51C56.9334 146.588 56.53 146.658 56.1657 146.594C55.538 146.485 55.1263 146.104 54.7344 145.638C53.9917 143.415 57.4833 141.419 58.4885 139.614C59.3527 138.063 59.8346 136.13 60.3859 134.437Z" fill="#4B2D10"/>
<path d="M185.427 230.477L186.424 230.438C186.892 230.732 186.926 230.784 187.161 231.287C186.997 231.959 186.828 232.3 186.211 232.657C183.768 234.07 177.896 234.587 174.929 235.188C172.517 235.677 170.125 236.287 167.743 236.901C166.227 237.292 164.618 237.564 163.297 238.438C162.71 238.826 162.135 239.163 161.507 239.483C161.011 239.562 160.589 239.577 160.088 239.544C159.961 239.431 159.786 239.292 159.707 239.14C159.477 238.696 159.489 238.233 159.709 237.791C160.351 236.501 162.593 235.551 163.917 235.095C165.745 234.465 167.823 234.187 169.72 233.792C174.958 232.702 180.262 231.882 185.427 230.477Z" fill="#4B2D10"/>
<path d="M52.3716 127.09C53.1994 127.013 53.9803 126.951 54.7598 127.299C56.2126 127.948 56.7876 129.435 57.3547 130.807C57.1725 132.299 57.0891 133.988 56.6296 135.416C55.9216 137.614 54.4618 138.73 52.5007 139.762C51.9252 139.846 51.359 139.899 50.7766 139.86C49.8149 139.796 48.8146 139.364 48.2128 138.591C47.3613 137.499 47.367 135.891 47.583 134.59C48.0913 131.53 49.9022 128.894 52.3716 127.09Z" fill="#4B2D10"/>
<path d="M184.32 80.7426C184.918 80.654 185.485 80.6816 186.068 80.8432C187.291 81.182 188.604 82.2096 189.185 83.343C189.596 84.1454 189.603 85.0277 189.317 85.8723C188.395 88.5885 185.179 91.1261 182.709 92.4092C181.59 92.7744 180.686 92.8991 179.529 92.5374C178.849 92.3245 178.317 91.8842 177.997 91.2425C177.333 89.9133 177.556 88.1843 178.018 86.8288C179.097 83.6657 181.462 82.1034 184.32 80.7426Z" fill="#4B2D10"/>
<path d="M183.656 202.57C184.424 202.605 184.701 202.627 185.236 203.166C185.275 203.754 185.207 203.978 184.806 204.431C183.205 206.242 176.918 210.188 174.559 210.233C172.332 210.275 170.269 209.237 168.056 209.96C165.805 210.695 164.021 212.414 162.071 213.695C157.13 216.936 150.794 216.387 145.14 216.64C144.756 216.516 144.471 216.325 144.129 216.116C143.85 215.634 143.804 215.421 143.847 214.865C144.377 214.197 144.862 214.041 145.702 213.956C149.556 213.569 152.894 214.398 157.005 213.39C161.91 212.187 165.053 207.772 169.721 206.511C170.306 206.73 170.902 206.966 171.505 207.129C176.883 208.584 179.301 205.019 183.426 202.696C183.503 202.653 183.58 202.612 183.656 202.57Z" fill="#4B2D10"/>
<path d="M299.873 213.58C299.998 213.604 300.125 213.616 300.247 213.652C300.763 213.805 301.164 214.036 301.359 214.522C301.115 214.998 300.888 215.319 300.429 215.612C295.578 218.713 279.791 222.273 273.89 222.624C270.962 222.798 268.283 222.582 265.422 221.955C263.975 223.924 261.107 226.007 259.032 227.303C254.667 230.029 249.421 229.559 244.647 228.441C242.387 229.652 240.381 231.321 238.48 233.028C237.338 234.052 236.173 235.388 234.801 236.073C232.458 237.242 230.621 235.519 228.457 234.826C222.979 233.072 214.406 242.825 209.513 245.067C206.951 246.241 205.3 245.864 202.808 244.922C199.227 245.595 195.432 247.571 192.517 249.718C191.123 250.745 189.828 251.967 188.376 252.908C185.494 254.777 184.695 252.505 182.039 252.088C178.143 251.477 173.886 254.576 170.954 256.754C170.401 256.697 170.13 256.489 169.777 256.083C169.643 255.548 169.678 255.228 169.91 254.718C170.725 252.927 173.524 251.67 175.291 250.994C179.407 249.421 182.756 249.313 186.829 251.124C187.857 250.122 188.948 249.193 190.102 248.339C191.256 247.484 192.462 246.711 193.721 246.02C196.082 244.731 200.108 242.371 202.821 242.511C204.181 242.581 205.729 243.217 207.051 243.603C214.446 240.14 219.972 232.136 228.621 231.46C229.823 232.263 230.971 233.134 232.461 233.261C235.528 233.523 238.037 230.17 240.135 228.355C245.317 223.87 244.779 226.576 250.28 226.926C257.036 227.356 260.202 223.278 264.783 219.228C267.362 219.382 269.922 220.057 272.505 220.045C282.038 220.003 290.852 216.036 299.873 213.58Z" fill="#4B2D10"/>
<path d="M165.664 102.226C165.924 102.251 166.19 102.267 166.441 102.345C167.087 102.546 167.596 103.072 167.886 103.668C168.188 104.29 168.249 104.966 168.003 105.619C167.339 107.379 164.206 108.464 162.584 109.112C158.584 110.708 154.412 111.728 150.279 112.904C147.314 113.778 144.369 114.713 141.444 115.708C127.881 120.202 114.526 125.246 101.379 130.842C96.179 133.031 90.735 135.254 85.8889 138.159C82.1286 140.413 78.6436 143.621 74.6007 145.316C73.7343 145.3 72.8907 145.021 72.2415 144.448C72.0729 143.933 72.0159 143.8 72.2397 143.269C72.9385 141.614 76.4687 139.757 78.0001 138.723C89.1979 131.155 103.451 125.573 116.056 120.773C124.995 117.325 134.011 114.092 143.105 111.075C150.035 108.802 157.505 107.404 164.132 104.337C164.467 103.477 165.003 102.853 165.664 102.226Z" fill="#4B2D10"/>
<path d="M191.353 123.839C191.415 123.838 191.479 123.829 191.541 123.836C192.085 123.899 192.41 123.985 192.727 124.47C193.078 125.009 193.034 125.254 192.911 125.831C192.346 126.537 191.751 126.886 190.914 127.227C188.217 128.326 185.174 128.77 182.376 129.597C172.076 132.638 161.672 135.269 151.376 138.304C146.008 139.895 140.679 141.608 135.388 143.443C130.098 145.277 124.852 147.231 119.651 149.304C114.45 151.377 109.298 153.568 104.197 155.876C99.0955 158.184 94.0494 160.607 89.0585 163.146C83.9003 165.763 78.9625 168.714 73.8732 171.441C73.3746 171.496 73.1516 171.451 72.6956 171.243C72.4405 170.893 72.1855 170.577 72.1008 170.138C72.0021 169.626 72.1561 169.172 72.4572 168.759C73.8236 166.89 76.9491 165.927 78.8944 164.714C86.8674 159.74 95.4018 155.944 103.992 152.167C112.971 148.218 122.015 144.133 131.285 140.918C144.361 136.383 157.482 133.241 170.794 129.616C177.63 127.755 184.358 125.064 191.353 123.839Z" fill="#4B2D10"/>
<path d="M308.706 0.0517578C309.047 0.0960924 309.432 0.187394 309.739 0.352442C310.471 0.745308 311.397 1.66976 311.644 2.47612C311.738 2.78427 311.742 3.15298 311.589 3.45455C311.094 4.43079 303.097 7.65053 301.639 8.40905C292.63 13.0971 282.352 20.8921 275.049 27.9558C258.89 43.5853 245.433 63.4226 240.748 85.704C240.246 88.0902 239.814 90.5646 239.693 93.0008C239.506 96.7547 240.522 99.072 238.796 102.646C238.594 103.099 238.569 103.07 238.2 103.344C237.423 103.269 236.907 102.746 236.315 102.282C233.915 83.1993 246.276 58.5339 257.28 43.5703C265.854 31.9112 275.89 20.1498 287.444 11.3562C290.391 9.11402 293.525 7.20587 296.693 5.29948C300.384 3.07924 304.389 0.710192 308.706 0.0517578Z" fill="#4B2D10"/>
<path d="M121.541 5.64951C121.638 5.6438 121.735 5.63327 121.831 5.63195C122.616 5.61835 123.273 5.83256 123.835 6.38301C126.002 8.50053 125.247 14.9396 125.19 17.7651C127.641 16.4935 130.234 14.919 133.101 15.1314C134.268 15.2183 135.416 15.6735 136.183 16.5839C136.988 17.5395 137.222 18.8072 137.048 20.0231C136.57 23.3755 133.566 25.2608 131.122 27.1777C132.353 29.0718 134.369 30.6841 134.994 32.9201C135.473 34.6329 134.928 36.3967 134.081 37.9023C133.396 39.1221 132.353 40.0734 130.982 40.4368C128.052 41.2129 125.254 39.587 122.831 38.1485C121.492 40.565 119.83 43.1579 117.806 45.0581C117.032 45.7851 116.182 46.3504 115.077 46.2561C113.458 46.1182 111.957 44.7597 111.029 43.5222C109.118 40.9723 109.741 38.0691 110.123 35.1364C107.303 35.1535 103.929 35.2571 101.604 33.4008C100.581 32.5843 99.9036 31.4378 99.8395 30.1174C99.7605 28.4954 100.625 27.0478 101.665 25.874C103.671 23.6085 107.723 19.92 110.847 19.884C111.506 19.8761 111.901 20.0139 112.376 20.4608L112.386 21.0459C111.796 22.34 110.658 22.8895 109.478 23.5585C108.049 24.3886 106.593 25.5171 105.512 26.7782C104.76 27.6562 103.937 28.6802 104.012 29.894C105.759 32.2709 111.47 29.3764 113.967 31.3144C114.92 32.7261 113.719 36.412 113.587 38.1591C113.536 38.821 113.438 39.6559 113.901 40.1941C115.64 40.2529 119.141 33.7221 120.836 32.3798C123.627 30.1701 124.39 34.9837 128.046 35.3335C128.637 35.3901 129.152 35.2312 129.574 34.7993C131.761 32.5646 125.942 28.7386 125.862 26.3463C125.799 24.4649 129.122 21.6438 130.33 20.3304C128.466 20.9449 125.591 22.9044 124.374 23.1437C123.865 23.2442 123.498 23.1819 123.099 22.8259C121.356 21.2698 122.158 12.988 121.846 10.2687L121.8 9.89071C120.978 11.5105 120.218 13.2698 119.701 15.012C118.938 17.5878 118.537 21.2311 117.078 23.4689C116.759 23.9571 116.454 24.2468 115.875 24.3872C115.501 24.3214 115.3 24.2578 115.011 23.9838C114.575 23.5717 114.45 23.1261 114.436 22.5406C114.413 21.5349 115.066 20.0916 115.336 19.075C116.621 14.243 117.647 9.12648 121.541 5.64951Z" fill="#4B2D10"/>
<path d="M46.7354 221.054C47.3657 220.956 48.0184 220.839 48.5442 221.278C48.8444 221.529 49.0095 221.938 49.0591 222.316C49.1333 222.883 48.9669 223.541 48.589 223.98C48.3502 224.258 48.0518 224.414 47.7068 224.516C45.786 225.085 43.7183 225.343 41.7629 225.819C37.2751 226.888 32.8665 228.22 28.5373 229.814C21.1595 232.585 9.62551 238.867 4.99445 245.14C4.27988 246.108 3.68778 247.026 3.84974 248.261C7.53141 255.077 49.5735 235.791 58.046 238.917C59.2635 239.367 60.3257 240.249 60.8261 241.467C62.4326 245.379 56.0893 250.989 53.9087 253.957C52.473 255.911 51.3713 257.897 50.4742 260.145C56.8464 259.323 66.9451 255.192 72.2433 255.179C72.9149 255.177 73.5166 255.218 74.0078 255.726C74.1491 256.54 74.2378 257.405 73.8015 258.156C73.3788 258.882 72.6981 259.086 71.9466 259.279C69.0932 259.785 66.2398 260.498 63.4526 261.288C59.4123 262.434 52.0508 265.526 47.9468 264.461C47.1467 264.254 46.3992 263.877 45.9844 263.123C42.3875 256.585 55.8395 248.401 57.2028 243.397C57.1164 242.902 57.1361 242.639 56.6309 242.384C53.5321 240.817 29.0087 249.173 24.2455 250.468C18.7397 251.964 7.68635 254.986 2.64468 251.932C1.53974 251.263 0.585001 250.268 0.291055 248.976C-0.109548 247.215 0.772594 245.423 1.70258 243.982C4.39005 239.818 8.47465 236.566 12.5856 233.897C23.7079 226.676 33.9352 223.8 46.7354 221.054Z" fill="#4B2D10"/>
<path d="M346.814 14.139C351.567 13.7826 356.712 14.272 361.263 15.7442C363.669 16.523 366.639 17.4509 367.791 19.92C368.065 20.5087 368.241 21.2474 367.948 21.8624C367.746 22.2873 367.178 22.6438 366.724 22.7469C365.907 22.9317 363.761 22.171 362.93 21.9621C359.936 21.211 357.075 20.6303 353.995 20.3748C343.9 19.5377 333.121 22.5362 323.968 26.6844C300.651 37.2518 274.783 60.8584 262.442 83.2378C260.556 86.6577 259.093 90.1777 257.729 93.8263C256.235 97.7769 255.009 102.162 255.385 106.426C255.533 108.107 256.065 109.886 255.89 111.565C255.596 112.04 255.592 112.046 255.068 112.238C254.673 112.175 254.356 112.125 254.034 111.859C252.783 110.826 252.501 107.933 252.385 106.37C251.245 90.9972 266.352 66.7997 276.17 55.429C293.799 35.0122 319.032 16.17 346.814 14.139Z" fill="#4B2D10"/>
<path d="M346.323 47.2153C346.457 47.2074 346.591 47.1977 346.726 47.1916C350.488 47.0151 358.435 52.3115 361.187 54.8448C363.085 56.5918 364.978 59.0122 365.035 61.6934C365.126 66.0351 356.98 74.0649 353.848 77.2763C354.964 79.2121 356.378 81.3248 356.465 83.6232C356.582 86.7042 352.582 89.0346 350.689 91.1289C348.296 93.7776 350.425 93.5673 349.544 95.349C348.762 96.9306 347.254 98.5025 346.227 99.9642C342.882 104.73 339.835 110.436 340.151 116.416C340.463 122.316 342.953 128.74 349.116 130.655C352.039 131.563 355.033 131.483 357.422 133.716C359.38 135.548 360.199 138.33 360.262 140.948C360.322 143.444 359.717 146.032 357.912 147.853C356.256 149.523 353.836 150.353 351.509 150.326C347.803 150.282 345.217 148.543 342.79 145.957C342.162 147.112 341.477 148.163 340.549 149.1C337.749 151.924 333.237 153.715 329.265 153.656C326.306 153.611 323.672 152.32 321.669 150.164C318.613 146.876 316.376 141.003 315.919 136.572C315.737 134.805 315.872 132.983 315.943 131.21C313.183 134.429 310.29 137.532 307.548 140.764C303.064 146.048 298.721 151.493 294.095 156.652C289.469 161.811 284.503 166.669 279.895 171.853C275.373 176.942 271.395 182.526 266.75 187.503C262.858 191.673 258.581 195.514 254.617 199.628C250.734 203.656 247.483 208.749 243.066 212.179C238.055 216.071 231.994 218.657 226.426 221.62C220.03 225.022 213.843 228.595 207.263 231.667C206.886 232.48 206.517 233.353 205.997 234.083C205.37 234.965 204.414 235.62 203.419 236.019C201.224 236.9 198.706 236.864 196.464 237.657C193.603 238.669 190.896 240.763 187.829 241.099C187.057 241.183 186.346 241.158 185.73 240.63C184.704 239.752 187.035 236.461 187.465 235.29C188.353 232.868 188.947 230.415 189.966 228.024C191.831 223.644 194.255 219.489 196.195 215.123C197.862 211.371 199.115 207.426 200.631 203.609C202.857 198.003 205.382 192.391 207.21 186.643C207.484 185.782 207.981 184.356 207.82 183.471C207.72 182.923 207.543 182.873 207.111 182.589C204.402 182.703 202.023 184.081 199.466 184.816C196.042 185.802 193.303 184.475 190.355 182.895C187.447 184.279 184.911 186.439 182.16 188.112C179.042 190.008 175.077 191.671 171.371 190.777C169.807 190.4 168.41 189.568 166.817 189.199C166.724 189.177 166.629 189.158 166.536 189.137C163.369 191.406 160.244 194.692 156.629 196.202C154.041 197.283 151.948 196.658 149.503 195.641C148.07 197.602 146.568 199.116 144.337 200.16C142.523 201.008 140.538 201.546 138.602 202.032C132.821 203.483 128.517 203.216 122.959 201.214C122.072 201.591 120.771 202.334 119.794 202.101C119.209 201.961 119.093 201.749 118.792 201.284C118.781 200.755 118.833 200.422 119.163 199.987C121.254 197.237 124.871 199.37 127.363 200.078C131.872 201.361 141.744 199.664 145.294 196.787C146.548 195.773 147.184 193.544 148.787 193.05C151.519 192.207 153.335 195.178 156.753 193.421C160.06 191.72 162.68 187.889 166.255 186.836C169.511 185.878 171.143 189.278 175.279 188.479C181.318 187.312 184.475 182.235 189.129 180.709C192.283 179.675 194.607 182.704 197.861 182.59C201.078 182.477 203.447 180.186 206.466 179.792C207.397 179.671 208.137 180.038 208.832 180.608C208.885 180.652 208.937 180.697 208.989 180.741C209.249 180.587 209.455 180.437 209.647 180.201C211.961 177.357 214.712 175.015 217.14 172.279C225.02 163.4 232.867 154.443 240.939 145.739C235.46 147.214 229.735 147.949 224.199 149.242C211.136 152.328 198.145 155.693 185.227 159.337C174.703 162.313 164.511 166.253 154.211 169.896C146.032 172.789 137.734 175.312 129.62 178.395C119.591 182.205 110.05 186.909 100.278 191.296C96.3542 193.057 92.2332 194.352 88.3286 196.147C89.4259 197.096 90.6096 197.977 91.5906 199.046C93.5012 201.129 94.9255 203.621 96.6777 205.835C98.5752 208.233 100.765 210.472 102.852 212.709C104.931 214.936 107.138 217.05 109.178 219.31C111.25 221.607 113.155 224.05 115.198 226.371C117.757 229.279 120.458 232.065 123.058 234.937C129.542 242.103 135.883 249.076 143.179 255.462C148.781 260.364 155.169 264.59 161.154 269.027C166.022 272.635 170.61 276.627 175.835 279.727C186.391 275.524 196.822 270.987 207.58 267.306C214.804 264.834 222.336 262.909 229.715 260.932C241.464 257.785 253.453 255.607 265.283 252.786C277.575 249.854 289.678 246.296 301.908 243.147C311.992 240.551 321.879 237.883 331.788 234.658C338.503 232.472 345.526 230.302 351.485 226.457C346 224.13 340.583 222.391 335.422 219.289C320.098 210.08 306.974 196.75 294.449 184.152C291.755 181.443 286.143 176.051 284.091 173.165C283.591 172.46 283.232 171.806 283.489 170.907C283.901 169.466 286.091 168.757 287.312 168.164C287.367 168.194 287.422 168.223 287.476 168.253L287.745 168.407C291.148 170.325 299.379 180.465 302.576 184.1C312.828 195.752 331.877 213.231 345.818 219.706C349.388 221.363 352.914 222.289 356.752 223.026C357.083 222.819 357.418 222.62 357.759 222.43C358.842 221.839 360.017 221.813 361.177 222.205C362.154 222.534 363.034 223.211 363.477 224.158C363.844 224.942 363.827 225.739 363.475 226.527C363.023 227.54 362.038 228.269 361.095 228.788C357.926 230.533 354.14 231.598 350.733 232.851C344.791 235.071 338.815 237.193 332.804 239.217C328.846 240.532 324.824 241.664 320.898 243.073C320.825 243.994 320.705 244.909 320.539 245.818C320.325 246.951 319.941 247.832 318.886 248.381C316.191 249.784 308.086 251.255 304.543 252.312C296.689 254.654 288.816 257.019 280.903 259.151C264.296 263.624 247.929 267.773 231.945 274.287C229.06 275.463 225.639 276.538 223.072 278.309L280.288 261.511L308.168 253.871C311.797 252.848 315.359 251.316 319.032 250.505C320.06 250.278 321.122 250.061 322.128 250.484C322.794 250.765 323.499 251.395 323.689 252.108C324.031 253.389 322.763 255.217 322.154 256.287C321.64 257.192 321.598 257.809 321.581 258.834L321.577 259.208C323.146 259.005 324.717 258.816 326.289 258.64C328.11 258.455 330.965 258.196 332.416 259.51C333.015 260.051 333.454 260.902 333.431 261.722C333.396 263.014 332.366 264.18 331.405 264.932C327.577 267.928 305.114 274.003 298.88 275.835C294.804 277.061 290.739 278.323 286.684 279.619C281.581 281.264 276.691 283.366 271.667 285.214C266.247 287.206 260.71 288.965 255.224 290.767C241.106 295.405 226.876 300.014 212.603 304.144C203.54 306.766 194.395 309.029 185.311 311.559C174.478 314.576 159.947 320.577 148.97 319.24C144.927 318.748 140.899 316.963 137.579 314.647C126.809 307.134 114.21 291.204 105.906 280.613C100.912 274.243 95.9544 267.894 91.1039 261.41C87.7101 256.873 84.1566 252.452 80.8458 247.854C78.4001 244.457 76.3504 240.8 73.8525 237.448C72.7736 235.999 71.3656 235.698 70.0664 234.578C69.178 233.811 68.4085 232.609 67.658 231.689C64.9336 228.35 62.3497 224.902 59.7144 221.493C54.3315 214.529 48.6549 207.861 43.4629 200.736C33.0675 186.471 24.0538 171.5 15.3671 156.152C12.3837 150.881 7.73645 144.637 7.21325 138.509C6.64178 131.819 8.49227 122.643 12.953 117.429C14.8075 115.261 16.7392 114.484 19.4965 114.281C19.4311 111.737 17.8843 107.815 18.7806 105.461C19.0843 104.664 19.4868 104.14 20.2593 103.76C20.8321 103.809 21.3588 103.918 21.6138 104.516C22.8718 107.469 22.8507 111.317 23.6175 114.468C25.6468 122.516 27.8749 130.509 30.3018 138.447C34.3373 151.407 39.4911 164.776 46.096 176.669C51.1563 185.78 57.0212 194.19 62.933 202.744C66.7279 208.236 70.2397 213.97 74.5666 219.079C76.5756 212.996 81.6201 198.344 85.1648 193.771C87.1035 191.27 93.8186 189.173 96.9929 187.579C107.032 182.539 117.387 177.484 127.817 173.303C137.41 169.457 147.183 166.375 156.928 162.99C172.283 157.657 187.761 152.283 203.506 148.22C210.96 146.296 218.528 144.917 226.065 143.381C229.554 142.651 233.032 141.871 236.499 141.042C238.406 140.601 240.363 140.034 242.313 139.834C243.927 139.669 244.547 139.886 245.808 140.896C246.778 139.884 247.606 138.876 248.401 137.72C243.953 130.991 238.931 124.638 234.436 117.93C232.874 115.649 231.352 113.34 229.871 111.006C228.389 108.671 226.947 106.312 225.546 103.928C224.146 101.544 222.787 99.1358 221.47 96.7045C220.153 94.2733 218.878 91.8201 217.645 89.345C216.413 86.8696 215.224 84.3737 214.078 81.8573C212.932 79.3406 211.829 76.805 210.771 74.2506C209.713 71.6959 208.699 69.1237 207.729 66.5342C206.759 63.9446 205.835 61.339 204.956 58.7172C200.994 59.0272 197.02 59.8673 193.111 60.5569C186.613 61.6947 180.126 62.8876 173.649 64.1357C156.473 67.4803 139.4 71.2857 122.43 75.5521C102.29 80.5176 82.1279 85.9391 62.4278 92.451C54.6756 95.0132 46.5994 97.5127 39.2273 101.043C37.5275 101.849 35.8668 102.728 34.2451 103.681C32.4741 104.725 30.0832 106.994 28.0695 107.333C27.4471 107.438 26.8765 107.304 26.3981 106.882C26.014 106.544 25.7191 106.089 25.723 105.563C25.7292 104.693 26.2756 103.96 26.8589 103.366C30.0389 100.13 34.8456 97.3476 38.9986 95.5593C43.7227 93.5252 48.6742 91.9524 53.5339 90.2808C67.579 85.4497 81.7842 81.4034 96.1212 77.5476C109.102 74.0561 122.034 70.4264 135.089 67.2124C147.543 64.1471 160.026 61.5064 172.571 58.8573C183.59 56.5299 195.945 52.93 207.202 52.8234C208.486 52.8111 210.209 52.8664 211.102 53.9524C211.539 54.4839 211.569 55.1143 211.422 55.7591C211.133 57.0295 210.529 57.4412 209.471 58.1009C214.291 77.5085 227.153 99.4787 238.315 116.127C242.53 122.414 247.131 128.481 251.137 134.9C261.275 122.252 271.872 110.001 282.929 98.1483C287.094 93.6617 293.003 88.5913 296.714 84.0042C297.265 83.3238 297.287 82.5469 297.41 81.712C297.486 81.2059 297.576 80.8433 297.9 80.4232C299.023 78.9672 300.956 77.6029 302.329 76.3413C306.321 72.65 310.333 68.9787 314.363 65.3275C317.023 62.9049 319.694 59.8432 322.634 57.8112C325.157 56.0677 331.111 57.392 333.873 57.9925C337.844 54.2934 340.98 48.9992 346.323 47.2153Z" fill="#4B2D10"/>
<path d="M71.4874 223.927C71.961 224.05 72.6405 224.303 72.9174 224.707C73.4946 225.548 73.154 226.61 72.9846 227.539C72.7138 227.563 72.6988 227.629 72.518 227.47C71.7894 226.832 71.6424 224.866 71.4874 223.927Z" fill="#FFE8AE"/>
<path d="M232.931 285.367L233.1 285.676C233.057 285.733 233.019 285.795 232.971 285.848C231.97 286.932 229.815 287.537 228.395 287.649L228.252 287.197C228.959 286.149 231.734 285.687 232.931 285.367Z" fill="#FFE8AE"/>
<path d="M191.891 289.013C191.977 289.016 192.063 289.009 192.148 289.022C192.693 289.11 192.847 289.113 193.174 289.557C192.617 290.554 189.149 291.556 187.973 292.112C187.628 292.293 187.286 292.423 186.919 292.553C187.446 291.197 190.571 289.596 191.891 289.013Z" fill="#FFE8AE"/>
<path d="M25.3042 137.548C25.3823 137.607 25.4666 137.66 25.5386 137.727C26.0464 138.2 26.3019 139.028 26.2887 139.716C26.2505 141.71 24.3482 143.647 23.0016 144.976L22.4122 144.966C22.1216 144.478 22.1431 144.221 22.2383 143.678C22.6013 141.599 23.5569 138.813 25.3042 137.548Z" fill="#FFE8AE"/>
<path d="M138.101 255.372C138.47 255.561 138.799 255.787 139.139 256.024C139.216 257.438 136.034 264.583 135.324 266.443C134.74 266.066 134.425 265.961 134.126 265.322C134.338 262.511 136.744 257.932 138.101 255.372Z" fill="#FFE8AE"/>
<path d="M20.2902 126.536C20.7616 126.946 21.0311 127.205 21.1966 127.841C21.7782 130.083 19.1196 133.907 17.8757 135.685C17.5755 135.599 17.4017 135.547 17.1625 135.333C16.9013 135.099 16.9255 134.824 16.9338 134.478C16.9961 131.843 18.513 128.417 20.2902 126.536Z" fill="#FFE8AE"/>
<path d="M18.4566 118.434L18.7986 118.678C19.0286 119.79 17.3747 121.621 16.8186 122.621C14.4414 126.894 12.8499 131.662 11.3242 136.287C11.2118 136.184 11.2144 136.196 11.1113 135.998C10.1917 134.226 11.4207 130.099 11.9553 128.291C12.9315 124.994 15.3258 120.105 18.4566 118.434Z" fill="#FFE8AE"/>
<path d="M196.708 219.604C200.697 221.7 202.953 223.53 204.913 227.712C203.922 228.663 203.535 229.501 203.09 230.79L202.896 231.224L202.529 231.308C201.192 230.28 200.187 227.821 199.115 226.431C198.111 225.127 196.912 224.017 195.712 222.898C195.974 221.754 196.295 220.702 196.708 219.604Z" fill="#FFE8AE"/>
<path d="M87.031 199.592C87.7364 200.051 88.3364 200.437 88.867 201.097C89.323 203.737 78.6731 223.458 76.9406 226.768C76.7721 227.053 76.5711 227.326 76.3867 227.601L76.3042 227.443C76.7756 225.31 77.6003 223.213 78.2833 221.139C79.7726 216.617 81.2421 212.304 83.1948 207.947C84.4479 205.151 85.9223 202.45 87.031 199.592Z" fill="#FFE8AE"/>
<path d="M90.1647 206.662C90.5733 207.042 90.8889 207.619 91.2097 208.08C90.2933 211.503 88.8663 214.759 87.5478 218.041C84.8607 224.73 82.0666 231.245 80.2248 238.233L79.1416 236.784C78.1394 235.429 77.1291 234.08 76.1108 232.737C79.7811 229.029 83.5931 219.386 85.9286 214.501C87.2208 211.823 88.6328 209.21 90.1647 206.662Z" fill="#FFE8AE"/>
<path d="M103.48 218.504C104.478 219.479 105.268 220.504 106.08 221.636C104.826 225.634 103.745 229.81 102.25 233.716C101.359 236.047 100.165 238.28 99.1464 240.558C97.8507 243.456 96.663 246.396 95.3339 249.281C94.9968 249.821 94.9709 250.091 94.3411 250.265L94.0905 249.922C93.788 245.867 96.1512 240.99 97.2748 237.071C98.7869 231.799 100.495 222.819 103.48 218.504Z" fill="#FFE8AE"/>
<path d="M316.315 257.057L316.796 257.126C315.608 258.536 307.469 262.18 305.371 262.932C301.258 264.407 296.632 265.087 292.405 266.308C284.887 268.477 277.502 271.148 270.1 273.679L269.813 273.672L269.886 273.29C274.743 269.134 283.42 265.818 289.652 264.216C292.772 263.413 295.985 262.964 299.089 262.098C304.87 260.486 310.464 258.484 316.315 257.057Z" fill="#FFE8AE"/>
<path d="M94.0889 207.52C95.3815 208.382 96.2949 210.237 97.1319 211.545C94.3663 218.142 91.9439 224.821 89.3534 231.486C87.8852 235.264 86.007 238.96 85.0634 242.911L84.6437 244.045L84.0525 243.936L84.1399 244.17C83.9678 243.947 83.9854 244.001 83.8835 243.765C83.2366 242.261 83.431 240.313 83.6979 238.73C84.3852 234.652 85.874 230.8 87.1829 226.893C88.8223 222.001 90.6526 217.227 92.4271 212.386C93.0184 210.774 93.4704 209.122 94.0889 207.52Z" fill="#FFE8AE"/>
<path d="M99.9534 214.873L100.695 215.142C101 215.661 101.055 215.909 100.912 216.509C100.677 217.488 100.193 218.475 99.8735 219.439C99.1475 221.651 98.45 223.872 97.7807 226.101L90.5917 251.13C90.4328 251.683 90.3301 251.948 89.8231 252.219L89.267 251.758C88.4027 250.711 87.5982 249.648 86.8226 248.533C87.3204 244.315 96.1462 218.737 98.2025 215.685C98.5954 215.102 99.3113 215.026 99.9534 214.873Z" fill="#FFE8AE"/>
<path d="M328.93 63.9496C331.531 63.8504 334.158 64.454 336.593 65.3337C343.471 67.8182 347.457 74.406 350.452 80.7191C349.876 81.6031 348.166 84.6126 347.385 84.7799C346.818 83.7325 346.251 82.6768 345.623 81.6646C341.347 74.7738 332.841 67.0188 324.752 65.1515C326.154 64.526 327.416 64.1498 328.93 63.9496Z" fill="#FFE8AE"/>
<path d="M348.808 54.3828C352.242 55.4969 355.623 58.2408 357.867 61.0075C355.124 64.0703 352.522 67.2489 350.062 70.5434C346.828 68.1349 344.083 65.2211 340.722 62.892C343.278 59.8439 345.74 56.9353 348.808 54.3828Z" fill="#FFE8AE"/>
<path d="M108.954 224.226C110.248 225.955 111.758 227.551 113.182 229.173C110.497 237.987 105.529 245.641 101.662 253.904C100.8 255.747 99.1698 261.716 98.5242 262.523C97.9369 262.793 97.9755 262.779 97.3606 262.57C95.6514 260.715 93.9063 258.308 92.6931 256.093C92.9117 255.812 93.1233 255.527 93.3388 255.243C94.9171 253.162 95.9539 250.616 97.2092 248.328C99.485 244.179 101.975 240.297 103.955 235.975C105.732 232.097 106.923 227.994 108.954 224.226Z" fill="#FFE8AE"/>
<path d="M159.308 272.515C160.828 272.774 167.114 278.792 168.68 280.123C163.392 282.472 158.436 285.249 154.379 289.443C152.007 291.894 148.862 295.736 149.032 299.349C149.336 305.794 156.058 303.605 159.424 306.58C159.487 306.635 159.548 306.692 159.61 306.748C160.064 307.336 160.373 307.781 160.586 308.497C160.514 308.886 160.544 309.081 160.259 309.384C159.244 310.461 156.915 310.39 155.515 310.366C152.494 310.315 149.059 309.337 146.975 307.058C144.76 304.636 144.122 300.801 144.34 297.622C144.789 291.081 150.347 282.13 154.537 277.201C155.993 275.488 157.627 273.999 159.308 272.515Z" fill="#FFE8AE"/>
<path d="M126.565 244.159C128.646 245.324 132.34 249.115 133.651 251.144C133.987 251.665 134.128 251.968 133.999 252.596C133.424 255.394 132.053 258.143 131.147 260.87C129.771 265.01 128.648 269.504 127.8 273.782C128.371 274.854 128.961 275.916 129.57 276.967C129.199 278.704 128.478 280.265 127.699 281.849C126.631 281.413 125.667 280.873 124.674 280.295C124.953 277.04 125.976 273.541 126.901 270.405C127.9 267.017 132.335 255.572 131.611 252.875C131.502 252.469 131.575 252.616 131.179 252.37C130.904 252.445 130.865 252.439 130.586 252.61C129.828 253.074 129.16 254.261 128.804 255.044C127.837 257.166 127.295 259.694 126.62 261.937C125.715 264.941 124.706 267.861 123.888 270.9C122.682 274.48 120.893 281.979 120.426 285.695C120.28 286.855 120.172 288.813 121.006 289.756C121.252 290.034 121.442 289.941 121.783 289.948C123.303 289.147 123.843 287.986 124.676 286.544C125.574 287.06 126.336 287.584 127.106 288.277C127.124 291.488 126.914 294.729 126.631 297.927C123.235 294.561 117.651 288.452 115.721 284.047C114.804 281.954 115.484 278.812 115.955 276.655C117.324 270.38 119.97 264.166 122.013 258.065C123.552 253.47 124.72 248.637 126.565 244.159Z" fill="#FFE8AE"/>
<path d="M221.486 191.422C222.321 192.671 219.128 201.058 219.633 203.601C219.757 204.226 220.077 204.795 220.681 205.073C222.995 206.135 230.759 203.697 233.266 203.061C233.949 204.595 234.367 206.156 234.803 207.775C232.574 209.235 230.179 210.476 227.867 211.806L216.158 218.628L211.587 221.227C208.762 218.391 206.725 216.563 202.886 215.184C205.767 208.582 209.191 199.825 210.875 192.839C211.209 193.728 211.49 194.729 212.35 195.233C215.169 194.673 218.493 192.367 221.486 191.422Z" fill="#FFE8AE"/>
<path d="M115.676 232.584C119.986 235.732 103.945 262.377 105.509 267.658C105.731 268.407 106.213 269.131 106.97 269.42C107.472 269.612 108.019 269.559 108.471 269.266C110.339 268.054 109.645 263.854 110.017 261.786C110.912 256.82 113.503 251.937 115.286 247.221C116.705 243.467 117.76 239.567 119.001 235.75C121.321 237.498 123.621 239.791 124.709 242.514C123.897 244.448 123.195 246.432 122.461 248.396C120.201 255.31 117.451 262.057 115.252 268.981C114.031 272.828 113.285 276.768 112.161 280.634C108.982 277.053 102.736 270.816 100.996 266.532C101.322 264.249 101.537 261.865 102.099 259.629C103.451 254.247 108.226 246.955 110.692 241.637C111.591 239.697 113.1 235.179 114.134 233.693C114.461 233.224 115.19 232.875 115.676 232.584Z" fill="#FFE8AE"/>
<path d="M322.343 67.1177C324.113 67.7875 325.952 68.9916 327.612 69.9358C336.366 74.9175 340.237 79.5858 344.511 88.5199C343.22 89.4614 342.073 90.6967 340.977 91.8533C340.011 92.8734 338.171 94.5301 338.225 96.012C338.235 96.285 338.294 96.5861 338.172 96.8442C337.446 98.3876 334.319 101.219 333.072 103.106L331.795 101.091C330.408 98.9066 328.908 96.8025 327.296 94.779C321.457 87.5577 316.408 82.5847 306.881 81.58C309.212 79.1403 311.706 76.8353 314.128 74.4864C316.761 71.9348 319.294 69.1825 322.343 67.1177Z" fill="#FFE8AE"/>
<path d="M338.021 107.539C338.066 107.645 338.151 107.742 338.157 107.857C338.202 108.753 337.454 110.566 337.253 111.53C336.935 113.022 336.747 114.53 336.69 116.055C336.674 116.559 336.674 117.062 336.691 117.565C336.708 118.069 336.742 118.571 336.792 119.072C336.842 119.573 336.908 120.072 336.991 120.569C337.074 121.066 337.174 121.559 337.289 122.05C337.404 122.54 337.536 123.026 337.683 123.507C337.831 123.989 337.994 124.465 338.173 124.936C338.352 125.407 338.546 125.871 338.755 126.329C338.964 126.787 339.189 127.238 339.428 127.681C341.292 131.09 344.308 134.031 348.155 135.049C349.54 135.416 350.99 135.504 352.361 135.934C353.633 136.332 354.818 137.097 355.418 138.323C356.052 139.62 356.04 141.35 355.57 142.696C355.125 143.972 354.197 144.947 352.964 145.493C352.808 145.56 352.649 145.619 352.487 145.671C352.325 145.723 352.162 145.767 351.995 145.802C351.829 145.838 351.662 145.866 351.494 145.885C351.325 145.904 351.156 145.915 350.986 145.918C350.816 145.921 350.647 145.916 350.477 145.902C350.308 145.888 350.14 145.866 349.973 145.836C349.806 145.806 349.64 145.768 349.477 145.722C349.314 145.675 349.153 145.621 348.995 145.559C346.358 144.537 346.882 143.134 345.816 141.13C345.264 140.091 343.97 139.585 342.888 139.341C341.789 139.093 340.762 138.999 339.774 139.607C338.98 140.611 338.885 142.114 338.656 143.348C338.149 144.81 337.242 145.94 335.998 146.852C333.845 148.428 330.96 149.592 328.274 149.08C323.053 148.083 320.497 140.5 320.044 135.845C319.924 134.62 320.265 132.145 319.815 131.098C319.511 130.389 318.872 129.78 318.419 129.149C321.069 124.436 333.535 111.922 338.021 107.539Z" fill="#FFE8AE"/>
<path d="M329.397 125.319C329.903 125.286 330.29 125.25 330.781 125.407C331.851 125.748 332.925 126.827 333.371 127.839C334.205 129.728 334.148 132.039 333.4 133.942C332.57 136.057 331.286 137.266 329.23 138.147C328.856 138.167 328.493 138.156 328.122 138.1C327.024 137.936 325.814 137.359 325.183 136.411C324.361 135.18 324.39 133.39 324.666 131.997C325.246 129.066 327.012 126.973 329.397 125.319Z" fill="#4B2D10"/>
<path d="M305.751 83.4304C308.425 84.4119 311.185 85.3377 313.718 86.6423C321.301 90.5472 326.74 97.6517 331.047 104.804C326.63 110.147 321.558 114.923 316.953 120.103L267.011 175.259C263.561 179.058 260.622 183.215 257.345 187.146C254.11 191.025 250.548 194.647 247.227 198.454C244.561 201.511 242.138 204.77 239.449 207.81C238.805 205.579 238.117 203.362 237.384 201.159C237.087 200.516 236.657 199.853 236.074 199.437C235.651 199.135 235.224 199.027 234.709 199.034C233.429 199.052 231.537 199.932 230.257 200.28C227.984 200.91 225.688 201.44 223.369 201.87C223.71 199.686 225.849 190.43 225.398 188.868C225.238 188.317 224.969 188 224.455 187.734C222.503 186.72 216.296 189.852 214.232 190.754C214.145 188.833 214.124 186.904 214.071 184.981C215.523 183.023 217.275 181.241 218.879 179.403C223.684 173.898 228.747 168.602 233.505 163.066C237.699 158.188 241.798 153.242 246.102 148.457C251.13 142.866 256.369 137.452 261.323 131.798C265.192 127.382 268.673 122.637 272.473 118.158C276.448 113.473 280.798 109.05 285.004 104.569C289.576 99.7003 294.64 95.395 299.333 90.6609C301.608 88.366 303.659 85.8895 305.751 83.4304Z" fill="#FFE8AE"/>
</g>
<defs>
<clipPath id="clip0_486_546">
<rect width="367.816" height="320" fill="white" transform="translate(0.0919189)"/>
</clipPath>
</defs>
</svg>
