<svg width="318" height="321" viewBox="0 0 318 321" fill="none" xmlns="http://www.w3.org/2000/svg">
<g clip-path="url(#clip0_486_405)">
<path d="M102.578 306.187C103.227 306.169 103.95 306.174 104.584 306.313C105.594 306.534 106.524 307.224 107.024 308.135C107.69 309.347 107.667 310.922 107.223 312.204C106.67 313.807 105.742 314.637 104.272 315.385C103.526 315.462 102.685 315.545 101.967 315.277C100.932 314.892 100.123 313.968 99.7169 312.956C99.6513 312.788 99.5941 312.617 99.5453 312.444C99.4964 312.27 99.4562 312.094 99.4247 311.916C99.3931 311.738 99.3704 311.559 99.3563 311.379C99.3423 311.199 99.3373 311.019 99.3413 310.838C99.3451 310.658 99.3577 310.478 99.3792 310.299C99.4005 310.12 99.4307 309.942 99.4698 309.766C99.5088 309.589 99.5564 309.415 99.6125 309.244C99.6686 309.072 99.7329 308.904 99.8056 308.739C100.394 307.432 101.282 306.709 102.578 306.187Z" fill="#4B2D10"/>
<path d="M103.005 308.762C103.582 308.762 104.181 308.725 104.658 309.115C105.033 309.422 105.184 309.814 105.213 310.286C105.281 311.366 104.582 312.308 103.929 313.078C103.82 313.092 103.712 313.116 103.603 313.12C103.113 313.136 102.635 313.015 102.282 312.654C101.851 312.213 101.755 311.576 101.801 310.987C101.883 309.93 102.235 309.452 103.005 308.762Z" fill="#FFC34F"/>
<path d="M32.3736 239.678C33.1188 239.648 33.9098 239.677 34.6313 239.879C35.9644 240.253 37.2155 241.245 37.8188 242.505C37.8791 242.63 37.933 242.757 37.9803 242.888C38.0276 243.018 38.0682 243.15 38.102 243.284C38.136 243.419 38.163 243.554 38.1827 243.691C38.2028 243.829 38.2157 243.967 38.2214 244.105C38.2274 244.243 38.2263 244.382 38.218 244.52C38.2098 244.658 38.1945 244.796 38.1722 244.933C38.1499 245.069 38.1206 245.205 38.0843 245.338C38.0483 245.472 38.0054 245.604 37.9559 245.733C37.4071 247.14 36.2882 247.96 34.9574 248.545C34.3211 248.581 33.6446 248.542 33.0275 248.377C31.6392 248.005 30.3325 247.154 29.6526 245.85C29.587 245.724 29.5282 245.596 29.4761 245.465C29.424 245.333 29.3789 245.2 29.3409 245.063C29.3028 244.927 29.2719 244.789 29.2481 244.65C29.2246 244.511 29.2083 244.37 29.1993 244.229C29.1905 244.088 29.189 243.947 29.1948 243.805C29.2005 243.664 29.2138 243.523 29.2346 243.384C29.2551 243.244 29.2829 243.105 29.318 242.968C29.353 242.831 29.3952 242.696 29.4445 242.564C29.9584 241.155 31.083 240.314 32.3736 239.678Z" fill="#4B2D10"/>
<path d="M33.0957 242.486C33.9618 242.471 34.5786 242.515 35.2265 243.145C35.5927 243.501 35.7888 243.936 35.749 244.458C35.6881 245.254 35.2039 245.655 34.6255 246.102C33.6767 245.958 32.7426 245.712 32.1638 244.858C31.9057 244.477 31.8069 244.096 31.947 243.647C32.1255 243.075 32.6284 242.794 33.0957 242.486Z" fill="#FFC34F"/>
<path d="M7.13611 107.654C8.49169 107.611 9.67073 107.75 10.8655 108.46C12.4743 109.416 13.0456 110.895 13.5004 112.608C13.4024 113.067 13.2935 113.521 13.147 113.968C12.6486 115.487 11.6476 116.018 10.3063 116.676L7.85916 116.693C6.22826 115.886 4.9095 114.764 4.2766 112.997C3.90662 111.965 3.83751 110.748 4.34796 109.748C4.95194 108.566 5.93416 108.061 7.13611 107.654Z" fill="#4B2D10"/>
<path d="M7.46153 109.894C8.1827 109.978 8.91214 110.086 9.55443 110.45C10.0296 110.72 10.4608 111.104 10.5329 111.682C10.6227 112.4 10.1689 112.997 9.75951 113.527C8.88885 113.51 8.23754 113.474 7.51562 112.927C7.03221 112.561 6.67876 112.14 6.64458 111.502C6.60364 110.741 6.9646 110.379 7.46153 109.894Z" fill="#FFC34F"/>
<path d="M217.645 295.839C217.979 295.895 218.16 295.95 218.461 296.081C219.52 297.546 219.604 300.398 219.916 302.219C223.253 300.927 231.62 298.872 235.228 298.381C236.018 298.273 236.355 298.262 236.998 298.758C237.049 299.065 237.127 299.068 236.983 299.269C236.052 300.576 226.23 302.619 224.029 303.143L220.422 304.081C220.809 305.803 221.443 308.024 221.222 309.793C221.168 310.228 221.187 310.255 220.829 310.529C220.714 310.474 220.596 310.425 220.485 310.362C219.845 309.996 219.116 305.313 218.83 304.373C217.149 305.039 213.911 306.869 212.136 306.22C211.837 305.835 211.876 305.811 211.894 305.316C212.87 304.135 217.008 303.115 218.577 302.476C218.212 300.81 216.925 297.31 217.645 295.839Z" fill="#4B2D10"/>
<path d="M211.092 3.05981C211.401 3.17144 211.278 3.11028 211.572 3.28772C212.676 3.95223 214.146 11.8505 214.584 13.6222C218.297 12.5535 224.121 10.5087 227.73 9.98517C228.413 9.8862 229.192 9.77439 229.776 10.2148C229.87 10.6855 229.8 10.6765 229.612 11.0901C228.474 12.0957 217.355 14.6097 214.953 15.2696C215.244 16.837 215.56 18.3992 215.902 19.956C216.222 21.4659 216.592 22.9837 216.759 24.5193C216.583 24.9031 216.671 24.9163 216.252 25.0795L215.798 24.8453C214.471 22.3151 214.103 18.5855 213.503 15.7652C210.852 16.3235 207.312 17.4477 204.688 17.5694C204.082 17.5973 203.707 17.5395 203.257 17.13L203.279 16.6677C204.243 15.4483 211.309 14.3721 213.238 13.9286C212.502 11.2756 210.949 6.8688 210.655 4.31102C210.585 3.70676 210.737 3.53507 211.092 3.05981Z" fill="#4B2D10"/>
<path d="M68.0748 24.8037C68.1394 24.8411 68.2081 24.8721 68.2693 24.9151C69.1663 25.5475 71.157 35.2437 71.414 36.859C73.6195 35.9532 84.8202 32.1148 86.5533 32.417C86.9499 32.7793 86.9484 32.7574 87.0055 33.2911C86.817 33.6972 86.5935 33.877 86.198 34.0806C84.8499 34.7742 83.2877 35.1266 81.8367 35.5512C78.5242 36.5206 75.0412 37.3509 71.8485 38.6564L71.6134 38.7535C72.0285 40.314 72.3421 41.8688 72.6185 43.4596C72.981 44.6986 73.5628 46.0272 73.2296 47.3176C72.916 47.6946 72.9205 47.7067 72.4435 47.8022C70.8119 46.8552 70.3179 41.3113 69.7429 39.4078L69.6531 39.1154C67.4441 39.94 61.3086 41.9478 59.2776 41.8518C58.798 41.8292 58.6357 41.7377 58.3251 41.3857C58.3149 41.0499 58.3262 40.9301 58.5031 40.6287C59.1495 39.5271 67.9512 37.7282 69.7451 37.2107C69.0566 34.115 67.4347 29.4482 67.3649 26.4911C67.3465 25.7171 67.5583 25.3552 68.0748 24.8037Z" fill="#4B2D10"/>
<path d="M134.708 10.5846C135.866 10.5004 136.955 10.5823 138.043 11.0239C139.897 11.7753 141.304 13.3388 142.001 15.2076C142.803 17.3574 142.588 19.7977 141.575 21.8394C140.66 23.6821 139.156 24.9571 137.226 25.614C137.166 25.6208 137.107 25.6268 137.048 25.634C135.605 25.8108 134.471 25.7979 133.136 25.1486C131.478 24.3421 130.292 22.7525 129.721 21.0167C128.973 18.7377 129.247 15.7731 130.411 13.6667C131.414 11.852 132.798 11.0999 134.708 10.5846Z" fill="#4B2D10"/>
<path d="M134.11 13.0503C134.728 12.9857 135.357 12.9204 135.978 12.991C137.271 13.1387 138.488 13.9448 139.233 15.0022C139.335 15.1498 139.429 15.302 139.516 15.4589C139.603 15.616 139.681 15.7771 139.752 15.942C139.823 16.107 139.885 16.2751 139.939 16.4463C139.993 16.6176 140.038 16.7911 140.075 16.9669C140.112 17.1427 140.14 17.3198 140.159 17.4984C140.178 17.6769 140.188 17.856 140.189 18.0356C140.19 18.2154 140.182 18.3947 140.166 18.5735C140.149 18.7523 140.124 18.9298 140.089 19.1061C139.775 20.8038 138.825 22.0492 137.412 22.9732C136.739 23.201 136.053 23.3887 135.339 23.2705C134.231 23.0873 133.296 22.4051 132.668 21.4864C131.676 20.0354 131.467 18.1991 131.842 16.5041C132.174 14.9995 132.803 13.867 134.11 13.0503Z" fill="#FFC34F"/>
<path d="M309.895 88.397C311.317 88.3011 312.475 88.3037 313.823 88.8828C313.934 88.9307 314.043 88.9814 314.15 89.0351C314.258 89.0887 314.364 89.145 314.468 89.2039C314.573 89.2631 314.676 89.3249 314.777 89.3894C314.879 89.4539 314.979 89.5209 315.077 89.5904C315.175 89.6601 315.271 89.7323 315.365 89.8068C315.46 89.8816 315.552 89.9587 315.642 90.038C315.733 90.1176 315.821 90.1995 315.907 90.2836C315.993 90.3674 316.077 90.4537 316.159 90.5423C316.241 90.6307 316.32 90.7211 316.397 90.8136C316.474 90.9062 316.549 91.0008 316.621 91.0973C316.693 91.1937 316.763 91.2919 316.83 91.3919C316.897 91.4921 316.961 91.5939 317.023 91.6971C317.085 91.8006 317.144 91.9056 317.201 92.0122C317.257 92.1187 317.311 92.2266 317.362 92.3359C317.413 92.4452 317.461 92.5558 317.506 92.6676C317.551 92.7794 317.594 92.8924 317.633 93.0064C318.341 95.0142 318.183 97.3831 317.202 99.2742C316.171 101.262 314.353 102.293 312.28 102.907C310.748 103.001 309.194 102.863 307.81 102.144C306.158 101.288 304.995 99.7316 304.464 97.9565C303.887 96.0247 303.989 93.8265 304.958 92.0386C306.034 90.055 307.788 88.9875 309.895 88.397Z" fill="#4B2D10"/>
<path d="M309.974 91.0504C310.62 90.9673 311.318 90.8729 311.96 91.0365C313.186 91.3481 314.262 92.3442 314.838 93.4522C315.439 94.6059 315.596 95.9926 315.18 97.2335C314.674 98.7408 313.67 99.514 312.291 100.171C311.599 100.248 310.821 100.278 310.134 100.16C309.03 99.97 307.98 99.321 307.367 98.3706C306.673 97.2947 306.533 95.877 306.866 94.6531C307.351 92.872 308.434 91.903 309.974 91.0504Z" fill="#FFC34F"/>
<path d="M162.107 302.806C163.731 302.666 165.268 302.856 166.641 303.795C168.201 304.862 169.083 306.618 169.385 308.455C169.834 311.18 169.196 314.098 167.576 316.334C166.167 318.278 164.027 319.744 161.643 320.082C160.062 319.921 158.923 319.692 157.583 318.745C155.723 317.43 154.53 315.34 154.139 313.108C153.727 310.754 154.208 308.47 155.644 306.552C157.247 304.411 159.508 303.2 162.107 302.806Z" fill="#4B2D10"/>
<path d="M162.857 305.064C162.976 305.052 163.095 305.045 163.214 305.043C163.334 305.041 163.453 305.045 163.572 305.054C163.691 305.063 163.81 305.078 163.927 305.098C164.045 305.118 164.161 305.143 164.277 305.174C164.392 305.204 164.506 305.24 164.618 305.281C164.731 305.322 164.841 305.368 164.949 305.419C165.057 305.47 165.162 305.526 165.266 305.587C165.368 305.648 165.468 305.713 165.566 305.783C166.501 306.466 166.924 307.587 167.067 308.706C167.359 310.979 166.765 313.613 165.279 315.385C163.978 316.938 162.556 317.472 160.613 317.628C160.209 317.485 159.799 317.315 159.425 317.104C159.243 317.001 159.067 316.888 158.897 316.766C158.727 316.644 158.564 316.514 158.407 316.375C158.25 316.236 158.1 316.089 157.958 315.935C157.816 315.781 157.683 315.62 157.557 315.452C157.431 315.284 157.314 315.11 157.207 314.93C157.099 314.75 157 314.565 156.911 314.375C156.822 314.185 156.743 313.991 156.674 313.793C156.604 313.594 156.545 313.393 156.497 313.189C156.108 311.543 156.282 309.848 157.206 308.412C158.515 306.378 160.597 305.534 162.857 305.064Z" fill="#FFC34F"/>
<path d="M273.812 29.8968C280.763 29.2833 287.81 31.1483 293.204 35.6583C298.928 40.4437 302.47 47.0907 303.102 54.5514C303.122 54.7803 303.14 55.0095 303.154 55.2389C303.169 55.4681 303.181 55.6975 303.19 55.9272C303.199 56.1568 303.205 56.3867 303.208 56.6166C303.211 56.8463 303.212 57.0761 303.209 57.306C303.207 57.5359 303.201 57.7657 303.193 57.9954C303.185 58.2251 303.174 58.4546 303.159 58.684C303.145 58.9135 303.129 59.1426 303.109 59.3715C303.089 59.6005 303.066 59.8291 303.041 60.0576C303.016 60.286 302.987 60.514 302.956 60.7417C302.925 60.9693 302.891 61.1966 302.854 61.4235C302.817 61.6504 302.778 61.8767 302.735 62.1023C302.692 62.3282 302.647 62.5535 302.599 62.7782C302.551 63.0028 302.5 63.2268 302.446 63.4502C302.393 63.6736 302.336 63.8963 302.277 64.1184C302.217 64.3403 302.155 64.5614 302.091 64.7818C302.026 65.0021 301.958 65.2217 301.888 65.4406C301.817 65.6592 301.744 65.8769 301.669 66.0937C301.593 66.3105 301.514 66.5264 301.433 66.7412C301.352 66.956 301.268 67.1698 301.182 67.3826C301.095 67.5954 301.006 67.807 300.914 68.0173C300.822 68.2278 300.728 68.4372 300.631 68.6455C300.534 68.8535 300.434 69.0602 300.332 69.2657C300.23 69.4712 300.125 69.6755 300.018 69.8785C299.91 70.0814 299.801 70.283 299.688 70.4832C299.576 70.6832 299.461 70.8818 299.344 71.079C299.226 71.2764 299.106 71.4722 298.984 71.6664C298.862 71.8605 298.737 72.0532 298.61 72.2443C298.484 72.4352 298.354 72.6246 298.222 72.8125C298.09 73.0001 297.956 73.1862 297.82 73.3708C297.683 73.5551 297.545 73.7377 297.404 73.9185C297.263 74.0994 297.119 74.2784 296.974 74.4557C296.828 74.633 296.681 74.8084 296.531 74.9819C292.303 79.957 286.793 82.5688 280.376 83.0991C273.131 83.1279 270.178 81.1662 264.265 77.5764C262.123 76.2757 259.887 75.0749 257.957 73.4603C253.375 69.6272 250.973 63.1748 250.443 57.3464C249.806 50.3455 252.095 43.958 256.531 38.6003C260.882 33.3461 267.123 30.4963 273.812 29.8968Z" fill="#4B2D10"/>
<path d="M297.415 47.491C297.503 47.5446 297.599 47.5873 297.681 47.6515C298.913 48.6186 299.413 50.8386 299.701 52.3157L298.121 51.3607C297.574 49.9959 297.12 48.9941 297.415 47.491Z" fill="#FFC34F"/>
<path d="M272.967 32.7241C273.052 32.7097 273.137 32.692 273.222 32.681C277.498 32.1257 282.346 33.035 285.779 35.7522C290.565 39.5411 293.375 46.0102 294.078 51.9829C294.767 57.8437 292.985 64.8409 289.292 69.4665C285.439 74.2931 280.581 76.4127 274.598 77.0613C269.593 77.1199 265.276 75.8211 261.213 72.8233C256.479 69.3302 253.897 64.1643 253.072 58.3801C253.021 58.017 252.979 57.6527 252.946 57.2873C252.913 56.9219 252.888 56.556 252.873 56.1895C252.858 55.8229 252.852 55.4562 252.855 55.0895C252.858 54.7226 252.871 54.356 252.892 53.9899C252.913 53.6234 252.943 53.2579 252.982 52.8932C253.021 52.5286 253.069 52.1651 253.127 51.8027C253.184 51.4403 253.25 51.0795 253.325 50.7204C253.399 50.3615 253.483 50.0045 253.575 49.6495C253.668 49.2946 253.769 48.9423 253.879 48.5925C253.989 48.2427 254.107 47.8959 254.235 47.5522C254.362 47.2081 254.497 46.8675 254.641 46.5303C254.784 46.1934 254.936 45.8601 255.097 45.5304C255.257 45.2007 255.425 44.8754 255.601 44.5543C255.778 44.2332 255.962 43.9166 256.154 43.6046C256.346 43.2926 256.546 42.9856 256.753 42.6836C256.96 42.3817 257.174 42.085 257.396 41.7936C261.334 36.561 266.524 33.6137 272.967 32.7241Z" fill="#FFC34F"/>
<path d="M283.906 41.0728C286.376 41.8762 289.101 44.3128 290.331 46.5804C288.869 49.5386 283.373 55.6681 281.13 58.4469C279.008 61.0764 277 64.0131 274.657 66.4357C274.125 66.9861 273.298 67.9429 272.488 67.8806C270.753 67.7472 267.303 63.3203 266.144 62.0027C263.704 59.3558 261.089 56.8603 258.781 54.0936C260.01 52.1278 262.976 48.8349 264.91 47.549C267.39 48.9826 269.283 51.3198 271.171 53.4329C275.528 49.4147 279.583 45.1102 283.906 41.0728Z" fill="#4B2D10"/>
<path d="M282.646 45.2646C283.312 45.8728 283.909 47.0314 284.427 47.7975C280.345 53.5338 276.06 59.111 271.569 64.5291C269.287 62.0555 267.175 59.4569 264.807 57.0578L261.66 53.9398L264.892 50.3368C266.954 52.3211 268.738 54.9016 271.184 56.4058C275.047 52.7367 278.673 48.8235 282.646 45.2646Z" fill="#FFC34F"/>
<path d="M235.681 49.5459C235.927 49.518 236.166 49.5055 236.413 49.4953C239.665 49.3589 241.9 50.2028 244.28 52.432C247.126 55.0989 248.711 58.4115 249.786 62.1233C251.71 68.7665 251.855 76.9079 252.298 83.839C252.799 91.0543 253.214 98.2746 253.544 105.5C257.627 104.862 261.776 104.69 265.874 105.313C276.335 106.902 285.874 112.304 292.147 120.934C292.324 121.177 292.499 121.423 292.671 121.67C292.843 121.918 293.012 122.168 293.178 122.42C293.343 122.671 293.506 122.925 293.665 123.181C293.825 123.437 293.981 123.695 294.134 123.954C294.287 124.214 294.437 124.476 294.584 124.739C294.73 125.003 294.874 125.268 295.014 125.535C295.154 125.802 295.291 126.071 295.425 126.342C295.558 126.612 295.688 126.884 295.815 127.158C295.942 127.432 296.065 127.707 296.186 127.984C296.305 128.261 296.422 128.539 296.535 128.819C296.648 129.098 296.758 129.379 296.865 129.662C296.971 129.944 297.074 130.228 297.173 130.513C297.272 130.798 297.368 131.084 297.46 131.372C297.552 131.659 297.641 131.947 297.726 132.237C297.811 132.527 297.893 132.817 297.971 133.109C298.049 133.401 298.123 133.693 298.194 133.986C298.265 134.28 298.332 134.574 298.396 134.869C298.459 135.164 298.519 135.46 298.576 135.757C298.632 136.054 298.684 136.351 298.733 136.649C298.782 136.947 298.827 137.245 298.869 137.544C298.911 137.844 298.949 138.143 298.983 138.443C299.017 138.743 299.048 139.044 299.074 139.344C299.101 139.645 299.124 139.946 299.144 140.248C299.163 140.549 299.179 140.85 299.191 141.152C299.203 141.454 299.211 141.756 299.216 142.058C299.22 142.36 299.221 142.662 299.218 142.964C299.215 143.266 299.209 143.568 299.199 143.869C299.188 144.171 299.174 144.473 299.157 144.774C299.139 145.076 299.117 145.377 299.092 145.678C299.067 145.979 299.038 146.279 299.006 146.58C298.973 146.88 298.937 147.18 298.897 147.479C298.857 147.778 298.814 148.077 298.766 148.375C297.066 158.944 291.692 167.11 283.09 173.345C276.883 177.845 267.846 181.493 260.147 180.255C260.195 182.984 260.532 185.754 260.688 188.485C265.823 187.644 304.974 185.38 307.425 186.536C307.941 186.779 307.939 186.926 308.121 187.434C308.024 187.835 308.001 188.023 307.689 188.316C307.188 188.783 303.07 191.127 301.973 191.88C295.206 196.53 288.556 202.443 282.975 208.482C290.79 215.333 296.081 222.34 302.509 230.346C303.654 231.773 305.995 233.866 306.379 235.663L306.196 235.923C305.778 236.131 305.462 236.196 305.003 236.151C303.952 236.048 302.873 235.681 301.808 235.531C298.501 235.073 295.185 234.705 291.858 234.428C287.011 234.068 282.158 233.86 277.298 233.804C272.438 233.748 267.581 233.844 262.727 234.092C262.97 239.494 263.36 244.891 263.657 250.291C263.942 255.474 264.447 260.744 263.413 265.876C262.845 268.694 261.708 271.458 259.785 273.619C258.321 275.261 256.448 276.301 254.286 276.68C252.139 277.057 249.874 277.002 247.697 277.098C244.878 277.229 242.062 277.396 239.247 277.599L204.771 280.041L137.998 284.78C125.823 285.619 113.628 286.545 101.439 287.129C101.305 287.147 101.17 287.165 101.035 287.178C94.9838 287.758 88.8441 288.018 82.7757 288.373C78.8851 288.6 73.6168 289.362 69.8213 288.667C67.2307 288.192 65.0263 287.095 63.0404 285.356C61.0613 283.623 59.5931 281.446 58.9714 278.864C58.1718 275.543 58.1267 271.918 57.8837 268.516L56.7377 252.358L52.3938 191.462C45.1599 191.24 38.0477 191.804 30.8319 192.1C24.7756 192.349 18.7444 192.292 12.6922 192.785C8.94022 193.092 5.17661 193.678 1.44996 194.21C0.500309 194.345 -1.07053 194.869 -1.98405 194.753C-2.53736 194.682 -2.56666 194.525 -2.86125 194.092C-2.9242 193.691 -2.94937 193.438 -2.8493 193.034C-2.62769 192.139 -1.79065 191.021 -1.33458 190.192C3.77709 180.899 14.9977 170.993 23.8185 165.049C18.9438 159.766 10.523 153.955 4.32135 150.269C2.61191 149.253 0.812104 148.232 -0.999725 147.413C-1.62756 147.129 -2.33029 147.048 -2.93795 146.72C-3.18457 146.587 -3.30995 146.391 -3.45407 146.16C-3.47473 145.662 -3.49719 145.536 -3.27235 145.1C-2.88525 144.878 -2.56504 144.792 -2.12438 144.78C-0.57754 144.735 1.07428 144.986 2.6349 145.05C6.75431 145.238 10.8756 145.365 14.9988 145.431C21.1502 145.502 27.3413 145.237 33.4893 144.98C38.6712 144.763 43.7269 144.424 48.9055 145.007C48.6741 142.016 48.6347 138.999 48.436 136.002C47.681 126.043 47.0222 116.076 46.4595 106.104C45.981 98.6764 45.1978 91.2721 44.8177 83.8371C44.4594 76.824 44.5003 70.0973 49.4914 64.5915C52.2135 61.5888 55.7006 59.2584 59.7046 58.4753C64.5985 57.5177 69.8029 58.1372 74.7696 57.9056L109.236 56.0071L235.681 49.5459Z" fill="#4B2D10"/>
<path d="M250.062 218.837C250.107 218.887 250.159 218.931 250.197 218.987C251.083 220.259 251.789 228.443 251.404 230.168L250.95 230.136C250.346 229.151 249.986 220.48 250.062 218.837Z" fill="#FFC34F"/>
<path d="M41.7426 175.851C42.0863 175.828 42.4807 175.77 42.8007 175.939C44.2506 176.704 47.3967 182.534 47.7745 184.19C45.0333 183.336 44.2329 178.52 42.3616 176.561C42.1434 176.333 41.9462 176.092 41.7426 175.851Z" fill="#FFC34F"/>
<path d="M273.457 217.066C273.968 217.186 274.138 217.2 274.523 217.546C275.329 219.504 275.051 224.068 274.785 226.203L274.366 226.253L274.037 225.99C273.167 223.995 273.503 219.399 273.457 217.066Z" fill="#FFC34F"/>
<path d="M242.174 221.638L242.797 221.708C243.845 222.492 244.717 224.566 245.299 225.731C246.037 227.207 247.952 230.669 247.411 232.308C247.174 231.986 246.957 231.673 246.763 231.322C246.072 230.076 241.988 222.907 242.02 222.181C242.028 221.993 242.123 221.819 242.174 221.638Z" fill="#FFC34F"/>
<path d="M22.7857 181.648C23.0562 181.839 23.2293 182.08 23.4231 182.348C24.2645 183.515 26.2252 186.601 25.981 188.018C25.5112 188.137 25.2512 187.901 24.8234 187.703C23.238 186.498 21.888 184.91 20.4626 183.516C21.1856 182.811 21.971 182.237 22.7857 181.648Z" fill="#FFC34F"/>
<path d="M49.6029 156.039C49.9965 156.609 49.9338 157.469 49.9999 158.16C48.5526 158.577 47.081 158.911 45.6443 159.363C43.7655 159.955 41.8781 160.736 39.9298 161.047L39.6323 161.005L39.458 160.733C39.4926 160.654 39.5207 160.572 39.5613 160.496C40.6303 158.483 47.2925 156.713 49.6029 156.039Z" fill="#FFC34F"/>
<path d="M286.608 225.743C288.666 226.209 293.377 230.782 295.268 232.27L291.024 231.979C290.426 231.943 290.146 231.984 289.637 231.65C289.342 231.026 289.647 230.522 289.696 229.882C289.73 229.43 289.529 229.004 289.176 228.721C288.787 228.409 288.5 228.481 288.055 228.54C287.136 229.316 287.81 230.148 287.226 231.016C286.661 231.277 286.253 231.494 285.61 231.444C285.231 231.193 285.192 231.137 285.076 230.69C284.724 229.332 285.879 226.811 286.608 225.743Z" fill="#FFC34F"/>
<path d="M35.5303 174.314C36.1899 175.979 37.1973 177.606 37.9943 179.221C39.3706 182.008 40.5898 184.793 41.7039 187.696C41.0184 187.065 40.4332 186.362 39.8303 185.653C37.343 182.498 34.7923 179.331 32.5394 176.003L35.5303 174.314Z" fill="#FFC34F"/>
<path d="M240.052 87.7181L243.904 87.5557C244.074 94.4399 244.8 101.292 244.939 108.184C241.647 109.901 238.559 112.029 235.964 114.7L235.804 114.834L235.597 114.773C235.092 112.732 235.45 108.746 235.32 106.364C234.967 99.8939 233.601 93.9122 231.625 87.7668C234.432 87.7094 237.244 87.7298 240.052 87.7181Z" fill="#FFC34F"/>
<path d="M40.4083 146.844C43.3197 146.655 46.2423 146.729 49.1574 146.763C49.4508 149.115 49.5349 151.504 49.6806 153.87C45.5696 154.791 40.462 156.289 37.3163 159.174C37.5409 160.713 37.6247 162.12 38.9371 163.129C41.4465 163.302 46.8651 160.87 49.7197 160.293L50.0495 160.228C50.575 164.631 50.7278 169.103 51.0099 173.529C49.9886 170.768 49.1743 168.471 47.1321 166.27C46.4365 166.375 45.754 166.51 45.0745 166.692C40.4729 167.929 36.6988 170.408 32.6373 172.769C26.3996 176.395 20.2279 179.944 14.9131 184.898C14.3038 185.466 13.1357 186.301 12.8036 187.056C12.5456 187.644 12.4509 188.369 12.7605 188.96C13.0012 189.421 13.2277 189.473 13.6781 189.624C13.8899 189.574 14.1273 189.586 14.3136 189.473C15.1189 188.983 16.0846 187.33 16.8058 186.59C17.474 185.904 18.2297 185.337 18.9944 184.767C20.178 186.162 21.2958 187.587 22.3967 189.049L19.932 189.27C16.861 189.605 13.9339 190.406 10.8978 190.877C7.28331 191.437 3.5952 191.775 -0.0350342 192.284C4.61535 183.428 12.2245 176.496 20.0356 170.474C22.0211 168.944 24.333 167.665 26.2178 166.05C26.56 165.756 26.7185 165.73 26.7583 165.27C24.6042 161.392 7.45534 149.325 2.87778 147.134C5.62011 147.309 8.39925 147.273 11.148 147.331C20.933 147.536 30.6331 147.272 40.4083 146.844Z" fill="#FFC34F"/>
<path d="M298.802 188.568L302.813 188.495C299.105 190.7 281.071 205.145 280.364 208.496C280.139 209.564 283.16 211.638 283.949 212.335C290.726 218.322 296.249 225.876 301.688 233.072L298.958 232.572C294.241 228.11 288.866 223.952 283.508 220.284C280.787 218.421 277.961 216.711 275.261 214.819C271.829 212.413 268.601 209.495 264.904 207.511C264.383 207.235 263.851 206.979 263.311 206.744C262.77 206.51 262.221 206.296 261.664 206.103C261.106 205.91 260.543 205.74 259.972 205.591C259.402 205.442 258.827 205.315 258.247 205.211C253.359 204.305 250.095 205.618 246.106 208.419C238.378 213.846 231.323 223.149 226.338 231.068C225.482 232.428 224.139 234.088 223.864 235.673C223.973 235.945 223.988 236.121 224.237 236.299C225.005 236.847 226.467 236.505 227.358 236.42C236.343 235.837 245.375 235.225 254.334 234.326L254.937 245.176C248.91 245.71 242.78 245.81 236.733 246.147C229.347 246.56 221.963 247.181 214.573 247.506C213.605 243.249 213.576 236.169 213.252 231.54C212.384 219.117 211.402 206.665 211.214 194.209C215.318 193.77 219.457 193.65 223.577 193.42L242.265 192.26C247.159 191.929 252.039 191.431 256.931 191.085C270.875 190.027 284.832 189.188 298.802 188.568Z" fill="#FFC34F"/>
<path d="M227.643 199.519C230.702 199.423 239.745 199.363 242.058 201.033C242.339 201.237 242.623 201.571 242.649 201.928C242.682 202.379 242.517 202.668 242.239 203.011C240.969 204.576 239.161 204.501 237.311 204.675C235.484 204.884 225.558 205.913 224.59 205.199C223.883 204.677 223.589 203.538 223.48 202.71C223.381 201.959 223.39 201.167 223.916 200.569C224.776 199.592 226.45 199.612 227.643 199.519Z" fill="#4B2D10"/>
<path d="M226.381 201.775C229.639 201.523 235.649 201.435 238.76 202.317C238.474 202.548 238.009 202.531 237.647 202.582C235.8 202.859 226.983 203.644 225.666 203.017L225.57 202.433C225.814 201.969 225.894 201.989 226.381 201.775Z" fill="#FFC34F"/>
<path d="M261.8 198.387C264.111 198.282 270.471 197.998 272.212 199.325C272.65 199.658 272.928 200.116 272.988 200.669C273.078 201.485 272.745 202.461 272.213 203.077C270.79 204.725 267.068 204.529 265.005 204.705C262.172 204.728 257.137 205.923 254.859 203.934C254.084 203.256 253.69 202.265 253.616 201.247C253.57 200.61 253.674 200.013 254.119 199.527C255.472 198.045 259.838 198.434 261.8 198.387Z" fill="#4B2D10"/>
<path d="M259.755 200.649C262.61 200.494 267.999 200.118 270.653 201.094L270.487 201.529L270.775 201.319C269.725 202.24 267.756 202.265 266.419 202.419C263.614 202.727 260.191 203.277 257.409 202.801C256.721 202.683 255.992 202.51 255.583 201.9L255.709 201.495C256.954 200.566 258.263 200.702 259.755 200.649Z" fill="#FFC34F"/>
<path d="M257.475 108.656C257.525 108.645 257.574 108.63 257.625 108.624C264.286 107.895 271.622 110.275 276.855 114.401C283.548 119.679 287.438 127.962 288.376 136.351C288.956 141.534 288.331 150.079 286.678 155.036C285.975 157.145 284.906 159.184 283.505 160.911C278.525 167.047 268.426 170.847 260.781 171.627C260.355 171.647 259.93 171.657 259.504 171.658C259.078 171.659 258.652 171.651 258.226 171.633C257.801 171.615 257.376 171.588 256.951 171.551C256.527 171.515 256.103 171.469 255.681 171.414C255.258 171.359 254.837 171.294 254.418 171.22C253.998 171.147 253.58 171.064 253.164 170.972C252.748 170.88 252.334 170.779 251.922 170.668C251.511 170.558 251.102 170.439 250.695 170.31C250.289 170.182 249.885 170.045 249.485 169.899C249.084 169.753 248.687 169.598 248.293 169.434C247.9 169.271 247.51 169.099 247.123 168.918C246.737 168.737 246.355 168.548 245.977 168.35C245.599 168.153 245.225 167.947 244.856 167.733C244.487 167.519 244.123 167.297 243.763 167.067C243.404 166.837 243.05 166.6 242.701 166.354C242.352 166.108 242.008 165.855 241.67 165.594C235.05 160.446 230.949 152.016 229.932 143.768C228.865 135.11 230.971 126.804 236.398 119.929C241.426 113.561 249.508 109.553 257.475 108.656Z" fill="#FFC34F"/>
<path d="M263.944 121.374C264.38 121.41 264.616 121.476 264.995 121.697C266.327 123.433 265.861 127.583 265.868 129.725C270.347 131.477 281.35 134.825 284.763 137.892C285.202 138.286 285.495 138.662 285.519 139.276C284.732 141.092 270.74 150.376 268.068 153.19C268.025 153.236 267.983 153.282 267.941 153.328C268.122 154.941 268.599 157.014 268.383 158.623C268.296 159.268 268.08 159.523 267.582 159.914C266.359 160.171 265.465 159.407 264.464 158.805C262.213 157.422 259.942 156.072 257.652 154.756C254.606 153.032 242.729 147.105 241.32 144.863C241.405 142.647 255.702 130.169 258.228 127.634C260.224 125.631 261.912 123.326 263.944 121.374Z" fill="#4B2D10"/>
<path d="M263.127 126.128C263.749 126.896 263.554 130.434 263.597 131.533C269.761 134.26 276.219 135.635 282.026 139.267C279.248 141.221 276.523 143.307 273.848 145.403C272.464 146.488 268.869 149.779 267.418 150.361C267.341 150.149 267.265 149.936 267.177 149.729C266.979 149.263 266.911 149.123 266.441 148.931C265.999 149.073 265.514 149.268 265.272 149.7C264.373 151.305 265.389 154.6 265.747 156.356L265.657 156.465C264.925 156.443 260.593 153.45 259.56 152.835C254.682 149.932 249.653 147.259 244.735 144.42C246.722 142.466 248.423 140.238 250.414 138.29C252.423 136.324 254.611 134.534 256.665 132.614C258.89 130.533 260.998 128.309 263.127 126.128Z" fill="#FFC34F"/>
<path d="M230.927 52.2139C232.212 52.2588 233.419 52.6876 234.555 53.2769C238.704 55.4301 240.377 59.3837 241.713 63.6172C233.065 64.3965 224.219 64.2684 215.539 64.6122L170.229 66.7726C164.34 67.0627 158.452 67.2852 152.569 67.6792C150.731 67.8023 148.762 67.7298 146.95 68.0029C146.033 68.1412 145.102 68.4604 144.378 69.0569C143.77 69.5566 143.197 70.3303 143.192 71.1553C143.189 71.6426 143.395 72.0109 143.743 72.329C144.457 72.9802 145.661 73.12 146.579 73.1502C148.09 73.1997 149.63 73.0445 151.142 73.0048C155.254 72.9333 159.363 72.7791 163.469 72.5424L185.302 71.6264C204.282 70.7594 223.36 70.322 242.303 68.8763C243.031 74.3464 243.497 79.8391 243.701 85.3544C230.664 85.3642 217.424 85.9388 204.415 86.8597C193.99 87.5975 183.577 88.6363 173.138 89.1584C164.69 89.5807 156.2 89.6196 147.743 89.8444C141.632 90.0068 135.235 90.0125 129.249 91.3479C124.635 92.3776 115.71 95.7695 111.641 98.229C107.241 100.888 102.218 105.576 99.4861 109.915C95.063 116.938 92.3988 126.148 94.2832 134.438C95.8469 141.315 100.749 147.1 106.606 150.784C106.583 151.077 106.565 151.37 106.552 151.664C106.518 152.519 106.682 152.823 107.236 153.42C108.813 153.99 108.703 152.568 109.677 152.358C109.891 152.312 112.39 153.554 112.782 153.722C115.355 154.827 117.968 155.82 120.711 156.409C126.406 157.631 132.086 157.282 137.84 156.879C138.319 157.18 138.322 157.718 138.473 158.251C138.895 158.564 139.026 158.477 139.538 158.462C145.637 158.285 151.822 157.546 157.919 157.132C169.579 156.354 181.245 155.703 192.919 155.18C199.961 154.87 207.059 154.448 214.107 154.433C215.046 154.432 216.03 154.413 216.96 154.549C217.961 154.695 218.935 155.189 219.961 155.104C220.67 155.045 221.293 154.75 221.725 154.168C222.045 153.735 222.244 153.198 222.097 152.655C221.956 152.137 221.477 151.675 221.038 151.394C219.277 150.268 217.333 151.726 215.553 152.02C214.208 152.243 212.715 152.204 211.347 152.273C207.707 152.455 204.068 152.542 200.427 152.684C189.768 153.048 179.117 153.57 168.473 154.251L148.557 155.632C146.233 155.793 143.781 156.241 141.476 156.279C140.931 156.287 140.667 156.179 140.241 155.859C139.462 153.659 139.982 148.415 140.63 146.121C140.997 144.82 141.653 143.46 141.711 142.105C141.373 141.767 141.385 141.853 140.938 141.833C140.688 141.977 140.454 142.118 140.268 142.344C138.299 144.736 137.566 151.158 137.911 154.14L137.946 154.438C129.566 156.261 121.011 155.064 113.199 151.659C106.115 148.572 100.129 144.135 97.2535 136.704C94.6472 129.969 95.8097 122.138 98.6959 115.676C101.952 108.386 108.137 102.446 115.197 98.8652C117.931 97.4784 120.875 96.4275 123.73 95.3245C123.972 95.7763 124.238 96.4086 124.602 96.7686C124.927 97.0901 125.674 97.4029 126.127 97.3776C126.402 97.3625 126.481 97.1736 126.654 96.987C126.861 96.2088 126.878 95.553 126.487 94.8228C126.429 94.7137 126.366 94.6071 126.305 94.4991L126.493 94.2022C133.462 91.3905 148.9 91.803 156.87 91.6017C164.222 91.4556 171.572 91.2091 178.917 90.8621C195.575 90.003 212.155 88.4437 228.839 87.9167C230.346 91.2277 231.283 94.6547 231.966 98.2211C232.683 101.619 233.039 105.204 233.124 108.671C233.191 111.433 233.054 114.31 233.459 117.041C233.072 117.463 232.696 117.894 232.33 118.333C231.963 118.773 231.607 119.221 231.262 119.678C230.917 120.134 230.582 120.599 230.259 121.072C229.936 121.545 229.624 122.025 229.323 122.512C229.022 123 228.733 123.494 228.456 123.996C228.179 124.497 227.913 125.005 227.66 125.519C227.407 126.033 227.166 126.553 226.937 127.079C226.708 127.604 226.492 128.135 226.288 128.671C222.786 137.857 223.891 147.341 227.881 156.169C231.135 163.369 237.498 170.052 244.205 174.093C247.047 175.805 250.044 177.071 253.139 178.227C253.545 181.752 253.623 185.301 254.037 188.822C249.824 189.581 245.292 189.616 241.016 189.884L221.304 191.193C218.217 191.387 214.9 191.316 211.857 191.83C210.947 191.983 210.131 192.2 209.347 192.702C208.376 195.233 209.665 212.176 209.876 216.008L205.901 216.053C205.088 216.06 204.306 216.039 203.702 216.657C203.617 217.208 203.658 217.23 203.924 217.726C205.204 218.553 208.499 217.835 210.005 217.708C210.156 219.234 210.213 220.767 210.282 222.298C210.091 222.302 209.9 222.307 209.709 222.315C207.781 222.409 202.675 222.361 201.342 223.826C201.403 224.095 201.342 224.134 201.557 224.251C203.528 225.323 208.206 224.371 210.381 223.878C210.564 225.509 210.691 227.151 210.842 228.786C208.86 228.987 205.92 228.949 204.415 230.366L204.445 230.746C205.938 231.786 209.221 230.913 210.937 230.643C211.179 233.744 211.384 247.809 213.217 249.421C213.588 249.748 213.999 249.794 214.47 249.804C218.917 249.895 223.518 249.259 227.97 248.986C236.998 248.428 246.031 247.945 255.067 247.539C255.124 249.041 255.24 250.544 255.327 252.044C255.731 258.992 255.275 266.424 250.376 271.879C249.187 273.202 247.573 274.485 245.801 274.826C244.454 275.085 242.993 275.02 241.621 275.125L230.568 275.894L192.246 278.657L123.357 283.393C108.043 284.468 92.7139 285.722 77.3864 286.564C72.9696 286.807 68.8585 287.053 65.3537 283.835C62.9555 281.634 61.5792 278.579 61.0019 275.408C59.9592 269.677 59.7384 263.859 59.3951 258.058C59.1175 253.367 58.7359 248.68 58.4121 243.992L54.6673 191.043L49.8102 122.162L48.1745 98.24C47.782 92.7418 47.2415 87.256 47.0382 81.7445C46.8035 75.3737 48.4723 69.948 52.8718 65.2457C54.9445 63.0301 58.0526 60.994 61.0887 60.523C65.5167 59.8358 71.5408 60.2612 76.2502 60.0251L114.794 57.9263L189.753 54.0622C203.469 53.2634 217.194 52.6473 230.927 52.2139Z" fill="#FFC34F"/>
<path d="M172.623 138.77C173.116 138.829 173.722 138.892 174.121 139.219C174.485 139.519 174.731 139.847 174.749 140.337C174.776 141.092 174.297 141.59 173.823 142.1C173.182 141.977 172.427 141.893 171.973 141.365C171.66 141.002 171.521 140.631 171.602 140.151C171.705 139.541 172.189 139.153 172.623 138.77Z" fill="#4B2D10"/>
<path d="M128.77 140.678C129.41 140.765 129.997 140.889 130.409 141.455C130.707 141.865 130.732 142.29 130.639 142.773C130.491 143.537 129.943 144.001 129.333 144.401C128.677 144.204 127.961 143.957 127.55 143.36C127.27 142.954 127.141 142.567 127.282 142.077C127.498 141.329 128.145 141.023 128.77 140.678Z" fill="#4B2D10"/>
<path d="M209.507 136.67C210.098 136.682 210.637 136.783 211.153 137.085C211.665 137.385 212.066 137.8 212.136 138.423C212.23 139.268 211.662 139.758 211.129 140.302C211.011 140.327 210.893 140.355 210.774 140.378C210.214 140.483 209.655 140.351 209.211 139.98C208.813 139.648 208.656 139.178 208.629 138.676C208.583 137.811 208.978 137.305 209.507 136.67Z" fill="#4B2D10"/>
<path d="M153.995 106.1C154.177 106.086 154.36 106.075 154.544 106.075C155.213 106.076 155.689 106.226 156.16 106.726C156.605 107.198 156.806 107.776 156.762 108.423C156.704 109.298 156.321 109.837 155.701 110.417C155.023 110.428 154.42 110.351 153.868 109.925C153.451 109.603 153.195 109.112 153.124 108.593C152.986 107.586 153.39 106.86 153.995 106.1Z" fill="#4B2D10"/>
<path d="M204.579 98.1509C205.515 98.1811 206.094 98.4127 206.733 99.1255C207.208 99.6566 207.402 100.345 207.323 101.052C207.216 102.021 206.673 102.498 205.942 103.064C205.902 103.069 205.863 103.075 205.823 103.08C205.053 103.167 204.569 103.106 203.962 102.565C203.411 102.074 203.254 101.254 203.287 100.55C203.337 99.4394 203.773 98.8618 204.579 98.1509Z" fill="#4B2D10"/>
<path d="M61.3692 118.637C63.8689 118.748 67.5634 118.187 69.8317 118.718C70.3369 118.836 70.48 118.965 70.7572 119.391C70.7306 119.542 70.711 119.717 70.6276 119.85C70.3204 120.341 70.0252 120.39 69.5117 120.529C67.7043 120.739 61.853 121.314 60.4764 120.5C60.1958 120.007 60.209 120.005 60.3021 119.443C60.6424 118.929 60.8193 118.841 61.3692 118.637Z" fill="#4B2D10"/>
<path d="M133.77 225.954C134.188 225.898 134.613 225.914 135.035 225.911C135.379 226.083 135.586 226.185 135.828 226.5C136.052 226.793 135.966 226.82 135.911 227.154C134.652 228.378 115.992 229.565 113.173 229.798C112.512 229.871 111.546 230.087 110.942 229.742C110.51 229.495 110.439 229.384 110.341 228.934C110.428 228.769 110.479 228.645 110.627 228.513C111.079 228.108 111.855 227.928 112.436 227.849C115.058 227.493 117.799 227.446 120.446 227.227C124.89 226.858 129.33 226.377 133.77 225.954Z" fill="#4B2D10"/>
<path d="M130.532 220.666C131.342 220.591 132.177 220.608 132.99 220.643C133.591 220.668 133.951 220.725 134.361 221.176C134.352 221.594 134.398 221.843 134.04 222.14C133.64 222.473 132.999 222.597 132.501 222.67C130.814 222.919 128.977 222.871 127.262 223.006C122.88 223.353 118.503 223.748 114.113 223.967C113.144 223.986 112.177 224.175 111.206 224.134C110.604 224.109 110.306 223.954 109.908 223.512C109.849 223.038 109.914 222.812 110.096 222.373C111.473 221.402 127.841 220.812 130.532 220.666Z" fill="#4B2D10"/>
<path d="M133.003 194.983C133.057 194.978 133.111 194.969 133.165 194.967C133.757 194.947 134.128 195.073 134.563 195.468C134.662 195.983 134.662 195.948 134.377 196.389C132.842 197.299 112.553 198.34 108.662 198.854C108.455 198.87 108.154 198.917 107.943 198.884C107.38 198.799 107.305 198.645 106.95 198.229C106.88 197.734 106.854 197.721 107.107 197.297C108.631 196.273 129.822 195.186 133.003 194.983Z" fill="#4B2D10"/>
<path d="M136.527 258.069C136.552 258.065 136.577 258.059 136.603 258.057C137.142 258.029 137.465 258.015 137.885 258.41C138.231 258.735 138.241 259.158 138.245 259.592C138.147 259.704 138.085 259.862 137.952 259.929C137.103 260.36 117.199 261.812 114.272 262.061C114.094 262.079 113.851 262.112 113.677 262.092C113.213 262.038 112.819 261.856 112.567 261.441C112.316 261.03 112.424 260.815 112.579 260.419C114.023 259.33 133.287 258.301 136.527 258.069Z" fill="#4B2D10"/>
<path d="M128.302 189.694C129.65 189.612 131.222 189.355 132.427 190.123C132.792 190.356 132.815 190.414 132.911 190.812C132.876 190.855 132.845 190.9 132.806 190.939C132.291 191.463 131.403 191.611 130.709 191.705C128.33 192.028 125.807 191.979 123.405 192.129C119.284 192.385 115.174 192.769 111.056 193.045C109.844 193.207 107.878 193.655 106.758 193.116C106.457 192.971 106.488 192.857 106.378 192.569C106.464 192.283 106.537 191.987 106.748 191.763C107.97 190.462 125.693 189.827 128.302 189.694Z" fill="#4B2D10"/>
<path d="M130.406 252.992C131.678 252.938 134.581 252.512 135.7 252.861C136.142 252.998 136.267 253.262 136.467 253.653C136.458 254.21 136.42 254.268 136.111 254.736C134.989 255.455 120.669 256.01 118.056 256.24C117.158 256.286 114.418 256.696 113.696 256.443C113.068 256.223 112.738 255.908 112.425 255.333C112.441 255.089 112.381 254.885 112.582 254.711C113.83 253.627 127.813 253.086 130.406 252.992Z" fill="#4B2D10"/>
<path d="M84.2464 106.581C84.4192 106.588 84.6036 106.585 84.7708 106.639C85.2065 106.779 85.4405 107.153 85.6816 107.511L85.5798 107.961C85.0037 108.472 84.2423 108.602 83.5042 108.728C80.5238 109.236 77.3701 109.289 74.3506 109.501C68.7578 109.877 63.1671 110.282 57.5785 110.717C57.2438 110.827 57.0872 110.769 56.748 110.707L56.502 110.313C56.5343 109.976 56.4945 109.767 56.709 109.487C57.0891 108.99 57.7389 108.666 58.3481 108.551C60.2923 108.183 62.4787 108.242 64.4619 108.106C70.9994 107.659 77.7822 107.612 84.2464 106.581Z" fill="#4B2D10"/>
<path d="M204.616 92.9329C205.143 92.9714 205.472 92.9865 205.914 93.3167L205.966 93.7031C205.243 94.85 202.554 95.9281 201.362 97.3122C200.342 98.4976 199.443 100.161 199.639 101.781C199.801 103.109 200.622 104.318 201.659 105.124C203.167 106.296 205.261 106.77 207.134 106.483C210.013 106.04 210.421 104.434 212.014 102.454C212.303 102.095 212.517 101.991 212.96 101.962C213.013 102.064 213.079 102.159 213.121 102.266C213.349 102.845 213.016 103.722 212.827 104.266C212.621 104.786 212.366 105.298 212.095 105.787C211.309 107.201 209.977 108.175 208.424 108.567C206.022 109.171 202.899 108.824 200.792 107.525C199.25 106.574 198.088 105.029 197.691 103.246C197.213 101.101 197.794 98.7016 198.953 96.8695C200.271 94.7854 202.247 93.4659 204.616 92.9329Z" fill="#4B2D10"/>
<path d="M115.041 67.2644C115.842 67.2221 116.781 67.0967 117.54 67.3925C118.638 67.8205 119.471 68.7588 119.877 69.8558C120.441 71.3801 120.435 73.2862 119.755 74.7727C119.083 76.2399 118.119 76.9176 116.638 77.4328C115.624 77.4816 114.672 77.4687 113.755 76.9765C112.593 76.3517 111.798 75.2532 111.487 73.9722C111.104 72.3955 111.381 70.5263 112.277 69.1675C112.993 68.0823 113.79 67.5424 115.041 67.2644Z" fill="#4B2D10"/>
<path d="M90.1557 94.116C90.5546 94.0336 90.9602 93.997 91.3674 94.0333C91.9312 94.0835 92.2512 94.4424 92.5795 94.8632L92.5246 95.2821C90.4081 97.2072 63.4723 97.308 58.7017 97.7678C58.2581 97.8297 57.765 97.9306 57.3176 97.9219C56.764 97.9113 56.3365 97.7526 55.9714 97.3235C55.7517 97.0655 55.8223 97.0138 55.8411 96.7059C56.5269 95.8937 58.1977 95.8114 59.196 95.6848C61.9947 95.3297 64.8745 95.3422 67.6931 95.2262C75.1778 94.9187 82.7036 94.9161 90.1557 94.116Z" fill="#4B2D10"/>
<path d="M155.731 97.4609C156.062 97.4428 156.454 97.3888 156.78 97.4813C157.236 97.6116 157.585 97.9146 157.792 98.3347C157.737 98.6969 157.706 98.9349 157.395 99.1831C157.007 99.4925 155.982 99.7161 155.488 99.9318C153.416 100.835 152.044 102.663 150.904 104.547C149.867 106.261 149.27 108.054 149.807 110.062C150.313 111.951 151.706 113.54 153.405 114.453C154.82 115.213 156.551 115.473 158.09 114.957C159.851 114.367 160.814 113.111 161.642 111.525C162.071 110.705 162.717 109.095 163.643 108.807L163.978 108.985C164.223 109.529 164.007 110.399 163.935 110.993C163.872 111.243 163.807 111.479 163.713 111.72C162.827 113.973 161.343 116.016 159.042 116.951C157.043 117.763 154.738 117.639 152.784 116.756C150.487 115.718 148.636 113.637 147.835 111.239C147.062 108.922 147.457 106.493 148.517 104.341C150.048 101.238 152.409 98.5575 155.731 97.4609Z" fill="#4B2D10"/>
<path d="M147.602 218.214C147.953 218.159 148.129 218.169 148.471 218.22C149.474 219.553 150.067 224.032 150.325 225.783C147.181 226.403 143.926 226.521 140.748 226.959C140.043 227.043 139.436 227.106 138.731 226.994C137.901 226.13 137.459 220.769 137.365 219.371C140.785 219.048 144.182 218.536 147.602 218.214Z" fill="#4B2D10"/>
<path d="M131.873 66.3341C132.04 66.3112 132.208 66.2922 132.376 66.277C133.625 66.1682 134.929 66.54 135.881 67.3767C137.084 68.434 137.681 70.064 137.73 71.6438C137.775 73.1314 137.313 74.6617 136.273 75.7481C135.157 76.9128 134.037 77.1005 132.519 77.1594C131.286 77.1065 130.235 76.9917 129.162 76.3303C129.008 76.2376 128.859 76.137 128.716 76.0284C128.573 75.9196 128.436 75.8037 128.306 75.6805C128.175 75.5571 128.051 75.4272 127.934 75.2907C127.816 75.1542 127.707 75.0118 127.605 74.8634C127.503 74.7151 127.409 74.5617 127.324 74.4033C127.238 74.2452 127.161 74.0827 127.092 73.916C127.024 73.7493 126.964 73.5794 126.914 73.4064C126.863 73.2334 126.822 73.0583 126.79 72.881C126.512 71.4062 126.76 69.7063 127.622 68.459C128.709 66.8837 130.122 66.6144 131.873 66.3341Z" fill="#4B2D10"/>
<path d="M161.136 186.286C161.661 186.162 162.313 186.16 162.855 186.104C163.431 188.529 164.018 191.011 164.347 193.483C156.205 194.22 148.069 195.019 139.939 195.879C139.01 196.036 138.044 196.044 137.105 196.095C136.901 193.667 136.564 191.253 136.369 188.822C144.577 187.713 152.9 187.227 161.136 186.286Z" fill="#4B2D10"/>
<path d="M180.962 249.973C182.269 249.833 183.617 249.844 184.932 249.8C185.288 252.121 185.72 254.457 185.877 256.801C182.309 256.912 178.714 257.31 175.149 257.549L144.349 259.833C143.149 259.858 141.982 259.969 140.791 260.11C140.577 257.758 140.049 255.456 139.93 253.087C153.6 251.951 167.277 250.913 180.962 249.973Z" fill="#4B2D10"/>
<path d="M94.1821 247.832C97.1382 247.667 99.2686 248.183 101.719 249.847C104.472 251.717 106.276 254.272 106.868 257.583C107.366 260.375 106.918 263.141 105.244 265.478C103.189 268.346 100.436 269.113 97.1645 269.678C93.92 269.852 90.6285 269.72 87.7934 267.94C85.791 266.682 84.2657 264.701 83.804 262.35C83.2136 259.34 84.2833 255.936 85.9274 253.423C87.8723 250.45 90.7344 248.549 94.1821 247.832Z" fill="#4B2D10"/>
<path d="M94.5233 250.084C97.0155 249.949 99.3247 250.81 101.277 252.349C103.192 253.858 104.513 255.979 104.782 258.432C105.014 260.554 104.564 262.946 103.185 264.622C101.413 266.775 98.6907 267.283 96.0828 267.539C94.0613 267.801 91.6994 267.465 89.9085 266.489C88.2074 265.561 86.7835 263.996 86.2591 262.098C85.6394 259.854 86.3485 257.346 87.4385 255.354C89.0161 252.472 91.4545 250.966 94.5233 250.084Z" fill="#FFC34F"/>
<path d="M101.025 254.748C101.262 254.764 101.527 254.838 101.761 254.885C102.102 255.23 102.129 255.243 102.198 255.72C102.059 256.122 101.881 256.369 101.585 256.662C100.526 257.714 94.9508 262.636 93.7319 262.48C92.6618 262.343 91.627 260.735 90.9554 259.934L90.4311 259.188C90.3454 258.658 90.4638 258.19 90.6955 257.711C90.8919 257.305 91.2653 256.929 91.7138 256.825C93.4055 256.432 93.1373 258.784 94.1537 259.525C95.5221 259.398 97.6905 256.923 98.8425 256.063C99.5212 255.556 100.283 255.153 101.025 254.748Z" fill="#4B2D10"/>
<path d="M85.7435 185.311C88.8179 185.106 92.3636 185.259 95.1416 186.751C97.6571 188.101 99.3225 190.461 100.105 193.178C100.958 196.142 100.725 199.988 99.1869 202.682C97.7536 205.194 95.4688 206.761 92.7392 207.522C89.5897 208.143 85.9568 208.032 83.0954 206.434C80.6652 205.076 78.9326 202.852 78.2617 200.134C77.426 196.751 77.7464 192.263 79.6383 189.276C81.0762 187.006 83.1848 185.833 85.7435 185.311Z" fill="#4B2D10"/>
<path d="M87.0794 187.602C87.3181 187.576 87.5574 187.558 87.7976 187.548C88.0375 187.538 88.2774 187.537 88.5172 187.544C88.7574 187.552 88.9969 187.567 89.2358 187.591C89.4749 187.615 89.7128 187.647 89.9494 187.688C90.1861 187.728 90.4211 187.777 90.6545 187.834C90.8878 187.891 91.119 187.956 91.3478 188.029C91.5767 188.103 91.8028 188.184 92.0262 188.273C92.2493 188.362 92.4692 188.458 92.6858 188.563C95.0446 189.717 96.858 191.588 97.6521 194.14C98.3954 196.528 98.2655 199.314 97.0282 201.514C95.7387 203.809 93.7728 204.814 91.337 205.447C88.6457 205.761 85.9886 205.727 83.6602 204.098C81.8111 202.803 80.8026 200.935 80.4214 198.733C79.947 195.993 80.1817 192.497 81.8768 190.209C83.2095 188.409 84.9783 187.884 87.0794 187.602Z" fill="#FFC34F"/>
<path d="M87.8987 190.029C89.1277 189.891 90.6853 189.802 91.7671 190.501C92.9739 191.281 93.2301 192.526 93.5595 193.834C94.6675 194.551 95.551 195.146 95.9499 196.476C96.2688 197.538 96.1196 198.614 95.5836 199.579C94.645 201.268 93.0483 201.976 91.287 202.456C89.4691 202.58 87.9663 202.558 86.2753 201.736C84.73 200.985 83.5176 199.757 82.959 198.107C82.4373 196.567 82.5207 194.782 83.2599 193.325C84.2534 191.367 85.9402 190.652 87.8987 190.029Z" fill="#4B2D10"/>
<path d="M89.4904 192.292C89.9051 192.292 90.4148 192.261 90.7867 192.478C91.1983 192.718 91.4102 193.159 91.4819 193.617C91.5615 194.125 91.4102 194.42 91.1089 194.798L90.8678 194.621C90.0959 193.94 89.0705 193.639 88.3944 192.922C88.6472 192.489 89.0356 192.463 89.4904 192.292Z" fill="#FFC34F"/>
<path d="M86.5159 194.275C86.7923 196.043 87.6645 197.234 88.7785 198.574L88.6666 198.993C88.1926 199.059 87.657 199.135 87.1908 198.979C86.7656 198.837 86.505 198.474 86.3341 198.08C85.8773 197.03 86.1091 195.314 86.5159 194.275Z" fill="#FFC34F"/>
<path d="M94.5068 215.562C97.3475 215.703 99.7725 216.566 101.789 218.668C104.048 221.023 105.115 224.007 105.023 227.265C104.927 230.686 103.754 233.918 101.213 236.265C98.9533 238.353 95.782 239.368 92.7418 239.263C90.244 239.02 88.0527 237.926 86.1454 236.319C83.5398 234.125 82.0565 231.151 81.7763 227.748C81.5509 225.014 82.3694 222.517 84.1651 220.445C86.874 217.321 90.4735 215.848 94.5068 215.562Z" fill="#4B2D10"/>
<path d="M94.1483 217.831C94.276 217.825 94.4038 217.821 94.5317 217.82C94.6597 217.82 94.7877 217.823 94.9156 217.828C95.0433 217.834 95.1709 217.843 95.2984 217.855C95.4258 217.867 95.5529 217.882 95.6796 217.9C95.8063 217.918 95.9325 217.94 96.0582 217.964C96.1837 217.988 96.3086 218.016 96.4331 218.047C96.5573 218.077 96.6807 218.111 96.8034 218.147C96.9261 218.184 97.0478 218.224 97.1685 218.266C97.2895 218.309 97.4092 218.354 97.5276 218.403C97.6463 218.451 97.7636 218.502 97.8796 218.557C97.9958 218.611 98.1104 218.668 98.2236 218.728C98.3371 218.788 98.4489 218.85 98.559 218.915C98.6692 218.981 98.7778 219.049 98.8847 219.119C98.9919 219.19 99.0972 219.263 99.2006 219.339C99.304 219.415 99.4054 219.493 99.5048 219.574C99.6045 219.655 99.7021 219.738 99.7978 219.824C101.618 221.46 102.709 223.835 102.871 226.274C103.061 229.121 102.234 232.029 100.284 234.153C98.44 236.161 95.9745 236.893 93.3456 236.989C91.3838 236.773 89.6387 236.052 88.0957 234.821C85.9506 233.109 84.417 230.559 84.1593 227.793C83.9474 225.518 84.7043 223.469 86.1786 221.752C88.2444 219.348 91.0371 218.084 94.1483 217.831Z" fill="#FFC34F"/>
<path d="M99.4892 222.424C99.5606 222.435 99.6331 222.441 99.7033 222.458C100.229 222.585 100.274 222.6 100.544 223.044C100.469 223.784 100.103 224.229 99.6473 224.788C98.4585 226.248 95.2196 229.836 93.3701 229.994C92.1359 229.618 91.1713 228.574 90.2391 227.715C89.7947 227.288 89.4345 226.868 89.0728 226.369C89.0183 226.017 88.9992 225.838 89.116 225.49C89.2343 225.135 89.344 225.166 89.6505 225.001C91.2434 225.136 92.566 226.547 93.7213 227.552C95.4799 225.778 97.2453 223.575 99.4892 222.424Z" fill="#4B2D10"/>
</g>
<defs>
<clipPath id="clip0_486_405">
<rect width="317.935" height="320" fill="white" transform="translate(0.0322266 0.31958)"/>
</clipPath>
</defs>
</svg>
