<svg width="336" height="321" viewBox="0 0 336 321" fill="none" xmlns="http://www.w3.org/2000/svg">
<g clip-path="url(#clip0_486_662)">
<path d="M136.04 12.0073C136.961 11.9975 137.689 12.141 138.436 12.7145C138.925 13.0897 139.184 13.5692 139.201 14.1907C139.217 14.7801 138.803 15.2222 138.459 15.6552C137.253 15.6111 136.354 15.3649 135.517 14.4131C135.229 14.0865 135.004 13.5893 135.105 13.1486C135.248 12.5257 135.575 12.363 136.04 12.0073Z" fill="#4B2D10"/>
<path d="M20.1717 43.9505C20.6429 43.9233 21.1825 43.858 21.645 43.9637C22.1268 44.074 22.6305 44.4228 22.8491 44.8736C23.0303 45.2474 23.0009 45.6786 22.8113 46.0437C22.4477 46.7452 21.7088 47.0551 21.0156 47.3292C20.3692 47.3693 19.6631 47.4595 19.048 47.2088C18.4828 46.9781 18.1668 46.6432 17.9093 46.0943C17.8885 45.7563 17.8715 45.5083 18.0342 45.1953C18.462 44.3722 19.3607 44.2065 20.1717 43.9505Z" fill="#4B2D10"/>
<path d="M318.704 93.9814C319.159 93.9875 319.643 93.9905 320.089 94.0894C320.699 94.2246 321.282 94.7249 321.544 95.2882C321.743 95.7144 321.747 96.1599 321.547 96.587C321.214 97.2971 320.569 97.64 319.883 97.931C319.763 97.905 319.643 97.8805 319.524 97.8529C318.292 97.566 317.387 97.0408 316.733 95.9504C316.708 95.6212 316.625 95.4082 316.794 95.1058C317.194 94.3862 317.971 94.2031 318.704 93.9814Z" fill="#4B2D10"/>
<path d="M25.1483 35.5701C25.2362 35.5769 25.325 35.5784 25.4126 35.5897C25.8736 35.6486 26.2549 35.806 26.526 36.1896C27.2415 37.2011 27.1664 38.6294 26.9478 39.7832C26.7775 40.681 26.5007 40.8283 25.7818 41.3104C25.1924 41.1518 24.7114 41.0382 24.3274 40.5153C23.7384 39.7126 23.5488 38.7544 23.7161 37.7837C23.909 36.6646 24.2273 36.2149 25.1483 35.5701Z" fill="#4B2D10"/>
<path d="M31.082 42.2661C31.7526 42.1759 32.5062 42.1162 33.1757 42.2155C33.8787 42.3197 35.0439 42.8774 35.4117 43.5132C35.5702 43.7873 35.642 44.0814 35.5525 44.3846C35.321 45.1691 34.6894 45.5206 33.9969 45.854C33.2852 45.9865 32.4186 46.0915 31.699 45.9994C30.8921 45.8955 30.14 45.4319 29.6499 44.7995C29.5812 44.5016 29.4792 44.2875 29.5657 43.9825C29.793 43.1805 30.3975 42.6803 31.082 42.2661Z" fill="#4B2D10"/>
<path d="M123.416 3.8894C124.762 3.93626 126.203 4.58448 127.23 5.44757C127.856 5.97264 128.433 6.71401 128.467 7.56237C128.505 8.47455 128.046 9.00728 127.438 9.60872C126.21 9.58267 124.645 8.07321 123.737 7.2339C123.005 6.55657 122.398 6.01746 122.351 4.9731C122.604 4.36392 122.875 4.20387 123.416 3.8894Z" fill="#4B2D10"/>
<path d="M133.574 -0.111084C133.839 -0.0901297 134.107 -0.0777454 134.369 -0.0311928C134.785 0.0427702 135.084 0.280442 135.3 0.642479C135.728 1.35991 135.619 2.33106 135.403 3.0967C134.952 4.69312 134.26 5.92062 132.808 6.75551C132.348 6.6917 131.853 6.65508 131.481 6.3442C131.091 6.0189 130.886 5.57089 130.879 5.06814C130.855 3.43748 132.496 1.03159 133.574 -0.111084Z" fill="#4B2D10"/>
<path d="M27.2896 47.722C28.095 47.6721 28.8218 47.6042 29.5241 48.0826C30.2064 48.5473 30.5772 49.3636 30.6988 50.1599C30.9287 51.6678 30.4866 53.1206 29.591 54.3141C29.4856 54.3398 29.3825 54.3745 29.2753 54.3907C28.8222 54.4579 28.5077 54.4251 28.1392 54.1302C27.1586 53.346 26.4658 50.1546 26.5239 48.946C26.553 48.3393 26.9007 48.1188 27.2896 47.722Z" fill="#4B2D10"/>
<path d="M310.29 101.884C310.617 101.898 311.031 101.888 311.343 101.984C311.858 102.143 312.233 102.545 312.477 103.01C313.055 104.11 313.066 105.361 312.709 106.531C312.43 107.445 312.119 107.9 311.274 108.339C310.813 108.429 310.402 108.448 309.935 108.455C309.628 108.28 309.499 108.249 309.298 107.94C308.474 106.678 308.851 104.193 309.284 102.836C309.468 102.259 309.799 102.151 310.29 101.884Z" fill="#4B2D10"/>
<path d="M127.926 13.1274C128.074 13.1354 128.222 13.1493 128.37 13.1686C129.097 13.2645 129.783 13.4272 130.209 14.0743C130.416 14.3892 130.437 14.848 130.352 15.2123C130.01 16.6598 128.283 18.3739 127.077 19.2012C126.437 19.1162 125.667 18.9618 125.208 18.4706C124.873 18.1123 124.793 17.7106 124.843 17.2379C124.997 15.7839 126.791 13.9528 127.926 13.1274Z" fill="#4B2D10"/>
<path d="M311.464 81.2454C311.547 81.2624 311.631 81.2763 311.714 81.296C312.432 81.4674 312.93 81.6996 313.314 82.3708C314.095 83.7361 314.047 85.7322 313.612 87.199C313.339 88.1229 312.903 88.4174 312.065 88.841C311.395 88.5884 310.961 88.3676 310.561 87.7521C309.774 86.5387 309.602 84.9503 309.901 83.5567C310.129 82.4905 310.55 81.8309 311.464 81.2454Z" fill="#4B2D10"/>
<path d="M300.831 93.0267C302.453 92.9527 304.322 93.089 305.829 93.7256C306.515 94.0152 306.811 94.3082 307.08 94.9995C306.957 95.9985 306.446 96.45 305.711 97.076C305.466 97.136 305.221 97.1987 304.973 97.2455C303.58 97.5076 301.783 97.1073 300.631 96.2729C300.175 95.943 299.788 95.4454 299.79 94.8567C299.793 94.0846 300.302 93.5183 300.831 93.0267Z" fill="#4B2D10"/>
<path d="M273.861 72.7075C274.109 72.7596 274.355 72.8419 274.599 72.9118L274.836 73.3588C274.951 76.2252 272.642 80.2246 271.109 82.5825C269.929 84.3978 267.698 87.8501 265.46 88.3285C265.107 88.0846 264.606 87.7259 264.511 87.2913C264.386 86.7212 264.6 86.304 264.899 85.8359C266.347 83.5634 268.477 81.5906 270.055 79.36C271.56 77.2325 272.52 74.8887 273.861 72.7075Z" fill="#4B2D10"/>
<path d="M262.935 25.0139C263.724 25.0358 264.506 25.1204 265.273 25.3099C269.578 26.3708 272.915 29.1897 275.164 32.9577C278.144 37.9501 279.756 44.9764 278.319 50.7035C277.933 50.9399 277.76 50.9606 277.31 50.9289C277.032 50.6933 276.94 50.6227 276.854 50.2501C276.608 49.1842 276.709 47.8556 276.674 46.7607C276.608 44.6838 276.359 42.8149 275.792 40.8112C275.15 38.5417 274.269 36.2737 273.088 34.2278C271.312 31.153 268.274 27.6832 264.699 26.7835C264.193 26.6559 263.749 26.5245 263.267 26.3248C262.853 25.8056 262.934 25.6592 262.935 25.0139Z" fill="#4B2D10"/>
<path d="M225.57 64.207C225.653 64.2527 225.737 64.295 225.818 64.3437C226.077 64.4996 226.402 64.6261 226.501 64.927C226.888 66.1035 226.479 69.8096 226.958 71.8891C228.258 77.5351 231.699 82.3697 237.038 84.8019C237.941 85.2131 238.953 85.691 239.929 85.8859C241.249 86.1494 243.98 86.0637 245.035 86.934C245.457 87.2817 245.456 87.3957 245.51 87.9035C245.297 88.4646 245.053 88.7239 244.625 89.1158C241.597 89.6221 238.415 88.9656 235.688 87.6098C235.389 87.4573 235.094 87.2975 234.803 87.1307C234.511 86.9635 234.224 86.7894 233.942 86.6081C233.659 86.4269 233.381 86.2388 233.108 86.0437C232.834 85.8489 232.566 85.6473 232.303 85.4388C232.039 85.2307 231.781 85.0161 231.528 84.7951C231.276 84.5741 231.029 84.347 230.787 84.1136C230.545 83.8805 230.31 83.6416 230.08 83.3967C229.85 83.1517 229.627 82.9013 229.409 82.6453C229.192 82.3896 228.981 82.1284 228.777 81.8619C228.573 81.5956 228.375 81.3244 228.184 81.0483C227.993 80.7721 227.809 80.4915 227.631 80.2063C227.454 79.9211 227.284 79.6317 227.122 79.3379C226.959 79.0444 226.803 78.7471 226.655 78.4458C226.507 78.1445 226.366 77.8397 226.234 77.5313C226.1 77.223 225.975 76.9116 225.857 76.5973C225.74 76.2829 225.63 75.9657 225.528 75.6458C224.462 72.3562 223.948 67.3966 225.57 64.207Z" fill="#4B2D10"/>
<path d="M5.36598 220.277C6.53744 220.214 7.60674 220.189 8.68792 220.724C10.0158 221.381 10.8982 222.546 11.3137 223.955C11.823 225.683 11.6773 227.706 10.7942 229.29C9.79973 231.073 8.34358 231.707 6.4719 232.197C5.3642 232.221 4.26973 232.076 3.2522 231.615C3.09105 231.543 2.93408 231.464 2.78129 231.376C2.6285 231.288 2.48074 231.192 2.33802 231.088C2.19529 230.985 2.05838 230.874 1.92729 230.756C1.7962 230.638 1.67163 230.514 1.5536 230.383C1.43557 230.252 1.32473 230.115 1.22107 229.972C1.11739 229.83 1.02147 229.682 0.933323 229.529C0.845172 229.377 0.765266 229.22 0.693602 229.058C0.621938 228.897 0.558896 228.733 0.504475 228.565C-0.0100848 227.029 0.101261 225.244 0.835683 223.796C1.77985 221.934 3.46232 220.938 5.36598 220.277Z" fill="#4B2D10"/>
<path d="M5.48131 223.555C6.11051 223.689 6.3992 223.816 6.7494 224.392C7.13755 225.03 7.10228 225.883 6.85478 226.562C6.60347 227.252 6.26501 227.527 5.6223 227.843C5.11952 227.672 4.61946 227.486 4.29297 227.036C3.94485 226.557 3.80405 226.037 3.92986 225.449C4.12416 224.542 4.74648 224.044 5.48131 223.555Z" fill="#FFC34F"/>
<path d="M260.367 43.696C261.005 43.8078 261.354 43.9535 261.823 44.4104C262.244 44.8193 262.557 45.3237 262.483 45.938C262.323 47.2753 259.994 49.5055 259.086 50.5834C257.47 52.5029 255.988 54.5745 254.575 56.6477C253.287 58.537 251.209 62.4828 249.571 63.7895C249.061 64.1954 248.391 64.4242 247.74 64.266C246.226 63.8975 244.454 59.1792 243.806 57.7902C242.924 56.4355 241.937 54.8853 242.042 53.2025C242.084 52.5406 242.366 51.8486 242.935 51.468C243.399 51.1577 243.948 51.1471 244.464 51.3215C246.738 52.0895 247.747 56.491 248.638 58.4845C251.312 54.886 256.712 45.5094 260.367 43.696Z" fill="#4B2D10"/>
<path d="M256.652 33.2209C258.359 33.0653 259.997 33.1484 261.637 33.68C265.518 34.9376 268.507 37.952 270.308 41.549C272.759 46.4474 273.243 52.5755 271.461 57.765C269.133 64.5421 263.443 70.4995 257.04 73.5774C253.101 75.4708 248.434 76.7371 244.17 75.1548C240.834 73.9172 238.501 71.1331 237.116 67.9431C234.516 61.9585 234.297 54.0955 236.717 48.0169C238.451 43.6599 241.365 39.8942 245.734 38.003C246.268 37.8063 246.828 37.5794 247.388 37.471C247.95 37.3623 248.572 37.3423 249.051 37.701C249.292 37.8811 249.255 38.0483 249.311 38.3243C248.502 40.4613 244.628 42.3215 243.105 44.4649C239.315 49.7978 238.239 55.7273 239.389 62.1624C239.957 65.3425 241.005 68.6038 243.837 70.4939C245.892 71.8644 248.4 72.0543 250.768 71.5593C256.735 70.3123 262.065 66.508 265.363 61.4356C268.296 56.9276 269.196 51.9053 268.024 46.6422C267.216 43.0124 264.803 39.2191 261.574 37.2811C257.84 35.0399 255.433 36.7186 251.753 37.3785C251.201 37.4774 250.932 37.5009 250.468 37.1864C250.379 36.6657 250.41 36.4154 250.72 35.9499C251.955 34.1006 254.607 33.5871 256.652 33.2209Z" fill="#4B2D10"/>
<path d="M256.404 5.49589C257.428 5.36099 258.518 5.38852 259.555 5.3938C268.669 5.44039 277.35 9.43206 283.694 15.8864C292.483 24.8284 297.829 41.5042 297.654 53.9175C297.412 71.0457 289.376 88.8523 277.058 100.709C276.607 101.135 276.152 101.554 275.691 101.969C275.23 102.383 274.764 102.791 274.294 103.194C273.823 103.596 273.348 103.994 272.867 104.385C272.387 104.776 271.902 105.161 271.412 105.541C270.922 105.92 270.428 106.294 269.929 106.661C269.43 107.028 268.927 107.39 268.419 107.745C267.912 108.1 267.4 108.449 266.883 108.791C266.367 109.134 265.847 109.47 265.323 109.8C264.798 110.13 264.27 110.454 263.738 110.771C263.206 111.088 262.67 111.399 262.13 111.703C261.59 112.007 261.047 112.304 260.5 112.595C259.953 112.886 259.402 113.17 258.848 113.448C258.294 113.725 257.737 113.996 257.177 114.259C256.616 114.524 256.052 114.781 255.486 115.031C254.919 115.281 254.349 115.524 253.776 115.76C253.204 115.997 252.628 116.226 252.05 116.448C251.472 116.67 250.891 116.886 250.307 117.094C249.724 117.302 249.138 117.503 248.549 117.697C247.961 117.891 247.37 118.078 246.777 118.257C246.184 118.437 245.589 118.609 244.992 118.774C244.395 118.939 243.796 119.096 243.195 119.247C242.594 119.397 241.991 119.54 241.387 119.676C240.782 119.812 240.176 119.94 239.569 120.061C238.961 120.182 238.352 120.296 237.741 120.402C237.131 120.508 236.52 120.607 235.907 120.698C235.294 120.789 234.68 120.873 234.065 120.949C233.45 121.026 232.835 121.095 232.218 121.156C231.602 121.217 230.985 121.271 230.367 121.317C229.749 121.364 229.131 121.403 228.512 121.434C227.893 121.465 227.274 121.489 226.655 121.505C226.036 121.521 225.416 121.53 224.797 121.531C224.177 121.532 223.558 121.526 222.938 121.512C223.703 133.612 225.389 145.811 227.105 157.806C239.297 155.768 252.555 155.908 264.751 157.828C269.772 158.65 274.755 159.661 279.699 160.861C291.995 163.852 304.376 167.528 317.022 163.722C320.768 162.595 325.081 160.502 328.101 157.959C329.635 156.668 334.49 150.651 335.327 150.347C335.643 150.615 335.732 150.738 335.741 151.174C335.769 152.53 333.59 155.326 332.711 156.373C329.466 160.236 325.094 163.258 320.485 165.257C305.774 171.637 291.224 167.44 276.509 164.015C271.949 162.926 267.349 162.053 262.707 161.399C249.683 159.536 240.628 159.88 227.59 161.002C228.02 168.117 229.229 175.221 229.746 182.346C230.284 189.041 230.761 195.741 231.176 202.445C231.826 215.361 232.306 228.283 232.615 241.211C233.017 239.564 233.495 238 234.442 236.572C234.517 236.458 234.594 236.345 234.674 236.235C234.754 236.125 234.837 236.016 234.923 235.91C235.008 235.804 235.097 235.701 235.188 235.599C235.279 235.497 235.373 235.398 235.469 235.302C235.565 235.205 235.664 235.111 235.764 235.019C235.865 234.928 235.969 234.839 236.074 234.752C236.18 234.666 236.288 234.583 236.397 234.502C236.507 234.421 236.619 234.343 236.733 234.268C236.847 234.193 236.963 234.121 237.08 234.052C237.198 233.983 237.317 233.917 237.438 233.854C237.559 233.791 237.682 233.731 237.806 233.675C237.93 233.618 238.055 233.564 238.182 233.514C238.309 233.464 238.437 233.417 238.566 233.373C238.695 233.33 238.825 233.289 238.957 233.252C239.088 233.216 239.22 233.182 239.353 233.152C239.486 233.122 239.62 233.095 239.754 233.072C245.69 231.997 251.872 236.474 256.421 239.703C253.75 233.921 251.738 227.955 249.249 222.111C247.632 218.314 245.533 214.735 244.003 210.901C241.293 204.112 238.903 195.641 241.961 188.613C243.169 185.836 245.059 183.362 247.986 182.259C250.385 181.356 253.043 181.563 255.344 182.654C262.465 186.028 266.419 200.187 268.868 207.385C270.968 205.66 273.071 204.929 275.8 204.988C279.526 205.068 282.134 206.378 284.686 209.053C285.181 208.48 285.703 207.876 286.271 207.374C288.127 205.738 290.521 205.055 292.964 205.161C297.76 205.37 298.937 207.408 301.851 210.537C303.03 210.444 304.203 210.379 305.386 210.396C309.846 210.462 313.627 212.453 316.69 215.63C317.306 216.266 317.874 216.943 318.393 217.661C318.912 218.378 319.377 219.129 319.789 219.913C321.015 222.234 321.797 224.78 322.654 227.254C325.011 234.067 327.257 241.061 327.935 248.278C328.315 252.32 328.059 258.66 327.573 262.728C327.008 267.465 324.663 271.927 324.57 276.718C324.852 277.027 324.738 276.979 325.074 277.109C325.269 277.184 325.469 277.245 325.665 277.316C326.205 277.512 326.656 277.62 326.907 278.156C326.818 278.37 326.825 278.385 326.655 278.595C325.582 279.916 322.016 280.896 320.437 281.569C308.572 286.628 293.19 293.045 280.527 294.983C280.94 297.13 281.317 299.284 281.66 301.443C286.735 300.967 291.617 299.706 296.56 298.518C304.89 296.503 313.161 294.269 321.374 291.818C323.85 291.093 326.318 290.343 328.778 289.567C329.883 289.214 331.212 288.511 332.369 288.417C332.887 288.375 332.965 288.511 333.322 288.835C333.35 289.216 333.363 289.297 333.11 289.615C332.011 290.996 328.562 292.016 326.945 292.689C322.265 294.607 317.526 296.367 312.728 297.968C307.929 299.569 303.083 301.009 298.189 302.286C292.76 303.739 287.407 305.11 281.818 305.795C282.096 308.982 282.486 312.105 283.202 315.228C285.975 314.206 288.776 313.555 291.678 313.028C299.399 311.628 307.216 311.37 314.929 310.063C316.131 309.859 318.546 308.915 319.634 309.333C319.927 309.445 319.835 309.453 319.943 309.802C319.686 310.34 319.255 310.595 318.747 310.874C311.604 314.784 300.767 315.607 292.771 317.28C290.219 317.814 287.773 318.281 285.353 319.292C284.306 319.73 282.178 320.964 281.108 320.498C277.288 318.835 277.473 305.398 276.807 301.584C276.48 299.679 276.059 297.795 275.544 295.933C275.029 294.07 274.422 292.237 273.724 290.435C269.608 281.049 262.867 279.811 256.538 273.435C252.934 269.805 249.745 265.777 246.288 262.009C241.999 257.335 237.436 252.946 233.486 247.96C233.763 257.319 233.638 266.731 233.54 276.092C229.59 276.069 224.943 276.984 221.019 277.614C213.921 278.761 206.858 280.093 199.83 281.61C195.077 282.649 190.363 283.869 185.613 284.922C170.184 288.344 154.676 291.511 139.291 295.111C122.818 299.017 106.392 303.113 90.0144 307.399C81.1905 309.62 72.4496 312.147 63.6 314.257C62.0516 314.626 60.5001 315.5 58.94 315.69C57.6188 315.852 46.8051 312.622 45.1645 311.945C43.8015 311.384 42.4732 310.613 41.2925 309.732C38.1571 307.391 36.452 304.366 35.7655 300.544C34.9817 296.177 34.8492 291.597 34.5282 287.178L33.1116 267.539C32.1309 253.963 30.849 240.416 29.266 226.897C28.5224 219.729 27.6481 212.577 26.6429 205.441C25.8655 200.288 24.7736 195.199 24.08 190.031L19.4026 155.347C18.5024 148.523 17.7843 141.675 16.7252 134.873C15.4943 126.969 13.5184 119.171 12.3634 111.272C10.9481 101.596 10.4392 82.4973 16.4197 74.5894C16.6294 74.3118 16.8469 74.0402 17.0722 73.7746C17.2975 73.5093 17.53 73.2507 17.7699 72.9987C18.0098 72.7465 18.2568 72.5014 18.5107 72.2633C18.7645 72.0254 19.0249 71.7949 19.2919 71.5716C19.559 71.3483 19.8322 71.1329 20.1117 70.9252C20.3908 70.7176 20.6758 70.5181 20.9665 70.3268C21.2572 70.1352 21.5531 69.9523 21.8542 69.7778C22.1552 69.6031 22.4611 69.4373 22.7717 69.2802C25.4185 67.9705 28.3889 67.1561 31.1848 66.2039C35.6564 64.6808 40.1458 63.1363 44.7118 61.9202C50.164 60.4681 55.7446 59.3834 61.2371 58.0849C67.7123 56.4952 74.2053 54.9826 80.7162 53.5471C86.5332 52.2898 92.3826 51.2131 98.2093 50.0075C109.269 47.7192 120.372 45.4157 131.55 43.7888C148.289 41.3596 165.062 39.1983 181.869 37.3047C188.959 36.4975 196.328 35.0446 203.467 35.0518C205.111 35.0533 207.514 35.1511 208.823 36.2366C210.254 37.424 210.627 40.4852 211.096 42.228C213.335 50.5459 214.495 58.1733 215.744 66.6539C217.303 77.2861 218.695 87.9402 219.918 98.6162C220.586 104.393 221.055 110.226 221.862 115.98C228.356 116.08 234.889 115.053 241.166 113.447C258.973 108.89 273.635 98.7265 282.988 82.7963C283.234 82.3669 283.476 81.9346 283.712 81.4994C283.948 81.0642 284.179 80.6261 284.405 80.1851C284.63 79.7444 284.851 79.3009 285.065 78.8546C285.28 78.4084 285.489 77.9596 285.693 77.5083C285.897 77.057 286.095 76.6033 286.287 76.1472C286.48 75.6911 286.668 75.2326 286.849 74.7718C287.031 74.3111 287.207 73.8484 287.377 73.3835C287.547 72.9183 287.712 72.4513 287.871 71.9824C288.03 71.5135 288.183 71.0426 288.331 70.5699C288.478 70.0972 288.619 69.6228 288.755 69.1466C288.891 68.6703 289.021 68.1926 289.146 67.7134C289.27 67.2339 289.388 66.7531 289.501 66.2711C289.614 65.7888 289.72 65.3053 289.821 64.8205C289.922 64.3355 290.017 63.8495 290.105 63.3624C290.195 62.8754 290.278 62.3872 290.355 61.8979C290.432 61.4088 290.503 60.9189 290.568 60.4281C290.633 59.937 290.692 59.4453 290.745 58.9529C290.799 58.4606 290.846 57.9678 290.887 57.4744C290.928 56.9809 290.963 56.487 290.992 55.9929C291.021 55.4986 291.044 55.0038 291.062 54.5087C291.079 54.0139 291.09 53.5189 291.095 53.0238C291.1 52.5287 291.099 52.0336 291.092 51.5385C291.085 51.0432 291.072 50.5482 291.052 50.0536C291.034 49.5587 291.009 49.0641 290.977 48.5698C290.946 48.0757 290.909 47.582 290.866 47.0886C290.823 46.5953 290.773 46.1026 290.718 45.6105C290.663 45.1184 290.602 44.6271 290.535 44.1365C290.468 43.6457 290.395 43.1559 290.316 42.6671C290.237 42.1783 290.152 41.6905 290.061 41.2037C289.97 40.7169 289.873 40.2314 289.77 39.7471C289.668 39.2626 289.559 38.7794 289.444 38.2977C289.33 37.8159 289.21 37.3356 289.083 36.8569C286.559 27.3032 280.967 17.3449 272.153 12.2969C271.78 12.0807 271.401 11.8738 271.017 11.6762C270.633 11.4787 270.245 11.2906 269.852 11.1122C269.459 10.934 269.061 10.7655 268.66 10.6066C268.259 10.4481 267.854 10.2994 267.445 10.1607C267.036 10.0218 266.624 9.89318 266.209 9.77488C265.794 9.65657 265.376 9.54859 264.956 9.45093C264.535 9.35327 264.113 9.26593 263.688 9.18891C263.263 9.11214 262.837 9.04582 262.408 8.98994C261.981 8.93431 261.551 8.88926 261.121 8.85477C260.691 8.82004 260.26 8.79613 259.829 8.78304C259.397 8.7697 258.965 8.76706 258.534 8.77511C258.102 8.78317 257.671 8.80192 257.241 8.83136C256.81 8.86056 256.38 8.90046 255.952 8.95105C255.523 9.00164 255.096 9.06281 254.67 9.13454C254.244 9.20628 253.821 9.28846 253.399 9.38109C252.978 9.47371 252.558 9.57666 252.142 9.68993C242.739 12.2822 231.338 20.4136 225.392 28.0584C223.603 30.3584 222.395 32.9164 220.956 35.4309C220.519 35.6842 220.473 35.7567 219.98 35.7023C219.638 35.3663 219.409 35.0998 219.365 34.5953C219.123 31.8309 222.813 26.5681 224.485 24.5309C230.278 17.4728 239.674 10.2861 248.338 7.20977C250.951 6.28185 253.651 5.77483 256.404 5.49589Z" fill="#4B2D10"/>
<path d="M52.1756 288.345C52.5437 289.109 52.6468 289.977 52.8054 290.804C51.7444 290.92 50.7174 291.09 49.6715 291.299L49.488 291.365L49.4276 291.201C50.3999 290.286 51.303 289.357 52.1756 288.345Z" fill="#FFC34F"/>
<path d="M36.047 254.988C35.3058 249.205 34.9592 243.329 34.3834 237.523C33.4787 229.08 32.4757 220.648 31.3745 212.229C30.3841 204.583 28.7586 197.001 27.6486 189.368C26.9814 184.781 26.7507 180.136 26.1352 175.537L20.9674 138.633C20.395 134.26 19.7875 129.807 18.939 125.479C17.4193 117.728 15.6557 111.167 15.0927 103.113C14.5807 95.7899 14.1925 86.9392 17.3842 80.1799C21.6142 71.2205 31.7377 70.0561 40.0867 67.0266C39.5233 67.5454 38.9809 68.085 38.4593 68.6456C37.9375 69.2061 37.4381 69.7858 36.9611 70.3846C36.4841 70.9836 36.0307 71.6001 35.6011 72.2338C35.1716 72.8679 34.7671 73.5174 34.3875 74.1824C32.1345 78.1724 31.2952 82.7235 31.0562 87.253C30.7813 92.4599 31.3866 97.8325 31.8162 103.022C33.0127 116.949 34.8391 130.793 37.2956 144.554C37.8669 147.912 37.9926 151.588 38.8826 154.854C38.3698 154.61 37.9469 154.368 37.3662 154.566C35.7865 155.104 30.9924 160.179 30.3003 161.708C30.0851 162.183 30.056 162.449 30.1704 162.95C30.5419 163.245 30.7288 163.318 31.2 163.366C31.8491 163.074 38.3951 156.13 38.8478 155.29C39.3477 160.037 40.26 164.77 40.8195 169.521C41.2919 173.529 41.5539 177.557 42.0198 181.565C43.4589 193.656 45.0241 205.731 46.7154 217.79C48.2668 229.049 50.2438 240.247 51.2195 251.579C46.0554 252.358 41.0993 253.725 36.047 254.988Z" fill="#FFC34F"/>
<path d="M29.93 145.156C30.4012 145.129 31.1499 145.041 31.6064 145.167C32.109 145.306 32.1599 145.449 32.3702 145.875L32.2011 146.248C31.2167 146.989 29.8873 147.276 28.7304 147.699C28.3981 147.885 27.9881 148.073 27.6037 148.029C27.3277 147.998 27.2741 147.824 27.1102 147.626C27.0679 147.144 27.1578 146.91 27.4131 146.497C27.9813 145.577 28.946 145.386 29.93 145.156Z" fill="#4B2D10"/>
<path d="M37.5033 182.847C37.6041 182.862 37.708 182.865 37.8065 182.892C38.3011 183.029 38.434 183.124 38.6889 183.533C38.5111 184.955 35.9307 186.882 34.8335 187.779C34.622 187.793 34.6583 187.812 34.437 187.717C34.0953 187.569 33.788 187.277 33.6879 186.908C33.5788 186.505 33.7128 186.062 33.8914 185.7C34.588 184.29 36.0829 183.383 37.5033 182.847Z" fill="#4B2D10"/>
<path d="M24.9127 90.3286C25.1759 90.4098 25.5667 90.4936 25.7909 90.6476C26.2002 90.9289 26.2078 91.1253 26.2844 91.5719C25.7958 93.383 23.6191 95.0194 22.3089 96.2947C21.8955 96.3944 21.7177 96.3344 21.3254 96.1826C21.1143 95.7356 21.0935 95.5502 21.2748 95.0767C21.8819 93.4899 23.3805 91.092 24.9127 90.3286Z" fill="#4B2D10"/>
<path d="M29.3182 133.72C29.6965 133.795 29.9801 133.913 30.3324 134.064C30.6039 134.438 30.7447 134.57 30.6235 135.065C30.2357 136.652 27.3699 138.904 26.0756 139.886C25.6221 139.793 25.7917 139.859 25.3812 139.652C24.9969 139.458 25.0822 139.454 24.9591 139.079C25.5364 137.184 27.8381 135.011 29.3182 133.72Z" fill="#4B2D10"/>
<path d="M44.9668 244.332C45.4962 244.319 45.7567 244.402 46.2291 244.605C46.5066 244.937 46.6519 245.073 46.5538 245.548C46.2683 246.932 43.7631 248.786 42.7078 249.738C42.2045 249.744 41.9232 249.629 41.4686 249.439C41.2756 249.197 41.108 249.102 41.1091 248.773C41.114 247.326 43.9179 245.269 44.9668 244.332Z" fill="#4B2D10"/>
<path d="M26.2778 121.484C26.4877 121.508 26.8947 121.595 27.0854 121.716C27.5053 121.982 27.4954 122.132 27.5638 122.583C26.8736 124.255 23.0317 126.646 21.4501 127.752C21.2953 127.758 21.0672 127.776 20.9196 127.741C20.488 127.639 20.3876 127.492 20.1924 127.139C20.6968 124.993 24.5496 122.64 26.2778 121.484Z" fill="#4B2D10"/>
<path d="M42.8794 236.121C43.3997 236.408 43.4503 236.424 43.7101 236.952C43.6168 238.616 39.7365 241.559 38.5162 242.938C38.0748 242.689 37.846 242.547 37.5499 242.118C37.4178 241.485 37.5216 241.003 37.8214 240.436C38.6955 238.785 41.1097 236.712 42.8794 236.121Z" fill="#4B2D10"/>
<path d="M36.8536 193.43C37.1893 193.399 37.5344 193.404 37.8716 193.393C38.3228 193.639 38.333 193.603 38.4915 194.086C38.0471 195.978 35.352 198.775 33.9112 200.115C33.7443 200.191 33.6873 200.227 33.4868 200.263C33.031 200.344 32.7105 200.277 32.3386 200.027C32.2744 199.848 32.2204 199.738 32.2238 199.533C32.2536 197.755 35.4962 194.431 36.8536 193.43Z" fill="#4B2D10"/>
<path d="M40.2593 206.032C40.4084 206.065 40.6184 206.105 40.7558 206.162C41.2066 206.347 41.2421 206.43 41.3905 206.858C40.8109 208.241 37.3833 212.497 36.2227 213.522C35.8798 213.359 35.6272 213.182 35.3973 212.871C35.0937 212.461 35.0212 211.876 35.1469 211.394C35.6665 209.402 38.5058 207 40.2593 206.032Z" fill="#4B2D10"/>
<path d="M41.8563 218.887L42.6232 219.009C43.0509 219.339 43.0849 219.337 43.2178 219.855C42.6084 222.113 38.5899 224.52 36.6956 225.868L36.1606 226.027C35.7611 225.656 35.746 225.637 35.6437 225.102C36.2093 222.985 40.0564 220.156 41.8563 218.887Z" fill="#4B2D10"/>
<path d="M38.9131 169.771C38.9887 169.799 39.0732 169.81 39.1401 169.855C39.535 170.117 39.5403 170.362 39.5969 170.786C38.9501 172.81 35.1808 177.076 33.5085 178.374L32.8878 177.898C32.7239 177.447 32.6386 177.266 32.7402 176.78C33.1638 174.749 37.1956 170.988 38.9131 169.771Z" fill="#4B2D10"/>
<path d="M24.4241 111.851C24.7583 111.851 25.075 111.89 25.4066 111.928C25.7811 112.224 25.7887 112.224 25.8978 112.687C25.3514 114.552 20.8477 118.323 19.1437 119.528C18.9036 119.64 18.7446 119.697 18.4758 119.723C18.1545 119.753 18.1246 119.635 17.8841 119.446C17.8611 119.266 17.835 119.164 17.8792 118.972C18.2825 117.213 22.8677 112.942 24.4241 111.851Z" fill="#4B2D10"/>
<path d="M25.3141 101.24C25.5992 101.304 25.8827 101.407 26.1625 101.493C26.4891 101.843 26.6711 101.97 26.5933 102.497C26.28 104.625 20.0511 109.61 18.3637 111.287C18.0605 111.271 17.6312 111.29 17.3473 111.194C16.9323 111.054 16.8972 110.862 16.7473 110.499C17.1555 109.322 23.9148 102.525 25.3141 101.24Z" fill="#4B2D10"/>
<path d="M251.355 184.629L251.603 184.651C253.154 184.801 254.609 185.183 255.717 186.351C257.468 188.2 258.718 190.827 259.672 193.158C260.927 196.222 261.63 199.47 262.608 202.626C264.772 209.611 266.937 216.689 269.507 223.536C270.132 225.2 270.8 227.914 272.006 229.215C272.426 229.667 272.824 229.734 273.414 229.755C274.479 229.279 274.768 228.447 275.177 227.429C273.844 222.271 271.875 217.236 270.48 212.071C272.263 210.412 274.164 208.582 276.687 208.225C283.632 207.244 283.797 222.688 287.628 225.265C288.045 225.545 288.419 225.624 288.91 225.475C289.36 225.339 289.853 224.751 290.034 224.34C290.805 222.593 287.336 214.918 286.527 212.774C288.611 211.469 290.214 208.791 292.834 208.537C299.523 207.887 300.572 224.504 303.755 226.585C304.216 226.886 304.707 226.947 305.229 226.776C305.718 226.618 306.062 226.375 306.285 225.9C307.242 223.86 304.215 216.022 303.331 213.832C306.196 213.954 309.015 213.934 311.419 215.768C312.953 216.937 314.186 218.472 315.169 220.121C318.817 226.244 322.586 239.126 323.521 246.338C324.131 251.041 324.211 256.93 323.764 261.662C323.256 267.038 320.418 272.426 321.198 277.855L321.236 278.103C314.432 280.897 307.452 283.167 300.444 285.384C293.636 287.538 286.303 290.245 279.135 290.536C278.655 289.505 278.162 288.48 277.658 287.46C275.302 283.307 271.995 280.118 268.623 276.806C269.317 276.114 269.984 275.345 270.267 274.388C270.573 273.354 270.555 272.468 270.044 271.521C269.612 271.219 269.604 271.193 269.082 271.218C267.677 271.97 267.225 273.613 266.497 274.957C264.984 274.246 263.607 273.468 262.284 272.443C262.778 271.576 263.351 270.615 263.371 269.595C263.385 268.89 263.331 268.013 262.779 267.507C262.569 267.315 262.32 267.288 262.04 267.348C260.884 267.598 260.36 269.189 259.922 270.132C255.825 265.719 260.047 266.714 259.313 263.26C259.199 262.724 258.984 262.449 258.536 262.137C257.881 262.02 257.468 262.128 256.916 262.482C255.889 263.139 255.736 263.953 255.471 265.066C254.963 264.277 254.521 263.444 254.063 262.625C254.62 261.509 255.202 260.366 254.852 259.089C254.714 258.586 254.4 258.217 253.942 257.972C253.501 257.735 252.989 257.627 252.504 257.747C252.001 258.12 251.87 258.574 251.647 259.135L251.549 259.388C250.425 258.774 249.122 256.784 248.257 255.804C248.51 255.162 248.768 254.486 248.864 253.799C248.993 252.872 248.749 251.818 248.163 251.091C247.889 250.967 247.771 250.852 247.459 250.911C246.58 251.078 246.226 251.762 245.782 252.458C240.091 246.929 243.66 247.306 241.79 244.206C241.475 243.684 241.201 243.525 240.618 243.395C240.191 243.557 239.818 243.684 239.364 243.762C239.046 243.602 238.874 243.454 238.7 243.147C238.036 241.982 237.593 240.032 237.974 238.717C238.205 237.92 238.696 237.109 239.45 236.715C240.411 236.213 241.603 236.401 242.594 236.706C248.279 238.454 258.042 248.251 260.74 253.264C261.55 253.311 262.576 253.455 263.365 253.221C263.848 253.078 264.215 252.765 264.422 252.306C265.878 249.075 261.955 240.329 260.633 237.155C261.379 236.316 261.968 235.515 261.896 234.338C261.852 233.622 261.688 233.107 261.139 232.626C260.86 232.525 260.663 232.452 260.36 232.522C259.65 232.683 259.38 233.218 259.069 233.803C258.557 232.484 258.068 231.173 257.658 229.818C258.658 228.514 259.54 227.07 259.475 225.363C259.448 224.639 259.218 223.712 258.559 223.294C258.124 223.017 257.868 223.069 257.402 223.153C256.97 223.433 256.871 223.669 256.688 224.129C256.424 224.792 256.131 225.411 255.809 226.048C254.246 221.706 255.744 222.797 256.418 219.08C256.533 218.45 256.566 217.677 256.107 217.163C255.786 216.802 255.609 216.775 255.168 216.758C254.068 217.309 253.651 218.345 253.168 219.405C252.778 218.419 252.515 217.386 252.224 216.368C252.706 215.647 253.16 214.954 253.463 214.133C253.83 213.137 253.992 211.936 253.547 210.948C253.276 210.781 253.216 210.65 252.882 210.73C251.954 210.951 251.392 211.962 250.867 212.689C250.403 210.679 248.991 207.652 249.376 205.683C249.38 205.658 249.505 205.049 249.508 204.995C249.584 203.687 248.288 202.733 247.494 201.893C245.71 200.007 245.702 195.125 245.719 192.687C246.373 194.843 247.083 196.566 248.845 198.095C250.059 199.149 251.557 199.955 253.208 199.78C254.631 199.629 256.043 198.751 256.905 197.625C257.734 196.542 258.052 195.246 257.856 193.899C257.554 191.831 255.496 188.514 253.848 187.312C253.309 186.919 252.301 186.671 251.65 186.912C251.39 187.008 251.216 187.106 251.119 187.37C250.57 188.867 253.075 191.76 253.697 193.183C254.022 193.925 254.202 194.604 253.877 195.381C253.542 195.661 253.474 195.778 253.029 195.87C252.477 195.983 252.08 195.933 251.616 195.597C249.36 193.961 247.878 189.484 247.359 186.829C248.572 185.553 249.601 184.906 251.355 184.629Z" fill="#FFC34F"/>
<path d="M260.059 207.355C260.65 207.377 261.345 207.399 261.773 207.879C262.102 208.249 262.19 208.471 262.208 208.957C262.237 209.757 261.676 210.26 261.183 210.82L260.599 210.941C260.279 210.868 260.128 210.791 259.867 210.576C259.353 210.151 259.218 209.508 259.226 208.875C259.234 208.145 259.57 207.826 260.059 207.355Z" fill="#4B2D10"/>
<path d="M306.178 236.457C306.444 236.624 306.385 236.568 306.632 236.81C307.453 237.616 308.121 239.193 308.06 240.359C308.028 240.979 307.785 241.201 307.377 241.618C306.921 241.384 306.545 241.134 306.263 240.696C305.676 239.785 305.192 238.362 305.445 237.275C305.566 236.755 305.749 236.732 306.178 236.457Z" fill="#4B2D10"/>
<path d="M292.867 240.143C293.31 240.224 293.623 240.271 294.002 240.533C294.862 241.126 295.492 242.505 295.656 243.508C295.776 244.245 295.659 244.584 295.245 245.196C295.082 245.156 294.925 245.125 294.769 245.055C293.728 244.584 292.961 242.9 292.652 241.879C292.414 241.092 292.506 240.836 292.867 240.143Z" fill="#4B2D10"/>
<path d="M279.723 245.346C280.16 245.312 280.658 245.225 281.05 245.475C281.966 246.059 282.669 247.761 282.945 248.754C283.283 249.971 283.46 250.635 282.811 251.788C282.445 251.799 281.886 251.862 281.554 251.689C280.293 251.032 279.51 248.477 279.292 247.182C279.158 246.38 279.266 246.009 279.723 245.346Z" fill="#4B2D10"/>
<path d="M197.208 39.3021C199.489 39.2636 205.062 38.9321 206.873 40.1905C210.093 45.0632 216.668 106 217.916 115.65C213.671 114.914 209.512 114.015 205.483 112.441C203.455 111.648 199.695 109.425 197.81 109.537C197.21 109.572 196.929 109.666 196.541 110.125C196.487 110.691 196.749 111.138 197.086 111.571C200.942 116.525 212.435 120.15 218.588 121.07C219.241 125.155 219.515 129.352 219.925 133.469C220.453 138.562 221.032 143.65 221.662 148.732C223.213 161.557 224.708 174.346 225.805 187.221C226.49 195.25 226.904 203.298 227.468 211.337C228.664 227.13 229.354 242.945 229.537 258.783C229.599 263.557 229.744 268.323 229.656 273.099C220.959 273.395 212.396 275.327 203.909 277.099C193.595 279.231 183.31 281.494 173.053 283.889C163.215 286.116 153.282 287.912 143.444 290.145C124.745 294.575 106.09 299.182 87.4785 303.966C81.0729 305.37 74.7678 307.376 68.4408 309.102C65.4085 309.929 62.2523 310.958 59.1199 311.271C58.7178 308.986 58.7949 306.477 58.6835 304.152C58.4851 300.078 58.2503 296.005 57.9789 291.935C57.4749 284.296 57.1947 276.643 56.6555 269.008C56.0027 259.769 55.0486 250.459 53.9279 241.263C52.0068 225.502 49.2158 209.851 47.1463 194.105C45.6383 182.632 44.9088 171.069 43.1991 159.613C41.3539 147.245 38.8098 134.976 37.0609 122.596C35.6538 112.194 34.8146 101.746 34.5432 91.2522C34.3416 83.9956 35.6506 76.5932 40.8593 71.1507C42.9114 69.0062 45.6337 66.7009 48.3995 65.5433C51.4771 64.2551 54.9443 63.4535 58.1685 62.6142C65.2408 60.7736 72.3732 59.2476 79.5154 57.7087C102.688 52.7212 125.991 48.4433 149.424 44.8752C165.184 42.395 181.236 39.6324 197.208 39.3021Z" fill="#FFC34F"/>
<path d="M205.737 222.51C206.455 222.785 206.884 223.179 207.272 223.829C207.308 224.335 207.303 224.599 206.994 225.023C205.608 226.929 201.948 227.642 199.767 228.032C198.951 227.768 198.516 227.436 198.017 226.753C197.977 226.403 197.905 226.252 198.056 225.92C198.679 224.544 204.038 223.182 205.737 222.51Z" fill="#4B2D10"/>
<path d="M155.873 234.237C156.341 234.16 157.148 234.039 157.583 234.303C158.171 234.66 158.684 235.338 158.886 235.985C158.876 236.401 158.817 236.681 158.564 237.024C157.103 239.011 149.396 240.286 146.777 240.778C146.468 240.825 146.235 240.825 145.921 240.778C145.196 240.67 144.58 240.064 144.212 239.459C143.968 239.059 143.899 238.636 144.047 238.182C144.717 236.134 149.947 235.839 151.82 235.435C153.198 235.137 154.542 234.691 155.873 234.237Z" fill="#4B2D10"/>
<path d="M116.988 238.701C117.669 238.834 118.525 238.953 119.074 239.419C119.44 239.73 119.683 240.063 119.674 240.561C119.649 241.938 117.639 244.191 116.857 245.363C115.575 247.286 114.387 249.361 113.442 251.466C112.535 253.486 112.095 256.538 110.625 258.147C109.959 258.103 109.216 258.099 108.696 257.619C108.181 257.142 108.064 256.42 108.066 255.752C108.081 251.898 112.075 246.229 114.059 243.008C114.936 241.585 115.781 239.859 116.988 238.701Z" fill="#4B2D10"/>
<path d="M94.8663 226.277C95.555 226.238 96.4393 226.152 97.0449 226.557C97.5494 226.895 97.6415 227.222 97.8001 227.769C97.5022 228.848 96.9721 229.936 96.411 230.903C95.1087 233.149 93.4489 235.206 92.0519 237.397C90.7345 239.464 89.6936 241.705 88.5737 243.881C88.1595 244.688 87.7981 245.429 87.1642 246.088C86.9037 246.171 86.6231 246.276 86.3464 246.295C85.8087 246.331 85.3258 246.189 84.9206 245.838C84.7466 245.503 84.6348 245.227 84.6284 244.848C84.5699 241.371 92.2898 229 94.8663 226.277Z" fill="#4B2D10"/>
<path d="M186.334 227.251C186.737 227.242 187.121 227.318 187.48 227.517C187.921 227.761 188.167 228.136 188.284 228.616C188.413 229.138 188.293 229.827 187.978 230.254C186.347 232.461 171.678 235.812 168.362 236.424C168.271 236.397 168.178 236.374 168.089 236.343C167.272 236.059 166.773 235.561 166.447 234.758C166.219 234.197 166.191 233.591 166.501 233.049C166.761 232.593 167.098 232.373 167.582 232.211C170.55 231.216 173.717 230.776 176.764 230.063C180.008 229.303 183.164 228.274 186.334 227.251Z" fill="#4B2D10"/>
<path d="M113.982 233.633C114.18 233.631 114.379 233.619 114.576 233.663C115.111 233.784 115.529 234.278 115.748 234.758C115.78 234.826 115.807 234.895 115.832 234.966C115.856 235.037 115.877 235.108 115.893 235.181C115.91 235.254 115.923 235.328 115.933 235.402C115.942 235.476 115.948 235.551 115.949 235.626C115.951 235.7 115.949 235.775 115.943 235.849C115.937 235.924 115.927 235.998 115.914 236.071C115.9 236.145 115.883 236.218 115.862 236.29C115.841 236.361 115.817 236.432 115.788 236.501C114.99 238.508 112.561 240.632 111.147 242.335C109.134 244.76 106.848 247.611 105.444 250.425C104.54 252.235 103.95 254.823 101.925 255.62C101.324 255.469 100.627 255.321 100.23 254.802C99.9405 254.423 99.902 253.932 99.9703 253.476C100.596 249.33 110.368 236.318 113.982 233.633Z" fill="#4B2D10"/>
<path d="M103.474 225.862C103.773 225.943 104.086 226.023 104.37 226.149C104.794 226.337 105.171 226.72 105.296 227.173C105.472 227.814 105.15 228.511 104.847 229.058C102.72 232.896 99.1875 237.295 96.7072 241.137C94.7978 244.095 93.3592 247.288 91.6711 250.367C91.1723 251.277 90.968 251.482 89.9573 251.775C89.3939 251.615 88.7702 251.369 88.3937 250.894C88.0735 250.49 88.0014 249.997 88.0467 249.498C88.4024 245.582 100.26 228.492 103.474 225.862Z" fill="#4B2D10"/>
<path d="M110.778 227.039C111.021 227.132 111.078 227.143 111.322 227.297C111.854 227.633 112.385 228.368 112.434 229.006C112.505 229.925 111.51 231.151 110.979 231.862C107.672 236.296 104.279 240.702 101.423 245.449C100.762 246.549 100.082 247.655 99.5224 248.811C98.8363 250.229 98.3183 251.802 97.3898 253.081C96.7004 254.031 96.1884 254.181 95.047 254.349C94.5139 254.219 94.1672 253.976 93.8572 253.516C93.3687 252.792 93.5967 251.725 93.8006 250.944C94.3874 248.692 95.7293 246.353 96.9447 244.385C99.0942 240.906 107.81 228.749 110.778 227.039Z" fill="#4B2D10"/>
<path d="M76.2995 152.689C76.7326 152.675 77.1721 152.663 77.5984 152.757C78.1213 152.874 78.5185 153.212 78.7926 153.659C80.0401 155.694 79.8468 162.121 79.2797 164.479C77.3933 166.452 73.3163 167.258 70.6918 167.855C70.3874 167.832 70.0672 167.811 69.7724 167.73C69.2641 167.59 68.8877 167.243 68.6325 166.793C67.5488 164.882 66.6075 159.476 67.3325 157.375C67.9007 155.73 74.489 153.611 76.2995 152.689Z" fill="#4B2D10"/>
<path d="M74.8288 156.828L74.9802 156.851C75.6602 157.62 75.4647 160.454 75.4903 161.491C74.1945 162.109 72.808 162.581 71.4669 163.096L70.3727 158.305C71.8313 157.748 73.3431 157.306 74.8288 156.828Z" fill="#FFC34F"/>
<path d="M144.499 145.382C144.961 145.336 145.456 145.27 145.922 145.288C146.37 145.305 146.784 145.465 147.089 145.795C146.351 146.418 133.299 147.907 131.079 148.282C118.2 150.456 106.738 153.755 94.4132 157.989C93.8774 158.035 93.1955 158.121 92.753 157.773C92.2414 157.371 91.5077 156.714 91.5202 156C91.5274 155.578 91.7833 155.157 92.0609 154.854C93.5304 153.247 96.9905 152.634 99.0505 152.058C113.969 147.89 129.128 146.664 144.499 145.382Z" fill="#4B2D10"/>
<path d="M69.6945 94.3661C70.0861 94.3321 70.4916 94.2891 70.8847 94.3095C71.4129 94.3374 71.9139 94.6334 72.2424 95.04C73.7078 96.8534 73.6617 104.862 73.5099 107.424C73.0689 108.046 72.5966 108.484 72.0045 108.962C69.5103 109.311 67.0583 109.695 64.5863 110.183C64.1004 110.224 63.7817 110.211 63.343 109.97C62.3919 109.45 61.9278 107.994 61.6609 107.017C61.0972 104.957 59.8772 99.2316 61.2338 97.4122C62.3752 95.8816 67.7025 94.8664 69.6945 94.3661Z" fill="#4B2D10"/>
<path d="M67.7888 99.6901C68.2185 99.6467 68.3129 99.6289 68.7014 99.8038C69.4539 101.293 69.378 103.544 69.4981 105.212C68.2876 105.381 67.102 105.612 65.9066 105.864C65.4478 105.964 65.6691 105.992 65.2443 105.769C64.6757 104.125 64.6221 102.119 64.3872 100.395C65.5214 100.094 66.6266 99.857 67.7888 99.6901Z" fill="#FFC34F"/>
<path d="M83.6763 177.085C84.3624 177.005 84.9714 176.901 85.6269 177.171C86.5097 177.534 87.0466 178.686 87.3154 179.534C87.9796 181.632 88.6067 186.627 87.4812 188.525C86.6433 189.938 79.8927 191.722 78.0063 192.259C77.5566 192.209 77.1413 192.153 76.7312 191.947C76.2596 191.711 75.9311 191.334 75.7941 190.818C75.3685 189.219 75.2277 187.524 74.8841 185.903C74.5126 184.15 73.8481 182.428 73.5985 180.654C73.5547 180.342 73.5396 180.187 73.7148 179.916C75.1254 177.742 81.3478 177.416 83.6763 177.085Z" fill="#4B2D10"/>
<path d="M82.2694 180.497C82.505 180.47 82.7009 180.511 82.9335 180.545C83.8948 181.757 84.0122 185.052 84.2565 186.571C82.7047 186.617 81.1895 186.697 79.6497 186.901C78.8961 186.483 77.9892 182.273 77.6924 181.275C79.2133 180.916 80.7187 180.682 82.2694 180.497Z" fill="#FFC34F"/>
<path d="M73.5018 123.819C74.2778 123.736 75.2961 123.691 76.0033 124.068C76.7116 124.445 76.9476 125.445 77.1156 126.165C77.6548 128.473 78.5564 135.975 77.1149 137.765C76.1566 138.956 69.2167 139.805 67.4282 140.157C67.0506 140.157 66.6851 140.162 66.3158 140.073C65.6015 139.9 65.1548 139.574 64.784 138.94C63.4893 136.725 62.6994 129.44 63.421 126.987C65.2031 125.58 71.1371 124.416 73.5018 123.819Z" fill="#4B2D10"/>
<path d="M73.0851 127.213L73.3487 127.239C73.855 128.245 73.7127 133.46 73.7508 134.865C71.7532 135.12 69.763 135.424 67.7802 135.777C67.0723 134.818 67.0247 130.234 66.9106 128.857L73.0851 127.213Z" fill="#FFC34F"/>
<path d="M152.448 169.545C153.192 169.472 154.189 169.333 154.81 169.859C155.018 170.035 154.931 170.181 154.919 170.425C154.249 171.296 153.325 171.659 152.295 171.968C142.332 174.962 130.585 176.644 120.254 178.929C117.303 179.582 114.365 180.243 111.452 181.052C108.454 181.884 105.423 182.92 102.346 183.401C101.742 183.464 101.101 183.499 100.582 183.111C100.091 182.744 99.7438 182.083 99.6517 181.484C99.5577 180.875 99.6891 180.26 100.079 179.773C101.947 177.445 146.853 170.093 152.448 169.545Z" fill="#4B2D10"/>
<path d="M148.807 113.101C149.612 112.994 150.167 113.009 150.916 113.367L150.932 113.531C150.884 113.572 150.84 113.619 150.788 113.655C149.624 114.467 146.979 114.624 145.552 114.94C143.097 115.484 140.675 116.168 138.213 116.686C135.249 117.31 132.273 117.742 129.283 118.214C121.564 119.383 113.946 121.024 106.43 123.137C101.269 124.558 95.6104 127.023 90.3183 127.485C89.9041 127.373 89.5243 127.27 89.1588 127.038C88.6551 126.719 88.1752 126.099 88.1205 125.49C88.0759 124.992 88.2964 124.496 88.6241 124.133C89.5934 123.06 93.3087 122.535 94.7983 122.111C101.954 120.075 109.006 118.245 116.342 116.93C127.098 115.004 137.938 114.077 148.807 113.101Z" fill="#4B2D10"/>
<path d="M147.749 85.3518C148.549 85.2582 149.575 85.1079 150.371 85.2291C150.827 85.2982 150.874 85.3918 151.144 85.7312L151.011 86.0858C150.256 86.6446 149.41 86.8405 148.507 87.041C143.053 88.2518 137.499 89.0862 132.01 90.1199C122.206 91.9219 112.44 93.9115 102.712 96.0887C96.8215 97.4075 91.0276 98.667 85.2873 100.561C84.5122 100.688 83.8658 100.611 83.1506 100.274C82.6149 100.022 82.1206 99.6026 81.9964 98.9921C81.8748 98.396 82.0995 97.824 82.4612 97.3618C83.0725 96.5803 83.9809 96.1185 84.8958 95.7886C86.7414 95.1226 88.7682 94.8518 90.6897 94.469L99.7281 92.7002C115.611 89.6612 131.643 86.8968 147.749 85.3518Z" fill="#4B2D10"/>
<path d="M213.609 205.001C213.73 204.99 213.852 204.951 213.972 204.968C214.343 205.021 214.37 205.182 214.549 205.44L214.357 205.735C212.449 206.861 205.191 208.1 202.629 208.659C193.38 210.678 184.08 212.499 174.848 214.577C167.594 216.21 160.359 218.156 153.154 220.001C149.97 220.815 146.706 221.548 143.573 222.538C141.59 223.165 139.655 224.068 137.646 224.595C137.143 224.727 136.76 224.774 136.244 224.723C135.569 224.274 135.055 223.831 134.796 223.034C134.613 222.472 134.634 221.911 134.94 221.39C135.371 220.657 136.227 220.235 136.98 219.916C139.972 218.646 143.514 217.999 146.677 217.186C156.233 214.73 166.046 212.542 175.782 210.915C188.353 208.815 201.179 207.839 213.609 205.001Z" fill="#4B2D10"/>
<path d="M101.117 216.367C101.717 216.33 102.317 216.318 102.918 216.33C103.519 216.343 104.118 216.38 104.716 216.441C105.314 216.503 105.908 216.589 106.499 216.699C107.09 216.809 107.675 216.944 108.255 217.102C114.933 218.99 120.088 224.382 123.35 230.302C123.571 230.701 123.782 231.104 123.983 231.513C124.184 231.922 124.374 232.336 124.555 232.754C124.735 233.172 124.905 233.595 125.065 234.021C125.224 234.448 125.373 234.878 125.511 235.313C125.65 235.747 125.777 236.184 125.894 236.624C126.011 237.065 126.116 237.508 126.211 237.953C126.306 238.399 126.389 238.847 126.462 239.296C126.535 239.746 126.596 240.197 126.646 240.65C126.696 241.103 126.736 241.557 126.764 242.012C126.791 242.466 126.808 242.921 126.813 243.377C126.819 243.832 126.813 244.288 126.796 244.743C126.778 245.198 126.75 245.653 126.71 246.107C126.67 246.56 126.62 247.013 126.558 247.465C126.496 247.916 126.422 248.365 126.338 248.813C126.254 249.261 126.158 249.706 126.052 250.149C125.946 250.592 125.829 251.032 125.701 251.469C124.465 255.67 121.76 261.294 117.79 263.481C117.23 263.222 116.422 262.912 116.043 262.398C115.652 261.866 115.675 261.365 115.895 260.764C116.32 259.601 117.629 258.424 118.382 257.447C120.831 254.269 122.56 249.703 122.981 245.72C123.659 239.293 121.292 232.584 117.217 227.646C113.724 223.412 109.018 220.584 103.483 220.121C97.7495 219.641 92.3985 222.043 88.0855 225.667C84.8259 228.764 82.9078 231.917 81.5293 236.194C79.6263 242.096 81.0932 248.104 83.9133 253.444C84.4173 254.398 85.0071 255.333 85.7128 256.152C87.6033 258.344 94.0338 263.888 96.8531 264.582C98.3495 264.951 100.175 264.218 101.588 264.806C102.056 265.001 102.399 265.268 102.587 265.754C102.826 266.37 102.778 267.138 102.41 267.692C101.837 268.551 100.598 268.986 99.6189 269.086C95.6638 269.493 92.1614 266.85 89.3247 264.455C84.1557 260.09 80.7983 257.072 78.5139 250.521C77.7327 248.282 77.1282 245.961 76.9413 243.591C76.4067 236.795 78.873 230.369 83.2929 225.267C83.57 224.942 83.855 224.625 84.1477 224.316C84.4407 224.006 84.7413 223.703 85.0494 223.408C85.3575 223.114 85.6728 222.827 85.9952 222.548C86.3177 222.268 86.6469 221.998 86.983 221.735C87.319 221.472 87.6613 221.219 88.01 220.973C88.3586 220.727 88.7132 220.491 89.074 220.263C89.4344 220.036 89.8004 219.817 90.1719 219.607C90.5435 219.398 90.92 219.198 91.3017 219.008C91.6833 218.817 92.0693 218.637 92.4597 218.465C92.8503 218.294 93.245 218.133 93.6438 217.982C94.0425 217.83 94.4447 217.689 94.8505 217.558C95.2563 217.426 95.665 217.305 96.0768 217.195C96.4887 217.084 96.903 216.983 97.3198 216.893C97.7367 216.803 98.1554 216.724 98.576 216.655C98.9969 216.586 99.4193 216.527 99.8432 216.479C100.267 216.431 100.691 216.394 101.117 216.367Z" fill="#4B2D10"/>
<path d="M182.748 71.303C183.166 71.2467 183.627 71.1455 184.017 71.366C184.288 71.5189 190.921 79.8682 191.776 80.8615C192.309 81.4811 193.988 83.051 194.081 83.7861C194.156 84.3758 194.027 85.0441 193.607 85.4881C193.311 85.8018 192.888 86.0182 192.45 85.9457C190.652 85.6474 188.286 82.3853 187.076 81.0246C188.274 86.2662 189.719 91.4553 190.667 96.7502C191.447 101.374 192.168 106.007 192.829 110.649C193.796 117.795 194.43 124.989 195.147 132.164C195.521 135.899 196.163 139.713 196.303 143.458C196.331 144.184 196.3 144.934 196.066 145.628C195.872 146.202 195.635 146.492 195.075 146.759C194.701 146.763 194.427 146.738 194.097 146.559C192.994 145.96 192.836 144.679 192.628 143.561C191.498 137.488 191.133 131.091 190.49 124.941C189.12 111.836 187.483 97.5151 183.879 84.8519C183.491 83.4544 183.049 82.0743 182.553 80.7116C181.659 84.016 181.028 87.3479 180.874 90.7735C180.574 97.3901 181.505 104.121 182.137 110.698L185.422 142.443C185.754 145.594 186.704 150.701 186.704 153.58C186.704 154.204 186.493 154.698 186.029 155.128C185.687 155.446 185.169 155.612 184.708 155.555C184.214 155.494 183.746 155.214 183.442 154.82C181.832 152.737 177.726 100.685 177.436 93.6637C177.314 91.056 177.397 88.4549 177.687 85.8604C178.133 82.1063 179.618 73.7831 182.748 71.303Z" fill="#4B2D10"/>
<path d="M209.439 153.85C209.911 153.837 210.411 153.862 210.845 154.074C211.644 154.463 212.114 155.417 212.367 156.223C213.631 160.251 211.696 166.163 209.797 169.716C208.81 171.563 207.631 173.396 205.506 174C204.01 174.425 202.364 174.539 200.833 174.902C197.513 175.718 194.16 176.366 190.776 176.847C184.527 177.772 178.887 178.204 173.23 174.909C170.96 173.31 168.873 171.423 167.906 168.74C167.527 167.69 166.67 162.82 167.127 162.012C167.382 161.561 167.816 161.255 168.295 161.084C171.835 159.818 176.953 159.345 180.771 158.693C184.544 158.049 188.296 157.265 192.074 156.657C197.869 155.724 203.665 154.933 209.439 153.85Z" fill="#4B2D10"/>
<path d="M176.721 169.903C177.428 170.185 178.234 170.635 178.776 171.175C179.115 171.513 179.392 171.979 179.318 172.475C179.232 173.054 178.92 173.346 178.513 173.708C177.913 173.63 177.336 173.514 176.821 173.174C176.325 172.845 175.924 172.391 175.858 171.773C175.771 170.955 176.215 170.465 176.721 169.903Z" fill="#FFC34F"/>
<path d="M187.804 163.173C188.264 163.189 188.708 163.202 189.088 163.502C189.486 163.817 189.714 164.327 189.741 164.827C189.798 165.889 189.328 166.72 188.624 167.465C188.04 167.516 187.878 167.566 187.336 167.306C187.073 166.953 186.91 166.664 186.862 166.216C186.849 166.081 186.842 165.945 186.843 165.808C186.843 165.672 186.85 165.536 186.864 165.4C186.878 165.264 186.899 165.13 186.926 164.996C186.953 164.863 186.987 164.731 187.027 164.6C187.068 164.47 187.114 164.342 187.167 164.217C187.22 164.091 187.279 163.968 187.344 163.848C187.41 163.728 187.481 163.612 187.557 163.5C187.634 163.387 187.716 163.278 187.804 163.173Z" fill="#FFC34F"/>
<path d="M207.472 157.452C207.73 157.493 207.934 157.554 208.162 157.694C208.563 157.941 208.789 158.279 208.909 158.732C209.25 160.021 208.837 161.91 208.161 163.036C207.688 163.058 207.439 163.096 207.018 162.842C206.66 162.234 206.535 161.517 206.532 160.815C206.527 159.527 206.572 158.4 207.472 157.452Z" fill="#FFC34F"/>
</g>
<defs>
<clipPath id="clip0_486_662">
<rect width="335.664" height="320" fill="white" transform="translate(0.167847 0.31958)"/>
</clipPath>
</defs>
</svg>
