<svg width="264" height="321" viewBox="0 0 264 321" fill="none" xmlns="http://www.w3.org/2000/svg">
<g clip-path="url(#clip0_486_482)">
<path d="M37.4873 178.822C37.7415 178.822 37.9949 178.817 38.2473 178.854C39.0206 178.965 39.9315 179.392 40.3869 180.052C40.6904 180.491 40.7962 181.048 40.6396 181.564C40.3394 182.555 39.4832 182.88 38.6295 183.268L36.7223 183.274C36.121 182.675 35.5815 182.045 35.041 181.391C35.7217 180.234 36.3476 179.535 37.4873 178.822Z" fill="#4B2D10"/>
<path d="M33.354 168.721C33.536 168.714 33.6018 168.707 33.7973 168.719C34.3393 168.753 34.9055 168.987 35.2162 169.46C35.5193 169.922 35.4593 170.529 35.3256 171.038C34.7053 173.4 32.88 175.963 30.8148 177.215C30.6107 177.225 30.3222 177.259 30.1155 177.215C29.7066 177.129 29.3226 176.928 29.1017 176.559C28.8908 176.206 28.913 175.763 28.9834 175.373C29.3595 173.297 31.6299 169.897 33.354 168.721Z" fill="#4B2D10"/>
<path d="M46.3449 268.677C46.8382 268.789 47.1624 268.858 47.5507 269.212C48.0354 270.341 47.5925 272.136 47.4513 273.33C47.3011 274.598 47.0791 275.9 47.0627 277.178C47.0359 279.272 47.3448 281.517 47.0566 283.589C46.974 284.182 46.6401 284.427 46.2115 284.786C46.1307 284.748 46.0478 284.714 45.9695 284.67C45.3417 284.32 45.0704 283.754 44.9188 283.075C44.2332 280.007 44.6686 271.247 46.3449 268.677Z" fill="#4B2D10"/>
<path d="M244.258 155.668C244.562 155.644 244.94 155.588 245.239 155.64C245.974 155.768 246.507 156.451 246.846 157.066C247.678 158.574 248.108 161.521 247.537 163.158C247.271 163.921 246.687 164.126 246.008 164.436C245.304 164.318 244.852 164.185 244.336 163.674C242.779 162.131 242.535 159.735 242.49 157.652C242.968 156.735 243.369 156.221 244.258 155.668Z" fill="#4B2D10"/>
<path d="M234.696 128.156C235.184 128.183 235.716 128.231 236.185 128.367C237.491 128.746 238.724 130.117 239.374 131.264C239.893 132.18 240.263 133.266 239.937 134.313C239.668 135.18 239.11 135.605 238.326 135.987C236.884 135.759 234.838 133.923 233.993 132.776C233.452 132.042 233.021 131.07 233.182 130.136C233.344 129.2 233.983 128.7 234.696 128.156Z" fill="#4B2D10"/>
<path d="M22.5648 198.375C22.6137 198.384 22.6631 198.39 22.7117 198.402C23.2343 198.53 23.6637 198.747 23.8875 199.269C24.1552 199.893 23.8864 200.679 23.6183 201.258C22.6202 203.411 19.7631 207.105 17.5617 207.914C16.9543 207.724 16.4413 207.558 16.1468 206.925C15.7596 206.094 16.0671 205.11 16.4571 204.343C17.5267 202.237 20.3058 199.063 22.5648 198.375Z" fill="#4B2D10"/>
<path d="M73.618 70.5471C74.0713 70.5073 74.4306 70.5119 74.8864 70.5816C75.295 70.8668 75.5345 71.1961 75.7776 71.6257C76.1512 72.2854 76.2273 72.9782 75.9824 73.6983C75.3 75.7077 72.8859 77.279 71.0992 78.2315C70.6233 78.2555 70.0624 78.2961 69.6049 78.1506C69.1416 78.0034 68.6911 77.6841 68.5181 77.2118C68.27 76.5334 68.5517 75.684 68.8227 75.0548C69.7586 72.8823 71.472 71.412 73.618 70.5471Z" fill="#4B2D10"/>
<path d="M252.443 129.458C252.665 129.437 252.874 129.41 253.095 129.462C253.669 129.597 254.525 129.979 254.791 130.55C255.082 131.175 254.917 131.959 254.668 132.565C253.804 134.675 251.671 135.942 249.661 136.745C249.422 136.677 249.187 136.613 248.96 136.51C248.223 136.178 247.102 135.501 246.882 134.647C246.721 134.024 246.841 133.457 247.135 132.895C248.178 130.9 250.433 130.072 252.443 129.458Z" fill="#4B2D10"/>
<path d="M38.345 277.564C38.7229 277.568 39.0735 277.574 39.4246 277.735C40.067 278.029 40.4871 278.802 40.6933 279.443C41.271 281.233 41.122 284.216 40.2701 285.886C39.7842 286.837 39.293 287.249 38.2785 287.549C37.4613 287.253 36.8807 286.867 36.3902 286.129C35.5165 284.815 35.4668 283.09 35.7661 281.586C36.1078 279.869 36.8728 278.515 38.345 277.564Z" fill="#4B2D10"/>
<path d="M252.853 143.476C252.91 143.474 252.967 143.471 253.023 143.468C256.177 143.357 259.96 145.827 262.186 147.91C262.686 148.377 263.404 148.991 263.425 149.723L263.147 150.013L262.453 149.931C259.218 149.276 255.912 149.352 252.69 148.739C252.191 148.298 251.654 147.847 251.392 147.217C251.069 146.439 250.958 145.615 251.297 144.825C251.635 144.039 252.109 143.802 252.853 143.476Z" fill="#4B2D10"/>
<path d="M17.4569 186.018C17.7776 186.006 18.0761 186.043 18.3957 186.074C18.7164 186.297 18.8747 186.37 19.007 186.761C19.1103 187.066 19.1925 187.922 19.0245 188.204C18.0425 189.856 4.49229 192.926 1.79433 193.507C1.63239 193.515 1.5037 193.527 1.33818 193.503C0.888817 193.44 0.698276 193.257 0.415861 192.923C0.273223 192.403 0.276085 192.332 0.426945 191.813C0.990703 191.167 2.51932 190.971 3.33832 190.745C8.14331 189.418 12.6841 187.369 17.4569 186.018Z" fill="#4B2D10"/>
<path d="M225.828 218.801C226.089 218.904 226.439 219.015 226.662 219.186C227.293 219.671 227.324 220.881 227.362 221.607C227.525 224.727 226.99 229.403 224.757 231.78C224.03 232.553 223.339 232.827 222.296 232.831C221.949 232.651 221.567 232.467 221.295 232.179C220.741 231.589 220.712 230.595 220.752 229.833C220.916 226.666 223.458 220.905 225.828 218.801Z" fill="#4B2D10"/>
<path d="M9.58762 162.753C10.1031 162.844 10.4717 162.977 10.8882 163.296C11.957 164.117 12.8758 165.261 13.8449 166.204C15.3675 167.686 23.1507 174.641 23.1378 176.4C23.1324 177.17 22.4539 177.81 21.9849 178.343L21.3507 178.604C20.9382 178.585 20.6232 178.556 20.2497 178.364C18.8658 177.654 13.9647 170.399 12.548 168.659C11.8165 167.76 9.11717 165.28 8.89552 164.396C8.76433 163.873 9.2977 163.147 9.58762 162.753Z" fill="#4B2D10"/>
<path d="M240.148 139.371C241.232 139.366 242.337 139.642 243.242 140.251C244.064 140.803 244.558 141.669 244.698 142.645C244.721 142.796 244.735 142.947 244.742 143.099C244.749 143.251 244.749 143.404 244.741 143.556C244.732 143.708 244.716 143.859 244.693 144.01C244.67 144.16 244.639 144.309 244.601 144.456C244.562 144.603 244.517 144.749 244.464 144.891C244.411 145.034 244.351 145.174 244.284 145.31C244.217 145.447 244.143 145.58 244.063 145.709C243.983 145.838 243.896 145.963 243.803 146.083C242.472 147.845 240.484 148.488 238.401 148.787C237.316 148.831 236.006 148.696 235.073 148.09C234.363 147.629 233.938 146.918 233.818 146.082C233.607 144.607 234.251 143.029 235.174 141.908C236.463 140.341 238.169 139.556 240.148 139.371Z" fill="#4B2D10"/>
<path d="M239.158 142.291C239.209 142.295 239.261 142.296 239.312 142.304C239.894 142.397 240.203 142.632 240.552 143.092C240.609 143.486 240.661 143.582 240.524 143.976C240.218 144.862 239.678 145.143 238.873 145.548C238.431 145.559 238.252 145.48 237.84 145.337C237.53 144.991 237.425 144.899 237.46 144.396C237.525 143.456 238.456 142.748 239.158 142.291Z" fill="#FFE8AE"/>
<path d="M29.9151 182.615C30.7749 182.603 31.6153 182.741 32.4021 183.107C33.663 183.693 34.5721 184.792 35.0207 186.103C35.6117 187.828 35.5359 189.85 34.6722 191.47C33.7774 193.148 32.4168 193.957 30.6562 194.455C29.8801 194.546 29.173 194.57 28.4222 194.312C27.1002 193.857 26.0914 193.015 25.5359 191.711C24.8645 190.136 25.029 188.259 25.6714 186.703C26.5083 184.675 27.9514 183.474 29.9151 182.615Z" fill="#4B2D10"/>
<path d="M30.3169 184.694C30.7995 184.76 31.0872 184.849 31.4841 185.143C32.1429 185.631 32.726 186.378 32.8271 187.216C32.9061 187.869 32.741 188.621 32.3249 189.138C31.7654 189.834 30.9117 189.907 30.0906 190.026C29.677 189.537 29.0803 189.176 28.5612 188.803C28.4669 188.825 28.3714 188.843 28.2785 188.871C28.1937 188.896 28.1122 188.931 28.0293 188.962L27.7651 188.525C27.7397 188.18 27.7476 187.934 27.8513 187.599C28.2327 186.361 29.184 185.263 30.3169 184.694Z" fill="#FFE8AE"/>
<path d="M223.753 181.74C223.814 181.764 223.881 181.779 223.937 181.814C224.537 182.189 224.679 183.308 224.784 183.955C226.19 192.616 222.18 211.209 219.513 219.827C217.754 225.511 215.33 231.775 213.036 237.277C211.872 240.069 210.825 243.288 209.062 245.758C208.971 245.754 208.879 245.76 208.79 245.747C208.274 245.67 208.155 245.597 207.825 245.227C207.82 243.867 208.76 241.841 209.169 240.505C211.541 232.74 214.249 225.076 216.677 217.327C219.278 209.028 221.165 200.321 222.503 191.731C223.009 188.487 223.138 185.163 223.714 181.945L223.753 181.74Z" fill="#4B2D10"/>
<path d="M113.555 55.5033C114.069 55.4487 114.464 55.4354 114.973 55.5144L115.12 55.7507C114.357 57.0006 107.579 59.5139 105.881 60.4035C92.8192 67.2467 83.2592 78.8195 74.4776 90.3772C67.4708 99.5987 61.5977 107.568 58.0421 118.783C58.0396 118.794 58.0396 118.807 58.0342 118.817C57.8312 119.201 57.7672 119.192 57.3679 119.346L57.0054 119.162C56.931 118.95 56.9021 118.902 56.8831 118.645C56.7891 117.388 57.2567 115.798 57.5691 114.591C59.6651 106.49 64.2731 99.5171 69.0534 92.7871C78.7906 79.0777 90.8837 63.7461 106.97 57.5106C109.108 56.682 111.289 55.8818 113.555 55.5033Z" fill="#4B2D10"/>
<path d="M135.053 5.55758C137.294 5.42936 139.652 5.4104 141.777 6.23389C145.463 7.66232 146.003 10.3355 148.185 13.0548C149.244 14.3738 150.58 15.5448 151.811 16.7038C152.843 17.6757 157.058 20.8746 157.37 21.711C157.793 22.842 157.117 24.2789 156.688 25.3345C153.072 34.2266 147.573 39.775 138.762 43.4839C138.131 43.6894 137.498 43.8941 136.854 44.0528C135.095 44.4863 132.039 45.085 130.446 44.0356C129.075 43.1327 119.937 34.2607 119.021 33.0267C118.264 32.007 117.763 30.8355 117.477 29.6008C116.488 25.3248 118.17 19.7688 120.426 16.1349C120.627 15.805 120.837 15.4802 121.055 15.1606C121.273 14.8409 121.499 14.5269 121.732 14.2185C121.965 13.9102 122.206 13.6078 122.454 13.3114C122.702 13.015 122.958 12.725 123.22 12.4413C123.483 12.1576 123.752 11.8806 124.028 11.6103C124.304 11.34 124.587 11.0767 124.876 10.8205C125.165 10.5642 125.46 10.3154 125.762 10.0738C126.063 9.83225 126.371 9.59834 126.683 9.37208C126.996 9.14579 127.315 8.92743 127.638 8.71699C127.962 8.50656 128.291 8.30429 128.624 8.11018C128.958 7.9161 129.296 7.73042 129.639 7.55314C129.982 7.37587 130.329 7.20722 130.68 7.04721C131.031 6.8872 131.386 6.73601 131.744 6.59365C132.103 6.45128 132.465 6.31792 132.83 6.19356C133.195 6.0692 133.563 5.95398 133.934 5.84791C134.305 5.74184 134.678 5.64507 135.053 5.55758Z" fill="#4B2D10"/>
<path d="M128.705 38.044C129.406 38.0609 130.091 38.0203 130.791 37.9668C130.846 38.016 130.902 38.0645 130.957 38.1144C131.389 38.5095 131.81 38.9272 132.312 39.2342C133.206 39.7808 134.632 40.066 135.307 40.8371C134.15 41.059 133.033 41.0766 131.859 41.0842C130.867 40.0279 129.745 39.055 128.705 38.044Z" fill="#FFE8AE"/>
<path d="M148.521 20.1707C149.033 20.4167 149.753 20.7686 150.095 21.2395C150.118 21.2714 150.303 21.5731 150.286 21.6679C150.039 23.0568 146.396 24.6442 146.079 28.8627C145.59 29.256 145.062 29.6554 144.699 30.1751C144.145 30.9677 143.553 31.9471 143.769 32.9398C143.87 33.4034 144.146 33.8218 144.582 34.0312C145.396 34.4216 146.411 33.9651 147.22 33.7446C145.981 35.0939 144.712 36.2967 143.237 37.3857C142.948 37.5538 142.352 38.0469 142.023 37.8756C141.555 37.6324 141.119 36.959 140.638 36.6473C139.951 36.2023 138.187 36.1032 137.305 35.9239C138.496 34.9413 139.781 34.097 140.925 33.0493C144.43 29.8393 147.794 24.9405 148.521 20.1707Z" fill="#FFE8AE"/>
<path d="M136.676 8.28631C138.844 8.09327 140.893 8.42602 142.62 9.87285C144.296 11.2768 144.895 13.3513 145.057 15.4599C145.464 20.7279 143.915 25.228 140.491 29.1977C137.515 32.6469 133.705 34.8517 129.146 35.1961C127.235 34.8442 125.112 34.4362 123.525 33.2496C121.958 32.0777 121.067 30.3354 120.788 28.4126C120.178 24.2145 121.633 19.3024 124.147 15.9455C127.174 11.9041 131.652 8.97236 136.676 8.28631Z" fill="#FFE8AE"/>
<path d="M126.839 29.4744C126.96 29.4855 127.095 29.4912 127.208 29.5383C127.66 29.7254 127.689 29.8806 127.85 30.3054C127.738 30.962 127.519 31.3139 127.133 31.8498C126.629 31.7686 126.512 31.8009 126.158 31.4447C126.077 30.7454 126.533 30.0817 126.839 29.4744Z" fill="#4B2D10"/>
<path d="M126.83 13.2988C127.696 13.3529 128.573 13.6198 129.184 14.2752C129.636 14.7591 129.656 15.1369 129.659 15.7784C129.017 15.88 128.534 15.9012 127.976 15.514C127.24 15.0044 127.022 14.1217 126.83 13.2988Z" fill="#4B2D10"/>
<path d="M122.472 21.9247C122.669 21.9068 122.865 21.8918 123.062 21.8798C123.935 21.827 124.976 21.6977 125.663 22.3166C125.581 22.7856 125.453 22.8607 125.125 23.2159C124.526 23.2995 123.843 23.4468 123.24 23.4199C122.759 23.3983 122.542 23.297 122.212 22.9601C122.159 22.503 122.254 22.3227 122.472 21.9247Z" fill="#4B2D10"/>
<path d="M140.638 11.5342C140.765 11.6263 140.861 11.6829 140.957 11.8203C141.242 12.2269 141.301 12.6646 141.204 13.1408C140.87 14.7835 137.87 18.0029 136.432 18.816C136.254 18.6439 136.096 18.4529 135.932 18.2676C135.937 16.4539 139.335 12.8524 140.638 11.5342Z" fill="#4B2D10"/>
<path d="M136.888 20.1417C138.289 19.9352 140.667 19.7362 141.989 20.1618C142.456 20.3116 142.679 20.54 142.911 20.9702C142.913 21.269 143.003 21.4975 142.779 21.727C142.107 22.414 140.434 22.3131 139.523 22.3702C137.913 22.3986 136.277 22.6087 134.668 22.5174C134.054 22.4826 133.436 22.4431 133.006 21.9568C132.966 21.5158 132.986 21.3818 133.266 20.9993C133.876 20.165 135.936 20.2401 136.888 20.1417Z" fill="#4B2D10"/>
<path d="M154.036 56.9587C157.154 56.6811 160.448 56.8338 163.517 57.426C164.106 57.5373 164.691 57.664 165.273 57.806C165.856 57.948 166.434 58.1051 167.008 58.2775C167.582 58.4497 168.151 58.6368 168.716 58.8389C169.28 59.0407 169.839 59.2573 170.392 59.4886C170.945 59.7199 171.492 59.9655 172.032 60.2255C172.573 60.4853 173.106 60.7591 173.633 61.0469C174.159 61.3347 174.677 61.636 175.188 61.9509C175.698 62.2657 176.2 62.5938 176.694 62.9349C184.031 68.0003 189.989 75.2113 195.683 81.9848C205.329 93.4602 213.957 105.098 222.361 117.508C221.246 123.393 221.243 129.731 220.86 135.718C220.335 143.552 219.685 151.374 218.912 159.187C217.512 173.009 215.599 186.758 213.17 200.435C210.822 214.198 208.303 228.254 203.854 241.51C202.939 244.235 202.065 247.257 200.533 249.703C198.933 252.256 195.725 253.282 193.495 255.172C193.437 255.221 193.38 255.272 193.323 255.322C193.89 257.961 195.883 260.989 197.681 262.963C198.71 264.094 199.941 265.184 200.744 266.488C201.222 267.263 201.598 268.145 201.656 269.066C201.809 271.526 200.573 279.934 199.934 282.634C199.654 283.817 199.2 284.981 198.48 285.966C197.595 287.178 196.428 288.263 195.382 289.334C189.194 295.67 182.169 300.982 175.056 306.204C171.135 309.083 167.243 312.014 163.101 314.57C160.304 316.297 155.175 319.764 152.014 320.351C149.748 320.771 131.292 317.169 127.838 316.406C124.493 315.668 121.174 314.76 117.842 313.957C112.691 313.056 107.387 311.192 102.381 309.65C95.714 307.596 88.9943 305.542 82.4401 303.149C75.6968 300.687 69.0157 297.836 62.4551 294.919C59.5155 293.611 55.2538 292.206 52.9963 289.878C51.8234 288.668 52.0425 286.356 52.0615 284.798C52.1376 278.522 53.2108 271.389 56.9759 266.183C57.8492 264.976 58.9331 263.949 59.9949 262.912C59.8679 259.466 58.685 256.105 59.0979 252.633C55.1355 251.076 46.2934 248.476 43.2447 245.807C42.6971 245.327 42.5276 244.892 42.489 244.177C42.3682 241.951 42.8708 239.478 43.1443 237.258C43.8147 231.943 44.5495 226.637 45.3486 221.34C46.3009 214.589 47.4144 207.865 48.6889 201.169C49.9633 194.472 51.3973 187.81 52.991 181.182C54.5846 174.554 56.3361 167.969 58.2453 161.427C60.1543 154.884 62.2189 148.391 64.4392 141.948C66.8138 135.316 69.3936 128.765 72.1784 122.296C75.364 114.697 78.4509 106.982 82.6886 99.8936C85.7805 94.7216 89.5588 89.8099 93.4879 85.258C101.498 75.9788 114.002 66.7678 126.079 63.8856C128.077 63.409 130.226 62.9403 132.269 62.7618C134.199 62.593 136.244 62.6792 138.128 62.1994C139.201 61.9261 140.215 61.0178 141.25 60.5516C145.368 58.6977 149.516 57.2863 154.036 56.9587Z" fill="#4B2D10"/>
<path d="M191.809 264.183C192.369 264.486 192.711 264.946 193.117 265.428C191.894 266.33 190.88 267.301 189.866 268.431C189.748 268.625 189.585 268.756 189.421 268.911C189.298 267.668 191.144 265.203 191.809 264.183Z" fill="#FFE8AE"/>
<path d="M195.4 279.098C195.447 279.124 195.504 279.137 195.542 279.176C195.796 279.44 195.764 279.407 195.716 279.711C195.421 281.567 193.533 283.694 192.109 284.782L192.014 284.838C191.857 283.414 194.502 280.229 195.4 279.098Z" fill="#FFE8AE"/>
<path d="M154.681 62.888C155.488 62.791 156.333 62.7953 157.145 62.7899C164.276 62.7432 171.351 65.374 176.417 70.4631C184.395 78.4782 187.501 88.2664 187.471 99.4272C186.99 97.8542 186.654 96.2003 185.928 94.7206C180.698 82.3315 170.562 72.6629 158.365 67.3037C156.513 66.475 154.617 65.7615 152.679 65.1632C151.332 64.744 149.775 64.502 148.524 63.8598L148.601 63.6601C150.459 63.0769 152.744 63.0033 154.681 62.888Z" fill="#FFE8AE"/>
<path d="M144.777 278.629C147.472 279.316 149.801 279.551 152.575 279.569C151.301 281.009 149.98 282.428 149.079 284.141C149.119 284.846 149.151 285.552 149.175 286.259C149.582 286.563 149.997 286.864 150.446 287.103C151.496 287.664 152.552 287.226 153.6 286.867C154.362 286.605 154.861 286.837 155.599 287.089C157.774 286.12 159.71 284.879 161.774 283.713C164.833 281.985 167.793 280.369 170.703 278.379C168.092 281.345 163.201 285.065 161.375 288.134C161.469 288.896 161.489 290.102 161.93 290.739C162.869 292.099 165.248 288.708 167.247 288.896C167.307 288.902 167.367 288.909 167.427 288.916C170.323 287.423 172.286 284.126 174.689 281.99C174.729 281.954 174.771 281.919 174.812 281.883C173.768 283.569 172.734 285.263 171.666 286.934C170.941 288.069 170.034 289.165 169.495 290.405C169.317 290.816 169.178 291.465 169.333 291.908C169.497 292.372 169.627 292.398 170.043 292.59C172.143 292.324 176.412 284.909 178.383 283.089C178.442 283.035 178.502 282.982 178.561 282.929C177.808 285.125 176.274 287.219 176.021 289.557C175.958 290.141 176.025 290.455 176.402 290.899C176.591 290.941 176.749 290.989 176.95 290.973C178.027 290.881 179.004 289.676 179.714 288.954C181.2 287.169 182.485 285.228 183.804 283.318C183.401 285.056 182.281 288.253 182.983 289.894L183.383 290.048C185.743 289.092 188.382 283.708 189.756 281.515C189.448 283.794 188.739 286.088 188.265 288.345C182.952 293.698 176.641 297.992 170.63 302.496C165.675 306.21 158.671 311.997 153.23 314.342C154.502 306.953 155.378 296.718 151.059 290.199C149.184 287.368 146.647 285.047 144.753 282.118C144.671 280.958 144.74 279.79 144.777 278.629Z" fill="#FFE8AE"/>
<path d="M62.0903 253.421C75.3978 257.704 88.5959 262.333 101.978 266.391C110.142 268.867 118.353 271.41 126.572 273.687C131.635 275.09 136.77 276.191 141.819 277.68C141.776 279.04 141.652 280.531 141.936 281.866C142.952 286.646 148.684 289.201 150.41 295.865C151.98 301.926 150.788 308.228 150.531 314.365C148.441 314.327 146.367 314.061 144.291 313.83C137.809 312.916 131.568 311.319 125.195 309.897C106.834 305.801 89.5418 300.824 72.1375 293.61C66.4917 291.27 60.9868 288.448 55.4103 285.927C55.3135 280.706 55.8289 271.828 59.2526 267.668C60.3984 266.277 62.0986 265.616 62.5647 263.724C63.3648 260.48 61.4837 256.966 62.0539 253.619C62.0653 253.553 62.0782 253.487 62.0903 253.421Z" fill="#FFE8AE"/>
<path d="M191.733 86.2915C194.086 87.1574 214.418 114.806 217.33 118.914C217.216 121.633 216.814 124.371 216.582 127.085C216.115 133.199 215.593 139.307 215.016 145.411C213.471 163.973 211.127 182.431 207.983 200.787C205.703 214.735 203.22 228.756 199.086 242.292C198.616 243.829 198.102 246.017 196.961 247.167C194.195 249.956 185.002 255.121 181.411 257.309C176.536 260.278 171.788 263.461 166.745 266.146C164.115 267.407 161.622 268.986 159.019 270.313C156.318 271.689 153.515 272.826 150.816 274.199C151.622 271.537 152.899 268.988 153.795 266.342L165.252 232.722C171.914 213.135 177.722 193.296 182.677 173.204C187.218 155.084 191.587 136.515 193.098 117.846C193.301 115.338 193.246 112.822 193.359 110.309C193.609 104.804 193.82 99.2373 193.236 93.7431C192.971 91.2513 192.307 88.7287 191.733 86.2915Z" fill="#FFE8AE"/>
<path d="M185.169 134.41C185.452 135.544 183.079 145.784 182.652 147.845C177.248 174.302 171 200.556 163.906 226.608C160.848 237.681 157.139 248.56 153.884 259.577C152.779 263.315 151.848 267.092 150.85 270.858C150.616 271.741 150.099 273.378 149.302 273.844C146.333 274.019 134.254 270.229 130.719 269.225C116.801 265.227 102.927 261.08 89.0968 256.784C79.4286 253.797 69.6974 250.865 60.1346 247.554C55.9995 246.122 51.9438 244.424 47.9192 242.707C49.0413 235.801 49.4017 228.81 50.5403 221.913C51.5148 215.994 52.3277 210.047 53.4474 204.153C55.0661 195.948 56.8925 187.789 58.9266 179.677C60.9605 171.566 63.1993 163.511 65.6431 155.515C67.0116 151.17 68.3482 145.792 70.373 141.764C69.9301 150.783 70.4363 159.714 73.7484 168.219C77.9897 179.112 86.8082 189.022 97.5243 193.677C107.258 197.905 118.766 196.561 128.434 192.738C147.875 185.051 162.543 171.835 174.104 154.527C176.234 151.341 178.223 148.069 180.071 144.71C181.919 141.35 183.618 137.917 185.169 134.41Z" fill="#FFE8AE"/>
<path d="M62.0782 200.116C63.6072 200.602 65.0865 201.254 66.6069 201.771C68.5076 202.418 70.4713 202.918 72.4082 203.441L125.913 217.425C134.388 219.622 144.121 221.439 152.245 224.448C152.843 224.669 153.296 224.84 153.65 225.382L153.281 225.596C145.215 224.237 137.262 222.321 129.295 220.477C119.861 218.388 110.463 216.143 101.102 213.744C95.2048 212.225 89.347 210.498 83.4606 208.935C78.5009 207.618 66.0396 205.234 62.2051 202.405C61.7061 202.037 61.3976 201.729 61.2971 201.097C61.4887 200.554 61.6467 200.474 62.0782 200.116Z" fill="#4B2D10"/>
<path d="M75.7889 212.799C77.7168 212.678 79.4857 213.071 81.0504 214.257C83.2994 215.962 84.5477 219.142 84.9245 221.886C85.3524 225.001 85.0142 228.041 83.0638 230.617C81.1391 233.158 78.8183 234.186 75.7389 234.61C73.9811 234.518 72.4682 234.184 70.9857 233.156C68.6903 231.564 67.0676 228.693 66.6426 225.941C66.1589 222.809 67.2428 219.617 69.0545 217.087C70.8012 214.649 72.8235 213.306 75.7889 212.799Z" fill="#4B2D10"/>
<path d="M81.1768 220.601C81.2848 220.708 81.4138 220.823 81.4843 220.961C81.6122 221.209 81.7252 221.554 81.6537 221.832C81.2483 223.411 76.2767 227.16 74.8103 228.23L74.5497 228.339L74.5315 228.119C76.5667 225.501 78.9686 223.077 81.1768 220.601Z" fill="#FFE8AE"/>
<path d="M75.8998 215.289C76.6637 215.232 77.9786 215.699 78.6199 216.116C79.021 216.378 79.2148 216.556 79.3338 217.019C77.8974 219.169 73.4274 223.309 71.3783 225.43L69.633 227.108C68.8598 224.535 68.893 221.932 70.1982 219.528C71.4634 217.196 73.4238 215.972 75.8998 215.289Z" fill="#FFE8AE"/>
<path d="M120.243 224.523C121.93 224.498 123.528 224.805 125.006 225.653C127.433 227.048 128.981 229.512 129.688 232.177C130.369 234.743 130.221 237.27 128.845 239.595C126.78 243.083 123.02 245.422 119.172 246.381C119.06 246.402 118.947 246.419 118.833 246.434C116.723 246.719 114.426 246.193 112.749 244.84C110.766 243.242 109.565 240.595 109.352 238.086C109.057 234.605 110.059 231.122 112.364 228.482C114.582 225.939 116.875 224.75 120.243 224.523Z" fill="#4B2D10"/>
<path d="M124.486 230.87C124.505 231.227 124.412 231.466 124.223 231.769C122.99 233.739 116.735 241.222 114.77 241.683L114.734 241.441C115.804 239.086 122.229 232.867 124.486 230.87Z" fill="#FFE8AE"/>
<path d="M118.958 227.345C120.066 227.407 121.472 227.331 122.436 227.924L122.265 228.135L122.334 228.166C119.665 229.838 115.8 234.421 113.504 236.875L111.75 238.824C111.787 236.745 111.882 234.677 112.733 232.746C113.944 229.997 116.269 228.392 118.958 227.345Z" fill="#FFE8AE"/>
<path d="M135.883 68.2777C144.164 67.7638 153.015 70.4315 160.312 74.2902C169.929 79.3753 177.575 87.8796 180.803 98.3645C185.84 114.722 181.468 130.349 173.759 144.934C162.845 165.58 143.621 183.173 121.151 189.983C119.896 190.344 118.626 190.634 117.339 190.852C116.053 191.071 114.758 191.216 113.456 191.289C104.053 191.845 96.4082 188.722 89.4332 182.45C79.0725 173.134 75.7457 162.609 75.0211 149.001C74.6161 141.388 75.991 134.039 77.9393 126.722C81.6618 112.742 86.9136 100.627 96.5919 89.7367C107.369 77.6098 119.216 69.2208 135.883 68.2777Z" fill="#FFE8AE"/>
<path d="M139.681 171.764C140.3 171.751 140.929 171.808 141.401 172.261C141.76 172.604 141.884 173.02 141.898 173.505C141.927 174.515 141.316 175.189 140.623 175.822C140.077 175.801 139.552 175.815 139.116 175.425C138.73 175.081 138.555 174.702 138.516 174.191C138.439 173.196 139.032 172.427 139.681 171.764Z" fill="#4B2D10"/>
<path d="M81.414 154.193C82.015 154.212 82.6749 154.363 83.1046 154.82C83.5035 155.245 83.7034 155.704 83.653 156.295C83.5725 157.243 83.125 157.64 82.4182 158.193C81.6156 158.059 80.9918 157.853 80.5056 157.166C80.1775 156.702 80.0184 156.164 80.1564 155.595C80.3383 154.845 80.7891 154.545 81.414 154.193Z" fill="#4B2D10"/>
<path d="M83.4156 118.692C84.9582 118.564 88.2045 118.598 89.4239 119.612L89.3599 119.975L88.7072 120.294C87.3051 120.582 84.8284 121.053 83.4692 120.526C83.0167 120.351 82.9598 120.28 82.7789 119.867C82.8737 119.302 83.0531 119.109 83.4156 118.692Z" fill="#4B2D10"/>
<path d="M102.035 88.4699C102.689 88.4347 103.383 88.545 103.864 89.0384C104.257 89.4414 104.422 89.9316 104.395 90.4876C104.348 91.4117 103.896 91.9206 103.241 92.5164C102.531 92.562 101.826 92.4615 101.308 91.9213C100.912 91.5076 100.738 91.0177 100.782 90.4506C100.854 89.5146 101.342 89.033 102.035 88.4699Z" fill="#4B2D10"/>
<path d="M169.895 99.2485C170.207 99.2561 170.578 99.2417 170.881 99.3157C171.848 99.5517 172.214 100.43 172.623 101.237C172.267 102.509 172.096 103.27 170.994 104.101C170.141 104.039 169.506 103.998 168.907 103.315C168.484 102.833 168.315 102.243 168.375 101.607C168.481 100.478 169.064 99.9392 169.895 99.2485Z" fill="#4B2D10"/>
<path d="M82.6509 122.912C84.4533 123.177 88.3171 123.273 89.5601 124.713C89.5708 125.2 89.5204 125.188 89.2008 125.565C87.5081 125.964 84.7862 126.153 83.1585 125.463C82.6234 125.236 82.3699 124.967 82.1561 124.416C82.1501 123.794 82.3631 123.437 82.6509 122.912Z" fill="#4B2D10"/>
<path d="M108.999 178.833C109.345 178.921 109.593 178.996 109.853 179.259C110.468 179.881 110.508 181.171 110.524 181.99C110.559 183.786 110.564 186.028 109.276 187.392C109.076 187.373 108.763 187.37 108.565 187.305C108.175 187.18 107.966 186.907 107.815 186.535C107.029 184.61 108.227 180.669 108.999 178.833Z" fill="#4B2D10"/>
<path d="M145.597 72.4121C146.129 72.503 146.538 72.5367 146.954 72.9167C147.435 75.3248 146.682 80.4247 145.364 82.4617C144.959 82.4653 144.666 82.4011 144.28 82.2797C143.943 81.9719 143.769 81.7248 143.652 81.2866C143.06 79.0649 144.51 74.4126 145.597 72.4121Z" fill="#4B2D10"/>
<path d="M142.248 71.502C142.37 71.5314 142.564 71.5723 142.671 71.6309C142.897 71.7541 143.015 71.9078 143.1 72.1423C143.684 73.7506 142.327 78.6375 141.619 80.259C141.269 81.0596 141.055 81.3462 140.237 81.669C140.087 81.5627 139.941 81.4492 139.801 81.3286C139.29 80.8965 139.07 80.4522 139.029 79.7832C138.877 77.2975 140.703 73.3713 142.248 71.502Z" fill="#4B2D10"/>
<path d="M164.384 136.163C165.899 136.164 170.473 135.782 171.508 136.892C171.72 137.119 171.638 137.287 171.631 137.575C171.268 138.276 170.651 138.597 170.012 139.016C169.421 139.044 168.833 139.033 168.241 139.024C166.568 138.962 161.892 138.386 160.613 137.304C160.337 137.07 160.427 137.183 160.381 136.778C161.173 135.971 163.273 136.192 164.384 136.163Z" fill="#4B2D10"/>
<path d="M104.835 177.708C105.224 177.722 105.576 177.706 105.921 177.915C106.199 178.085 106.387 178.51 106.449 178.824C106.841 180.829 105.281 186.881 104.136 188.572C103.808 188.557 103.583 188.54 103.276 188.407C102.942 188.262 102.682 187.901 102.562 187.556C101.853 185.513 103.796 179.721 104.835 177.708Z" fill="#4B2D10"/>
<path d="M162.403 139.562C163.709 139.493 165.015 139.486 166.321 139.541C168.338 139.626 171.787 139.932 173.231 141.511C173.262 141.721 173.35 141.916 173.233 142.108C172.73 142.926 169.976 143.98 169.064 144.303C167.606 144.109 159.576 141.927 158.702 141.177C158.369 140.893 158.367 140.821 158.324 140.41C159.246 139.452 161.169 139.621 162.403 139.562Z" fill="#4B2D10"/>
<path d="M142.038 85.5247C142.239 85.5617 142.527 85.5929 142.72 85.6759C143.169 85.868 143.25 85.9337 143.428 86.3568C143.223 87.7061 142.706 89.0691 142.305 90.3778C140.532 96.1712 138.033 101.643 135.926 107.311C133.956 112.612 132.416 118.084 130.282 123.321C130.462 123.605 130.639 123.891 130.813 124.179C131.055 124.569 131.302 124.956 131.502 125.37C132.632 127.708 133.048 130.371 132.171 132.866C131.123 135.847 127.733 138.893 124.436 139.089C122.832 139.184 121.703 138.771 120.178 139.507L119.957 139.616C119.169 139.53 118.412 139.407 117.638 139.234C117.586 139.202 117.533 139.171 117.483 139.137C115.326 137.695 114.079 135.326 113.547 132.833C112.818 129.42 113.617 125.529 115.536 122.631C117.169 120.167 119.062 119.115 121.917 118.541C123.246 113.784 128.873 105.881 131.708 101.491L142.038 85.5247Z" fill="#4B2D10"/>
<path d="M121.518 120.846C121.652 120.835 121.785 120.827 121.919 120.824C122.747 120.804 124.407 120.805 125.041 121.41C124.719 121.951 123.295 122.348 122.684 122.646C120.615 123.659 119.153 125.925 118.424 128.075C117.537 130.692 117.526 133.462 118.735 135.981C119.009 136.458 119.302 136.917 119.465 137.446C119.229 137.516 119.049 137.486 118.826 137.351C117.838 136.75 117.154 134.959 116.755 133.897C116.684 133.713 116.618 133.528 116.557 133.341C116.495 133.153 116.439 132.965 116.387 132.775C116.335 132.584 116.288 132.393 116.247 132.201C116.205 132.008 116.168 131.814 116.136 131.62C116.104 131.426 116.077 131.23 116.055 131.035C116.033 130.839 116.016 130.642 116.004 130.446C115.992 130.249 115.985 130.052 115.983 129.855C115.981 129.658 115.985 129.461 115.993 129.264C116.001 129.067 116.015 128.871 116.033 128.674C116.051 128.478 116.075 128.283 116.103 128.087C116.131 127.892 116.165 127.698 116.203 127.505C116.241 127.312 116.285 127.119 116.333 126.928C116.381 126.737 116.434 126.548 116.492 126.36C116.55 126.171 116.613 125.984 116.68 125.799C116.748 125.614 116.82 125.431 116.896 125.25C116.973 125.069 117.055 124.889 117.141 124.712C118.113 122.668 119.439 121.566 121.518 120.846Z" fill="#FFE8AE"/>
<path d="M137.095 97.6077C137.202 98.5871 129.266 118.796 128.393 122.348C127.988 121.167 127.584 120.194 126.728 119.267C125.722 118.719 124.776 118.553 123.663 118.397C124.628 116.698 125.823 115.066 126.841 113.382C129.873 108.369 133.489 102.118 137.095 97.6077Z" fill="#FFE8AE"/>
<path d="M124.878 123.683C125.571 123.641 126.268 123.68 126.962 123.696C128.172 124.539 129.051 125.372 129.711 126.721C130.53 128.399 130.763 130.517 130.127 132.294C129.346 134.476 127.532 135.782 125.522 136.705C124.879 136.888 124.171 137.036 123.506 136.902C123.376 136.877 123.248 136.845 123.121 136.807C122.994 136.768 122.87 136.723 122.748 136.672C122.625 136.621 122.506 136.564 122.39 136.501C122.273 136.438 122.16 136.369 122.051 136.294C121.942 136.219 121.836 136.139 121.735 136.053C121.634 135.968 121.537 135.877 121.445 135.782C121.353 135.686 121.266 135.586 121.184 135.482C121.102 135.377 121.026 135.269 120.955 135.157C119.962 133.581 119.807 131.434 120.247 129.658C120.895 127.042 122.604 125.027 124.878 123.683Z" fill="#FFE8AE"/>
</g>
<defs>
<clipPath id="clip0_486_482">
<rect width="263.111" height="320" fill="white" transform="translate(0.444458 0.31958)"/>
</clipPath>
</defs>
</svg>
