<svg width="820" height="392" viewBox="0 0 820 392" fill="none" xmlns="http://www.w3.org/2000/svg">
<path d="M680.922 339.386C669.879 339.386 664.357 333.749 664.357 322.475V233.956C664.357 228.664 665.968 224.581 669.189 221.705C672.525 218.829 676.436 217.391 680.922 217.391C685.409 217.391 689.32 218.829 692.656 221.705C695.992 224.581 697.66 228.664 697.66 233.956V305.738H717.159V233.956C717.159 228.664 718.827 224.581 722.163 221.705C725.499 218.829 729.41 217.391 733.896 217.391C736.082 217.391 738.152 217.793 740.108 218.599C742.179 219.289 743.962 220.382 745.457 221.877C746.953 223.258 748.161 224.983 749.081 227.054C750.001 229.124 750.461 231.425 750.461 233.956V305.738H769.96V233.956C769.96 228.664 771.628 224.581 774.964 221.705C778.3 218.829 782.211 217.391 786.697 217.391C791.184 217.391 795.037 218.829 798.258 221.705C801.594 224.581 803.262 228.664 803.262 233.956L803.435 305.738C814.478 305.738 820 311.375 820 322.648V375.018C820 380.539 818.332 384.681 814.996 387.442C811.775 390.202 807.921 391.583 803.435 391.583C798.949 391.583 795.037 390.202 791.701 387.442C788.365 384.681 786.697 380.539 786.697 375.018V339.386H680.922Z" fill="#4B2D10"/>
<path d="M588.27 272.608L619.674 225.846C621.63 222.97 623.873 220.842 626.404 219.461C629.05 218.081 631.811 217.391 634.687 217.391C636.757 217.391 638.713 217.793 640.553 218.599C642.394 219.289 644.062 220.382 645.557 221.877C647.053 223.258 648.203 224.983 649.008 227.054C649.929 229.124 650.389 231.425 650.389 233.956V324.201C650.389 329.378 648.836 333.346 645.73 336.107C642.624 338.753 638.943 340.076 634.687 340.076C630.2 340.076 626.346 338.753 623.126 336.107C620.02 333.346 618.467 329.378 618.467 324.201V284.686L587.235 331.448C585.279 334.439 582.921 336.625 580.16 338.005C577.514 339.386 574.811 340.076 572.05 340.076C569.979 340.076 567.966 339.731 566.011 339.041C564.17 338.235 562.502 337.142 561.007 335.762C559.626 334.267 558.476 332.484 557.555 330.413C556.635 328.342 556.175 325.984 556.175 323.338V233.266C556.175 228.089 557.728 224.178 560.834 221.532C564.055 218.771 567.794 217.391 572.05 217.391C576.536 217.391 580.332 218.771 583.438 221.532C586.659 224.178 588.27 228.089 588.27 233.266V272.608Z" fill="#4B2D10"/>
<path d="M487.526 374.327C487.526 385.831 481.947 391.583 470.788 391.583C459.515 391.583 453.878 385.946 453.878 374.673L454.567 234.819C454.567 223.545 459.974 217.908 470.787 217.908H504.952C512.2 217.908 518.469 218.829 523.761 220.669C529.167 222.51 533.596 225.156 537.047 228.607C540.498 231.943 543.029 236.026 544.64 240.858C546.365 245.689 547.228 251.096 547.228 257.078C547.228 262.6 546.423 267.776 544.812 272.608C543.317 277.324 541.131 281.408 538.255 284.859C535.379 288.31 531.871 291.071 527.729 293.141C523.588 295.097 518.872 296.075 513.58 296.075H507.713C502.192 296.075 498.338 294.809 496.152 292.279C493.967 289.633 492.874 286.124 492.874 281.753C492.874 277.382 494.082 274.161 496.497 272.09C498.913 270.019 501.962 268.984 505.643 268.984H508.403C511.279 268.984 513.523 268.236 515.133 266.741C516.744 265.245 517.549 262.945 517.549 259.839C517.549 256.388 516.571 253.914 514.615 252.419C512.66 250.809 509.899 250.003 506.333 250.003H488.215L487.526 374.327Z" fill="#4B2D10"/>
<path d="M380.966 289.518H397.186L389.767 267.604L380.966 289.518ZM406.332 315.918H370.441L365.092 329.205C363.481 332.886 361.353 335.647 358.707 337.488C356.061 339.213 353.301 340.076 350.425 340.076C348.124 340.076 345.881 339.731 343.695 339.041C341.624 338.235 339.726 337.142 338.001 335.762C336.275 334.382 334.895 332.714 333.86 330.758C332.824 328.802 332.307 326.617 332.307 324.201C332.307 321.21 332.709 318.967 333.515 317.471L374.582 227.399C375.962 224.408 377.745 221.992 379.931 220.152C382.117 218.311 385.51 217.391 390.112 217.391C394.483 217.391 397.762 218.311 399.947 220.152C402.248 221.992 404.031 224.466 405.296 227.571L442.74 317.471C443.546 319.082 443.948 321.325 443.948 324.201C443.948 326.502 443.431 328.63 442.395 330.585C441.36 332.541 439.979 334.209 438.254 335.589C436.643 336.97 434.745 338.063 432.56 338.868C430.374 339.673 428.188 340.076 426.003 340.076C418.64 340.076 413.694 336.452 411.163 329.205L406.332 315.918Z" fill="#4B2D10"/>
<path d="M258.671 251.729V267.431H283.691C285.992 267.431 287.718 266.568 288.868 264.843C290.018 263.117 290.593 261.162 290.593 258.976C290.593 257.135 290.018 255.467 288.868 253.972C287.833 252.477 286.107 251.729 283.691 251.729H258.671ZM258.671 291.934V305.738H283.691C286.107 305.738 287.833 304.99 288.868 303.495C290.018 301.999 290.593 300.446 290.593 298.836C290.593 297.11 290.018 295.557 288.868 294.177C287.833 292.681 286.107 291.934 283.691 291.934H258.671ZM226.576 234.819C226.576 223.545 231.638 217.908 241.761 217.908H294.735C298.991 217.908 302.73 218.829 305.951 220.669C309.172 222.395 311.875 224.753 314.061 227.744C316.246 230.62 317.857 233.956 318.892 237.752C320.043 241.548 320.618 245.402 320.618 249.313C320.618 256.215 319.122 262.312 316.131 267.604C313.255 272.78 308.712 276.059 302.5 277.439C305.606 277.784 308.366 278.82 310.782 280.545C313.313 282.271 315.441 284.514 317.167 287.275C318.892 290.035 320.215 293.199 321.135 296.765C322.171 300.331 322.688 304.07 322.688 307.981C322.688 312.237 322.113 316.263 320.963 320.06C319.812 323.856 318.029 327.192 315.614 330.068C313.198 332.944 310.034 335.244 306.123 336.97C302.327 338.58 297.783 339.386 292.492 339.386H242.624C231.926 339.386 226.576 333.691 226.576 322.303V234.819Z" fill="#4B2D10"/>
<path d="M90.5375 278.647C90.5375 270.019 92.148 261.967 95.369 254.49C98.59 247.012 103.019 240.455 108.656 234.819C114.292 229.182 120.849 224.753 128.327 221.532C135.804 218.311 143.856 216.701 152.484 216.701C161.112 216.701 169.164 218.311 176.641 221.532C184.234 224.753 190.791 229.182 196.312 234.819C201.949 240.455 206.378 247.012 209.599 254.49C212.935 261.967 214.603 270.019 214.603 278.647C214.603 287.275 212.935 295.327 209.599 302.804C206.378 310.282 201.949 316.839 196.312 322.475C190.791 328.112 184.234 332.541 176.641 335.762C169.164 338.983 161.112 340.594 152.484 340.594C143.856 340.594 135.804 338.983 128.327 335.762C120.849 332.541 114.292 328.112 108.656 322.475C103.019 316.839 98.59 310.282 95.369 302.804C92.148 295.327 90.5375 287.275 90.5375 278.647ZM124.53 279.165C124.53 283.076 125.278 286.757 126.774 290.208C128.269 293.544 130.282 296.478 132.813 299.008C135.344 301.539 138.277 303.552 141.613 305.048C145.064 306.428 148.745 307.118 152.657 307.118C156.568 307.118 160.191 306.428 163.527 305.048C166.978 303.552 169.969 301.539 172.5 299.008C175.146 296.478 177.216 293.544 178.712 290.208C180.207 286.757 180.955 283.076 180.955 279.165C180.955 275.254 180.207 271.572 178.712 268.121C177.216 264.67 175.146 261.679 172.5 259.149C169.969 256.618 166.978 254.605 163.527 253.109C160.191 251.614 156.568 250.866 152.657 250.866C148.745 250.866 145.064 251.614 141.613 253.109C138.277 254.605 135.344 256.618 132.813 259.149C130.282 261.679 128.269 264.67 126.774 268.121C125.278 271.572 124.53 275.254 124.53 279.165Z" fill="#4B2D10"/>
<path d="M61.9464 375.19C61.9464 380.712 60.2784 384.911 56.9424 387.787C53.6064 390.547 49.6376 391.928 45.0362 391.928C40.5499 391.928 36.6387 390.547 33.3027 387.787C30.0817 384.911 28.4712 380.712 28.4712 375.19V251.729H16.7376C11.446 251.729 7.30473 250.061 4.31382 246.725C1.43794 243.389 0 239.42 0 234.819C0 230.217 1.43794 226.249 4.31382 222.912C7.30473 219.576 11.446 217.908 16.7376 217.908H73.3349C78.6265 217.908 82.7678 219.576 85.7587 222.912C88.7496 226.249 90.245 230.217 90.245 234.819C90.245 239.42 88.7496 243.389 85.7587 246.725C82.7678 250.061 78.6265 251.729 73.3349 251.729H61.9464V375.19Z" fill="#4B2D10"/>
<path d="M342.93 99.5373L374.334 52.7756C376.29 49.8997 378.533 47.7715 381.064 46.3911C383.709 45.0107 386.47 44.3205 389.346 44.3205C391.417 44.3205 393.372 44.7231 395.213 45.5283C397.054 46.2186 398.722 47.3114 400.217 48.8068C401.712 50.1873 402.863 51.9128 403.668 53.9834C404.588 56.0541 405.048 58.3548 405.048 60.8855V196.598C405.048 201.775 403.495 205.743 400.39 208.504C397.284 211.15 393.602 212.473 389.346 212.473C384.86 212.473 381.006 211.15 377.785 208.504C374.679 205.743 373.126 201.775 373.126 196.598V111.616L341.894 158.378C339.939 161.369 337.58 163.554 334.82 164.935C332.174 166.315 329.47 167.005 326.71 167.005C324.639 167.005 322.626 166.66 320.67 165.97C318.83 165.165 317.162 164.072 315.666 162.692C314.286 161.196 313.135 159.413 312.215 157.342C311.295 155.272 310.835 152.914 310.835 150.268V60.1953C310.835 55.0187 312.388 51.1075 315.494 48.4617C318.715 45.7009 322.453 44.3205 326.71 44.3205C331.196 44.3205 334.992 45.7009 338.098 48.4617C341.319 51.1075 342.93 55.0187 342.93 60.1953V99.5373ZM378.648 9.80994C380.949 9.80994 382.962 10.7302 384.687 12.5708C386.413 14.2963 387.276 16.3669 387.276 18.7827C387.276 21.8886 386.298 24.6495 384.342 27.0652C382.387 29.3659 379.913 31.379 376.922 33.1046C374.047 34.715 370.883 35.9804 367.432 36.9007C364.096 37.706 360.99 38.1086 358.114 38.1086C355.123 38.1086 351.902 37.706 348.451 36.9007C345.115 35.9804 341.952 34.715 338.961 33.1046C336.085 31.379 333.669 29.3659 331.714 27.0652C329.758 24.6495 328.78 21.8886 328.78 18.7827C328.78 16.3669 329.643 14.2963 331.368 12.5708C333.094 10.7302 335.107 9.80994 337.408 9.80994C340.054 9.80994 342.009 10.3851 343.275 11.5355C344.54 12.6858 345.69 14.0087 346.726 15.5042C347.876 16.8846 349.199 18.15 350.694 19.3003C352.305 20.4507 354.778 21.0259 358.114 21.0259C361.335 21.0259 363.693 20.4507 365.189 19.3003C366.799 18.15 368.122 16.8846 369.158 15.5042C370.308 14.0087 371.516 12.6858 372.781 11.5355C374.047 10.3851 376.002 9.80994 378.648 9.80994Z" fill="#4B2D10"/>
<path d="M174.968 105.577C174.968 96.9491 176.579 88.8967 179.8 81.4194C183.021 73.9421 187.45 67.3851 193.086 61.7484C198.723 56.1117 205.28 51.6828 212.757 48.4618C220.235 45.2409 228.287 43.6304 236.915 43.6304C245.542 43.6304 253.595 45.2409 261.072 48.4618C268.665 51.6828 275.222 56.1117 280.743 61.7484C286.38 67.3851 290.809 73.9421 294.03 81.4194C297.366 88.8967 299.034 96.9491 299.034 105.577C299.034 114.204 297.366 122.257 294.03 129.734C290.809 137.211 286.38 143.768 280.743 149.405C275.222 155.042 268.665 159.471 261.072 162.692C253.595 165.913 245.542 167.523 236.915 167.523C228.287 167.523 220.235 165.913 212.757 162.692C205.28 159.471 198.723 155.042 193.086 149.405C187.45 143.768 183.021 137.211 179.8 129.734C176.579 122.257 174.968 114.204 174.968 105.577ZM208.961 106.094C208.961 110.006 209.709 113.687 211.205 117.138C212.7 120.474 214.713 123.407 217.244 125.938C219.775 128.469 222.708 130.482 226.044 131.977C229.495 133.358 233.176 134.048 237.087 134.048C240.999 134.048 244.622 133.358 247.958 131.977C251.409 130.482 254.4 128.469 256.931 125.938C259.577 123.407 261.647 120.474 263.143 117.138C264.638 113.687 265.386 110.006 265.386 106.094C265.386 102.183 264.638 98.5021 263.143 95.0511C261.647 91.6 259.577 88.6091 256.931 86.0783C254.4 83.5476 251.409 81.5344 247.958 80.039C244.622 78.5435 240.999 77.7958 237.087 77.7958C233.176 77.7958 229.495 78.5435 226.044 80.039C222.708 81.5344 219.775 83.5476 217.244 86.0783C214.713 88.6091 212.7 91.6 211.205 95.0511C209.709 98.5021 208.961 102.183 208.961 106.094Z" fill="#4B2D10"/>
<path d="M83.3979 105.783C77.2831 105.783 71.7171 102.566 66.6999 96.1312L49.7667 74.0027V144.861C49.7667 152.237 47.4933 157.887 42.9464 161.81C38.3995 165.734 33.1471 167.696 27.1892 167.696C20.9176 167.696 15.5084 165.812 10.9615 162.046C6.41467 158.122 4.14124 152.394 4.14124 144.861V24.5667C4.14124 20.8002 4.76839 17.426 6.0227 14.4441C7.4338 11.3053 9.23687 8.71584 11.4319 6.67564C13.6269 4.63542 16.1356 3.06602 18.9578 1.96744C21.9367 0.868866 24.9941 0.31958 28.1299 0.31958C32.2064 0.31958 36.2829 1.33969 40.3594 3.3799C44.4359 5.26317 47.9636 8.08808 50.9426 11.8546L83.3979 53.5221L116.088 11.8546C119.067 8.08808 122.517 5.26317 126.436 3.3799C130.513 1.33969 134.589 0.31958 138.666 0.31958C141.802 0.31958 144.781 0.868866 147.603 1.96744C150.582 3.06602 153.169 4.63542 155.364 6.67564C157.716 8.71584 159.519 11.3053 160.773 14.4441C162.184 17.426 162.89 20.8002 162.89 24.5667V190.128C162.89 197.661 160.616 203.389 156.069 207.312C151.523 211.079 146.113 212.962 139.842 212.962C133.727 212.962 128.396 211.079 123.849 207.312C119.459 203.389 117.264 197.661 117.264 190.128V74.0027L100.566 96.1312C97.9008 99.7408 95.157 102.252 92.3348 103.664C89.5126 105.077 86.5337 105.783 83.3979 105.783Z" fill="#4B2D10"/>
<path d="M204.914 106.696C204.914 102.272 205.74 98.1423 207.392 94.3078C209.044 90.4733 211.315 87.1107 214.206 84.2201C217.096 81.3295 220.459 79.0582 224.293 77.4065C228.128 75.7547 232.257 74.9288 236.682 74.9288C241.106 74.9288 245.236 75.7547 249.07 77.4065C252.964 79.0582 256.326 81.3295 259.158 84.2201C262.048 87.1107 264.32 90.4733 265.971 94.3078C267.682 98.1423 268.538 102.272 268.538 106.696C268.538 111.121 267.682 115.25 265.971 119.085C264.32 122.919 262.048 126.282 259.158 129.172C256.326 132.063 252.964 134.334 249.07 135.986C245.236 137.638 241.106 138.464 236.682 138.464C232.257 138.464 228.128 137.638 224.293 135.986C220.459 134.334 217.096 132.063 214.206 129.172C211.315 126.282 209.044 122.919 207.392 119.085C205.74 115.25 204.914 111.121 204.914 106.696ZM222.347 106.962C222.347 108.967 222.73 110.855 223.497 112.625C224.264 114.336 225.296 115.84 226.594 117.138C227.892 118.436 229.396 119.468 231.107 120.235C232.877 120.943 234.764 121.297 236.77 121.297C238.776 121.297 240.634 120.943 242.345 120.235C244.115 119.468 245.649 118.436 246.946 117.138C248.303 115.84 249.365 114.336 250.132 112.625C250.899 110.855 251.282 108.967 251.282 106.962C251.282 104.956 250.899 103.068 250.132 101.298C249.365 99.5286 248.303 97.9948 246.946 96.697C245.649 95.3991 244.115 94.3668 242.345 93.5999C240.634 92.833 238.776 92.4495 236.77 92.4495C234.764 92.4495 232.877 92.833 231.107 93.5999C229.396 94.3668 227.892 95.3991 226.594 96.697C225.296 97.9948 224.264 99.5286 223.497 101.298C222.73 103.068 222.347 104.956 222.347 106.962Z" fill="#FF6B00"/>
<path fill-rule="evenodd" clip-rule="evenodd" d="M246.946 117.138C248.303 115.84 249.365 114.336 250.132 112.625C250.899 110.855 251.282 108.967 251.282 106.962C251.282 104.956 250.899 103.068 250.132 101.298C249.365 99.5286 248.303 97.9948 246.946 96.697C245.649 95.3991 244.115 94.3668 242.345 93.5999C240.634 92.833 238.776 92.4495 236.77 92.4495C234.764 92.4495 232.877 92.833 231.107 93.5999C229.396 94.3668 227.892 95.3991 226.594 96.697C225.296 97.9948 224.264 99.5286 223.497 101.298C222.73 103.068 222.347 104.956 222.347 106.962C222.347 108.967 222.73 110.855 223.497 112.625C224.264 114.336 225.296 115.84 226.594 117.138C227.892 118.436 229.396 119.468 231.107 120.235C232.877 120.943 234.764 121.297 236.77 121.297C238.776 121.297 240.634 120.943 242.345 120.235C244.115 119.468 245.649 118.436 246.946 117.138ZM238.985 112.288C239.774 111.936 240.368 111.514 240.846 111.037L240.913 110.969L240.983 110.903C241.522 110.387 241.929 109.817 242.236 109.146C242.502 108.515 242.655 107.814 242.655 106.962C242.655 106.088 242.495 105.372 242.216 104.729C241.893 103.985 241.485 103.412 240.983 102.932L240.913 102.865L240.846 102.798C240.354 102.306 239.739 101.874 238.915 101.516L238.865 101.495L238.816 101.473C238.291 101.237 237.646 101.077 236.77 101.077C235.918 101.077 235.216 101.23 234.585 101.496C233.834 101.839 233.222 102.27 232.695 102.798C232.203 103.289 231.771 103.904 231.413 104.729C231.134 105.372 230.974 106.088 230.974 106.962C230.974 107.814 231.127 108.516 231.393 109.147C231.736 109.898 232.167 110.51 232.695 111.037C233.195 111.538 233.772 111.951 234.471 112.286C235.13 112.528 235.877 112.669 236.77 112.669C237.705 112.669 238.415 112.514 238.985 112.288ZM196.287 106.696C196.287 101.169 197.325 95.8706 199.468 90.8945C201.543 86.0787 204.425 81.799 208.105 78.1194C211.785 74.4398 216.064 71.5572 220.88 69.4827C225.856 67.3392 231.155 66.3011 236.682 66.3011C242.201 66.3011 247.492 67.3361 252.461 69.4733C257.332 71.5426 261.638 74.4314 265.29 78.1507C268.941 81.8103 271.806 86.0623 273.873 90.8437C276.088 95.8287 277.165 101.146 277.165 106.696C277.165 112.247 276.088 117.564 273.873 122.549C271.806 127.33 268.942 131.582 265.29 135.241C261.638 138.961 257.332 141.85 252.462 143.919C247.492 146.056 242.201 147.091 236.682 147.091C231.155 147.091 225.856 146.053 220.88 143.91C216.064 141.835 211.785 138.953 208.105 135.273C204.425 131.593 201.543 127.314 199.468 122.498C197.325 117.522 196.287 112.223 196.287 106.696ZM249.07 135.986C252.964 134.334 256.326 132.063 259.158 129.172C262.048 126.282 264.32 122.919 265.971 119.085C267.682 115.25 268.538 111.121 268.538 106.696C268.538 102.272 267.682 98.1423 265.971 94.3078C264.32 90.4733 262.048 87.1107 259.158 84.2201C256.326 81.3295 252.964 79.0582 249.07 77.4065C245.236 75.7547 241.106 74.9288 236.682 74.9288C232.257 74.9288 228.128 75.7547 224.293 77.4065C220.459 79.0582 217.096 81.3295 214.206 84.2201C211.315 87.1107 209.044 90.4733 207.392 94.3078C205.74 98.1423 204.914 102.272 204.914 106.696C204.914 111.121 205.74 115.25 207.392 119.085C209.044 122.919 211.315 126.282 214.206 129.172C217.096 132.063 220.459 134.334 224.293 135.986C228.128 137.638 232.257 138.464 236.682 138.464C241.106 138.464 245.236 137.638 249.07 135.986Z" fill="#FFE8AE"/>
<path d="M120.504 278.904C120.504 274.479 121.33 270.35 122.981 266.515C124.633 262.681 126.904 259.318 129.795 256.427C132.686 253.537 136.048 251.266 139.883 249.614C143.717 247.962 147.847 247.136 152.271 247.136C156.695 247.136 160.825 247.962 164.659 249.614C168.553 251.266 171.916 253.537 174.747 256.427C177.638 259.318 179.909 262.681 181.561 266.515C183.272 270.35 184.127 274.479 184.127 278.904C184.127 283.328 183.272 287.457 181.561 291.292C179.909 295.126 177.638 298.489 174.747 301.38C171.916 304.27 168.553 306.541 164.659 308.193C160.825 309.845 156.695 310.671 152.271 310.671C147.847 310.671 143.717 309.845 139.883 308.193C136.048 306.541 132.686 304.27 129.795 301.38C126.904 298.489 124.633 295.126 122.981 291.292C121.33 287.457 120.504 283.328 120.504 278.904ZM137.936 279.169C137.936 281.175 138.319 283.063 139.086 284.832C139.853 286.543 140.886 288.047 142.183 289.345C143.481 290.643 144.985 291.675 146.696 292.442C148.466 293.15 150.354 293.504 152.36 293.504C154.365 293.504 156.224 293.15 157.934 292.442C159.704 291.675 161.238 290.643 162.536 289.345C163.893 288.047 164.954 286.543 165.721 284.832C166.488 283.063 166.872 281.175 166.872 279.169C166.872 277.163 166.488 275.276 165.721 273.506C164.954 271.736 163.893 270.202 162.536 268.904C161.238 267.607 159.704 266.574 157.934 265.807C156.224 265.04 154.365 264.657 152.36 264.657C150.354 264.657 148.466 265.04 146.696 265.807C144.985 266.574 143.481 267.607 142.183 268.904C140.886 270.202 139.853 271.736 139.086 273.506C138.319 275.276 137.936 277.163 137.936 279.169Z" fill="#FF6B00"/>
<path fill-rule="evenodd" clip-rule="evenodd" d="M162.536 289.345C163.893 288.047 164.954 286.543 165.721 284.832C166.488 283.063 166.872 281.175 166.872 279.169C166.872 277.163 166.488 275.276 165.721 273.506C164.954 271.736 163.893 270.202 162.536 268.904C161.238 267.607 159.704 266.574 157.934 265.807C156.224 265.04 154.365 264.657 152.36 264.657C150.354 264.657 148.466 265.04 146.696 265.807C144.985 266.574 143.481 267.607 142.183 268.904C140.886 270.202 139.853 271.736 139.086 273.506C138.319 275.276 137.936 277.163 137.936 279.169C137.936 281.175 138.319 283.063 139.086 284.832C139.853 286.543 140.886 288.047 142.183 289.345C143.481 290.643 144.985 291.675 146.696 292.442C148.466 293.15 150.354 293.504 152.36 293.504C154.365 293.504 156.224 293.15 157.934 292.442C159.704 291.675 161.238 290.643 162.536 289.345ZM154.574 284.495C155.364 284.144 155.958 283.722 156.435 283.245L156.503 283.177L156.572 283.111C157.112 282.594 157.518 282.024 157.826 281.353C158.092 280.722 158.244 280.021 158.244 279.169C158.244 278.295 158.084 277.58 157.805 276.936C157.483 276.193 157.075 275.62 156.572 275.139L156.503 275.073L156.435 275.005C155.944 274.514 155.329 274.081 154.504 273.724L154.454 273.702L154.405 273.68C153.881 273.445 153.235 273.285 152.36 273.285C151.507 273.285 150.805 273.437 150.174 273.703C149.424 274.047 148.812 274.478 148.284 275.005C147.793 275.496 147.36 276.111 147.003 276.936C146.724 277.58 146.564 278.295 146.564 279.169C146.564 280.021 146.716 280.723 146.982 281.355C147.326 282.105 147.757 282.717 148.284 283.245C148.785 283.745 149.361 284.159 150.06 284.493C150.72 284.735 151.466 284.877 152.36 284.877C153.295 284.877 154.004 284.722 154.574 284.495ZM111.876 278.904C111.876 273.377 112.914 268.078 115.058 263.102C117.132 258.286 120.015 254.006 123.694 250.327C127.374 246.647 131.654 243.765 136.469 241.69C141.445 239.547 146.744 238.509 152.271 238.509C157.79 238.509 163.081 239.544 168.051 241.681C172.921 243.75 177.227 246.639 180.879 250.358C184.531 254.018 187.396 258.27 189.463 263.051C191.678 268.036 192.755 273.353 192.755 278.904C192.755 284.454 191.678 289.771 189.463 294.756C187.396 299.537 184.531 303.789 180.879 307.449C177.228 311.168 172.921 314.057 168.051 316.126C163.081 318.264 157.79 319.299 152.271 319.299C146.744 319.299 141.445 318.261 136.469 316.117C131.654 314.043 127.374 311.16 123.694 307.48C120.015 303.801 117.132 299.521 115.058 294.705C112.914 289.729 111.876 284.431 111.876 278.904ZM164.659 308.193C168.553 306.541 171.916 304.27 174.747 301.38C177.638 298.489 179.909 295.126 181.561 291.292C183.272 287.457 184.127 283.328 184.127 278.904C184.127 274.479 183.272 270.35 181.561 266.515C179.909 262.681 177.638 259.318 174.747 256.427C171.916 253.537 168.553 251.266 164.659 249.614C160.825 247.962 156.695 247.136 152.271 247.136C147.847 247.136 143.717 247.962 139.883 249.614C136.048 251.266 132.686 253.537 129.795 256.427C126.904 259.318 124.633 262.681 122.981 266.515C121.33 270.35 120.504 274.479 120.504 278.904C120.504 283.328 121.33 287.457 122.981 291.292C124.633 295.126 126.904 298.489 129.795 301.38C132.686 304.27 136.048 306.541 139.883 308.193C143.717 309.845 147.847 310.671 152.271 310.671C156.695 310.671 160.825 309.845 164.659 308.193Z" fill="#FFE8AE"/>
</svg>
