<svg width="200" height="82" viewBox="0 0 200 82" fill="none" xmlns="http://www.w3.org/2000/svg">
<circle cx="8.99209" cy="8.8323" r="8.49209" fill="#FF6B00"/>
<circle cx="46.6001" cy="8.8323" r="8.49209" fill="#FFB800"/>
<mask id="mask0_657_2603" style="mask-type:alpha" maskUnits="userSpaceOnUse" x="0" y="19" width="56" height="59">
<path d="M27.7556 56.1875C25.6528 56.1875 23.7387 55.076 22.0133 52.8529L16.1902 45.2077V69.6886C16.1902 72.237 15.4083 74.189 13.8447 75.5445C12.2811 76.9001 10.4748 77.5779 8.42596 77.5779C6.26923 77.5779 4.40906 76.9272 2.84544 75.6259C1.28181 74.2703 0.5 72.2913 0.5 69.6886V28.1279C0.5 26.8266 0.715672 25.6609 1.14702 24.6307C1.63228 23.5462 2.25234 22.6516 3.00719 21.9467C3.76204 21.2418 4.62473 20.6996 5.59526 20.3201C6.6197 19.9405 7.6711 19.7507 8.74946 19.7507C10.1513 19.7507 11.5532 20.1032 12.9551 20.8081C14.3569 21.4587 15.5701 22.4347 16.5945 23.736L27.7556 38.1318L38.9975 23.736C40.0219 22.4347 41.2081 21.4587 42.5561 20.8081C43.958 20.1032 45.3598 19.7507 46.7617 19.7507C47.8401 19.7507 48.8645 19.9405 49.835 20.3201C50.8595 20.6996 51.7491 21.2418 52.504 21.9467C53.3127 22.6516 53.9328 23.5462 54.3641 24.6307C54.8494 25.6609 55.092 26.8266 55.092 28.1279V69.6886C55.092 72.2913 54.3102 74.2703 52.7466 75.6259C51.183 76.9272 49.3228 77.5779 47.1661 77.5779C45.0633 77.5779 43.2301 76.9272 41.6664 75.6259C40.1567 74.2703 39.4019 72.2913 39.4019 69.6886V45.2077L33.6596 52.8529C32.743 54.1 31.7994 54.9675 30.8289 55.4555C29.8584 55.9435 28.8339 56.1875 27.7556 56.1875Z" fill="black"/>
</mask>
<g mask="url(#mask0_657_2603)">
<path d="M0.5 19.7507H27.796V77.5779H0.5V19.7507Z" fill="#FF6B00"/>
<path d="M27.7961 19.7509H55.0921V77.578H27.7961V19.7509Z" fill="#FFB800"/>
</g>
<path d="M175.658 77.5777C173.765 77.5777 172.818 76.6114 172.818 74.6789V59.5041C172.818 58.597 173.094 57.8969 173.647 57.4039C174.218 56.9109 174.889 56.6644 175.658 56.6644C176.427 56.6644 177.098 56.9109 177.67 57.4039C178.241 57.8969 178.527 58.597 178.527 59.5041V71.8096H181.87V59.5041C181.87 58.597 182.156 57.8969 182.728 57.4039C183.3 56.9109 183.97 56.6644 184.739 56.6644C185.114 56.6644 185.469 56.7334 185.804 56.8715C186.159 56.9898 186.465 57.1772 186.721 57.4335C186.977 57.6702 187.185 57.966 187.342 58.3209C187.5 58.6759 187.579 59.0703 187.579 59.5041V71.8096H190.922V59.5041C190.922 58.597 191.207 57.8969 191.779 57.4039C192.351 56.9109 193.022 56.6644 193.791 56.6644C194.56 56.6644 195.221 56.9109 195.773 57.4039C196.345 57.8969 196.631 58.597 196.631 59.5041L196.66 71.8096C198.553 71.8096 199.5 72.7759 199.5 74.7084V78.8201C199.5 79.7667 199.214 80.4766 198.642 80.9499C198.09 81.4232 197.429 81.6598 196.66 81.6598C195.891 81.6598 195.221 81.4232 194.649 80.9499C194.077 80.4766 193.791 79.7667 193.791 78.8201V77.5777H175.658Z" fill="#4B2D10"/>
<path d="M159.775 66.1301L165.159 58.1139C165.494 57.6209 165.878 57.256 166.312 57.0194C166.766 56.7828 167.239 56.6644 167.732 56.6644C168.087 56.6644 168.422 56.7334 168.738 56.8715C169.053 56.9898 169.339 57.1772 169.596 57.4335C169.852 57.6702 170.049 57.966 170.187 58.3209C170.345 58.6759 170.424 59.0703 170.424 59.5041V74.9747C170.424 75.8621 170.158 76.5424 169.625 77.0157C169.093 77.4693 168.462 77.696 167.732 77.696C166.963 77.696 166.302 77.4693 165.75 77.0157C165.218 76.5424 164.951 75.8621 164.951 74.9747V68.2008L159.597 76.217C159.262 76.7298 158.858 77.1044 158.385 77.3411C157.931 77.5777 157.468 77.696 156.994 77.696C156.639 77.696 156.294 77.6369 155.959 77.5186C155.643 77.3805 155.358 77.1932 155.101 76.9565C154.865 76.7002 154.667 76.3945 154.51 76.0395C154.352 75.6846 154.273 75.2803 154.273 74.8268V59.3858C154.273 58.4984 154.539 57.8279 155.072 57.3744C155.624 56.9011 156.265 56.6644 156.994 56.6644C157.763 56.6644 158.414 56.9011 158.947 57.3744C159.499 57.8279 159.775 58.4984 159.775 59.3858V66.1301Z" fill="#4B2D10"/>
<path d="M142.623 74.7381C142.623 76.7102 141.666 77.6962 139.754 77.6962C137.821 77.6962 136.855 76.7299 136.855 74.7973V59.6522C136.855 57.7196 137.782 56.7533 139.635 56.7533H145.492C146.735 56.7533 147.809 56.9111 148.716 57.2266C149.643 57.5421 150.403 57.9957 150.994 58.5873C151.586 59.1592 152.02 59.8592 152.296 60.6875C152.591 61.5157 152.739 62.4426 152.739 63.468C152.739 64.4146 152.601 65.302 152.325 66.1303C152.069 66.9388 151.694 67.6389 151.201 68.2305C150.708 68.8221 150.107 69.2954 149.397 69.6503C148.687 69.9856 147.878 70.1532 146.971 70.1532H145.965C145.019 70.1532 144.358 69.9363 143.984 69.5024C143.609 69.0489 143.422 68.4474 143.422 67.698C143.422 66.9487 143.629 66.3965 144.043 66.0415C144.457 65.6866 144.979 65.5091 145.611 65.5091H146.084C146.577 65.5091 146.961 65.3809 147.237 65.1245C147.514 64.8682 147.652 64.4738 147.652 63.9413C147.652 63.3497 147.484 62.9257 147.149 62.6694C146.813 62.3933 146.34 62.2552 145.729 62.2552H142.623V74.7381Z" fill="#4B2D10"/>
<path d="M124.237 69.029H127.018L125.746 65.2723L124.237 69.029ZM128.586 73.5548H122.433L121.516 75.8325C121.24 76.4635 120.875 76.9368 120.422 77.2523C119.968 77.5481 119.495 77.696 119.002 77.696C118.607 77.696 118.223 77.6369 117.848 77.5186C117.493 77.3805 117.168 77.1932 116.872 76.9565C116.576 76.7199 116.34 76.4339 116.162 76.0987C115.985 75.7635 115.896 75.3888 115.896 74.9747C115.896 74.4619 115.965 74.0774 116.103 73.821L123.143 58.3801C123.38 57.8674 123.685 57.4532 124.06 57.1377C124.435 56.8222 125.016 56.6644 125.805 56.6644C126.555 56.6644 127.117 56.8222 127.491 57.1377C127.886 57.4532 128.191 57.8772 128.408 58.4097L134.827 73.821C134.965 74.0971 135.034 74.4816 135.034 74.9747C135.034 75.3691 134.946 75.7339 134.768 76.0691C134.591 76.4044 134.354 76.6903 134.058 76.927C133.782 77.1636 133.457 77.3509 133.082 77.489C132.707 77.627 132.333 77.696 131.958 77.696C130.696 77.696 129.848 77.0749 129.414 75.8325L128.586 73.5548Z" fill="#4B2D10"/>
<path d="M103.272 62.551V65.2429H107.562C107.956 65.2429 108.252 65.0949 108.449 64.7991C108.646 64.5033 108.745 64.1681 108.745 63.7934C108.745 63.4779 108.646 63.192 108.449 62.9356C108.272 62.6792 107.976 62.551 107.562 62.551H103.272ZM103.272 69.4433V71.8097H107.562C107.976 71.8097 108.272 71.6815 108.449 71.4251C108.646 71.1688 108.745 70.9026 108.745 70.6265C108.745 70.3307 108.646 70.0644 108.449 69.8278C108.272 69.5714 107.976 69.4433 107.562 69.4433H103.272ZM97.7705 59.6522C97.7705 57.7196 98.6382 56.7533 100.374 56.7533H109.455C110.184 56.7533 110.825 56.9111 111.377 57.2266C111.93 57.5224 112.393 57.9267 112.768 58.4394C113.142 58.9324 113.419 59.5043 113.596 60.155C113.793 60.8058 113.892 61.4664 113.892 62.1369C113.892 63.3201 113.635 64.3653 113.123 65.2724C112.63 66.1598 111.851 66.7219 110.786 66.9585C111.318 67.0177 111.792 67.1952 112.206 67.491C112.64 67.7868 113.004 68.1713 113.3 68.6446C113.596 69.1179 113.823 69.6602 113.981 70.2715C114.158 70.8828 114.247 71.5237 114.247 72.1942C114.247 72.9239 114.148 73.6141 113.951 74.2649C113.754 74.9156 113.448 75.4875 113.034 75.9805C112.62 76.4735 112.078 76.8679 111.407 77.1637C110.756 77.4398 109.977 77.5779 109.07 77.5779H100.521C98.6875 77.5779 97.7705 76.6017 97.7705 74.6494V59.6522Z" fill="#4B2D10"/>
<path d="M74.4495 67.1655C74.4495 65.6865 74.7256 64.306 75.2778 63.0242C75.8299 61.7424 76.5892 60.6184 77.5555 59.6521C78.5218 58.6858 79.6458 57.9266 80.9276 57.3744C82.2094 56.8222 83.5898 56.5461 85.0689 56.5461C86.5479 56.5461 87.9283 56.8222 89.2101 57.3744C90.5116 57.9266 91.6357 58.6858 92.5823 59.6521C93.5486 60.6184 94.3078 61.7424 94.86 63.0242C95.4318 64.306 95.7178 65.6865 95.7178 67.1655C95.7178 68.6445 95.4318 70.0249 94.86 71.3067C94.3078 72.5885 93.5486 73.7126 92.5823 74.6789C91.6357 75.6452 90.5116 76.4044 89.2101 76.9566C87.9283 77.5087 86.5479 77.7848 85.0689 77.7848C83.5898 77.7848 82.2094 77.5087 80.9276 76.9566C79.6458 76.4044 78.5218 75.6452 77.5555 74.6789C76.5892 73.7126 75.8299 72.5885 75.2778 71.3067C74.7256 70.0249 74.4495 68.6445 74.4495 67.1655ZM80.2769 67.2542C80.2769 67.9247 80.405 68.5558 80.6614 69.1474C80.9178 69.7193 81.2629 70.2221 81.6967 70.656C82.1306 71.0898 82.6334 71.4349 83.2053 71.6913C83.7969 71.9279 84.428 72.0462 85.0984 72.0462C85.7689 72.0462 86.3901 71.9279 86.962 71.6913C87.5536 71.4349 88.0663 71.0898 88.5002 70.656C88.9538 70.2221 89.3087 69.7193 89.5651 69.1474C89.8214 68.5558 89.9496 67.9247 89.9496 67.2542C89.9496 66.5837 89.8214 65.9527 89.5651 65.3611C89.3087 64.7695 88.9538 64.2567 88.5002 63.8229C88.0663 63.3891 87.5536 63.044 86.962 62.7876C86.3901 62.5312 85.7689 62.403 85.0984 62.403C84.428 62.403 83.7969 62.5312 83.2053 62.7876C82.6334 63.044 82.1306 63.3891 81.6967 63.8229C81.2629 64.2567 80.9178 64.7695 80.6614 65.3611C80.405 65.9527 80.2769 66.5837 80.2769 67.2542Z" fill="#4B2D10"/>
<path d="M69.5485 74.8269C69.5485 75.7735 69.2625 76.4932 68.6906 76.9862C68.1188 77.4595 67.4384 77.6962 66.6496 77.6962C65.8805 77.6962 65.21 77.4595 64.6381 76.9862C64.086 76.4932 63.8099 75.7735 63.8099 74.8269V62.551H61.7984C60.8913 62.551 60.1814 62.2651 59.6686 61.6932C59.1756 61.1213 58.9291 60.441 58.9291 59.6522C58.9291 58.8634 59.1756 58.183 59.6686 57.6111C60.1814 57.0392 60.8913 56.7533 61.7984 56.7533H71.5008C72.4079 56.7533 73.1178 57.0392 73.6306 57.6111C74.1433 58.183 74.3997 58.8634 74.3997 59.6522C74.3997 60.441 74.1433 61.1213 73.6306 61.6932C73.1178 62.2651 72.4079 62.551 71.5008 62.551H69.5485V74.8269Z" fill="#4B2D10"/>
<path d="M88.0772 30.7982L93.4608 22.7819C93.7961 22.2889 94.1806 21.9241 94.6145 21.6874C95.068 21.4508 95.5413 21.3324 96.0343 21.3324C96.3893 21.3324 96.7245 21.4015 97.04 21.5395C97.3556 21.6578 97.6415 21.8452 97.8979 22.1015C98.1542 22.3382 98.3514 22.634 98.4895 22.9889C98.6472 23.3439 98.7261 23.7383 98.7261 24.1722V39.6427C98.7261 40.5301 98.4599 41.2104 97.9274 41.6837C97.395 42.1373 96.764 42.3641 96.0343 42.3641C95.2652 42.3641 94.6046 42.1373 94.0524 41.6837C93.52 41.2104 93.2538 40.5301 93.2538 39.6427V32.8688L87.8997 40.8851C87.5645 41.3978 87.1602 41.7725 86.6869 42.0091C86.2334 42.2457 85.7699 42.3641 85.2966 42.3641C84.9417 42.3641 84.5966 42.3049 84.2613 42.1866C83.9458 42.0485 83.6599 41.8612 83.4035 41.6246C83.1669 41.3682 82.9697 41.0625 82.8119 40.7076C82.6541 40.3526 82.5753 39.9483 82.5753 39.4948V24.0538C82.5753 23.1664 82.8415 22.4959 83.3739 22.0424C83.9261 21.5691 84.567 21.3324 85.2966 21.3324C86.0657 21.3324 86.7165 21.5691 87.249 22.0424C87.8011 22.4959 88.0772 23.1664 88.0772 24.0538V30.7982ZM94.2003 15.4164C94.5947 15.4164 94.9398 15.5741 95.2356 15.8897C95.5314 16.1855 95.6793 16.5404 95.6793 16.9546C95.6793 17.487 95.5117 17.9603 95.1765 18.3744C94.8412 18.7688 94.4172 19.1139 93.9045 19.4097C93.4115 19.6858 92.8692 19.9027 92.2776 20.0605C91.7057 20.1985 91.1733 20.2676 90.6803 20.2676C90.1675 20.2676 89.6154 20.1985 89.0238 20.0605C88.4519 19.9027 87.9096 19.6858 87.3968 19.4097C86.9038 19.1139 86.4897 18.7688 86.1545 18.3744C85.8192 17.9603 85.6516 17.487 85.6516 16.9546C85.6516 16.5404 85.7995 16.1855 86.0953 15.8897C86.3911 15.5741 86.7362 15.4164 87.1306 15.4164C87.5842 15.4164 87.9194 15.515 88.1364 15.7122C88.3533 15.9094 88.5505 16.1362 88.728 16.3925C88.9252 16.6292 89.1519 16.8461 89.4083 17.0433C89.6844 17.2405 90.1084 17.3391 90.6803 17.3391C91.2324 17.3391 91.6367 17.2405 91.8931 17.0433C92.1691 16.8461 92.3959 16.6292 92.5734 16.3925C92.7706 16.1362 92.9777 15.9094 93.1946 15.7122C93.4115 15.515 93.7468 15.4164 94.2003 15.4164Z" fill="#4B2D10"/>
<path d="M59.2839 31.8333C59.2839 30.3543 59.56 28.9739 60.1122 27.6921C60.6644 26.4103 61.4236 25.2862 62.3899 24.3199C63.3562 23.3536 64.4802 22.5944 65.762 22.0422C67.0438 21.4901 68.4243 21.214 69.9033 21.214C71.3823 21.214 72.7627 21.4901 74.0445 22.0422C75.3461 22.5944 76.4701 23.3536 77.4167 24.3199C78.383 25.2862 79.1422 26.4103 79.6944 27.6921C80.2663 28.9739 80.5522 30.3543 80.5522 31.8333C80.5522 33.3123 80.2663 34.6928 79.6944 35.9746C79.1422 37.2564 78.383 38.3804 77.4167 39.3467C76.4701 40.313 75.3461 41.0723 74.0445 41.6244C72.7627 42.1766 71.3823 42.4527 69.9033 42.4527C68.4243 42.4527 67.0438 42.1766 65.762 41.6244C64.4802 41.0723 63.3562 40.313 62.3899 39.3467C61.4236 38.3804 60.6644 37.2564 60.1122 35.9746C59.56 34.6928 59.2839 33.3123 59.2839 31.8333ZM65.1113 31.9221C65.1113 32.5926 65.2394 33.2236 65.4958 33.8152C65.7522 34.3871 66.0973 34.89 66.5311 35.3238C66.965 35.7577 67.4678 36.1028 68.0397 36.3591C68.6313 36.5958 69.2624 36.7141 69.9329 36.7141C70.6033 36.7141 71.2245 36.5958 71.7964 36.3591C72.388 36.1028 72.9008 35.7577 73.3346 35.3238C73.7882 34.89 74.1431 34.3871 74.3995 33.8152C74.6559 33.2236 74.784 32.5926 74.784 31.9221C74.784 31.2516 74.6559 30.6205 74.3995 30.0289C74.1431 29.4373 73.7882 28.9246 73.3346 28.4908C72.9008 28.0569 72.388 27.7118 71.7964 27.4554C71.2245 27.1991 70.6033 27.0709 69.9329 27.0709C69.2624 27.0709 68.6313 27.1991 68.0397 27.4554C67.4678 27.7118 66.965 28.0569 66.5311 28.4908C66.0973 28.9246 65.7522 29.4373 65.4958 30.0289C65.2394 30.6205 65.1113 31.2516 65.1113 31.9221Z" fill="#4B2D10"/>
</svg>
