<?xml version="1.0" encoding="UTF-8"?>
<svg version="1.1" xmlns="http://www.w3.org/2000/svg" width="256" height="256">
<path d="M0 0 C84.48 0 168.96 0 256 0 C256 84.48 256 168.96 256 256 C171.52 256 87.04 256 0 256 C0 171.52 0 87.04 0 0 Z " fill="#FEECAD" transform="translate(0,0)"/>
<path d="M0 0 C0 0.66 0 1.32 0 2 C0.90492187 1.98259766 0.90492187 1.98259766 1.828125 1.96484375 C3.02695313 1.95130859 3.02695313 1.95130859 4.25 1.9375 C5.43335938 1.92009766 5.43335938 1.92009766 6.640625 1.90234375 C8.96285143 1.99846239 10.8300721 2.15987305 13 3 C13.495 4.485 13.495 4.485 14 6 C14.99 6.33 15.98 6.66 17 7 C18.00731662 8.75468056 19.01037163 10.51264641 19.95703125 12.30078125 C20.96224808 14.1778089 20.96224808 14.1778089 23.125 15.5625 C25.77219281 17.59201449 26.16046387 19.85173951 27 23 C27.66 23 28.32 23 29 23 C29 23.66 29 24.32 29 25 C29.66 25 30.32 25 31 25 C31.28875 25.639375 31.5775 26.27875 31.875 26.9375 C32.82823451 29.15206079 32.82823451 29.15206079 35 30 C35 30.99 35 31.98 35 33 C35.99 33 36.98 33 38 33 C38.28875 32.4225 38.5775 31.845 38.875 31.25 C39.91666667 29.16666667 40.95833333 27.08333333 42 25 C42.66 25 43.32 25 44 25 C44 24.34 44 23.68 44 23 C44.66 23 45.32 23 46 23 C46 22.01 46 21.02 46 20 C46.66 20 47.32 20 48 20 C48 19.01 48 18.02 48 17 C48.66 17 49.32 17 50 17 C50 16.34 50 15.68 50 15 C50.66 15 51.32 15 52 15 C52.28875 14.4225 52.5775 13.845 52.875 13.25 C53.91666667 11.16666667 54.95833333 9.08333333 56 7 C56.66 7 57.32 7 58 7 C58 6.34 58 5.68 58 5 C58.71027344 4.72285156 59.42054688 4.44570312 60.15234375 4.16015625 C61.53099609 3.61681641 61.53099609 3.61681641 62.9375 3.0625 C63.85402344 2.70285156 64.77054687 2.34320313 65.71484375 1.97265625 C67.92418533 1.2003782 67.92418533 1.2003782 69 0 C77.27010949 -0.75070934 83.76504173 -0.12243618 91 4 C91.99 4.495 91.99 4.495 93 5 C93 5.66 93 6.32 93 7 C93.66 7 94.32 7 95 7 C97.50330373 11.81593233 97.26893291 16.36825054 97.22705078 21.65551758 C97.22734283 22.6218512 97.22763489 23.58818481 97.22793579 24.58380127 C97.22654492 27.7708033 97.21099498 30.95757017 97.1953125 34.14453125 C97.19158151 36.35698824 97.18873494 38.56944689 97.18673706 40.78190613 C97.17910739 46.59997127 97.15946452 52.41793628 97.1373291 58.23596191 C97.11685639 64.17487229 97.10773229 70.11379887 97.09765625 76.05273438 C97.07621808 87.70186687 97.04209008 99.3509251 97 111 C96.34 111 95.68 111 95 111 C94.7834375 111.8971875 94.7834375 111.8971875 94.5625 112.8125 C93.27586207 117.81609195 93.27586207 117.81609195 90 120 C88.68 120 87.36 120 86 120 C86 120.66 86 121.32 86 122 C79.11203396 122.33630214 74.16644262 122.14614419 68 119 C66.67723944 118.62691369 65.34767923 118.26953585 64 118 C64 117.34 64 116.68 64 116 C63.34 116 62.68 116 62 116 C60.5216774 113.04335481 60.93967217 110.25770263 61 107 C60.34 107 59.68 107 59 107 C59 92.81 59 78.62 59 64 C58.34 64 57.68 64 57 64 C57 64.66 57 65.32 57 66 C55.125 68.125 55.125 68.125 53 70 C52.34 70 51.68 70 51 70 C50.90460938 70.62261719 50.80921875 71.24523437 50.7109375 71.88671875 C50 74 50 74 46.625 75.8125 C39.69428829 78.11024947 32.56325968 76.87364343 26 74 C26 73.34 26 72.68 26 72 C25.34 72 24.68 72 24 72 C22.02 69.69 20.04 67.38 18 65 C17.67 79.85 17.34 94.7 17 110 C16.34 110 15.68 110 15 110 C15 111.32 15 112.64 15 114 C14.34 114 13.68 114 13 114 C13 114.66 13 115.32 13 116 C12.34 116 11.68 116 11 116 C10.505 117.98 10.505 117.98 10 120 C1.19840352 121.80545569 -5.66554119 121.23002119 -14 118 C-14.99 117.67 -15.98 117.34 -17 117 C-17 116.34 -17 115.68 -17 115 C-17.66 115 -18.32 115 -19 115 C-22.55073994 108.86808847 -23.57567891 104.47866394 -23.4699707 97.45043945 C-23.4721611 96.5307135 -23.4743515 95.61098755 -23.47660828 94.66339111 C-23.47890559 91.64631266 -23.45274246 88.63022832 -23.42578125 85.61328125 C-23.4208533 83.50677296 -23.41755706 81.40026028 -23.41581726 79.29374695 C-23.40819473 74.88994242 -23.38768475 70.48646493 -23.35668945 66.08276367 C-23.31704299 60.440328 -23.2990661 54.79810436 -23.28938007 49.15554523 C-23.27940511 43.76642862 -23.25953221 38.37736347 -23.23828125 32.98828125 C-23.2348855 31.96180292 -23.23148975 30.93532459 -23.2279911 29.87774086 C-23.21640193 26.9722241 -23.19788005 24.06684006 -23.17700195 21.16137695 C-23.17431305 20.30360153 -23.17162415 19.44582611 -23.16885376 18.5620575 C-23.07743243 8.4089501 -23.07743243 8.4089501 -20.375 4.875 C-13.82142346 -0.29887621 -8.08987038 -0.39498463 0 0 Z " fill="#FE6D03" transform="translate(93,88)"/>
<path d="M0 0 C6.23453566 0.0274347 10.62683193 1.2509008 16 4.3125 C16.66 4.6425 17.32 4.9725 18 5.3125 C18 5.9725 18 6.6325 18 7.3125 C18.66 7.3125 19.32 7.3125 20 7.3125 C22.50330373 12.12843233 22.26893291 16.68075054 22.22705078 21.96801758 C22.22734283 22.9343512 22.22763489 23.90068481 22.22793579 24.89630127 C22.22654492 28.0833033 22.21099498 31.27007017 22.1953125 34.45703125 C22.19158151 36.66948824 22.18873494 38.88194689 22.18673706 41.09440613 C22.17910739 46.91247127 22.15946452 52.73043628 22.1373291 58.54846191 C22.11685639 64.48737229 22.10773229 70.42629887 22.09765625 76.36523438 C22.07621808 88.01436687 22.04209008 99.6634251 22 111.3125 C21.34 111.3125 20.68 111.3125 20 111.3125 C19.855625 111.910625 19.71125 112.50875 19.5625 113.125 C18.27586207 118.12859195 18.27586207 118.12859195 15 120.3125 C13.68 120.3125 12.36 120.3125 11 120.3125 C11 120.9725 11 121.6325 11 122.3125 C4.11203396 122.64880214 -0.83355738 122.45864419 -7 119.3125 C-8.32276056 118.93941369 -9.65232077 118.58203585 -11 118.3125 C-11 117.6525 -11 116.9925 -11 116.3125 C-11.66 116.3125 -12.32 116.3125 -13 116.3125 C-14.4783226 113.35585481 -14.06032783 110.57020263 -14 107.3125 C-14.66 107.3125 -15.32 107.3125 -16 107.3125 C-16 89.4925 -16 71.6725 -16 53.3125 C-16.99 53.3125 -17.98 53.3125 -19 53.3125 C-19.103125 53.89 -19.20625 54.4675 -19.3125 55.0625 C-20.10896465 57.66911158 -21.19065277 59.2860311 -23 61.3125 C-23.66 61.3125 -24.32 61.3125 -25 61.3125 C-25.0825 61.84875 -25.165 62.385 -25.25 62.9375 C-26.28354788 66.21040163 -27.90953611 68.60719379 -30 71.3125 C-30.99 71.3125 -31.98 71.3125 -33 71.3125 C-33 71.9725 -33 72.6325 -33 73.3125 C-35.31 73.3125 -37.62 73.3125 -40 73.3125 C-40.02467917 68.07975612 -40.04285003 62.84704597 -40.05493164 57.61425781 C-40.05996711 55.83332733 -40.06679581 54.052401 -40.07543945 52.27148438 C-40.08753942 49.71483335 -40.09323609 47.15823688 -40.09765625 44.6015625 C-40.10281754 43.80255524 -40.10797882 43.00354797 -40.11329651 42.18032837 C-40.11387171 36.54024341 -40.11387171 36.54024341 -39 34.3125 C-39.66 34.3125 -40.32 34.3125 -41 34.3125 C-41.33 32.9925 -41.66 31.6725 -42 30.3125 C-41.34 30.3125 -40.68 30.3125 -40 30.3125 C-40 31.3025 -40 32.2925 -40 33.3125 C-39.01 33.3125 -38.02 33.3125 -37 33.3125 C-36.566875 32.44625 -36.566875 32.44625 -36.125 31.5625 C-35.08333333 29.47916667 -34.04166667 27.39583333 -33 25.3125 C-32.34 25.3125 -31.68 25.3125 -31 25.3125 C-31 24.6525 -31 23.9925 -31 23.3125 C-30.34 23.3125 -29.68 23.3125 -29 23.3125 C-29 22.3225 -29 21.3325 -29 20.3125 C-28.34 20.3125 -27.68 20.3125 -27 20.3125 C-27 19.3225 -27 18.3325 -27 17.3125 C-26.34 17.3125 -25.68 17.3125 -25 17.3125 C-25 16.6525 -25 15.9925 -25 15.3125 C-24.34 15.3125 -23.68 15.3125 -23 15.3125 C-22.71125 14.735 -22.4225 14.1575 -22.125 13.5625 C-21.08333333 11.47916667 -20.04166667 9.39583333 -19 7.3125 C-18.34 7.3125 -17.68 7.3125 -17 7.3125 C-17 6.6525 -17 5.9925 -17 5.3125 C-16.28972656 5.03535156 -15.57945312 4.75820312 -14.84765625 4.47265625 C-13.46900391 3.92931641 -13.46900391 3.92931641 -12.0625 3.375 C-11.14597656 3.01535156 -10.22945312 2.65570313 -9.28515625 2.28515625 C-4.12978076 0.09081694 -4.12978076 0.09081694 0 0 Z " fill="#FCB501" transform="translate(168,87.6875)"/>
<path d="M0 0 C1.26650391 0.00966797 1.26650391 0.00966797 2.55859375 0.01953125 C3.43128906 0.03628906 4.30398437 0.05304687 5.203125 0.0703125 C6.53537109 0.08384766 6.53537109 0.08384766 7.89453125 0.09765625 C10.08100558 0.12116673 12.26692594 0.15402751 14.453125 0.1953125 C14.453125 0.8553125 14.453125 1.5153125 14.453125 2.1953125 C15.773125 2.1953125 17.093125 2.1953125 18.453125 2.1953125 C20.703125 4.0703125 20.703125 4.0703125 22.453125 6.1953125 C22.453125 6.8553125 22.453125 7.5153125 22.453125 8.1953125 C23.113125 8.1953125 23.773125 8.1953125 24.453125 8.1953125 C26.40344192 12.27254984 26.66894471 15.51223672 26.578125 20.0078125 C26.56007812 21.16925781 26.54203125 22.33070312 26.5234375 23.52734375 C26.50023437 24.40777344 26.47703125 25.28820312 26.453125 26.1953125 C25.463125 26.1953125 24.473125 26.1953125 23.453125 26.1953125 C23.453125 26.8553125 23.453125 27.5153125 23.453125 28.1953125 C22.793125 28.1953125 22.133125 28.1953125 21.453125 28.1953125 C21.3603125 29.3709375 21.3603125 29.3709375 21.265625 30.5703125 C20.9975 31.4365625 20.729375 32.3028125 20.453125 33.1953125 C17.890625 34.5078125 17.890625 34.5078125 15.453125 35.1953125 C15.453125 35.8553125 15.453125 36.5153125 15.453125 37.1953125 C10.833125 37.1953125 6.213125 37.1953125 1.453125 37.1953125 C1.453125 36.5353125 1.453125 35.8753125 1.453125 35.1953125 C-0.856875 35.1953125 -3.166875 35.1953125 -5.546875 35.1953125 C-5.546875 34.5353125 -5.546875 33.8753125 -5.546875 33.1953125 C-6.536875 33.1953125 -7.526875 33.1953125 -8.546875 33.1953125 C-8.546875 32.5353125 -8.546875 31.8753125 -8.546875 31.1953125 C-9.206875 31.1953125 -9.866875 31.1953125 -10.546875 31.1953125 C-10.876875 28.8853125 -11.206875 26.5753125 -11.546875 24.1953125 C-12.536875 24.1953125 -13.526875 24.1953125 -14.546875 24.1953125 C-14.60084835 21.7575162 -14.64053116 19.32091565 -14.671875 16.8828125 C-14.68863281 16.19251953 -14.70539063 15.50222656 -14.72265625 14.79101562 C-14.75905294 11.02395854 -14.69066364 9.41099546 -12.546875 6.1953125 C-11.886875 6.1953125 -11.226875 6.1953125 -10.546875 6.1953125 C-10.546875 5.5353125 -10.546875 4.8753125 -10.546875 4.1953125 C-9.886875 4.1953125 -9.226875 4.1953125 -8.546875 4.1953125 C-8.546875 3.5353125 -8.546875 2.8753125 -8.546875 2.1953125 C-5.55561181 0.47325062 -3.44001787 -0.04648673 0 0 Z " fill="#FDB601" transform="translate(163.546875,46.8046875)"/>
<path d="M0 0 C1.34616408 0.64036278 2.68352881 1.30062468 4 2 C4 2.66 4 3.32 4 4 C4.66 4 5.32 4 6 4 C6.66 5.98 7.32 7.96 8 10 C8.66 10 9.32 10 10 10 C10 14.62 10 19.24 10 24 C9.34 24 8.68 24 8 24 C7.34 25.65 6.68 27.3 6 29 C5.34 29 4.68 29 4 29 C4 29.66 4 30.32 4 31 C2.35 31.66 0.7 32.32 -1 33 C-1 33.66 -1 34.32 -1 35 C-8.76139197 35.31944754 -14.90363915 35.28535224 -22 32 C-22.99 31.67 -23.98 31.34 -25 31 C-25 30.34 -25 29.68 -25 29 C-25.66 29 -26.32 29 -27 29 C-30.80453835 22.38735001 -30.67435907 16.46117796 -30 9 C-29.26139286 6.32148788 -28.38567012 4.42492271 -27 2 C-26.34 2 -25.68 2 -25 2 C-25 1.34 -25 0.68 -25 0 C-17.90767655 -4.24528625 -7.56094492 -2.46950217 0 0 Z " fill="#FC6D04" transform="translate(102,49)"/>
<path d="M0 0 C3.73487777 0.4979837 5.81237635 0.87491756 9 3 C9 3.66 9 4.32 9 5 C9.66 5 10.32 5 11 5 C13.50330373 9.81593233 13.26893291 14.36825054 13.22705078 19.65551758 C13.22734283 20.6218512 13.22763489 21.58818481 13.22793579 22.58380127 C13.22654492 25.7708033 13.21099498 28.95757017 13.1953125 32.14453125 C13.19158151 34.35698824 13.18873494 36.56944689 13.18673706 38.78190613 C13.17910739 44.59997127 13.15946452 50.41793628 13.1373291 56.23596191 C13.11685639 62.17487229 13.10773229 68.11379887 13.09765625 74.05273438 C13.07621808 85.70186687 13.04209008 97.3509251 13 109 C12.34 109 11.68 109 11 109 C10.938125 109.5775 10.87625 110.155 10.8125 110.75 C9.6282104 114.02957119 7.93012878 115.17680876 5 117 C1.6875 117.25 1.6875 117.25 -1 117 C-0.57847656 116.44570312 -0.15695313 115.89140625 0.27734375 115.3203125 C1.09912109 114.23363281 1.09912109 114.23363281 1.9375 113.125 C2.75541016 112.04605469 2.75541016 112.04605469 3.58984375 110.9453125 C5.663281 108.08500294 6.12519083 106.46260566 6.12698364 102.98329163 C6.12980347 102.14346237 6.13262329 101.30363312 6.13552856 100.43835449 C6.13350433 99.51518433 6.1314801 98.59201416 6.12939453 97.64086914 C6.13114685 96.67003891 6.13289917 95.69920868 6.13470459 94.69895935 C6.13911935 91.47767367 6.13618619 88.25644253 6.1328125 85.03515625 C6.1334857 82.80317677 6.13445586 80.57119737 6.13571167 78.33921814 C6.13718818 73.65590722 6.13503578 68.97261535 6.13037109 64.28930664 C6.12467714 58.27882653 6.12795101 52.2683911 6.13394356 46.25791264 C6.13755323 41.64692344 6.13640865 37.03594488 6.13381577 32.42495537 C6.13314745 30.20852084 6.13397159 27.99208535 6.13629532 25.77565193 C6.13882811 22.679917 6.13497216 19.58425488 6.12939453 16.48852539 C6.13141876 15.56737946 6.13344299 14.64623352 6.13552856 13.69717407 C6.13270874 12.85452499 6.12988892 12.01187592 6.12698364 11.14369202 C6.1264181 10.04558496 6.1264181 10.04558496 6.12584114 8.92529392 C6.06731295 6.77914122 6.06731295 6.77914122 5 4 C4.01 4 3.02 4 2 4 C2 3.34 2 2.68 2 2 C1.34 2 0.68 2 0 2 C0 1.34 0 0.68 0 0 Z " fill="#1E1601" transform="translate(177,90)"/>
<path d="M0 0 C3.875 1.875 3.875 1.875 5 3 C5.10380205 4.58930967 5.13852144 6.18319732 5.14526367 7.77587891 C5.15164352 8.79428864 5.15802338 9.81269836 5.16459656 10.86196899 C5.16570938 11.97228485 5.1668222 13.08260071 5.16796875 14.2265625 C5.17129715 15.36274017 5.17462555 16.49891785 5.17805481 17.66952515 C5.18313108 20.08225092 5.18546292 22.49498374 5.18530273 24.90771484 C5.18747833 28.58833562 5.20559665 32.26865151 5.22460938 35.94921875 C5.22754537 38.29166564 5.22952879 40.63411396 5.23046875 42.9765625 C5.23765427 44.07473297 5.24483978 45.17290344 5.25224304 46.30435181 C5.23554319 51.93490781 4.90557869 56.68590418 3 62 C0.525 62.495 0.525 62.495 -2 63 C-2 63.66 -2 64.32 -2 65 C-4.31 65 -6.62 65 -9 65 C-8.21625 64.38125 -7.4325 63.7625 -6.625 63.125 C-3.33650119 60.46288192 -1.7257075 59.15203936 -1 55 C-0.8871659 53.16788499 -0.82414436 51.33242005 -0.79467773 49.49707031 C-0.77473251 48.39623108 -0.75478729 47.29539185 -0.73423767 46.16119385 C-0.70916893 44.38757477 -0.70916893 44.38757477 -0.68359375 42.578125 C-0.6524221 40.75544098 -0.6524221 40.75544098 -0.62062073 38.89593506 C-0.55523172 35.01401427 -0.49628949 31.1320258 -0.4375 27.25 C-0.39430468 24.61848258 -0.35069006 21.98697201 -0.30664062 19.35546875 C-0.19956117 12.9037174 -0.09777486 6.45189871 0 0 Z " fill="#241507" transform="translate(103,142)"/>
<path d="M0 0 C2.31 0.33 4.62 0.66 7 1 C7.66 2.98 8.32 4.96 9 7 C9.66 7 10.32 7 11 7 C11 11.62 11 16.24 11 21 C10.34 21 9.68 21 9 21 C8.01 23.475 8.01 23.475 7 26 C6.34 26 5.68 26 5 26 C5 26.66 5 27.32 5 28 C-0.82478551 31.03901852 -5.48208608 31.3540919 -12 31 C-12 30.34 -12 29.68 -12 29 C-10.02 29 -8.04 29 -6 29 C-6 28.34 -6 27.68 -6 27 C-5.05125 26.773125 -4.1025 26.54625 -3.125 26.3125 C0.18488193 25.31697917 0.18488193 25.31697917 1.3125 22.4375 C1.539375 21.633125 1.76625 20.82875 2 20 C2.33 19.67 2.66 19.34 3 19 C3.23427778 16.98405418 3.41336124 14.961526 3.5625 12.9375 C3.64628906 11.83277344 3.73007813 10.72804688 3.81640625 9.58984375 C3.87699219 8.73519531 3.93757813 7.88054688 4 7 C3.34 7 2.68 7 2 7 C1.34 4.69 0.68 2.38 0 0 Z " fill="#532F11" transform="translate(101,52)"/>
<path d="M0 0 C3.73487777 0.4979837 5.81237635 0.87491756 9 3 C9 3.66 9 4.32 9 5 C9.66 5 10.32 5 11 5 C12.95031692 9.07723734 13.21581971 12.31692422 13.125 16.8125 C13.10695312 17.97394531 13.08890625 19.13539062 13.0703125 20.33203125 C13.04710937 21.21246094 13.02390625 22.09289062 13 23 C12.01 23 11.02 23 10 23 C10 23.66 10 24.32 10 25 C9.34 25 8.68 25 8 25 C7.979375 25.763125 7.95875 26.52625 7.9375 27.3125 C7 30 7 30 4.0625 31.8125 C-0.52900583 33.51518341 -5.1745846 33.2621453 -10 33 C-10 32.34 -10 31.68 -10 31 C-8.02 31 -6.04 31 -4 31 C-4 30.34 -4 29.68 -4 29 C-2.68 29 -1.36 29 0 29 C0 28.34 0 27.68 0 27 C0.66 27 1.32 27 2 27 C2 26.34 2 25.68 2 25 C2.66 25 3.32 25 4 25 C5.16152902 21.51541293 5.13270324 18.73309492 5.125 15.0625 C5.12757813 13.83660156 5.13015625 12.61070313 5.1328125 11.34765625 C5.02667535 8.67237569 4.79917654 6.53072572 4 4 C3.34 4 2.68 4 2 4 C2 3.34 2 2.68 2 2 C1.34 2 0.68 2 0 2 C0 1.34 0 0.68 0 0 Z " fill="#3C3621" transform="translate(177,50)"/>
<path d="M0 0 C2.64 0.33 5.28 0.66 8 1 C8.33 1.99 8.66 2.98 9 4 C9.99 4.33 10.98 4.66 12 5 C13.00731662 6.75468056 14.01037163 8.51264641 14.95703125 10.30078125 C15.96224808 12.1778089 15.96224808 12.1778089 18.125 13.5625 C20.77219281 15.59201449 21.16046387 17.85173951 22 21 C22.66 21 23.32 21 24 21 C24 21.66 24 22.32 24 23 C24.66 23 25.32 23 26 23 C29 28.625 29 28.625 29 32 C29.66 32 30.32 32 31 32 C30.67 32.99 30.34 33.98 30 35 C29.01 35 28.02 35 27 35 C25.94410931 33.36816893 24.9563874 31.69207001 24 30 C22.74811108 28.52341306 21.49549231 27.04738112 20.23046875 25.58203125 C19 24 19 24 17.375 20.8125 C15.04573141 16.44633962 11.38668432 13.23471107 7.79638672 9.9074707 C5.07031865 7.32676197 3.7505226 5.65364297 3 2 C2.01 1.67 1.02 1.34 0 1 C0 0.67 0 0.34 0 0 Z " fill="#4B3016" transform="translate(98,90)"/>
<path d="M0 0 C0.99 0 1.98 0 3 0 C3 3.63 3 7.26 3 11 C2.34 11 1.68 11 1 11 C1 11.66 1 12.32 1 13 C-0.875 15.125 -0.875 15.125 -3 17 C-3.66 17 -4.32 17 -5 17 C-5.1546875 17.9590625 -5.1546875 17.9590625 -5.3125 18.9375 C-5.539375 19.618125 -5.76625 20.29875 -6 21 C-9.47325181 22.1577506 -12.36067448 22.06866652 -16 22 C-15.34 21.67 -14.68 21.34 -14 21 C-14 20.01 -14 19.02 -14 18 C-13.01 17.67 -12.02 17.34 -11 17 C-9.06181958 14.13149298 -7.50053894 11.11650396 -6 8 C-5.34 8 -4.68 8 -4 8 C-3.566875 7.13375 -3.566875 7.13375 -3.125 6.25 C-2.08333333 4.16666667 -1.04166667 2.08333333 0 0 Z " fill="#4F431F" transform="translate(149,141)"/>
<path d="M0 0 C3.73487777 0.4979837 5.81237635 0.87491756 9 3 C9 3.66 9 4.32 9 5 C9.66 5 10.32 5 11 5 C13.50330373 9.81593233 13.26893291 14.36825054 13.22705078 19.65551758 C13.22734283 20.6218512 13.22763489 21.58818481 13.22793579 22.58380127 C13.22654492 25.7708033 13.21099498 28.95757017 13.1953125 32.14453125 C13.19158151 34.35698824 13.18873494 36.56944689 13.18673706 38.78190613 C13.17910739 44.59997127 13.15946452 50.41793628 13.1373291 56.23596191 C13.11685639 62.17487229 13.10773229 68.11379887 13.09765625 74.05273438 C13.07621808 85.70186687 13.04209008 97.3509251 13 109 C12.34 109 11.68 109 11 109 C10.67 109.99 10.34 110.98 10 112 C10.16076523 111.36846512 10.32153046 110.73693024 10.48716736 110.08625793 C11.17950594 105.91972236 11.17773091 101.83707833 11.20532227 97.61987305 C11.21522186 96.68280014 11.22512146 95.74572723 11.23532104 94.78025818 C11.26684417 91.69077051 11.29165714 88.60126749 11.31640625 85.51171875 C11.33698371 83.36651719 11.35798039 81.22131962 11.37937927 79.0761261 C11.43451813 73.43569163 11.48396349 67.79522106 11.53222656 62.15472412 C11.58250138 56.39673661 11.63815622 50.63880138 11.69335938 44.88085938 C11.80084082 33.58728427 11.90230799 22.29366373 12 11 C11.34 11 10.68 11 10 11 C10 9.68 10 8.36 10 7 C8.35 6.67 6.7 6.34 5 6 C5 5.34 5 4.68 5 4 C4.01 4 3.02 4 2 4 C2 3.34 2 2.68 2 2 C1.34 2 0.68 2 0 2 C0 1.34 0 0.68 0 0 Z " fill="#7C7355" transform="translate(177,90)"/>
<path d="M0 0 C1.65 0.33 3.3 0.66 5 1 C4.67 1.66 4.34 2.32 4 3 C3.34 2.67 2.68 2.34 2 2 C2.00444122 2.67794113 2.00888245 3.35588226 2.01345825 4.05436707 C2.05770785 11.11084892 2.0878733 18.16729135 2.10986328 25.22387695 C2.1199203 27.85735678 2.1335676 30.49082545 2.15087891 33.12426758 C2.1751399 36.909696 2.1864862 40.69497676 2.1953125 44.48046875 C2.20563507 45.65772018 2.21595764 46.83497162 2.22659302 48.04789734 C2.22674408 49.14866104 2.22689514 50.24942474 2.22705078 51.38354492 C2.231492 52.34951096 2.23593323 53.31547699 2.24050903 54.31071472 C1.97847476 57.24068749 1.31795544 59.37612846 0 62 C-0.99 62.495 -0.99 62.495 -2 63 C-1.67 62.01 -1.34 61.02 -1 60 C-0.88324185 58.05283354 -0.82330075 56.10206523 -0.79467773 54.15161133 C-0.77473251 52.9505928 -0.75478729 51.74957428 -0.73423767 50.51216125 C-0.71752518 49.21521835 -0.70081268 47.91827545 -0.68359375 46.58203125 C-0.66301707 45.2410977 -0.64202041 43.90017054 -0.62062073 42.55924988 C-0.56547373 39.03298111 -0.51603206 35.50665452 -0.46777344 31.98028564 C-0.4175045 28.38068507 -0.36184661 24.78116827 -0.30664062 21.18164062 C-0.19914929 14.12116648 -0.09768435 7.06061718 0 0 Z " fill="#DA5C00" transform="translate(101,140)"/>
<path d="M0 0 C1.9375 0.3125 1.9375 0.3125 4 1 C4.33 1.99 4.66 2.98 5 4 C5.99 4.33 6.98 4.66 8 5 C7.67 6.32 7.34 7.64 7 9 C5.68 7.68 4.36 6.36 3 5 C2.67 19.85 2.34 34.7 2 50 C1.34 50 0.68 50 0 50 C0 51.32 0 52.64 0 54 C-0.66 53.67 -1.32 53.34 -2 53 C-1.83923477 52.44213806 -1.67846954 51.88427612 -1.51283264 51.30950928 C-0.96237801 48.83057174 -0.84047002 46.58605251 -0.79467773 44.04785156 C-0.77473251 43.06713684 -0.75478729 42.08642212 -0.73423767 41.07598877 C-0.71752518 40.02481873 -0.70081268 38.97364868 -0.68359375 37.890625 C-0.66281265 36.80867859 -0.64203156 35.72673218 -0.62062073 34.61199951 C-0.55527069 31.15806387 -0.49630771 27.70405263 -0.4375 24.25 C-0.39430096 21.90754429 -0.35068622 19.5650962 -0.30664062 17.22265625 C-0.19960417 11.4818506 -0.09781074 5.74096985 0 0 Z " fill="#A0946C" transform="translate(108,148)"/>
<path d="M0 0 C2.97 0.495 2.97 0.495 6 1 C5.67 1.66 5.34 2.32 5 3 C5.30292969 3.53753906 5.60585937 4.07507812 5.91796875 4.62890625 C7.46046216 8.00902719 7.32911072 11.29310767 7.3125 14.9375 C7.32861328 15.64068359 7.34472656 16.34386719 7.36132812 17.06835938 C7.36555137 21.57455681 6.68895034 24.3745287 4 28 C4.99 28 5.98 28 7 28 C7 28.66 7 29.32 7 30 C1.17521449 33.03901852 -3.48208608 33.3540919 -10 33 C-10 32.34 -10 31.68 -10 31 C-8.02 31 -6.04 31 -4 31 C-4 30.34 -4 29.68 -4 29 C-2.68 29 -1.36 29 0 29 C0 28.34 0 27.68 0 27 C0.66 27 1.32 27 2 27 C2 26.34 2 25.68 2 25 C2.66 25 3.32 25 4 25 C5.16152902 21.51541293 5.13270324 18.73309492 5.125 15.0625 C5.12757813 13.83660156 5.13015625 12.61070313 5.1328125 11.34765625 C5.02667535 8.67237569 4.79917654 6.53072572 4 4 C3.34 4 2.68 4 2 4 C2 3.34 2 2.68 2 2 C1.34 2 0.68 2 0 2 C0 1.34 0 0.68 0 0 Z " fill="#524218" transform="translate(177,50)"/>
<path d="M0 0 C2.96864128 0.31931604 4.54033749 0.49153381 6.58203125 2.75 C9.72745271 8.50162781 10.51951837 12.45406848 10 19 C9.34 19 8.68 19 8 19 C8 19.66 8 20.32 8 21 C7.01 21 6.02 21 5 21 C4.96132812 19.44539063 4.96132812 19.44539063 4.921875 17.859375 C4.86558049 16.48954199 4.80823345 15.11975195 4.75 13.75 C4.73582031 13.06808594 4.72164063 12.38617188 4.70703125 11.68359375 C4.53591868 8.15867477 4.29920749 6.34488802 1.953125 3.640625 C1.30859375 3.09921875 0.6640625 2.5578125 0 2 C0 1.34 0 0.68 0 0 Z " fill="#261A0E" transform="translate(101,52)"/>
<path d="M0 0 C0.33 0 0.66 0 1 0 C1 11.55 1 23.1 1 35 C3.31 35 5.62 35 8 35 C10.4375 36.5 10.4375 36.5 12 38 C6.0728064 38.99458577 1.78472439 39.04166743 -4 37 C-5.33130115 36.65864073 -6.66358148 36.32074044 -8 36 C-7.67 35.34 -7.34 34.68 -7 34 C-4.69 34.33 -2.38 34.66 0 35 C0 23.45 0 11.9 0 0 Z " fill="#FD9819" transform="translate(127,126)"/>
<path d="M0 0 C2.64 0.33 5.28 0.66 8 1 C8.33 1.99 8.66 2.98 9 4 C9.99 4.33 10.98 4.66 12 5 C12.66 8.3 13.32 11.6 14 15 C9.87891371 11.59217864 6.07373244 8.42617471 3 4 C3 3.34 3 2.68 3 2 C2.01 1.67 1.02 1.34 0 1 C0 0.67 0 0.34 0 0 Z " fill="#341B06" transform="translate(98,90)"/>
<path d="M0 0 C0.33 0 0.66 0 1 0 C1 14.19 1 28.38 1 43 C1.66 43 2.32 43 3 43 C3 44.98 3 46.96 3 49 C2.67 48.34 2.34 47.68 2 47 C1.34 47 0.68 47 0 47 C0 31.49 0 15.98 0 0 Z " fill="#FFD258" transform="translate(151,152)"/>
<path d="M0 0 C0.35897436 6.22222222 0.35897436 6.22222222 -1.125 9.4375 C-3.75128857 11.6260738 -5.68553637 11.29461899 -9 11 C-8.67 9.68 -8.34 8.36 -8 7 C-7.34 7 -6.68 7 -6 7 C-5.731875 6.401875 -5.46375 5.80375 -5.1875 5.1875 C-2.37142857 0 -2.37142857 0 0 0 Z " fill="#443000" transform="translate(151,142)"/>
<path d="M0 0 C0.66 0 1.32 0 2 0 C2 0.66 2 1.32 2 2 C2.99 2 3.98 2 5 2 C4.67 3.65 4.34 5.3 4 7 C2.35 7.33 0.7 7.66 -1 8 C-1 8.66 -1 9.32 -1 10 C-3.31 10 -5.62 10 -8 10 C-7.21625 9.38125 -6.4325 8.7625 -5.625 8.125 C-2.33145434 5.45879637 -0.82596143 4.12980713 0 0 Z " fill="#1F170D" transform="translate(102,197)"/>
<path d="M0 0 C0.66 0.33 1.32 0.66 2 1 C1.67257813 1.51433594 1.34515625 2.02867188 1.0078125 2.55859375 C-0.34067817 5.82528627 -0.19166897 8.5401563 -0.125 12.0625 C-0.10695313 13.29097656 -0.08890625 14.51945312 -0.0703125 15.78515625 C-0.04710938 16.84605469 -0.02390625 17.90695313 0 19 C0 19.99 0 20.98 0 22 C-0.66 21.34 -1.32 20.68 -2 20 C-2 19.01 -2 18.02 -2 17 C-2.66 17 -3.32 17 -4 17 C-4.57374185 10.11509775 -3.4753869 5.97332123 0 0 Z " fill="#FFB360" transform="translate(73,53)"/>
<path d="M0 0 C0.33 0.66 0.66 1.32 1 2 C-2 4 -2 4 -6 4 C-6 4.66 -6 5.32 -6 6 C-9.63 6 -13.26 6 -17 6 C-16.67 5.01 -16.34 4.02 -16 3 C-12.53087705 2.44494033 -9.26828703 1.99484063 -5.75 2.0625 C-2.78068479 2.24064938 -2.78068479 2.24064938 0 0 Z " fill="#86784D" transform="translate(185,204)"/>
<path d="M0 0 C-0.66 0.66 -1.32 1.32 -2 2 C-0.68 2.33 0.64 2.66 2 3 C2 2.34 2 1.68 2 1 C2.99 0.67 3.98 0.34 5 0 C4.67 1.32 4.34 2.64 4 4 C-1.05002222 5.03590199 -5.87416389 5.10251672 -11 5 C-10.67 4.34 -10.34 3.68 -10 3 C-9.34 3 -8.68 3 -8 3 C-8 2.34 -8 1.68 -8 1 C-2.25 -1.125 -2.25 -1.125 0 0 Z " fill="#845C31" transform="translate(99,204)"/>
<path d="M0 0 C1.32 0.33 2.64 0.66 4 1 C4 1.66 4 2.32 4 3 C5.32 3 6.64 3 8 3 C8 3.66 8 4.32 8 5 C9.98 5 11.96 5 14 5 C14 5.66 14 6.32 14 7 C19.94 6.505 19.94 6.505 26 6 C26 6.66 26 7.32 26 8 C21.38 8 16.76 8 12 8 C12 7.34 12 6.68 12 6 C9.69 6 7.38 6 5 6 C5 5.34 5 4.68 5 4 C4.01 4 3.02 4 2 4 C2 3.34 2 2.68 2 2 C1.34 2 0.68 2 0 2 C0 1.34 0 0.68 0 0 Z " fill="#DCBA5C" transform="translate(153,76)"/>
<path d="M0 0 C6.27 0 12.54 0 19 0 C19 0.66 19 1.32 19 2 C20.32 2 21.64 2 23 2 C22.67 2.66 22.34 3.32 22 4 C20.71222656 3.51660156 20.71222656 3.51660156 19.3984375 3.0234375 C12.47719406 0.93910902 4.7433924 0.70452468 -1.8125 4 C-2.864375 4.66 -3.91625 5.32 -5 6 C-5.33 5.34 -5.66 4.68 -6 4 C-4.02 3.34 -2.04 2.68 0 2 C0 1.34 0 0.68 0 0 Z " fill="#EFCA63" transform="translate(159,87)"/>
<path d="M0 0 C1.26650391 0.00966797 1.26650391 0.00966797 2.55859375 0.01953125 C3.43128906 0.03628906 4.30398437 0.05304687 5.203125 0.0703125 C6.53537109 0.08384766 6.53537109 0.08384766 7.89453125 0.09765625 C10.08100558 0.12116673 12.26692594 0.15402751 14.453125 0.1953125 C14.453125 0.8553125 14.453125 1.5153125 14.453125 2.1953125 C15.773125 2.1953125 17.093125 2.1953125 18.453125 2.1953125 C18.123125 2.8553125 17.793125 3.5153125 17.453125 4.1953125 C16.586875 3.8653125 15.720625 3.5353125 14.828125 3.1953125 C7.4625711 1.08224376 -1.58206728 0.88374355 -8.546875 4.1953125 C-8.546875 3.5353125 -8.546875 2.8753125 -8.546875 2.1953125 C-5.55561181 0.47325062 -3.44001787 -0.04648673 0 0 Z " fill="#E3BF5A" transform="translate(163.546875,46.8046875)"/>
<path d="M0 0 C4.66283606 3.51582826 7.72210402 6.03648545 9 12 C8.01 11.34 7.02 10.68 6 10 C5.01 10 4.02 10 3 10 C0.96564469 6.27034861 0 4.33094958 0 0 Z " fill="#4D412B" transform="translate(111,99)"/>
<path d="M0 0 C1.18916016 0.01353516 1.18916016 0.01353516 2.40234375 0.02734375 C4.35169281 0.05082988 6.30088575 0.08669863 8.25 0.125 C8.25 0.785 8.25 1.445 8.25 2.125 C9.24 2.455 10.23 2.785 11.25 3.125 C8.61 3.125 5.97 3.125 3.25 3.125 C3.25 2.465 3.25 1.805 3.25 1.125 C1.52014758 1.24012153 -0.20888751 1.36755677 -1.9375 1.5 C-2.90042969 1.56960937 -3.86335938 1.63921875 -4.85546875 1.7109375 C-7.76508938 2.12715853 -10.07890774 2.92374096 -12.75 4.125 C-12.75 3.465 -12.75 2.805 -12.75 2.125 C-8.77389214 -0.58986934 -4.61098023 -0.09940753 0 0 Z " fill="#F0A95B" transform="translate(89.75,86.875)"/>
<path d="M0 0 C0 2.31 0 4.62 0 7 C-0.66 7 -1.32 7 -2 7 C-2.66 8.32 -3.32 9.64 -4 11 C-4.99 10.67 -5.98 10.34 -7 10 C-6.525625 9.2575 -6.05125 8.515 -5.5625 7.75 C-3.9368975 5.17532911 -3.9368975 5.17532911 -3.4375 2.75 C-3.2209375 1.88375 -3.2209375 1.88375 -3 1 C-1 0 -1 0 0 0 Z " fill="#070603" transform="translate(187,68)"/>
<path d="M0 0 C0.66 0 1.32 0 2 0 C2.66 1.98 3.32 3.96 4 6 C4.66 6 5.32 6 6 6 C6 10.62 6 15.24 6 20 C5.34 20 4.68 20 4 20 C3.67 20.66 3.34 21.32 3 22 C3 20.68 3 19.36 3 18 C3.66 18 4.32 18 5 18 C4.72817307 12.12853829 3.71218534 7.68306553 0.83984375 2.53125 C0 1 0 1 0 0 Z " fill="#958A65" transform="translate(106,53)"/>
<path d="M0 0 C0.33 0.66 0.66 1.32 1 2 C1.99 2 2.98 2 4 2 C4 1.34 4 0.68 4 0 C4.66 0 5.32 0 6 0 C4.63016497 3.16115776 4.0109362 3.9927092 1 6 C-2.1875 6.125 -2.1875 6.125 -5 6 C-3.35 4.02 -1.7 2.04 0 0 Z " fill="#2D240D" transform="translate(181,201)"/>
<path d="M0 0 C-0.66 1.98 -1.32 3.96 -2 6 C-2.66 6 -3.32 6 -4 6 C-4 6.66 -4 7.32 -4 8 C-4.99 8 -5.98 8 -7 8 C-6.6875 5.125 -6.6875 5.125 -6 2 C-3 0 -3 0 0 0 Z " fill="#151002" transform="translate(189,195)"/>
<path d="M0 0 C3.73487777 0.4979837 5.81237635 0.87491756 9 3 C9.6875 5.125 9.6875 5.125 10 7 C8.35 6.67 6.7 6.34 5 6 C5 5.34 5 4.68 5 4 C4.01 4 3.02 4 2 4 C2 3.34 2 2.68 2 2 C1.34 2 0.68 2 0 2 C0 1.34 0 0.68 0 0 Z " fill="#574820" transform="translate(177,90)"/>
<path d="M0 0 C2.97 0.495 2.97 0.495 6 1 C5.67 1.66 5.34 2.32 5 3 C5.30679688 3.57234375 5.61359375 4.1446875 5.9296875 4.734375 C7.32681146 7.69179068 7.19573742 9.99607854 7.125 13.25 C7.10695312 14.32765625 7.08890625 15.4053125 7.0703125 16.515625 C7.04710937 17.33546875 7.02390625 18.1553125 7 19 C6.67 19 6.34 19 6 19 C5.93941406 18.25234375 5.87882813 17.5046875 5.81640625 16.734375 C5.73261719 15.74953125 5.64882812 14.7646875 5.5625 13.75 C5.48128906 12.77546875 5.40007812 11.8009375 5.31640625 10.796875 C5.04925416 8.43538247 4.64628032 6.28098935 4 4 C3.34 4 2.68 4 2 4 C2 3.34 2 2.68 2 2 C1.34 2 0.68 2 0 2 C0 1.34 0 0.68 0 0 Z " fill="#85630A" transform="translate(177,50)"/>
<path d="M0 0 C0.66 0.33 1.32 0.66 2 1 C1.67 1.99 1.34 2.98 1 4 C0.34 4 -0.32 4 -1 4 C-1 4.99 -1 5.98 -1 7 C-1.66 7 -2.32 7 -3 7 C-3 11.29 -3 15.58 -3 20 C-3.33 20 -3.66 20 -4 20 C-4.05397335 17.5622037 -4.09365616 15.12560315 -4.125 12.6875 C-4.14175781 11.99720703 -4.15851563 11.30691406 -4.17578125 10.59570312 C-4.21217794 6.82864604 -4.14378864 5.21568296 -2 2 C-1.34 2 -0.68 2 0 2 C0 1.34 0 0.68 0 0 Z " fill="#FFD154" transform="translate(153,51)"/>
<path d="M0 0 C0.99 0 1.98 0 3 0 C2.67 1.65 2.34 3.3 2 5 C1.01 5 0.02 5 -1 5 C-1 5.66 -1 6.32 -1 7 C-2.98 7 -4.96 7 -7 7 C-4.94766315 4.7522025 -3.99332739 3.9977758 -1 3 C-0.67 2.01 -0.34 1.02 0 0 Z " fill="#110E06" transform="translate(140,156)"/>
<path d="M0 0 C6.4 -0.36923077 6.4 -0.36923077 9.4375 1.5 C9.953125 1.995 10.46875 2.49 11 3 C6.545 3.495 6.545 3.495 2 4 C1.34 2.68 0.68 1.36 0 0 Z " fill="#92762B" transform="translate(128,161)"/>
<path d="M0 0 C2.64 0.33 5.28 0.66 8 1 C7.67 1.66 7.34 2.32 7 3 C6.34 3 5.68 3 5 3 C7.475 5.97 7.475 5.97 10 9 C9.67 9.66 9.34 10.32 9 11 C7.99406757 9.8803014 6.9954151 8.7540588 6 7.625 C5.443125 6.99851562 4.88625 6.37203125 4.3125 5.7265625 C3 4 3 4 3 2 C2.01 1.67 1.02 1.34 0 1 C0 0.67 0 0.34 0 0 Z " fill="#9B581E" transform="translate(98,90)"/>
<path d="M0 0 C1.07765625 0.01804688 2.1553125 0.03609375 3.265625 0.0546875 C4.49539062 0.08949219 4.49539062 0.08949219 5.75 0.125 C5.75 0.455 5.75 0.785 5.75 1.125 C4.99074219 1.16238281 4.23148438 1.19976562 3.44921875 1.23828125 C2.45535156 1.30402344 1.46148437 1.36976562 0.4375 1.4375 C-0.54863281 1.49550781 -1.53476563 1.55351563 -2.55078125 1.61328125 C-5.55369699 2.18257497 -6.31790959 2.86304049 -8.25 5.125 C-10.4375 5.8125 -10.4375 5.8125 -12.25 6.125 C-12.25 5.465 -12.25 4.805 -12.25 4.125 C-11.59 4.125 -10.93 4.125 -10.25 4.125 C-10.25 3.465 -10.25 2.805 -10.25 2.125 C-6.7733662 -0.01836161 -4.03770805 -0.08777626 0 0 Z " fill="#FF9D43" transform="translate(87.25,46.875)"/>
<path d="M0 0 C0.99 0 1.98 0 3 0 C3 3.63 3 7.26 3 11 C2.34 11 1.68 11 1 11 C1 11.66 1 12.32 1 13 C0.01 13.33 -0.98 13.66 -2 14 C-0.125 9.125 -0.125 9.125 1 8 C1.24733137 3.85723125 1.24733137 3.85723125 0 0 Z " fill="#9B7F33" transform="translate(149,141)"/>
<path d="M0 0 C2 2 2 2 2 5 C2.66 5 3.32 5 4 5 C3.67 5.99 3.34 6.98 3 8 C2.01 8 1.02 8 0 8 C-0.99 6.02 -1.98 4.04 -3 2 C-2.34 2 -1.68 2 -1 2 C-0.67 1.34 -0.34 0.68 0 0 Z " fill="#55310D" transform="translate(125,117)"/>
<path d="M0 0 C4.05606165 0.46800711 7.46588679 0.87953208 11 3 C10.67 3.66 10.34 4.32 10 5 C7.03 4.505 7.03 4.505 4 4 C4 3.34 4 2.68 4 2 C2.68 1.67 1.36 1.34 0 1 C0 0.67 0 0.34 0 0 Z " fill="#936C3E" transform="translate(95,48)"/>
<path d="M0 0 C2.92540704 0.62687294 5.4835249 1.35127493 8 3 C8.75 5.125 8.75 5.125 9 7 C8.34 7 7.68 7 7 7 C7 6.01 7 5.02 7 4 C5.68 4.33 4.36 4.66 3 5 C2.01 3.35 1.02 1.7 0 0 Z " fill="#52422A" transform="translate(102,92)"/>
<path d="M0 0 C0.33 0 0.66 0 1 0 C1 3.63 1 7.26 1 11 C0.01 11 -0.98 11 -2 11 C-2 9.35 -2 7.7 -2 6 C-1.34 6 -0.68 6 0 6 C0 4.02 0 2.04 0 0 Z " fill="#000000" transform="translate(108,62)"/>
<path d="M0 0 C0 3 0 3 -2 6 C-3.32 6 -4.64 6 -6 6 C-6 5.34 -6 4.68 -6 4 C-4.03852126 2.61061923 -2.03833424 1.2739589 0 0 Z " fill="#0E0C07" transform="translate(150,147)"/>
<path d="M0 0 C0.6875 1.6875 0.6875 1.6875 1 4 C-0.1875 6.6875 -0.1875 6.6875 -2 9 C-4.1875 9.8125 -4.1875 9.8125 -6 10 C-6 9.34 -6 8.68 -6 8 C-5.34 8 -4.68 8 -4 8 C-4 7.34 -4 6.68 -4 6 C-3.34 6 -2.68 6 -2 6 C-1.34 4.02 -0.68 2.04 0 0 Z " fill="#5E4300" transform="translate(183,69)"/>
<path d="M0 0 C2.97 0.495 2.97 0.495 6 1 C6.33 2.32 6.66 3.64 7 5 C5.35 4.67 3.7 4.34 2 4 C2 3.01 2 2.02 2 1 C1.34 0.67 0.68 0.34 0 0 Z " fill="#3C3521" transform="translate(180,52)"/>
<path d="M0 0 C0.66 0 1.32 0 2 0 C2.33 0.99 2.66 1.98 3 3 C3.99 3.33 4.98 3.66 6 4 C5.67 5.32 5.34 6.64 5 8 C2.5 5.6875 2.5 5.6875 0 3 C0 2.01 0 1.02 0 0 Z " fill="#FFA852" transform="translate(110,149)"/>
</svg>
