<svg width="513" height="470" viewBox="0 0 513 470" fill="none" xmlns="http://www.w3.org/2000/svg">
<g clip-path="url(#clip0_486_308)">
<path d="M352.347 286.248C367.21 279.693 377.864 268.922 388.794 257.269C388.845 257.368 388.895 257.467 388.946 257.566C391.101 261.633 394.379 265.129 396.763 269.081C408.618 288.732 414.886 305.149 415.591 328.34C411.252 325.334 406.701 321.624 401.783 319.676C400.346 319.106 398.269 319.783 396.998 319.127C393.257 317.199 387.443 312.472 383.776 309.831C373.173 302.19 362.334 294.69 352.347 286.248Z" fill="#E7B68A"/>
<path d="M51.651 141.407C52.3675 145.222 53.047 149.676 54.5522 153.253C55.1637 154.705 56.3993 155.925 56.9197 157.374C57.1565 158.033 57.0678 158.086 56.7254 158.633C55.7873 160.007 55.5371 160.907 55.6409 162.555C56.4704 166.151 59.1518 179.926 61.1792 182.203C61.8386 182.343 62.243 182.515 62.8721 182.127C63.3591 181.828 63.8527 181.193 64.2516 180.773C64.8218 184.837 66.5797 189.01 66.7466 193.036C66.1868 193.609 65.5899 193.693 64.8418 193.922C64.3415 194.494 64.0938 194.809 64.1448 195.606C64.3099 198.204 68.8269 215.91 70.1354 217.388C70.8956 217.631 71.4761 217.608 72.2624 217.587C72.9553 218.1 73.2224 218.471 73.4665 219.314C74.4289 222.636 74.9681 226.191 75.7599 229.567L81.3529 252.917C86.9674 276.65 92.7324 300.346 98.6478 324.006C101.398 335.207 103.718 346.605 106.836 357.702C93.71 355.873 80.3024 351.327 68.4778 345.397C44.0082 333.126 25.1127 315.587 12.4987 291.213C9.55803 285.531 6.84688 279.762 4.85708 273.67C-4.79389 244.128 -1.55423 210.544 12.5017 182.94C19.4305 169.332 30.2363 156.327 42.3323 147.039C45.0987 144.915 48.312 142.505 51.651 141.407Z" fill="#F2AD73"/>
<path d="M172.519 43.1205C176.317 38.0414 181.956 33.5618 187.02 29.7435C206.317 15.1926 228.099 5.61683 252.069 2.15567C253.295 1.984 254.523 1.82731 255.753 1.6856C256.983 1.54349 258.215 1.41656 259.448 1.30481C260.681 1.19347 261.916 1.0969 263.151 1.01511C264.387 0.933729 265.623 0.867331 266.861 0.815911C268.098 0.76449 269.335 0.728253 270.573 0.707199C271.811 0.686145 273.05 0.680274 274.288 0.689587C275.526 0.698494 276.764 0.722582 278.001 0.761856C279.239 0.801534 280.476 0.856197 281.712 0.925837C282.948 0.995477 284.184 1.0801 285.418 1.1797C286.652 1.2793 287.885 1.39409 289.116 1.52405C290.348 1.65402 291.577 1.79897 292.806 1.9589C294.033 2.11883 295.259 2.29374 296.483 2.48363C297.706 2.67352 298.927 2.87839 300.146 3.09824C301.365 3.31769 302.58 3.55232 303.793 3.80214C305.006 4.05155 306.216 4.31573 307.422 4.5947C308.628 4.87366 309.831 5.1672 311.031 5.47532C312.23 5.78384 313.425 6.10674 314.616 6.44401C315.808 6.78168 316.995 7.13373 318.178 7.50015C319.36 7.86697 320.539 8.24797 321.712 8.64314C322.886 9.03871 324.054 9.44846 325.217 9.87237C326.381 10.2959 327.539 10.7338 328.692 11.186C329.845 11.6383 330.992 12.1045 332.133 12.5847C333.274 13.0649 334.41 13.559 335.539 14.0672C336.669 14.5749 337.792 15.0964 338.908 15.6317C340.024 16.1673 341.134 16.7163 342.238 17.2787C343.341 17.8411 344.437 18.4171 345.526 19.0066C346.615 19.5957 347.697 20.1981 348.771 20.814C349.846 21.4294 350.912 22.058 351.971 22.6997C353.031 23.3415 354.082 23.9962 355.124 24.6638C356.168 25.3311 357.203 26.0111 358.229 26.7038C359.255 27.3966 360.273 28.1017 361.283 28.8191C362.292 29.5366 363.292 30.2664 364.284 31.0086C365.299 31.7774 366.305 32.5587 367.301 33.3522C368.298 34.1454 369.284 34.9507 370.261 35.7682C371.238 36.5856 372.204 37.4149 373.161 38.2558C374.117 39.0967 375.064 39.9492 375.999 40.8133C376.935 41.6773 377.861 42.5526 378.775 43.4393C379.689 44.3256 380.593 45.2231 381.485 46.1316C382.378 47.0402 383.26 47.9595 384.13 48.8895C385 49.8195 385.859 50.7601 386.706 51.7111C387.553 52.6622 388.389 53.6234 389.213 54.5947C390.037 55.566 390.849 56.5473 391.649 57.5384C392.449 58.5296 393.237 59.5303 394.013 60.5404C394.788 61.5506 395.552 62.5701 396.302 63.5989C397.053 64.6278 397.792 65.6657 398.518 66.7127C399.243 67.7598 399.956 68.8153 400.655 69.8793C401.355 70.9438 402.042 72.0163 402.716 73.0969C403.39 74.178 404.05 75.2671 404.698 76.3644C405.345 77.4612 405.979 78.5659 406.599 79.6785C407.219 80.7912 407.826 81.9111 408.419 83.0383C409.012 84.1655 409.591 85.2998 410.157 86.4411C410.722 87.5825 411.274 88.7305 411.812 89.8853C412.349 91.04 412.872 92.2012 413.381 93.3689C413.89 94.5366 414.385 95.7102 414.866 96.8896C415.347 98.0694 415.813 99.2547 416.265 100.445C416.716 101.637 417.154 102.833 417.576 104.035C417.999 105.236 418.407 106.443 418.8 107.654C419.194 108.866 419.572 110.082 419.936 111.303C420.299 112.524 420.648 113.749 420.982 114.978C421.316 116.207 421.635 117.441 421.938 118.677C422.242 119.914 422.531 121.155 422.805 122.399C423.078 123.643 423.336 124.891 423.58 126.141C423.823 127.391 424.051 128.644 424.264 129.9C424.477 131.156 424.674 132.415 424.856 133.675C425.031 134.943 425.191 136.213 425.336 137.484C425.48 138.756 425.609 140.029 425.722 141.303C425.836 142.578 425.934 143.854 426.016 145.131C426.099 146.408 426.166 147.686 426.217 148.965C426.269 150.243 426.305 151.522 426.325 152.802C426.345 154.081 426.35 155.361 426.339 156.641C426.328 157.92 426.302 159.2 426.26 160.479C426.218 161.758 426.16 163.036 426.087 164.314C426.014 165.591 425.926 166.868 425.821 168.144C425.717 169.419 425.597 170.693 425.463 171.966C425.327 173.238 425.177 174.509 425.011 175.778C424.845 177.047 424.663 178.313 424.466 179.578C424.269 180.842 424.057 182.104 423.83 183.363C423.602 184.623 423.359 185.879 423.101 187.132C422.843 188.386 422.57 189.636 422.281 190.883C421.993 192.129 421.689 193.372 421.371 194.612C421.052 195.851 420.718 197.087 420.369 198.317C420.02 199.549 419.657 200.776 419.278 201.998C418.899 203.221 418.506 204.438 418.097 205.651C417.689 206.864 417.266 208.072 416.829 209.274C416.391 210.477 415.939 211.674 415.472 212.865C415.006 214.056 414.524 215.242 414.028 216.422C413.533 217.602 413.023 218.775 412.499 219.943C411.975 221.11 411.437 222.271 410.884 223.426C410.332 224.58 409.765 225.727 409.185 226.868C408.605 228.008 408.011 229.141 407.403 230.268C406.795 231.394 406.174 232.512 405.539 233.623C404.903 234.734 404.255 235.837 403.593 236.932C402.931 238.027 402.256 239.114 401.567 240.193C400.879 241.272 400.178 242.342 399.464 243.404C398.749 244.465 398.022 245.518 397.282 246.562C396.542 247.606 395.789 248.641 395.024 249.666C393.037 252.274 390.961 254.808 388.794 257.269C377.864 268.922 367.21 279.693 352.347 286.248C349.3 284.305 355.111 277.999 352.904 272.77C352.083 270.825 350.686 270.045 348.81 269.294C347.177 269.467 344.262 269.428 342.851 270.14C341.269 270.937 340.131 276.731 337.742 278.103L337.236 277.914L337.04 277.277C337.11 276.972 337.199 276.674 337.307 276.381C337.416 276.089 337.544 275.804 337.69 275.528C337.836 275.252 337.999 274.987 338.179 274.732C338.36 274.477 338.556 274.235 338.768 274.006C339.553 273.166 339.304 273.938 340.2 273.918L340.584 273.113L340.547 272.659C340.532 272.461 340.524 272.263 340.506 272.066C340.266 269.377 345.622 260.262 347.018 257.211C351.791 246.778 355.082 235.031 356.868 223.708C361.769 192.627 353.25 158.581 334.751 133.222C333.296 131.208 331.778 129.243 330.198 127.326C328.618 125.408 326.979 123.543 325.281 121.73C323.582 119.917 321.828 118.159 320.017 116.458C318.207 114.756 316.345 113.114 314.43 111.53C302.228 101.45 281.792 90.6402 266.123 88.2941L265.619 88.2224C264.611 88.0712 264.032 87.9983 263.418 87.1596L259.144 66.5439C257.591 59.0088 256.592 50.5572 253.09 43.6379C252.841 43.146 252.577 42.6628 252.298 42.1882C252.018 41.7133 251.724 41.2479 251.415 40.792C251.105 40.3361 250.782 39.8905 250.444 39.4553C250.106 39.02 249.754 38.5961 249.39 38.1835C249.024 37.7709 248.646 37.3705 248.255 36.9822C247.865 36.5935 247.462 36.218 247.047 35.8556C246.632 35.4933 246.206 35.1445 245.769 34.8092C245.332 34.474 244.884 34.1531 244.426 33.8466C240.872 31.4519 236.419 29.7957 232.111 29.6682C225.555 29.4739 218.651 31.7683 212.316 33.2982C199.078 36.4939 185.855 40.4531 172.519 43.1205Z" fill="#F2AD73"/>
<path d="M172.519 43.1204C185.855 40.453 199.078 36.4938 212.316 33.2981C218.651 31.7682 225.555 29.4737 232.111 29.6681C236.419 29.7956 240.872 31.4518 244.426 33.8465C244.884 34.153 245.332 34.4739 245.769 34.8091C246.206 35.1443 246.632 35.4931 247.047 35.8555C247.462 36.2179 247.865 36.5934 248.255 36.9821C248.646 37.3704 249.024 37.7708 249.39 38.1834C249.754 38.596 250.106 39.0199 250.444 39.4551C250.782 39.8904 251.105 40.336 251.415 40.7919C251.724 41.2478 252.018 41.7132 252.298 42.1881C252.577 42.6626 252.841 43.1459 253.09 43.6378C256.592 50.5571 257.591 59.0087 259.144 66.5438L263.418 87.1595C264.032 87.9982 264.611 88.0711 265.619 88.2223L266.123 88.294C281.792 90.6401 302.228 101.45 314.43 111.53C316.345 113.113 318.207 114.756 320.017 116.458C321.828 118.159 323.582 119.917 325.281 121.73C326.979 123.543 328.618 125.408 330.198 127.326C331.778 129.243 333.296 131.208 334.751 133.222C353.25 158.581 361.769 192.627 356.868 223.708C355.082 235.031 351.791 246.778 347.018 257.211C345.622 260.262 340.266 269.377 340.506 272.066C340.524 272.263 340.532 272.461 340.547 272.658L340.584 273.113L340.2 273.918C339.304 273.938 339.553 273.166 338.768 274.006C338.556 274.235 338.36 274.477 338.179 274.732C337.999 274.986 337.836 275.252 337.69 275.528C337.544 275.804 337.416 276.089 337.307 276.381C337.199 276.674 337.11 276.972 337.04 277.277L337.236 277.914L337.741 278.103C340.131 276.73 341.269 270.937 342.85 270.14C344.262 269.427 347.177 269.467 348.81 269.294C350.686 270.045 352.083 270.825 352.904 272.77C355.11 277.999 349.3 284.304 352.347 286.248C362.334 294.69 373.173 302.19 383.776 309.83C387.443 312.472 393.257 317.199 396.998 319.127C398.268 319.783 400.346 319.106 401.783 319.676C406.701 321.624 411.252 325.334 415.591 328.34C424.395 335.224 433.606 341.651 442.628 348.247C459.399 360.403 475.906 372.908 492.148 385.762C496.655 389.39 506.582 396.638 510.027 400.583C511.759 402.566 512.566 405.982 512.879 408.572C514.033 418.124 509.319 429.746 503.401 437.08C498.186 443.544 490.1 447.374 481.908 448.236C476.055 448.852 471.949 447.482 467.415 443.753C451.796 430.905 437.22 416.558 422.449 402.753C414.146 394.991 405.392 387.772 397.328 379.753C397.259 379.892 397.188 380.029 397.12 380.168C395.891 382.69 395.428 385.728 394.402 388.363C392.674 392.8 390.135 397.247 387.828 401.423C373.117 428.052 347.079 450.167 318.499 460.553C285.254 472.635 248.34 472.102 216.117 457.043C212.082 455.174 208.145 453.116 204.305 450.872C200.466 448.627 196.743 446.204 193.134 443.605C189.034 440.655 185.188 437.322 180.909 434.635C175.571 436.146 170.129 437.335 164.742 438.663C161.301 439.511 157.376 440.868 153.85 441.113C147.344 442.511 141.058 441.351 135.297 438.021C130.715 435.373 127.377 431.323 125.047 426.614C121.427 419.296 119.047 406.109 117.022 397.815L106.836 357.702C103.718 346.605 101.398 335.207 98.6477 324.005C92.7327 300.346 86.9678 276.65 81.3528 252.917L75.7598 229.567C74.9681 226.191 74.4289 222.636 73.4664 219.314C73.2223 218.471 72.9552 218.1 72.2624 217.587C71.476 217.608 70.8956 217.631 70.1353 217.388C68.8268 215.91 64.3099 198.204 64.1447 195.606C64.0937 194.809 64.3414 194.494 64.8418 193.922C65.5898 193.693 66.1867 193.609 66.7465 193.036C66.5796 189.01 64.8217 184.837 64.2516 180.773C63.8526 181.193 63.359 181.828 62.872 182.127C62.2429 182.515 61.8385 182.343 61.1791 182.202C59.1517 179.926 56.4703 166.151 55.6408 162.555C55.537 160.907 55.7872 160.007 56.7253 158.633C57.0678 158.086 57.1564 158.033 56.9196 157.374C56.3992 155.925 55.1636 154.705 54.5521 153.253C53.0469 149.676 52.3674 145.222 51.6509 141.407C50.6296 137.566 48.7965 132.866 48.7346 128.947C48.7084 127.284 50.2671 126.129 51.3534 125.058C51.0935 122.776 50.3418 120.379 49.8166 118.135C48.3806 111.999 46.6178 105.837 45.463 99.6522C44.1623 92.6886 45.976 86.5351 49.9508 80.7977C55.5668 71.8075 65.5437 70.0171 75.0106 67.5562L92.218 63.1919C98.8772 62.0192 105.672 59.9628 112.221 58.2228C120.718 55.9748 129.231 53.7919 137.762 51.674C144.646 49.9006 151.548 48.1988 158.468 46.5688C163.124 45.4829 167.988 44.6314 172.519 43.1204Z" fill="#42363A"/>
<path d="M56.7253 158.634C57.3726 159.608 58.1613 160.883 57.8341 162.111C57.7399 162.464 57.4606 162.624 57.2044 162.858L55.6408 162.555C55.537 160.907 55.7872 160.007 56.7253 158.634Z" fill="#382F2A"/>
<path d="M346.627 272.837C347.915 272.712 348.642 272.596 349.692 273.441C350.163 274.579 349.976 275.77 349.912 276.974C348.642 276.417 347.415 274.006 346.627 272.837Z" fill="#FFEDE1"/>
<path d="M344.92 275.733C346.357 276.765 347.69 278.542 349.069 279.758C348.39 281.188 347.537 282.515 346.709 283.863L346.454 283.901C345.318 282.388 344.008 280.992 342.758 279.574L344.92 275.733Z" fill="#FFEDE1"/>
<path d="M51.4196 127.875C52.7257 129.046 57.6246 150.925 58.0199 154.287C57.7315 153.979 57.4898 153.679 57.2694 153.317C55.9973 151.224 51.6157 133.334 51.1676 130.217C51.0474 129.383 51.2071 128.679 51.4196 127.875Z" fill="#E7B68A"/>
<path d="M335.831 309.252C339.825 310.674 359.31 327.854 364.047 331.796C367.681 334.816 371.387 337.745 375.165 340.583C375.203 341.481 374.607 342.292 374.212 343.096C373.861 343.568 373.863 343.659 373.299 343.914C371.159 342.532 369.198 340.352 367.322 338.618C362.846 334.501 358.432 330.32 354.079 326.074C348.117 320.308 341.979 314.813 335.831 309.252Z" fill="#D8CDC1"/>
<path d="M178.224 93.3805C181.155 91.6053 184.364 89.9528 187.523 88.6288C193.404 86.1637 207.259 82.7942 213.31 85.2557C198.44 87.9887 188.587 91.6102 174.915 98.1074C175.643 96.4354 177.122 94.8387 178.224 93.3805Z" fill="#FFD231"/>
<path d="M348.684 287.954C351.075 288.741 365.641 300.581 369.004 303.059C377.024 308.968 385.339 314.899 393.711 320.298C393.53 321.016 392.805 321.494 392.277 322.008L390.255 323.642C382.085 316.114 373.742 308.783 365.225 301.649C359.8 297.171 353.477 293.086 348.684 287.954Z" fill="#D8CDC1"/>
<path d="M504.121 398.893C505.538 399.747 506.849 400.697 508.176 401.683C504.37 404.299 500.888 408.768 497.658 412.132C488.306 421.872 478.588 431.025 471.173 442.395L470.973 442.441C469.811 442.01 468.809 441.11 467.825 440.37C471.028 438.145 473.781 434.453 476.457 431.592C486.118 421.26 496.422 410.819 504.121 398.893Z" fill="#FFEDE1"/>
<path d="M330.298 296.761C334.267 291.649 338.528 286.558 341.888 281.021C343.153 282.76 344.458 284.484 345.654 286.271C340.616 292.438 335.324 298.143 329.987 304.031C327.571 307.084 319.211 316.809 315.277 317.442C314.682 317.538 314.073 317.485 313.475 317.442L309.598 316.142C314.993 312.84 319.637 308.064 324.449 304C325.976 302.71 327.967 301.524 329.262 300.035C329.183 299.593 329.079 299.12 329.068 298.671C329.049 297.949 329.616 297.488 330.074 296.996L330.298 296.761Z" fill="#D8CDC1"/>
<path d="M313.475 317.442C316.315 315.213 326.491 304.283 328.685 303.462C329.198 303.821 329.348 303.966 329.988 304.031C327.572 307.084 319.211 316.809 315.277 317.442C314.682 317.538 314.073 317.485 313.475 317.442Z" fill="#69636B"/>
<path d="M340.686 298.879L365.201 320.337C370.295 324.817 375.268 329.597 380.65 333.716C379.36 335.446 377.959 337.847 376.285 339.172L375.862 338.831C372.69 335.428 368.737 332.619 365.172 329.627C355.211 321.264 345.157 313.325 334.633 305.683C336.75 303.501 338.711 301.191 340.686 298.879Z" fill="#D8CDC1"/>
<path d="M347.651 289.667C349.71 290.695 351.801 293.702 353.692 295.264C358.566 299.292 363.622 303.058 368.375 307.236C374.968 313.031 381.447 320.194 389.032 324.629C386.902 326.76 384.914 329.005 382.917 331.257C382.46 331.781 382.548 331.871 381.821 331.983C369.855 319.184 355.197 309.009 341.98 297.574C343.989 295.039 345.789 292.313 347.651 289.667Z" fill="#D8CDC1"/>
<path d="M508.51 403.352C510.421 407.147 510.409 412.992 509.562 417.112C507.693 426.206 502.661 435.734 494.755 440.921C488.763 444.851 481.943 446.201 474.942 444.791L472.606 443.788C473.301 442.094 475.068 440.337 476.242 438.903C483.646 429.852 491.905 421.812 499.894 413.317C502.899 410.123 505.682 406.703 508.51 403.352Z" fill="#D8CDC1"/>
<path d="M347.556 164.5C349.855 169.482 351.257 174.891 352.47 180.231C352.79 181.642 353.084 183.058 353.352 184.479C353.621 185.9 353.864 187.326 354.08 188.756C354.297 190.185 354.488 191.618 354.653 193.055C354.818 194.492 354.957 195.932 355.07 197.374C355.183 198.816 355.27 200.259 355.331 201.704C355.392 203.149 355.426 204.595 355.434 206.041C355.443 207.488 355.425 208.933 355.381 210.379C355.337 211.825 355.267 213.269 355.171 214.712C355.074 216.156 354.952 217.597 354.804 219.035C354.655 220.474 354.481 221.909 354.28 223.342C354.08 224.774 353.854 226.202 353.602 227.626C353.35 229.051 353.072 230.47 352.769 231.884C352.466 233.298 352.137 234.706 351.782 236.108C351.428 237.511 351.049 238.906 350.644 240.295C350.239 241.683 349.809 243.064 349.354 244.437C348.9 245.809 348.42 247.174 347.916 248.529C345.773 254.349 342.355 263.881 338.862 268.833C333.993 278.575 326.684 289.225 318.273 296.198C314.215 299.918 310.222 303.715 305.76 306.957C284.336 322.519 256.446 331.66 229.939 330.482C228.018 330.383 226.1 330.239 224.186 330.051C222.272 329.864 220.363 329.632 218.459 329.356C216.555 329.08 214.658 328.76 212.769 328.397C210.88 328.033 209.001 327.627 207.131 327.177C205.26 326.727 203.401 326.234 201.554 325.697C199.706 325.162 197.872 324.584 196.051 323.963C194.23 323.343 192.425 322.681 190.634 321.977C188.844 321.273 187.071 320.528 185.315 319.743C183.278 318.855 180.127 317.888 178.433 316.462C171.723 313.667 162.534 307.588 157.034 302.785C154.106 301.044 149.431 296.121 146.707 293.641C149.061 293.25 151.886 293.27 154.208 293.827C154.995 293.139 155.634 292.684 156.597 292.271C158.03 293.544 159.964 294.874 161.189 296.311C161.811 296.809 162.437 297.299 163.069 297.783C163.701 298.267 164.337 298.744 164.978 299.214C165.62 299.685 166.266 300.149 166.918 300.606C167.569 301.063 168.225 301.513 168.886 301.956C169.546 302.4 170.212 302.836 170.882 303.266C171.551 303.695 172.225 304.118 172.904 304.533C173.583 304.949 174.265 305.357 174.953 305.758C175.64 306.159 176.331 306.553 177.026 306.94C177.722 307.326 178.421 307.706 179.124 308.078C179.827 308.45 180.534 308.814 181.245 309.171C181.956 309.529 182.671 309.879 183.389 310.221C184.107 310.563 184.829 310.898 185.555 311.225C186.28 311.553 187.008 311.872 187.74 312.184C188.472 312.496 189.207 312.8 189.945 313.097C190.684 313.394 191.425 313.683 192.169 313.964C192.913 314.245 193.66 314.519 194.41 314.784C195.16 315.05 195.913 315.308 196.668 315.558C197.423 315.807 198.181 316.049 198.942 316.283C199.702 316.517 200.465 316.743 201.23 316.961C201.996 317.179 202.763 317.389 203.533 317.591C204.302 317.794 205.074 317.987 205.847 318.173C206.621 318.359 207.396 318.537 208.173 318.707C208.951 318.876 209.73 319.038 210.51 319.191C211.291 319.345 212.073 319.49 212.857 319.627C213.64 319.764 214.426 319.893 215.212 320.013C215.999 320.134 216.786 320.247 217.575 320.351C218.364 320.455 219.153 320.551 219.944 320.638C220.735 320.726 221.526 320.806 222.319 320.877C223.111 320.948 223.904 321.011 224.698 321.065C225.492 321.12 226.286 321.166 227.08 321.204C227.875 321.243 228.67 321.272 229.465 321.293C230.261 321.315 231.056 321.328 231.852 321.333C257.22 321.373 282.489 313.606 302.411 297.68C308.406 292.887 313.048 287.859 318.422 282.526C320.551 279.352 323.191 276.461 325.431 273.348C339.007 254.47 346.146 229.394 345.834 206.23C345.748 199.803 344.976 193.349 343.939 187.013C346.055 181.663 346.247 175.325 346.833 169.627C347.001 167.998 346.885 165.989 347.556 164.5Z" fill="#D8CDC1"/>
<path d="M154.208 293.827C154.995 293.139 155.633 292.684 156.597 292.271C158.03 293.544 159.964 294.874 161.189 296.311L160.955 296.789L160.324 296.981C158.277 296.432 156.094 294.839 154.208 293.827Z" fill="#FFD231"/>
<path d="M327.769 274.525C329.159 273.272 336.098 268.798 337.841 268.47C338.321 268.38 338.472 268.599 338.862 268.833C333.993 278.575 326.684 289.225 318.273 296.198C317.32 294.831 316.438 293.462 315.604 292.019C317.812 287.259 326.674 277.936 327.769 274.525Z" fill="#FFEDE1"/>
<path d="M146.707 293.641C144.768 292.571 142.562 289.385 141.118 287.661C132.227 277.048 124.324 266.024 118.886 253.209C115.687 245.671 113.839 238.002 112.536 229.953C108.949 207.782 110.942 185.598 119.399 164.707C120.01 163.207 120.649 161.719 121.317 160.243C121.985 158.768 122.681 157.305 123.405 155.857C124.13 154.408 124.882 152.973 125.661 151.554C126.441 150.134 127.248 148.73 128.081 147.341C128.915 145.952 129.775 144.58 130.662 143.225C131.549 141.869 132.462 140.532 133.4 139.212C134.339 137.891 135.302 136.59 136.291 135.307C137.28 134.024 138.293 132.761 139.33 131.516C140.368 130.272 141.429 129.049 142.513 127.846C143.598 126.643 144.705 125.462 145.835 124.302C146.965 123.141 148.118 122.004 149.292 120.888C150.466 119.772 151.661 118.68 152.877 117.61C154.094 116.541 155.33 115.495 156.587 114.473C157.844 113.451 159.12 112.454 160.415 111.482C161.71 110.509 163.023 109.562 164.355 108.64C165.686 107.718 167.035 106.822 168.402 105.953C174.306 102.117 180.301 98.6623 186.816 95.9561C192.151 93.7399 197.796 92.1815 203.403 90.823C204.219 90.6209 205.037 90.4272 205.856 90.2417C206.676 90.0559 207.498 89.8784 208.321 89.7091C209.144 89.5395 209.969 89.3781 210.796 89.2251C211.622 89.072 212.45 88.9271 213.28 88.7902C214.109 88.6534 214.94 88.5246 215.772 88.404C216.604 88.2837 217.437 88.1716 218.271 88.0675C219.105 87.9635 219.94 87.8677 220.776 87.7802C221.612 87.6928 222.448 87.6136 223.286 87.5428C224.124 87.4715 224.962 87.4088 225.801 87.3545C226.64 87.3003 227.479 87.2541 228.318 87.216C229.158 87.1784 229.999 87.1488 230.839 87.1274C231.679 87.1063 232.52 87.0934 233.36 87.0885C234.201 87.0841 235.041 87.0877 235.882 87.0994C236.722 87.1116 237.562 87.1318 238.403 87.1602C239.243 87.1889 240.082 87.2258 240.922 87.2707C241.761 87.3156 242.6 87.3691 243.438 87.431C244.277 87.4926 245.114 87.5624 245.951 87.6406C246.788 87.7187 247.624 87.8052 248.459 87.8999C249.295 87.9946 250.129 88.0977 250.962 88.209C251.795 88.3204 252.627 88.4398 253.458 88.5673C254.289 88.6949 255.118 88.8307 255.947 88.9749C256.775 89.1186 257.602 89.2706 258.427 89.431C259.252 89.5913 260.075 89.7597 260.897 89.9363C261.719 90.1128 262.539 90.2976 263.357 90.4907C264.175 90.6835 264.991 90.8843 265.806 91.0932C266.62 91.3021 267.432 91.5189 268.242 91.7437C269.052 91.9688 269.859 92.2018 270.665 92.4427C271.47 92.6836 272.273 92.9324 273.073 93.1891C273.874 93.4458 274.672 93.7104 275.467 93.9829C276.262 94.2554 277.055 94.5355 277.844 94.8234C278.634 95.1117 279.421 95.4077 280.204 95.7113C280.988 96.015 281.769 96.3264 282.547 96.6454C313.246 109.255 334.928 134.222 347.556 164.5C346.885 165.989 347.001 167.998 346.833 169.627C346.247 175.325 346.055 181.663 343.939 187.013C342.533 180.539 341.147 174.089 338.96 167.826C331.17 145.521 315.701 127.74 295.997 115.049C270.289 98.4905 236.921 92.8453 207.121 99.3352C178.079 105.66 151.366 123.79 135.302 148.942C119.425 173.801 114.593 202.888 121.004 231.641C126.378 255.744 138.54 275.565 156.597 292.271C155.633 292.684 154.995 293.139 154.208 293.827C151.886 293.27 149.061 293.251 146.707 293.641Z" fill="#E7B68A"/>
<path d="M375.126 346.727C376.869 343.442 379.405 340.532 381.712 337.631C384.996 333.502 393.296 322.607 398.602 322.283C400.834 322.147 404.398 324.53 406.243 325.686C412.555 329.639 418.375 334.29 424.35 338.72L446.149 354.668L478.414 378.861C486.551 385.035 494.821 391.172 502.53 397.875C498.203 405.926 487.905 415.376 481.38 422.079C478.781 424.748 476.375 427.606 473.839 430.339C470.582 426.524 461.377 421.866 456.813 418.186C452.903 415.094 449.065 411.914 445.3 408.646C441.536 405.378 437.848 402.025 434.237 398.588C430.626 395.151 427.096 391.633 423.647 388.034C420.198 384.435 416.833 380.758 413.552 377.005C410.53 373.508 407.38 370.037 404.631 366.321C402.384 363.284 400.471 359.989 398.213 356.983C397.74 356.352 397.185 355.812 396.424 355.588C395.982 358.54 401.651 365.534 403.4 367.893C418.047 387.655 436.039 404.606 455.248 419.838C457.118 421.32 458.995 422.768 461.026 424.027C464.837 426.39 469.629 428.426 472.747 431.633C470.409 433.666 468.455 436.489 466.453 438.863C461.95 435.508 457.876 431.458 453.702 427.704C445.454 420.32 437.313 412.821 429.279 405.205C413.495 390.351 396.832 376.147 383.093 359.282C379.918 355.384 377.448 351.165 375.126 346.727Z" fill="#D8CDC1"/>
<path d="M402.37 335.65C402.928 335.719 402.874 335.697 403.435 335.826C408.608 337.012 416.155 342.564 420.96 345.358C441.384 357.239 462.635 368.948 479.736 385.497C482.666 388.333 485.693 391.273 487.873 394.742C490.573 399.04 490.459 402.554 489.343 407.304C488.805 407.044 488.429 406.778 487.984 406.379C487.475 404.569 488.094 402.556 488.417 400.739C479.991 381.57 434.271 355.568 415.685 344.421C411.782 342.08 407.522 340.071 403.753 337.539C402.861 336.94 402.617 336.696 402.37 335.65Z" fill="#42363A"/>
<path d="M172.519 43.1204C185.855 40.453 199.078 36.4938 212.316 33.2981C218.651 31.7682 225.555 29.4737 232.111 29.6681C236.419 29.7956 240.872 31.4518 244.426 33.8465C244.884 34.153 245.332 34.4739 245.769 34.8091C246.206 35.1443 246.632 35.4931 247.047 35.8555C247.462 36.2179 247.865 36.5934 248.255 36.9821C248.646 37.3704 249.024 37.7708 249.39 38.1834C249.754 38.596 250.106 39.0199 250.444 39.4551C250.782 39.8904 251.105 40.336 251.415 40.7919C251.724 41.2478 252.018 41.7132 252.298 42.1881C252.577 42.6626 252.841 43.1459 253.09 43.6378C256.592 50.5571 257.591 59.0087 259.144 66.5438L263.418 87.1595L261.851 87.3253C260.841 87.335 259.809 87.038 258.822 86.8267L257.504 80.672C256.864 81.3127 256.41 81.3808 255.558 81.5787L256.611 86.3122C253.094 85.7729 249.555 85.1207 246.01 84.814C246.081 82.3403 244.914 79.3875 244.347 76.9473C243.7 74.6558 243.312 72.2964 242.797 69.9727C242.305 67.7548 241.549 64.8633 239.421 63.6511C238.239 62.9775 236.708 62.7 235.369 62.8968C232.423 63.3298 229.439 64.3786 226.564 65.1554C223.12 66.0864 219.634 66.8474 216.167 67.6898L175.248 77.4107C175.418 74.988 172.803 72.4986 171.611 70.3954C168.901 65.6091 167.499 56.5654 168.928 51.3393C144.289 57.7551 119.491 63.5764 94.812 69.8464C86.4472 71.972 71.1057 74.9255 63.931 78.3982C60.5295 80.0446 56.9263 84.2899 55.0422 87.5044C53.58 89.9993 52.8411 92.5853 52.2211 95.3869L50.5198 95.3159C50.4099 96.8372 50.436 98.1126 50.6819 99.6224C54.3907 112.241 57.001 125.26 59.8804 138.09L70.2999 182.906C81.9088 232.546 93.9824 282.073 106.521 331.485L117.09 373.568C118.648 379.544 119.982 385.765 121.944 391.614C122.79 396.938 128.204 419.771 130.539 424.247C130.888 424.908 131.273 425.548 131.693 426.166C132.114 426.785 132.567 427.379 133.054 427.947C133.54 428.515 134.056 429.055 134.601 429.566C135.147 430.078 135.72 430.557 136.318 431.005C136.63 431.236 136.948 431.458 137.271 431.672C137.633 432.028 138.196 432.329 138.624 432.6C141.883 434.667 146.829 436.084 150.678 435.723C156.644 435.162 162.88 432.974 168.689 431.517L198.295 424.26L306.751 397.34C311.565 396.19 315.973 393.676 318.542 389.293C324.263 379.533 320.507 366.316 318.097 356.122C317.1 351.837 316.138 347.545 315.209 343.245C313.709 336.397 312.786 329.366 311.048 322.592C311.084 322.072 311.15 321.758 311.303 321.272C312.045 321.11 312.713 321.21 313.457 321.293L313.876 322.017C316.421 331.241 318.792 340.51 320.989 349.824C322.906 357.746 325.383 366.169 325.517 374.347C325.602 379.53 324.633 385.188 322.077 389.755C319.292 394.732 315.078 397.48 309.654 398.981C276.939 407.906 244.144 416.527 211.268 424.844C199.59 427.925 187.889 430.915 176.164 433.813C168.339 435.8 160.494 437.978 152.553 439.443C147.752 440.302 143.204 439.548 138.789 437.512C132.353 434.543 127.911 429.17 125.49 422.586C123.006 415.827 121.534 408.276 119.827 401.285L112.635 372.661C103.26 335.486 94.1708 298.242 85.3676 260.927C76.1491 223.285 67.2852 185.559 58.7759 147.75C56.2554 136.831 54.0045 125.838 51.4463 114.936C50.0716 109.079 48.009 103.223 47.1874 97.2605C46.5116 92.3515 47.5955 88.4391 49.6673 84.0123L49.4529 83.9935C48.8002 83.227 51.0262 81.6468 50.9958 80.6003L49.9508 80.7977C55.5668 71.8075 65.5437 70.0171 75.0106 67.5562L92.2181 63.1919C98.8772 62.0192 105.672 59.9628 112.221 58.2228C120.718 55.9748 129.231 53.7919 137.762 51.674C144.646 49.9006 151.548 48.1988 158.469 46.5688C163.125 45.4829 167.988 44.6314 172.519 43.1204Z" fill="#FFEDE1"/>
<path d="M172.951 48.5529C183.038 45.6833 193.46 43.4793 203.662 41.0384C210.504 39.4011 217.618 37.1443 224.604 36.3979C227.787 36.0578 230.69 36.181 233.794 36.9548C239.951 38.5514 245.47 41.9525 248.743 47.5338C252.521 53.9775 253.528 62.2354 255.101 69.4498C255.909 73.1551 256.93 76.9272 257.504 80.672C256.864 81.3127 256.41 81.3807 255.558 81.5787C253.923 73.7199 252.453 65.719 250.503 57.9355C248.719 50.8158 245.904 45.1397 239.411 41.3233C236.358 39.5286 232.535 38.1621 228.978 38.071C220.342 37.8506 210.217 41.3093 201.793 43.3299C190.819 45.9236 179.864 48.5934 168.928 51.3393C144.289 57.7551 119.491 63.5763 94.812 69.8464C86.4472 71.972 71.1057 74.9255 63.931 78.3982C60.5295 80.0446 56.9263 84.2898 55.0422 87.5044C53.5801 89.9993 52.8411 92.5853 52.2212 95.3869L50.5198 95.3159C50.7973 91.8158 52.3851 87.963 54.2723 85.0314C56.5384 81.5095 60.5611 77.5607 64.3676 75.7775C66.3993 74.8265 69.2082 74.4706 71.4166 73.9027L94.4192 68.2011C111.91 63.6652 129.44 59.2872 147.009 55.0671C155.64 52.9147 164.262 50.4356 172.951 48.5529Z" fill="#382F2A"/>
<path d="M172.519 43.1204C185.855 40.453 199.078 36.4938 212.316 33.2981C218.651 31.7682 225.555 29.4737 232.111 29.6681C236.419 29.7956 240.872 31.4518 244.426 33.8465C244.884 34.153 245.332 34.4739 245.769 34.8091C246.206 35.1443 246.632 35.4931 247.047 35.8555C247.462 36.2179 247.865 36.5934 248.255 36.9821C248.646 37.3704 249.024 37.7708 249.39 38.1834C249.754 38.596 250.106 39.0199 250.444 39.4551C250.782 39.8904 251.105 40.336 251.415 40.7919C251.724 41.2478 252.018 41.7132 252.298 42.1881C252.577 42.6626 252.841 43.1459 253.09 43.6378C256.592 50.5571 257.591 59.0086 259.144 66.5438L263.418 87.1595L261.851 87.3253C260.841 87.335 259.809 87.038 258.822 86.8267L257.504 80.672C256.93 76.9272 255.908 73.1551 255.101 69.4498C253.528 62.2354 252.521 53.9775 248.743 47.5338C245.47 41.9525 239.951 38.5514 233.794 36.9548C230.69 36.1811 227.787 36.0578 224.604 36.3979C217.618 37.1443 210.504 39.4011 203.662 41.0385C193.46 43.4793 183.038 45.6833 172.952 48.5529L172.945 44.7565C146.001 51.1316 119.29 58.4444 92.3602 64.8542C84.2923 66.899 63.6122 71.256 57.5815 75.2577C54.0992 77.5686 51.8253 80.4825 49.6673 84.0123L49.4529 83.9935C48.8002 83.227 51.0262 81.6468 50.9958 80.6003L49.9508 80.7977C55.5668 71.8074 65.5437 70.0171 75.0106 67.5562L92.2181 63.1919C98.8773 62.0192 105.672 59.9628 112.221 58.2228C120.718 55.9748 129.231 53.7919 137.762 51.674C144.646 49.9006 151.548 48.1988 158.469 46.5688C163.125 45.4829 167.988 44.6314 172.519 43.1204Z" fill="#382F2A"/>
<path d="M235.544 32.1418C241.336 33.2697 246.791 37.53 250.01 42.3704C254.622 49.3073 255.732 58.1828 257.363 66.1843C258.8 73.2318 260.125 80.3423 261.851 87.3254C260.841 87.3351 259.809 87.0381 258.822 86.8268L257.504 80.6721C256.93 76.9273 255.908 73.1552 255.101 69.4499C253.528 62.2355 252.521 53.9777 248.743 47.5339C245.47 41.9526 239.951 38.5516 233.794 36.9549C233.831 36.7241 233.866 36.4927 233.915 36.2644C234.023 35.7603 234.134 35.3558 234.168 34.8372C233.743 35.0273 233.174 35.4384 232.738 35.2757C233.001 34.6416 233.302 34.1084 233.154 33.4063L232.112 33.402L231.97 32.9302C233.042 32.4309 234.381 32.3356 235.544 32.1418Z" fill="url(#paint0_linear_486_308)"/>
<path d="M172.945 44.7566C187.142 42.3911 224.338 29.7732 235.544 32.1418C234.381 32.3356 233.042 32.4309 231.97 32.9301L232.112 33.402L233.154 33.4063C233.302 34.1084 233.001 34.6416 232.738 35.2756C233.174 35.4384 233.743 35.0272 234.168 34.8371C234.134 35.3558 234.023 35.7603 233.915 36.2644C233.866 36.4927 233.831 36.7241 233.794 36.9549C230.69 36.1812 227.787 36.0579 224.604 36.398C217.618 37.1444 210.504 39.4012 203.662 41.0386C193.46 43.4794 183.038 45.6834 172.951 48.553L172.945 44.7566Z" fill="#E7B68A"/>
<path d="M168.928 51.3394C179.864 48.5934 190.819 45.9236 201.793 43.3299C210.217 41.3094 220.342 37.8506 228.978 38.0711C232.535 38.1622 236.358 39.5287 239.411 41.3233C245.904 45.1398 248.719 50.8158 250.503 57.9355C252.453 65.719 253.923 73.72 255.558 81.5788L256.611 86.3123C253.093 85.773 249.555 85.1207 246.01 84.814C246.081 82.3404 244.914 79.3875 244.347 76.9473C243.7 74.6559 243.312 72.2964 242.797 69.9728C242.305 67.7548 241.549 64.8633 239.421 63.6511C238.239 62.9776 236.708 62.7 235.369 62.8968C232.423 63.3298 229.439 64.3787 226.564 65.1554C223.12 66.0865 219.634 66.8475 216.167 67.6898L175.248 77.4107C175.418 74.9881 172.803 72.4986 171.611 70.3955C168.901 65.6091 167.499 56.5654 168.928 51.3394Z" fill="#D8CDC1"/>
<path d="M331.201 309.342C338.801 316.329 346.315 323.407 353.742 330.576C359.685 336.233 365.882 342.576 372.753 347.069C376.438 356.985 383.565 365.493 390.807 373.056C392.906 375.248 395.452 377.396 397.328 379.753C397.259 379.892 397.188 380.029 397.12 380.168C395.891 382.69 395.428 385.728 394.402 388.363C392.674 392.801 390.135 397.247 387.828 401.423C373.117 428.052 347.079 450.167 318.499 460.553C285.254 472.635 248.34 472.102 216.117 457.044C212.082 455.174 208.145 453.117 204.305 450.872C200.466 448.627 196.743 446.204 193.134 443.605C189.034 440.655 185.188 437.322 180.909 434.635C189.628 432.647 198.294 430.145 206.954 427.903L261.003 413.785L294.893 405.134C299.89 403.895 304.978 402.981 309.944 401.624C316.466 399.844 321.287 396.905 324.662 390.894C327.278 386.236 328.416 380.349 328.406 375.047C328.386 364.753 324.727 352.186 322.097 342.156C320.321 335.17 318.447 328.211 316.476 321.278L316.593 321.018C322.602 318.492 326.712 313.899 331.201 309.342Z" fill="#E7B68A"/>
<path d="M52.2211 95.387C52.8411 92.5854 53.58 89.9994 55.0422 87.5045C56.9263 84.2899 60.5295 80.0447 63.931 78.3982C71.1057 74.9255 86.4472 71.9721 94.812 69.8464C119.491 63.5764 144.289 57.7552 168.928 51.3394C167.499 56.5654 168.901 65.6091 171.611 70.3955C172.803 72.4986 175.418 74.9881 175.248 77.4107C155.17 81.6942 135.229 86.8905 115.297 91.8056C100.058 95.5568 84.7817 99.1459 69.4669 102.573C67.1182 105.103 65.6196 108.496 65.7508 111.994C65.8965 115.863 68.0806 121.836 69.0515 125.885L78.9131 166.875C80.3042 173.43 82.0408 179.9 83.5903 186.418C86.3264 198.414 89.1655 210.386 92.1076 222.333L113.098 307.715C116.8 322.167 120.423 336.639 123.969 351.131C125.564 357.582 127.34 364.018 128.797 370.499C130.311 375.776 131.228 386.911 135.79 390.059C137.561 391.282 138.943 391.438 141.013 391.084C148.637 389.777 156.395 387.364 163.916 385.506C181.972 381.073 199.981 376.46 217.944 371.669C233.358 367.682 248.725 363.391 264.183 359.597L283.786 354.886C287.749 353.957 291.821 353.158 295.717 351.988C297.35 351.498 299.815 350.734 300.752 349.251C303.463 344.962 296.778 322.722 295.623 316.903C297.467 315.496 299.266 314.608 301.402 313.761C303.742 316.232 306.182 318.127 309.037 319.974C309.144 321.562 309.288 323.061 309.623 324.622C311.281 334.561 313.596 344.466 315.812 354.297C317.408 361.376 319.678 368.716 319.646 376.016C319.625 380.804 318.436 386.064 315.581 389.997C313.716 392.565 310.512 394.277 307.538 395.253C303.899 396.447 300.065 397.118 296.335 397.967C291.346 399.137 286.367 400.348 281.398 401.6L215.394 417.619L167.994 429.604C162.41 430.976 156.79 432.952 151.112 433.799C146.015 434.56 141.491 433.031 137.361 430.096C130.376 424.215 129.285 415.658 127.226 407.279C125.86 401.617 124.447 395.968 122.988 390.33C120.453 378.386 116.91 366.453 113.884 354.607L96.8018 286.557C81.5392 224.049 66.7144 161.438 52.3274 98.7242C52.209 97.6207 52.2363 96.4972 52.2211 95.387Z" fill="#FFEDE1"/>
<path d="M114.554 73.6338C115.335 73.6672 116.098 73.7893 116.843 74.0377C118.405 74.5581 119.908 75.5967 120.613 77.1253C121.203 78.4062 121.213 79.7921 120.698 81.0972C119.935 83.031 118.274 83.8679 116.493 84.7078C115.249 84.7394 114.098 84.7855 112.934 84.2742C111.525 83.6553 110.35 82.5074 109.849 81.0353C109.38 79.6554 109.52 78.2039 110.16 76.9036C111.132 74.9262 112.562 74.3158 114.554 73.6338Z" fill="#42363A"/>
<path d="M113.944 75.7674C114.654 75.748 115.422 75.6903 116.124 75.8148C117.131 75.9927 118.212 76.676 118.794 77.5171C119.265 78.1979 119.428 79.0154 119.24 79.8225C118.879 81.3706 117.825 82.0569 116.552 82.8616C115.92 82.9557 115.256 83.0808 114.615 83.0001C113.526 82.8622 112.527 82.1474 111.95 81.2291C111.886 81.1287 111.829 81.0252 111.776 80.9188C111.723 80.8127 111.676 80.7042 111.634 80.5932C111.593 80.4819 111.557 80.3689 111.526 80.2544C111.496 80.1398 111.472 80.024 111.453 79.907C111.435 79.7895 111.422 79.6717 111.415 79.5535C111.409 79.4349 111.408 79.3162 111.413 79.1976C111.419 79.0794 111.43 78.9615 111.447 78.8441C111.464 78.7267 111.487 78.6105 111.517 78.4955C111.868 77.0531 112.718 76.4476 113.944 75.7674Z" fill="#FFEDE1"/>
<path d="M114.381 77.1865C115.008 77.2029 115.874 77.2946 116.403 77.673C117.039 78.1291 117.362 78.5755 117.396 79.3778C117.435 80.2699 116.694 80.9939 116.15 81.6133C115.416 81.6121 114.619 81.6595 113.997 81.184C113.461 80.7746 113.171 80.2639 113.173 79.5836C113.176 78.5737 113.759 77.9068 114.381 77.1865Z" fill="#42363A"/>
<path d="M162.65 62.145C163.748 62.0327 164.495 62.0612 165.456 62.6619C166.521 63.3275 167.321 64.2348 167.576 65.492C167.742 66.3101 167.645 67.4658 167.124 68.1394C166.358 69.1269 164.91 69.784 163.784 70.2383C160.374 71.6157 156.427 72.356 152.863 73.3047C146.661 74.9554 140.457 76.7349 134.196 78.1439C133.556 78.1876 132.744 78.2951 132.123 78.1147C131.038 77.7989 129.668 76.0972 129.218 75.1145C128.855 74.3207 128.856 73.4456 129.276 72.6737C129.985 71.3728 131.509 70.5486 132.819 69.9929C136.944 68.242 141.925 67.4427 146.283 66.3872C151.755 65.0626 157.195 63.5467 162.65 62.145Z" fill="#382F2A"/>
<path d="M163.826 64.01C163.876 64.0124 163.927 64.0064 163.975 64.0167C164.738 64.1837 165.392 64.4461 165.79 65.1755C166.166 65.8678 166.076 66.0877 165.856 66.7788C164.917 67.7888 163.974 68.2552 162.687 68.7399C158.864 70.1799 154.547 70.9208 150.579 71.9563C144.833 73.4558 139.051 75.3294 133.196 76.3303L131.906 76.3703C131.475 76.1019 131.28 76.1055 131.113 75.5887C130.759 74.4937 130.948 73.6064 131.43 72.6001C132.789 71.4364 159.529 64.9975 163.826 64.01Z" fill="#FFEDE1"/>
<path d="M223.838 379.215C227.401 378.836 231.281 379.88 234.165 381.991C234.369 382.141 234.569 382.296 234.765 382.456C234.96 382.616 235.152 382.781 235.34 382.95C235.528 383.12 235.711 383.294 235.89 383.473C236.069 383.652 236.243 383.836 236.412 384.023C236.582 384.211 236.746 384.403 236.906 384.6C237.066 384.796 237.221 384.996 237.371 385.2C237.52 385.404 237.664 385.612 237.804 385.823C237.942 386.034 238.076 386.249 238.204 386.467C238.332 386.686 238.455 386.907 238.572 387.131C238.689 387.355 238.8 387.583 238.906 387.813C239.011 388.043 239.11 388.276 239.204 388.51C239.298 388.746 239.385 388.983 239.467 389.223C239.548 389.462 239.624 389.703 239.693 389.947C239.762 390.19 239.826 390.435 239.883 390.682C239.939 390.928 239.99 391.176 240.034 391.425C240.078 391.674 240.116 391.925 240.148 392.176C240.682 396.174 239.77 400.614 237.207 403.791C234.462 407.191 230.652 408.598 226.448 409.087C223.201 409.315 219.719 408.343 217.038 406.507C213.621 404.167 211.302 400.288 210.582 396.234C209.896 392.366 210.928 388.381 213.213 385.207C215.892 381.484 219.483 379.97 223.838 379.215Z" fill="#42363A"/>
<path d="M226.041 380.809C228.818 380.911 231.687 382.018 233.855 383.746C236.7 386.015 238.364 389.389 238.748 392.98C239.129 396.542 238.1 400.049 235.775 402.788C232.959 406.105 229.298 407.115 225.141 407.48C221.993 406.9 219.244 406.082 216.817 403.888C216.644 403.732 216.474 403.572 216.309 403.407C216.144 403.243 215.982 403.074 215.825 402.902C215.668 402.729 215.516 402.553 215.367 402.373C215.219 402.192 215.076 402.009 214.937 401.821C214.798 401.634 214.663 401.443 214.534 401.249C214.405 401.055 214.28 400.858 214.161 400.658C214.041 400.457 213.927 400.254 213.817 400.048C213.708 399.842 213.604 399.633 213.505 399.422C213.406 399.21 213.312 398.997 213.224 398.781C213.136 398.565 213.053 398.347 212.976 398.127C212.898 397.907 212.827 397.684 212.76 397.461C212.694 397.237 212.634 397.012 212.579 396.785C212.524 396.558 212.474 396.33 212.431 396.101C212.387 395.872 212.349 395.642 212.317 395.411C212.285 395.18 212.259 394.948 212.239 394.715C212.219 394.483 212.204 394.25 212.195 394.017C212.091 390.545 213.282 387.129 215.721 384.628C218.598 381.68 222.078 380.81 226.041 380.809Z" fill="#FFEDE1"/>
<path d="M175.248 77.4108L216.167 67.6899C219.634 66.8476 223.12 66.0866 226.564 65.1555C229.439 64.3788 232.423 63.3299 235.369 62.8969C236.708 62.7001 238.239 62.9777 239.421 63.6512C241.549 64.8634 242.305 67.7549 242.797 69.9729C243.312 72.2965 243.7 74.656 244.347 76.9474L242.547 77.3246C243.175 79.5923 244.029 81.9724 244.342 84.3009C233.791 83.8175 223.794 83.5011 213.31 85.2556C207.259 82.7941 193.404 86.1636 187.523 88.6287C184.364 89.9527 181.155 91.6052 178.224 93.3805C177.122 94.8386 175.643 96.4353 174.915 98.1073L174.659 98.2907C170.583 101.158 166.011 103.31 161.894 106.16C160.85 106.87 159.817 107.595 158.796 108.336C157.774 109.077 156.763 109.833 155.765 110.605C154.767 111.378 153.78 112.165 152.806 112.967C151.831 113.769 150.869 114.586 149.92 115.418C148.97 116.25 148.034 117.096 147.111 117.957C146.187 118.817 145.277 119.692 144.381 120.58C143.485 121.469 142.602 122.371 141.733 123.286C140.864 124.202 140.01 125.131 139.169 126.073C138.329 127.015 137.503 127.97 136.692 128.936C135.881 129.904 135.085 130.883 134.304 131.875C133.523 132.867 132.758 133.87 132.008 134.885C131.258 135.901 130.523 136.927 129.804 137.965C129.086 139.003 128.383 140.051 127.697 141.11C127.01 142.169 126.34 143.239 125.687 144.319C125.033 145.399 124.396 146.489 123.776 147.588C123.156 148.688 122.553 149.796 121.967 150.914C119.386 155.885 115.741 162.593 114.505 168.014C110.654 178.259 107.823 188.975 107.078 199.932C106.864 203.078 107.425 216.496 106.648 218.206C106.677 218.306 106.706 218.405 106.734 218.505C107.563 221.535 107.668 224.818 108.165 227.922C109.141 233.969 110.501 239.929 112.245 245.801C120.884 274.081 144.374 300.86 169.726 315.646C181.024 322.236 192.55 327.379 205.299 330.42C207.325 330.904 209.39 331.484 211.439 331.84C213.502 332.198 216.827 332.059 218.635 332.859C230.394 333.959 241.99 333.886 253.664 331.884C262.196 330.437 270.192 327.917 278.391 325.228C284.061 322.982 289.426 320.37 294.745 317.381C295.462 323.834 300.545 343.588 299.262 348.346C298.359 349.466 295.451 350.177 294.043 350.583C281.871 354.096 269.298 356.751 257.005 359.885L219.106 369.856C201.676 374.318 184.167 378.54 166.796 383.224C161.68 384.528 156.532 385.696 151.411 386.977C147.464 387.965 143.497 389.153 139.498 389.882C137.711 389.282 136.408 388.75 135.048 387.383C131.927 383.143 131.746 374.765 129.894 369.622C128.782 362.881 126.638 355.989 125.015 349.336C121.349 334.023 117.507 318.754 113.49 303.528C105.83 274.092 98.6113 244.547 91.8337 214.894C88.0144 198.833 83.9109 182.745 80.4845 166.602L78.9131 166.876L69.0515 125.885C68.0806 121.836 65.8965 115.863 65.7508 111.994C65.6196 108.496 67.1182 105.103 69.4668 102.573C84.7817 99.146 100.058 95.5569 115.297 91.8057C135.229 86.8906 155.17 81.6943 175.248 77.4108Z" fill="#D8CDC1"/>
<path d="M278.391 325.228C279.65 328.812 279.258 332.061 277.634 335.469C275.292 340.385 270.912 345.713 265.634 347.553C264.289 348.022 262.906 348.316 261.503 348.549C258.714 347.716 257.045 346.639 255.67 343.985C253.791 340.36 253.781 335.86 253.664 331.884C262.196 330.437 270.192 327.917 278.391 325.228Z" fill="#FFD231"/>
<path d="M175.248 77.4108L216.167 67.6899C219.634 66.8476 223.12 66.0866 226.564 65.1555C229.439 64.3788 232.423 63.3299 235.369 62.8969C236.708 62.7001 238.239 62.9777 239.421 63.6512C241.549 64.8634 242.305 67.7549 242.797 69.9729C243.312 72.2965 243.7 74.656 244.347 76.9474L242.547 77.3246C241.939 74.2679 241.311 66.9751 238.547 65.2266C237.954 64.8513 237.247 64.6988 236.553 64.66C233.745 64.5021 207.125 71.5367 201.897 72.789L100.753 96.869C94.5861 98.3662 88.4075 99.8127 82.2168 101.208C78.9999 101.909 75.4878 102.305 72.351 103.236C70.7602 103.708 69.2367 104.51 68.4237 106.022C67.5013 107.736 67.1255 110.07 67.2937 111.994C67.7867 117.635 69.9939 123.559 71.3407 129.092C74.3827 141.587 77.2961 154.149 80.4845 166.602L78.9131 166.876L69.0515 125.885C68.0806 121.836 65.8965 115.863 65.7508 111.994C65.6196 108.496 67.1182 105.103 69.4668 102.573C84.7817 99.146 100.058 95.5569 115.297 91.8057C135.229 86.8906 155.17 81.6943 175.248 77.4108Z" fill="#382F2A"/>
<path d="M218.635 332.859L218.136 333.056C220.698 334.585 228.091 333.001 230.068 334.429C229.884 334.514 229.71 334.621 229.517 334.682C228.046 335.148 225.657 334.958 224.077 334.992C211.355 335.268 198.804 332.231 186.957 327.672C176.483 323.642 165.516 316.924 156.789 309.884C152.977 306.808 149.379 303.4 145.726 300.134C131.814 287.694 119.438 275.529 111.831 258.011C107.121 247.162 105.616 236.147 106.081 224.428C106.157 222.527 105.944 219.975 106.648 218.206C106.677 218.306 106.706 218.406 106.734 218.505C107.563 221.535 107.668 224.818 108.165 227.922C109.141 233.969 110.502 239.929 112.245 245.801C120.884 274.082 144.374 300.86 169.726 315.646C181.024 322.236 192.55 327.379 205.299 330.42C207.325 330.904 209.39 331.484 211.44 331.84C213.502 332.199 216.827 332.059 218.635 332.859Z" fill="#FFD231"/>
<path d="M135.048 387.383C136.282 385.733 137.061 383.173 137.996 381.299C140.515 376.246 143.528 371.41 147.272 367.171C153.589 360.018 165.939 347.082 175.902 346.724C178.236 346.641 180.451 347.386 182.111 349.059C183.202 350.159 183.796 351.25 183.769 352.826C183.662 359.255 172.992 373.245 169.313 378.718C168.518 379.9 166.773 381.842 166.796 383.224C161.68 384.527 156.532 385.696 151.411 386.977C147.464 387.965 143.497 389.153 139.498 389.882C137.711 389.282 136.408 388.75 135.048 387.383Z" fill="#FFD231"/>
<path d="M114.505 168.014C110.77 165.952 107.514 163.558 104.7 160.324C99.2367 154.046 96.9736 145.724 97.6257 137.5C98.607 125.131 105.63 114.678 114.953 106.847C126.131 97.4592 144.439 90.574 159.096 91.0956C165.542 91.3252 171.819 92.8047 178.224 93.3804C177.122 94.8386 175.643 96.4353 174.915 98.1072L174.659 98.2906C170.583 101.158 166.011 103.31 161.894 106.16C160.85 106.87 159.817 107.595 158.796 108.336C157.774 109.077 156.763 109.833 155.765 110.605C154.767 111.378 153.78 112.165 152.806 112.967C151.831 113.769 150.869 114.586 149.92 115.418C148.97 116.25 148.034 117.096 147.111 117.957C146.187 118.817 145.277 119.692 144.381 120.58C143.485 121.469 142.602 122.371 141.733 123.286C140.864 124.202 140.01 125.131 139.169 126.073C138.329 127.015 137.503 127.97 136.692 128.936C135.881 129.904 135.085 130.883 134.304 131.875C133.523 132.867 132.758 133.87 132.008 134.885C131.258 135.901 130.523 136.927 129.804 137.965C129.086 139.003 128.383 140.051 127.697 141.11C127.01 142.169 126.34 143.239 125.687 144.319C125.033 145.399 124.396 146.489 123.776 147.588C123.156 148.688 122.553 149.796 121.967 150.914C119.386 155.885 115.741 162.593 114.505 168.014Z" fill="#FFD231"/>
<path d="M156.596 292.271C138.54 275.565 126.378 255.744 121.004 231.641C114.593 202.888 119.425 173.801 135.302 148.942C151.366 123.79 178.079 105.66 207.121 99.3352C236.921 92.8453 270.289 98.4905 295.997 115.049C315.701 127.74 331.17 145.521 338.96 167.826C341.147 174.089 342.533 180.539 343.939 187.013C344.976 193.349 345.748 199.803 345.834 206.23C346.146 229.394 339.007 254.47 325.43 273.348C323.191 276.462 320.551 279.352 318.422 282.526C313.048 287.859 308.406 292.887 302.411 297.68C282.489 313.606 257.22 321.373 231.852 321.333C231.056 321.328 230.261 321.315 229.465 321.293C228.67 321.272 227.875 321.243 227.08 321.205C226.286 321.166 225.491 321.12 224.698 321.065C223.904 321.011 223.111 320.948 222.319 320.877C221.526 320.806 220.734 320.726 219.944 320.639C219.153 320.551 218.364 320.455 217.575 320.351C216.786 320.247 215.998 320.134 215.212 320.014C214.425 319.893 213.64 319.764 212.857 319.627C212.073 319.49 211.291 319.345 210.51 319.191C209.73 319.038 208.951 318.876 208.173 318.707C207.396 318.537 206.621 318.359 205.847 318.173C205.074 317.988 204.302 317.794 203.532 317.592C202.763 317.39 201.995 317.179 201.23 316.961C200.465 316.743 199.702 316.517 198.942 316.283C198.181 316.049 197.423 315.807 196.668 315.558C195.913 315.308 195.16 315.05 194.41 314.785C193.66 314.519 192.913 314.245 192.169 313.964C191.425 313.683 190.683 313.394 189.945 313.097C189.207 312.801 188.472 312.496 187.74 312.185C187.008 311.872 186.279 311.553 185.554 311.226C184.829 310.898 184.107 310.564 183.389 310.221C182.671 309.879 181.956 309.529 181.245 309.172C180.534 308.814 179.827 308.45 179.124 308.078C178.421 307.706 177.722 307.326 177.026 306.94C176.331 306.553 175.64 306.159 174.953 305.758C174.265 305.357 173.582 304.949 172.904 304.533C172.225 304.118 171.551 303.696 170.881 303.266C170.212 302.836 169.546 302.4 168.886 301.957C168.225 301.513 167.569 301.063 166.918 300.606C166.266 300.149 165.62 299.685 164.978 299.214C164.337 298.744 163.7 298.267 163.069 297.783C162.437 297.299 161.811 296.809 161.189 296.311C159.964 294.874 158.03 293.544 156.596 292.271Z" fill="#42363A"/>
<path d="M225.112 98.9722C225.52 98.9169 225.916 98.8623 226.328 98.8459C227.266 98.8086 228.203 98.7825 229.141 98.7675C230.079 98.7526 231.017 98.7489 231.955 98.7566C232.893 98.7643 233.831 98.7831 234.768 98.8131C235.706 98.8435 236.643 98.885 237.58 98.9376C238.516 98.9902 239.452 99.0542 240.387 99.1295C241.322 99.2044 242.256 99.2909 243.189 99.3888C244.123 99.4864 245.054 99.5951 245.984 99.715C246.915 99.8348 247.843 99.966 248.771 100.109C249.698 100.251 250.624 100.404 251.547 100.569C252.47 100.733 253.392 100.909 254.312 101.095C255.231 101.282 256.148 101.48 257.062 101.689C257.977 101.897 258.889 102.117 259.798 102.348C260.707 102.579 261.614 102.82 262.517 103.072C263.421 103.325 264.321 103.588 265.218 103.862C266.115 104.136 267.009 104.421 267.9 104.716C268.79 105.012 269.676 105.318 270.56 105.635C271.443 105.952 272.322 106.279 273.197 106.617C274.072 106.955 274.943 107.303 275.81 107.662C276.676 108.021 277.538 108.39 278.396 108.77C279.254 109.149 280.108 109.539 280.956 109.939C281.805 110.339 282.648 110.75 283.487 111.17C284.326 111.59 285.159 112.02 285.987 112.461C286.816 112.901 287.639 113.351 288.456 113.812C289.274 114.272 290.086 114.741 290.892 115.221C291.698 115.701 292.499 116.19 293.293 116.689C294.087 117.188 294.876 117.696 295.658 118.214C296.44 118.732 297.216 119.259 297.986 119.796C298.756 120.332 299.519 120.878 300.275 121.432C301.032 121.987 301.782 122.551 302.525 123.124C303.268 123.697 304.004 124.278 304.732 124.869C305.461 125.459 306.183 126.058 306.898 126.666C307.613 127.274 308.32 127.89 309.02 128.515C329.422 146.862 341.325 173.798 342.721 201.073C344.21 230.165 335.153 260.116 315.375 281.836C295.411 303.762 268.428 317.044 238.719 318.464C238.332 318.506 237.952 318.546 237.564 318.566C207.515 320.119 179.566 309.53 157.394 289.313C136.085 269.884 122.313 242.327 120.982 213.373C119.577 182.824 129.946 157.536 150.365 135.12C164.022 120.127 184.104 107.48 203.723 102.13C210.713 100.223 217.889 99.3147 225.112 98.9722Z" fill="#D8CDC1"/>
<path d="M228.276 112.029C252.188 110.157 277.805 118.933 296.197 134.045C316.934 151.084 329.212 175.183 331.808 201.79C334.464 229.006 325.447 254.048 308.234 274.931C292.847 293.6 269.804 304.464 246.223 308.278C242.487 308.883 238.743 309.084 234.983 309.449C210.029 310.641 184.356 302.509 165.617 285.824C146.18 268.518 132.137 243.237 130.678 216.957C130.63 216.152 130.592 215.348 130.565 214.542C130.536 213.737 130.518 212.931 130.51 212.125C130.501 211.319 130.503 210.513 130.514 209.707C130.525 208.902 130.546 208.096 130.577 207.291C130.608 206.485 130.649 205.68 130.7 204.876C130.751 204.072 130.811 203.268 130.881 202.465C130.952 201.662 131.032 200.86 131.122 200.059C131.212 199.258 131.312 198.459 131.421 197.66C131.531 196.862 131.65 196.065 131.779 195.269C131.908 194.474 132.047 193.68 132.195 192.888C132.343 192.096 132.501 191.305 132.669 190.517C132.837 189.729 133.014 188.943 133.201 188.159C133.388 187.375 133.585 186.593 133.791 185.814C133.997 185.035 134.212 184.258 134.437 183.484C134.662 182.71 134.896 181.94 135.14 181.171C135.384 180.403 135.637 179.638 135.9 178.876C136.163 178.114 136.435 177.356 136.715 176.6C136.996 175.845 137.287 175.093 137.586 174.345C137.886 173.597 138.194 172.852 138.512 172.112C138.83 171.371 139.157 170.634 139.492 169.902C139.828 169.169 140.172 168.44 140.526 167.716C140.88 166.992 141.242 166.273 141.613 165.557C141.984 164.842 142.364 164.131 142.752 163.425C143.141 162.719 143.538 162.017 143.944 161.321C144.349 160.625 144.763 159.933 145.185 159.247C145.608 158.561 146.039 157.88 146.478 157.204C146.917 156.528 147.365 155.858 147.82 155.193C148.276 154.528 148.739 153.869 149.211 153.216C149.683 152.563 150.162 151.915 150.649 151.273C151.137 150.632 151.633 149.996 152.135 149.366C152.638 148.737 153.149 148.113 153.667 147.496C154.186 146.879 154.712 146.268 155.245 145.664C173.604 125.153 201.105 113.577 228.276 112.029Z" fill="#42363A"/>
<path d="M251.672 116.242C257 117.424 262.516 118.547 267.536 120.742C268.535 124.544 269.497 128.356 270.424 132.178C266.811 136.293 265.351 151.761 261.753 154.091C259.022 144.086 256.596 133.978 253.572 124.056C252.946 121.455 252.379 118.822 251.672 116.242Z" fill="#F2AD73"/>
<path d="M270.424 132.178C274.791 150.014 278.508 168.04 283.09 185.813C282.514 185.044 281.786 184.426 281.225 183.636C278.099 179.231 275.618 173.871 271.622 170.184C269.831 168.532 267.469 167.055 264.968 167.117C263.835 162.791 262.763 158.449 261.753 154.091C265.351 151.761 266.811 136.293 270.424 132.178Z" fill="#E7B68A"/>
<path d="M264.969 167.117C267.469 167.055 269.832 168.532 271.622 170.183C275.618 173.871 278.099 179.231 281.225 183.636C281.786 184.426 282.514 185.044 283.09 185.812L283.961 189.086C283.777 189.545 283.602 190.008 283.435 190.474C282.376 193.391 282.828 197.671 282.576 200.81C282.297 204.275 280.891 213.932 277.263 215.401C277.077 215.477 276.878 215.517 276.686 215.575C275.726 209.83 274.008 204.108 272.608 198.452C270.006 188.021 267.46 177.576 264.969 167.117Z" fill="#FFD231"/>
<path d="M269.591 121.525C270.868 122.016 272.144 122.489 273.376 123.088C273.95 125.583 274.462 128.114 275.133 130.584C276.314 138.216 279.06 145.838 280.912 153.355L291.379 197.38L303.617 248.755C305.302 255.936 306.512 263.445 308.535 270.508L306.284 273.136C304.375 267.422 303.051 261.516 301.654 255.662C299.071 244.485 296.562 233.292 294.126 222.082C291.755 211.595 288.935 201.2 286.503 190.721C281.792 170.425 277.347 150.063 271.959 129.934C271.127 127.143 270.338 124.34 269.591 121.525Z" fill="#E7B68A"/>
<path d="M283.961 189.086L296.751 243.851C299.259 254.246 302.155 264.587 304.503 275.016C301.064 279.586 297.378 283.563 292.578 286.758C289.783 270.015 285.037 253.564 281.456 236.978C280.06 229.812 278.352 222.682 276.686 215.575C276.878 215.517 277.077 215.477 277.263 215.402C280.89 213.933 282.297 204.275 282.575 200.811C282.827 197.671 282.376 193.392 283.435 190.475C283.602 190.009 283.777 189.546 283.961 189.086Z" fill="#E7B68A"/>
<path d="M176.432 131.295C199.104 117.065 224.532 111.696 250.976 116.265C251.431 118.889 252.055 121.498 252.612 124.103C256.557 138.074 260.012 152.142 263.621 166.2C259.954 164.966 256.615 163.02 253.038 161.571C248.236 156.612 237.834 149.271 231.816 145.504C228.221 143.252 224.444 141.159 220.65 139.262C217.717 137.795 214.39 136.472 211.716 134.596C211.133 134.187 210.689 133.668 210.273 133.096L210.721 133.004C211.897 132.751 212.724 132.537 213.706 131.799L213.759 131.382C206.619 130.321 190.687 138.572 184.078 142.479C182.928 141.309 181.949 140.008 180.948 138.712C178.991 139.845 177.138 141.127 175.27 142.4C174.758 142.537 174.27 142.63 173.745 142.699L173.313 141.488C175.42 140.082 177.557 138.72 179.68 137.34C178.468 135.364 177.402 133.401 176.432 131.295Z" fill="#F2AD73"/>
<path d="M179.68 137.34C188.983 131.991 198.898 127.613 209.536 125.763C210.657 125.568 212.528 125.033 213.603 125.27C213.693 125.289 213.777 125.33 213.864 125.36L213.797 125.757C211.022 127.452 206.833 127.814 203.676 128.667C196.422 130.629 187.046 134.17 180.948 138.712C178.991 139.845 177.138 141.127 175.27 142.4C174.758 142.537 174.27 142.63 173.745 142.699L173.313 141.488C175.42 140.082 177.557 138.72 179.68 137.34Z" fill="black"/>
<path d="M275.019 123.737C276.084 124.069 277.018 124.52 278.001 125.04C278.703 125.41 279.4 125.788 280.093 126.174C280.785 126.561 281.473 126.956 282.155 127.36C282.838 127.764 283.516 128.176 284.188 128.596C284.861 129.017 285.528 129.446 286.19 129.883C286.851 130.32 287.508 130.765 288.158 131.219C288.809 131.672 289.454 132.133 290.093 132.603C290.733 133.072 291.366 133.549 291.994 134.034C292.621 134.519 293.243 135.012 293.858 135.513C294.473 136.013 295.082 136.521 295.684 137.037C296.287 137.552 296.883 138.075 297.473 138.606C298.063 139.136 298.646 139.674 299.223 140.219C299.799 140.763 300.369 141.315 300.931 141.874C301.494 142.433 302.049 142.999 302.598 143.572C303.146 144.145 303.688 144.724 304.222 145.31C304.757 145.896 305.284 146.489 305.803 147.088C306.323 147.687 306.835 148.293 307.34 148.905C307.844 149.517 308.341 150.135 308.83 150.759C309.319 151.384 309.801 152.014 310.275 152.65C310.748 153.287 311.214 153.929 311.671 154.577C312.129 155.224 312.579 155.878 313.021 156.536C313.462 157.195 313.895 157.859 314.32 158.529C314.745 159.199 315.162 159.874 315.57 160.554C315.978 161.234 316.378 161.919 316.769 162.609C317.161 163.299 317.544 163.994 317.918 164.693C318.292 165.392 318.657 166.096 319.014 166.804C319.37 167.513 319.718 168.226 320.057 168.943C320.396 169.66 320.726 170.382 321.047 171.107C321.368 171.832 321.68 172.561 321.983 173.294C322.286 174.027 322.58 174.764 322.865 175.504C323.15 176.245 323.425 176.988 323.692 177.736C323.958 178.483 324.215 179.233 324.463 179.986C324.71 180.74 324.948 181.496 325.177 182.256C325.41 183.019 325.633 183.784 325.846 184.552C326.06 185.32 326.264 186.091 326.459 186.864C326.653 187.638 326.838 188.413 327.013 189.191C327.188 189.969 327.354 190.749 327.509 191.531C327.665 192.313 327.811 193.097 327.947 193.882C328.083 194.668 328.21 195.455 328.326 196.244C328.443 197.033 328.55 197.823 328.646 198.614C328.743 199.406 328.83 200.198 328.907 200.991C328.985 201.785 329.052 202.579 329.11 203.375C329.167 204.17 329.215 204.966 329.252 205.763C329.29 206.559 329.317 207.356 329.335 208.153C329.353 208.95 329.361 209.747 329.359 210.545C329.357 211.342 329.345 212.139 329.323 212.936C329.301 213.733 329.269 214.53 329.227 215.326C329.186 216.122 329.134 216.918 329.073 217.713C329.011 218.508 328.94 219.302 328.858 220.095C328.777 220.888 328.686 221.68 328.585 222.471C328.484 223.262 328.373 224.052 328.252 224.84C328.132 225.628 328.001 226.414 327.861 227.199C327.72 227.984 327.571 228.767 327.411 229.549C327.251 230.33 327.082 231.109 326.902 231.886C326.724 232.663 326.535 233.437 326.337 234.209C326.138 234.981 325.93 235.751 325.712 236.518C325.495 237.286 325.268 238.05 325.031 238.811C324.795 239.573 324.549 240.331 324.293 241.086C324.038 241.841 323.773 242.594 323.498 243.342C323.224 244.091 322.941 244.836 322.648 245.578C322.356 246.319 322.054 247.057 321.742 247.791C321.432 248.525 321.111 249.256 320.782 249.982C320.453 250.707 320.115 251.429 319.767 252.147C319.42 252.865 319.064 253.579 318.699 254.287C318.334 254.996 317.96 255.7 317.578 256.4C315.122 260.654 312.497 264.8 309.702 268.838C307.855 261.92 306.638 254.742 304.999 247.76C300.241 227.916 295.589 208.046 291.045 188.151C289.912 183.355 288.541 178.616 287.36 173.832C285.409 165.923 283.624 157.974 281.592 150.085C279.338 141.337 276.868 132.582 275.019 123.737Z" fill="#F2AD73"/>
<path d="M184.078 142.479C190.687 138.572 206.62 130.321 213.759 131.382L213.706 131.799C212.724 132.537 211.897 132.751 210.721 133.004L210.273 133.096C210.689 133.668 211.133 134.187 211.716 134.596C214.391 136.472 217.717 137.796 220.65 139.262C224.445 141.16 228.221 143.252 231.817 145.504C237.834 149.272 248.237 156.612 253.038 161.571C256.615 163.02 259.954 164.966 263.621 166.2C264.944 172.843 266.751 179.445 268.374 186.023C269.911 192.252 271.278 198.515 272.786 204.749C273.803 208.958 275.072 213.176 275.879 217.428C277.182 224.224 279.092 230.89 280.498 237.666C281.966 243.658 284.381 251.989 285.112 257.941C287.224 267.747 289.623 277.44 292.019 287.175C282.37 293.452 272.539 298.794 261.511 302.26C256.477 303.91 251.041 305.144 245.81 305.965C244.562 306.157 243.312 306.325 242.059 306.468C240.805 306.613 239.549 306.732 238.291 306.828C237.033 306.924 235.774 306.996 234.513 307.044C233.252 307.091 231.991 307.114 230.729 307.114C229.467 307.113 228.206 307.089 226.945 307.04C225.684 306.991 224.425 306.918 223.167 306.821C221.909 306.724 220.653 306.602 219.4 306.458C218.146 306.312 216.896 306.143 215.649 305.95C214.402 305.757 213.16 305.54 211.921 305.299C210.682 305.059 209.449 304.795 208.22 304.507C206.992 304.219 205.77 303.908 204.553 303.573C203.336 303.239 202.127 302.881 200.923 302.5C199.721 302.119 198.526 301.715 197.338 301.289C196.151 300.862 194.972 300.413 193.802 299.941C192.631 299.469 191.471 298.975 190.319 298.459C189.168 297.943 188.026 297.405 186.896 296.845C183.825 295.286 180.565 293.915 177.764 291.884C169.501 287.445 160.439 278.101 154.913 270.771C143.242 255.288 134.691 235.154 133.581 215.68C133.228 209.49 133.738 203.289 134.609 197.159C134.703 196.503 134.804 195.849 134.912 195.195C135.02 194.541 135.135 193.889 135.256 193.237C135.378 192.586 135.506 191.936 135.642 191.288C135.777 190.639 135.919 189.992 136.068 189.346C136.217 188.7 136.373 188.056 136.535 187.414C136.698 186.772 136.867 186.131 137.043 185.493C137.219 184.854 137.401 184.217 137.591 183.581C137.78 182.946 137.975 182.314 138.178 181.683C138.381 181.052 138.59 180.423 138.806 179.797C139.021 179.17 139.243 178.546 139.472 177.924C139.701 177.303 139.936 176.683 140.178 176.066C140.42 175.45 140.668 174.835 140.923 174.224C141.178 173.612 141.439 173.003 141.706 172.397C141.974 171.791 142.248 171.187 142.528 170.587C142.808 169.987 143.094 169.389 143.387 168.795C143.68 168.2 143.978 167.609 144.283 167.021C144.588 166.433 144.9 165.848 145.217 165.266C145.534 164.685 145.858 164.107 146.187 163.532C146.517 162.957 146.852 162.385 147.194 161.818C147.535 161.25 147.883 160.686 148.236 160.125C148.589 159.565 148.949 159.008 149.314 158.455C149.679 157.902 150.05 157.353 150.426 156.808C150.803 156.263 151.185 155.722 151.573 155.185C151.961 154.648 152.354 154.115 152.754 153.586C153.152 153.057 153.557 152.532 153.967 152.012C154.377 151.492 154.793 150.976 155.214 150.464C155.635 149.952 156.061 149.445 156.493 148.942C156.924 148.44 157.361 147.942 157.803 147.448C158.245 146.955 158.692 146.466 159.144 145.982C159.597 145.497 160.054 145.018 160.516 144.544C160.979 144.069 161.446 143.6 161.918 143.135C162.39 142.67 162.868 142.211 163.349 141.756C167.384 137.952 172 134.62 176.433 131.295C177.402 133.402 178.468 135.364 179.681 137.34C177.557 138.72 175.42 140.082 173.313 141.488L173.745 142.699C174.27 142.63 174.759 142.537 175.27 142.4C177.138 141.127 178.991 139.845 180.948 138.712C181.949 140.009 182.928 141.309 184.078 142.479Z" fill="#FFD231"/>
<path d="M173.313 141.488L173.745 142.699C174.27 142.63 174.758 142.537 175.27 142.4C155.89 158.166 145.1 175.145 141.283 200.033C140.769 206.894 140.908 213.204 141.702 220.053C141.446 220.3 141.137 220.455 140.834 220.637L140.262 220.478C138.294 216.881 138.963 203.832 139.622 199.407C139.653 199.136 139.687 198.865 139.73 198.596C143.198 176.421 155.02 154.852 173.313 141.488Z" fill="#42363A"/>
<path d="M184.078 142.479C190.687 138.572 206.62 130.321 213.759 131.382L213.706 131.799C212.724 132.537 211.897 132.751 210.721 133.004L210.273 133.096C201.663 135.51 193.896 138.932 186.125 143.311C185.248 143.852 184.381 144.412 183.526 144.989C171.76 152.97 160.815 165.156 155.95 178.681C154.751 182.015 153.659 185.556 152.918 189.02C152.554 190.722 152.454 192.488 152.066 194.176C151.859 195.076 151.497 195.579 150.711 196.029L150.219 195.64C149.885 194.432 150.067 193.336 150.31 192.128C154.608 170.824 165.915 154.408 184.078 142.479Z" fill="black"/>
<path d="M186.125 143.311C193.896 138.932 201.663 135.51 210.273 133.096C210.689 133.668 211.133 134.187 211.716 134.596C214.39 136.472 217.717 137.795 220.65 139.262C224.444 141.159 228.221 143.252 231.816 145.504C237.834 149.271 248.236 156.612 253.038 161.571L248.408 160.631C238.924 157.469 229.457 154.975 219.719 152.73C208.423 150.125 195.928 150.059 186.125 143.311Z" fill="#E7B68A"/>
</g>
<defs>
<linearGradient id="paint0_linear_486_308" x1="225.269" y1="51.6765" x2="267.867" y2="66.5233" gradientUnits="userSpaceOnUse">
<stop stop-color="#BAA495"/>
<stop offset="1" stop-color="#F7DDC8"/>
</linearGradient>
<clipPath id="clip0_486_308">
<rect width="513" height="469" fill="white" transform="translate(0 0.31958)"/>
</clipPath>
</defs>
</svg>
