<?xml version="1.0" encoding="UTF-8"?>
<svg version="1.1" xmlns="http://www.w3.org/2000/svg" width="786" height="165">
<path d="M0 0 C5.12619754 3.28850409 6.81374172 6.43497893 9 12 C9.70125 12.86625 10.4025 13.7325 11.125 14.625 C13.16653162 17.21094005 13.4808047 18.81065747 14 22 C14.39268066 21.40985107 14.78536133 20.81970215 15.18994141 20.21166992 C16.98764148 17.52727 18.80596886 14.85748635 20.625 12.1875 C21.55119141 10.7943457 21.55119141 10.7943457 22.49609375 9.37304688 C28.44483902 0.70040246 28.44483902 0.70040246 34 -1 C38.81095138 -1.51316815 42.30913438 -0.43498946 46.375 2.125 C49.36874347 5.4038619 50.44747726 7.88581474 52 12 C52.99 12.99 52.99 12.99 54 14 C54.37125 12.1746875 54.37125 12.1746875 54.75 10.3125 C55.72609819 6.40810723 57.11046834 3.88953166 60 1 C62.93861243 0.02046252 64.87886873 -0.13747364 67.94287109 -0.16113281 C68.94756439 -0.17074036 69.95225769 -0.1803479 70.98739624 -0.19024658 C72.07178986 -0.19449646 73.15618347 -0.19874634 74.2734375 -0.203125 C75.38933258 -0.20882507 76.50522766 -0.21452515 77.65493774 -0.22039795 C80.01701916 -0.22984834 82.37911376 -0.23638208 84.74121094 -0.24023438 C88.35374951 -0.24994289 91.96571991 -0.28096782 95.578125 -0.3125 C97.87239245 -0.31902981 100.16666398 -0.32428037 102.4609375 -0.328125 C103.54128265 -0.3404718 104.62162781 -0.3528186 105.73471069 -0.36553955 C115.06092264 -0.33785513 115.06092264 -0.33785513 119 3 C120.88411472 5.0934608 121.92573494 6.80691085 122.9375 9.4375 C124.17848255 12.43045791 125.90091093 14.55106275 128 17 C128.14695312 15.89591797 128.14695312 15.89591797 128.296875 14.76953125 C129.80408793 4.93366757 129.80408793 4.93366757 134 1 C136.49913591 -0.24956796 138.21640175 -0.14042304 141.01293945 -0.16113281 C142.05774979 -0.17074036 143.10256012 -0.1803479 144.17903137 -0.19024658 C145.31233383 -0.19449646 146.44563629 -0.19874634 147.61328125 -0.203125 C148.77498337 -0.20882507 149.93668549 -0.21452515 151.1335907 -0.22039795 C153.59580573 -0.22985796 156.05803348 -0.23638589 158.52026367 -0.24023438 C162.28652073 -0.2499331 166.05223065 -0.28094508 169.81835938 -0.3125 C172.20833009 -0.31903055 174.59830471 -0.32428082 176.98828125 -0.328125 C178.11551102 -0.3404718 179.24274078 -0.3528186 180.40412903 -0.36553955 C181.98552925 -0.3610379 181.98552925 -0.3610379 183.59887695 -0.35644531 C184.98548271 -0.36191376 184.98548271 -0.36191376 186.40010071 -0.36749268 C189.57281128 0.08096619 191.42518041 1.11590903 194 3 C195.96457553 6.25171122 197 8.18692647 197 12 C197.99 12.33 198.98 12.66 200 13 C202.99606498 17.54958015 203.9444797 21.68332212 203 27 C200.58026566 31.93253538 198.09097002 34.0259504 193 36 C190.125 36.6875 190.125 36.6875 188 37 C188.45375 37.556875 188.9075 38.11375 189.375 38.6875 C191 41 191 41 191.9375 43.4375 C192.88765071 46.14308129 192.88765071 46.14308129 195.125 48.3125 C197.21374434 51.30636689 197.57094773 53.37073763 197.40625 57.0078125 C196.75729312 60.19019721 194.91043806 62.43284886 193 65 C193 65.99 193 66.98 193 68 C193.433125 68.4125 193.86625 68.825 194.3125 69.25 C196.74229655 71.76978902 197.62992206 74.80315147 199 78 C200.5412312 79.70921589 200.5412312 79.70921589 202 81 C203.76074588 86.28223764 203.79625804 90.37685861 201.375 95.3125 C198.23776106 98.86253353 195.41786348 100.71825377 190.61206055 101.27825928 C187.70583158 101.39675331 184.81485659 101.41571993 181.90625 101.3984375 C180.30892029 101.40274277 180.30892029 101.40274277 178.67932129 101.40713501 C176.43350694 101.40917157 174.1876747 101.40367033 171.94189453 101.39111328 C168.51163936 101.37505449 165.08256243 101.39097653 161.65234375 101.41015625 C159.46614324 101.40817375 157.27994347 101.40432993 155.09375 101.3984375 C153.56071228 101.40754654 153.56071228 101.40754654 151.9967041 101.4168396 C146.6170795 101.36391362 142.58696037 101.1463739 138 98 C135.96583665 94.74533864 135 92.8455896 135 89 C134.38125 88.773125 133.7625 88.54625 133.125 88.3125 C130.30463594 86.57051043 130.00372158 85.12647411 129 82 C128.7215271 79.34867859 128.7215271 79.34867859 128.68115234 76.4753418 C128.65134781 74.85422737 128.65134781 74.85422737 128.62094116 73.20036316 C128.60361435 71.46729668 128.60361435 71.46729668 128.5859375 69.69921875 C128.55688828 67.91195122 128.55688828 67.91195122 128.5272522 66.08857727 C128.46754104 62.28829068 128.42110419 58.48797366 128.375 54.6875 C128.3368125 52.10871085 128.29776032 49.52993435 128.2578125 46.95117188 C128.16184631 40.63422698 128.07677384 34.31720572 128 28 C127.5565625 28.78761719 127.113125 29.57523438 126.65625 30.38671875 C124.4473326 33.87201531 122.91651567 34.67118218 119 36 C117.09528469 36.08037844 115.18747231 36.10100738 113.28125 36.07421875 C111.7972168 36.05814575 111.7972168 36.05814575 110.28320312 36.04174805 C109.52974609 36.02797119 108.77628906 36.01419434 108 36 C108.00999275 36.99145775 108.00999275 36.99145775 108.02018738 38.00294495 C108.08668366 44.89750289 108.13186009 51.79196935 108.16479492 58.68676758 C108.17985844 61.2580943 108.2003132 63.82939543 108.22631836 66.40063477 C108.26280761 70.10178962 108.27975121 73.802604 108.29296875 77.50390625 C108.30845261 78.64896133 108.32393646 79.79401642 108.33988953 80.97377014 C108.34144098 88.37244841 107.86118879 93.61859506 102.9375 99.4375 C98.62340694 101.73223035 94.78468149 101.76554904 90 101 C86.66847171 99.33423586 84.7265891 98.05685687 82.625 95 C82 93 82 93 82 89 C81.38125 88.7525 80.7625 88.505 80.125 88.25 C77.55185662 86.73638625 77.08967989 85.74455505 76 83 C75.75949097 80.73468018 75.75949097 80.73468018 75.77294922 78.23144531 C75.77310028 77.29077209 75.77325134 76.35009888 75.77340698 75.38092041 C75.78372955 74.37349792 75.79405212 73.36607544 75.8046875 72.328125 C75.8075174 71.29057068 75.81034729 70.25301636 75.81326294 69.184021 C75.82445135 65.87256299 75.84955373 62.56137616 75.875 59.25 C75.88503152 57.00391016 75.89415707 54.75781607 75.90234375 52.51171875 C75.9243863 47.00772009 75.95785068 41.50387942 76 36 C75.06238075 35.91700653 75.06238075 35.91700653 74.1058197 35.83233643 C73.28964676 35.75263611 72.47347382 35.67293579 71.63256836 35.59082031 C70.82186386 35.51486633 70.01115936 35.43891235 69.17588806 35.36065674 C66.36572889 34.8948686 65.23686582 34.0354845 63.5625 31.75 C63.09457031 31.12222656 62.62664062 30.49445312 62.14453125 29.84765625 C60.78442824 27.65199508 59.83673259 25.44047005 59 23 C58.01 22.01 58.01 22.01 57 21 C56.814375 22.6396875 56.814375 22.6396875 56.625 24.3125 C54.99470258 30.9392485 49.61315882 35.2625345 45 40 C43.67534838 41.44730455 42.36114351 42.90431397 41.0625 44.375 C40.53785156 44.96023437 40.01320313 45.54546875 39.47265625 46.1484375 C37.74954934 48.31489022 36.37953935 50.60330776 35 53 C35.34780518 53.46374023 35.69561035 53.92748047 36.05395508 54.40527344 C39.70263672 59.27018229 43.35131836 64.13509115 47 69 C47.52424561 69.67836914 48.04849121 70.35673828 48.58862305 71.05566406 C50.39885674 73.54947156 51.62327344 76.24654688 53 79 C53.53625 79.66 54.0725 80.32 54.625 81 C57.23555706 84.79717391 57.1399913 88.11338842 56.4375 92.5625 C54.75509027 96.58565371 52.96767735 99.17438159 49 101 C44.58384373 101.74191425 40.75637608 101.72589287 36.58984375 100.00390625 C32.78449844 97.05949879 30.3507945 93.368681 27.625 89.4375 C27.05499268 88.63135254 26.48498535 87.82520508 25.89770508 86.99462891 C24.25617217 84.66922137 22.62696723 82.33561109 21 80 C20.20002586 78.86271309 19.39936066 77.7259116 18.59765625 76.58984375 C17.05626634 74.39911576 15.52510734 72.20205429 14 70 C13.99383667 71.04341553 13.99383667 71.04341553 13.98754883 72.10791016 C13.9545111 75.28111803 13.88385534 78.45243191 13.8125 81.625 C13.80669922 82.71941406 13.80089844 83.81382813 13.79492188 84.94140625 C13.54626256 94.05891452 13.54626256 94.05891452 10.57421875 97.7109375 C6.35973714 101.45856454 3.27621355 101.40475906 -2.234375 101.33984375 C-6.69189549 100.79209759 -8.09238696 99.41644532 -11 96 C-12.06902939 93.69747517 -13.07175817 91.3627974 -14 89 C-14.67801163 88.25866821 -15.35602325 87.51733643 -16.05458069 86.75354004 C-18.50358403 83.28722884 -18.55866773 80.53308634 -18.50170898 76.44335938 C-18.50711197 75.69963577 -18.51251495 74.95591217 -18.51808167 74.18965149 C-18.53054997 71.74060805 -18.51409169 69.29274464 -18.49609375 66.84375 C-18.49624878 65.13651467 -18.49773848 63.42927899 -18.50050354 61.7220459 C-18.50188668 58.14770915 -18.48934402 54.57377409 -18.46655273 50.99951172 C-18.4381682 46.42288721 -18.44090649 41.84692993 -18.45364285 37.27025604 C-18.46060508 33.74601566 -18.45280455 30.2219289 -18.44038582 26.69770813 C-18.4358766 25.01044809 -18.43552989 23.32317154 -18.43945122 21.63591003 C-18.44236883 19.27581094 -18.4258312 16.91662427 -18.40405273 14.55664062 C-18.40855438 13.86246536 -18.41305603 13.1682901 -18.41769409 12.45307922 C-18.35177847 8.1436991 -17.66238411 5.41138516 -15 2 C-9.87196928 -1.01648866 -5.61602897 -1.84918027 0 0 Z " fill="#4C2E0F" transform="translate(578,32)"/>
<path d="M0 0 C5.26167624 3.676834 7.91786893 7.68489853 10.875 13.3125 C11.47828125 14.42334961 11.47828125 14.42334961 12.09375 15.55664062 C13.07377864 17.3650268 14.03849915 19.18169507 15 21 C15.27674561 20.5059668 15.55349121 20.01193359 15.83862305 19.50292969 C17.11098037 17.24578634 18.39902461 14.99797834 19.6875 12.75 C20.34008789 11.58404297 20.34008789 11.58404297 21.00585938 10.39453125 C24.19208442 4.87174117 26.95205038 0.92013574 33.3125 -1 C38.07563756 -1 41.21798251 0.1054296 45 3 C47.1875 6.3125 47.1875 6.3125 48.0625 8.1484375 C49.07096798 10.14016177 50.29119376 11.70005076 51.6875 13.4375 C54.28235726 17.09462695 55.62785365 20.48428333 55 25 C53.49386267 28.9688754 51.26352018 32.42096533 49 36 C48.12741505 37.39701731 47.25503367 38.79416179 46.3828125 40.19140625 C44.35846164 43.41882151 42.31797533 46.63548644 40.26953125 49.84765625 C37.00628073 54.97311426 33.81223328 60.13955438 30.625 65.3125 C28.42005946 68.87710922 26.2106137 72.43890684 24 76 C23.38205566 76.99725098 22.76411133 77.99450195 22.12744141 79.02197266 C20.2391289 82.06161325 18.33977171 85.09408032 16.4375 88.125 C15.85371582 89.06770752 15.26993164 90.01041504 14.66845703 90.98168945 C14.11657715 91.85656006 13.56469727 92.73143066 12.99609375 93.6328125 C12.51325928 94.40512207 12.0304248 95.17743164 11.53295898 95.97314453 C9.40780695 98.78298881 7.3514291 100.72725704 3.8515625 101.43359375 C-1.59708597 101.44315278 -4.71468 100.67313143 -9 97 C-11.69002645 94.01108173 -13.22547877 90.58815037 -15 87 C-15.01458252 87.59949463 -15.02916504 88.19898926 -15.04418945 88.81665039 C-15.11923821 91.56587455 -15.21570752 94.31395889 -15.3125 97.0625 C-15.33505859 98.00544922 -15.35761719 98.94839844 -15.38085938 99.91992188 C-15.62966799 106.41156473 -16.0754928 112.25273566 -21.0625 116.9375 C-25.42094699 118.51395955 -29.42200888 118.66655551 -34 118 C-37.33152829 116.33423586 -39.2734109 115.05685687 -41.375 112 C-42 110 -42 110 -42 106 C-42.639375 105.71125 -43.27875 105.4225 -43.9375 105.125 C-46 104 -46 104 -47 102 C-66.8 101.505 -66.8 101.505 -87 101 C-87 104.3 -87 107.6 -87 111 C-89.0995043 114.14925645 -90.60269627 116.30134813 -94 118 C-104.29349286 119.17736029 -104.29349286 119.17736029 -108.5 115.9375 C-111.2137976 112.74878782 -112.47610211 109.87901281 -114 106 C-114.67812744 105.23558594 -115.35625488 104.47117187 -116.05493164 103.68359375 C-118.44359073 100.38798176 -118.50279647 98.59579025 -118.49609375 94.5625 C-118.49673828 93.33789062 -118.49738281 92.11328125 -118.49804688 90.8515625 C-118.47806641 89.58054687 -118.45808594 88.30953125 -118.4375 87 C-118.44458984 85.72898437 -118.45167969 84.45796875 -118.45898438 83.1484375 C-118.38598897 72.47987845 -118.38598897 72.47987845 -115 68 C-113.906875 67.34 -112.81375 66.68 -111.6875 66 C-102.8744678 60.05027362 -99.50736985 44.67024482 -97.55859375 34.75390625 C-96.17808054 27.0802427 -95.03628577 19.40640138 -94.5 11.625 C-94.19133666 7.72131654 -93.65485236 5.04816382 -91 2 C-88.07709161 0.23085901 -85.89077436 -0.25447849 -82.49438477 -0.2746582 C-81.60989151 -0.28419022 -80.72539825 -0.29372223 -79.81410217 -0.30354309 C-78.39211769 -0.30217598 -78.39211769 -0.30217598 -76.94140625 -0.30078125 C-75.96010239 -0.30506638 -74.97879852 -0.3093515 -73.96775818 -0.31376648 C-71.89412202 -0.31950486 -69.82046573 -0.32001367 -67.74682617 -0.31567383 C-64.5776122 -0.31251506 -61.40933289 -0.33597534 -58.24023438 -0.36132812 C-56.22395951 -0.36360131 -54.20768214 -0.36430453 -52.19140625 -0.36328125 C-50.77245811 -0.37709587 -50.77245811 -0.37709587 -49.32484436 -0.39118958 C-44.42366482 -0.35679699 -40.94244008 -0.26770706 -37 3 C-35.99609375 4.90234375 -35.99609375 4.90234375 -35.4375 6.9375 C-34.28004873 10.54213397 -32.90319825 12.48389485 -30 15 C-28.79112422 17.41775157 -28.87549353 18.94533541 -28.87402344 21.64575195 C-28.87021667 22.61047928 -28.86640991 23.5752066 -28.86248779 24.56916809 C-28.86146057 25.61497543 -28.86043335 26.66078278 -28.859375 27.73828125 C-28.84104761 29.94206763 -28.82147736 32.14584396 -28.80078125 34.34960938 C-28.77179649 37.83244758 -28.7499997 41.31464071 -28.74951172 44.79760742 C-28.74617994 48.15341768 -28.71164309 51.50773058 -28.671875 54.86328125 C-28.6789447 55.9030159 -28.6860144 56.94275055 -28.69329834 58.01399231 C-28.65081781 64.0141181 -28.65081781 64.0141181 -25.50878906 68.98901367 C-24.68088867 69.65263916 -23.85298828 70.31626465 -23 71 C-22.1875 74.3125 -22.1875 74.3125 -22 77 C-21.01 77 -20.02 77 -19 77 C-18.63261719 76.16082031 -18.63261719 76.16082031 -18.2578125 75.3046875 C-15.02993711 68.38145132 -10.90771184 62.42171653 -6.40234375 56.296875 C-6.0038623 55.74580078 -5.60538086 55.19472656 -5.19482422 54.62695312 C-4.01761024 53.02397928 -2.7921782 51.45677985 -1.56640625 49.890625 C0.29775947 47.17570427 0.29775947 47.17570427 -0.45703125 44.56640625 C-2.43174864 41.28187631 -4.51262553 38.09114908 -6.6875 34.9375 C-7.58385365 33.60148129 -8.478366 32.2642255 -9.37109375 30.92578125 C-10.63277994 29.0367017 -11.89654957 27.15037639 -13.18408203 25.27880859 C-19.71904195 15.7183506 -19.71904195 15.7183506 -18.75 10.0625 C-17.03934415 5.11861502 -14.12417043 2.22978288 -9.625 -0.375 C-6.00718601 -1.23638428 -3.5998718 -0.94733469 0 0 Z M-63 36 C-63.08040527 36.55872803 -63.16081055 37.11745605 -63.24365234 37.69311523 C-63.6172656 40.2750973 -63.99610645 42.85628772 -64.375 45.4375 C-64.50132812 46.31599609 -64.62765625 47.19449219 -64.7578125 48.09960938 C-65.59977518 53.80390654 -66.68625829 59.38518218 -68 65 C-65.36 65 -62.72 65 -60 65 C-60 55.43 -60 45.86 -60 36 C-60.99 36 -61.98 36 -63 36 Z " fill="#4C2D0F" transform="translate(502,32)"/>
<path d="M0 0 C6.65958262 5.42127077 11.2013953 12.14684865 15.41796875 19.546875 C15.88589844 20.33320312 16.35382813 21.11953125 16.8359375 21.9296875 C23.70341754 33.83591351 26.15658731 46.99783431 22.54296875 60.484375 C17.62819852 74.04550026 9.99961827 83.69795171 -3.09423828 89.9855957 C-14.20937212 94.98364574 -25.64045075 95.40305946 -37.33203125 92.171875 C-54.59590215 85.58346373 -63.26848774 73.12593861 -71.33203125 57.171875 C-73.04324237 53.28019093 -74.35589665 49.31203212 -75.33203125 45.171875 C-75.62335938 45.69136719 -75.9146875 46.21085937 -76.21484375 46.74609375 C-80.36950027 53.81423582 -84.91464058 58.3146892 -92.90234375 60.66796875 C-99.76928029 62.09214048 -106.36959526 62.06571075 -112.33203125 58.171875 C-113.41696716 56.10966858 -114.11357691 54.160305 -114.7265625 51.9140625 C-115.17942496 49.95732332 -115.17942496 49.95732332 -117.33203125 49.171875 C-117.3163208 50.26653076 -117.30061035 51.36118652 -117.28442383 52.48901367 C-117.23001015 56.56104131 -117.19563969 60.63303697 -117.16723633 64.70532227 C-117.15217572 66.46579396 -117.13172299 68.2262283 -117.10571289 69.98657227 C-117.06920896 72.52109003 -117.05227771 75.05511052 -117.0390625 77.58984375 C-117.02357864 78.37336716 -117.00809479 79.15689056 -116.99214172 79.9641571 C-116.99073458 84.56199888 -117.47618905 87.51728739 -120.33203125 91.171875 C-124.77316502 94.26380357 -130.15737946 93.76347774 -135.33203125 93.171875 C-138.89453125 91.609375 -138.89453125 91.609375 -141.33203125 89.171875 C-142.04865195 86.85339626 -142.71445152 84.51867797 -143.33203125 82.171875 C-144.9784981 80.48525042 -146.64386192 78.81675794 -148.33203125 77.171875 C-149.46399639 73.25820829 -149.46434563 69.43606813 -149.47729492 65.38134766 C-149.48065353 64.7188652 -149.48401215 64.05638275 -149.48747253 63.37382507 C-149.49693294 61.19450988 -149.49892315 59.01527192 -149.5 56.8359375 C-149.50321596 55.31285572 -149.50658028 53.78977425 -149.51008606 52.26669312 C-149.51606502 49.07752771 -149.51792722 45.88838936 -149.51733398 42.69921875 C-149.51723242 38.62513468 -149.53088378 34.55122513 -149.54810619 30.47718239 C-149.55925832 27.3320741 -149.56125221 24.18700759 -149.56072426 21.04188156 C-149.56189956 19.54047418 -149.56629596 18.03906555 -149.57405663 16.53767776 C-149.58392188 14.4320601 -149.5809531 12.32681588 -149.57495117 10.22119141 C-149.57637619 9.02603912 -149.57780121 7.83088684 -149.57926941 6.59951782 C-149.22441616 1.67992855 -148.52257669 -2.44649744 -145.26025391 -6.23242188 C-141.25153074 -8.41693201 -137.9793088 -8.40409033 -133.48046875 -8.359375 C-132.19845078 -8.36511536 -132.19845078 -8.36511536 -130.89053345 -8.37097168 C-129.08342307 -8.37368837 -127.27627321 -8.36634416 -125.46923828 -8.34960938 C-122.73638394 -8.3283533 -120.00620614 -8.34933557 -117.2734375 -8.375 C-104.97760216 -8.39553373 -94.32782712 -7.64808258 -84.9765625 1.24609375 C-82.84980025 3.73657781 -81.50155271 6.27096066 -80.19921875 9.26171875 C-79.26826687 11.45626349 -79.26826687 11.45626349 -77.20703125 14.296875 C-75.30044757 17.2203033 -74.3687883 19.85975735 -73.33203125 23.171875 C-72.94273437 22.27726562 -72.5534375 21.38265625 -72.15234375 20.4609375 C-66.11883381 7.18168876 -58.12151835 -1.30460496 -44.33203125 -6.828125 C-28.98085481 -12.45688969 -13.37620799 -8.37827601 0 0 Z M-117.33203125 26.171875 C-117.33203125 27.821875 -117.33203125 29.471875 -117.33203125 31.171875 C-113.04203125 30.511875 -108.75203125 29.851875 -104.33203125 29.171875 C-104.00203125 28.181875 -103.67203125 27.191875 -103.33203125 26.171875 C-107.95203125 26.171875 -112.57203125 26.171875 -117.33203125 26.171875 Z M-38.20703125 33.921875 C-41.45587721 38.89069823 -43.69834947 43.36801566 -43.39453125 49.421875 C-42.65627022 53.35619806 -42.65627022 53.35619806 -39.45703125 55.609375 C-33.49115329 58.59231398 -28.10750973 59.41918122 -21.6953125 57.30078125 C-15.76090201 54.59525778 -12.57365582 51.81857586 -9.33203125 46.171875 C-7.88676508 41.83607648 -7.67053137 37.698318 -8.33203125 33.171875 C-10.38084409 30.53261142 -10.38084409 30.53261142 -13.33203125 29.171875 C-14.09515625 28.759375 -14.85828125 28.346875 -15.64453125 27.921875 C-24.30542151 25.50488237 -31.78943715 27.78330673 -38.20703125 33.921875 Z " fill="#4C2D0F" transform="translate(362.33203125,39.828125)"/>
<path d="M0 0 C1.36267834 0.98836993 2.71813783 1.9868575 4.0625 3 C4.92875 3.5775 5.795 4.155 6.6875 4.75 C18.59726305 16.03293342 26.95407356 33.15896619 27.5 49.4375 C27.20630951 62.0278838 22.40892503 73.50631473 13.8125 82.75 C4.20667908 91.72107505 -8.22221373 96.44891887 -21.328125 96.20703125 C-33.97896264 95.20329713 -45.72224527 90.37862378 -54.42578125 80.9375 C-57.34263069 77.19910899 -59.60986708 73.1195408 -61.9375 69 C-62.99792953 67.29038068 -64.06040251 65.58202701 -65.125 63.875 C-71.38724922 53.41606021 -73.58876374 42.14265877 -71.40625 30.05859375 C-68.07630326 17.04646492 -61.1197013 7.07641194 -50.05078125 -0.75390625 C-34.53888288 -9.90047849 -15.13042994 -9.78881674 0 0 Z M-35.9375 37 C-39.00682007 42.0553507 -40.969995 47.03447333 -39.9375 53 C-37.10119676 56.6466756 -34.42909698 58.87710075 -29.9375 60 C-23.33951077 60.82316564 -18.45790176 59.7084537 -12.9375 56 C-8.45744551 52.21684288 -5.43652604 48.46027948 -4.58203125 42.53515625 C-4.26314321 37.02234497 -4.26314321 37.02234497 -7.125 32.5 C-8.053125 32.005 -8.98125 31.51 -9.9375 31 C-10.700625 30.5875 -11.46375 30.175 -12.25 29.75 C-21.13871121 27.26942943 -29.86007569 29.9242668 -35.9375 37 Z " fill="#4C2D0F" transform="translate(74.9375,38)"/>
<path d="M0 0 C5.12619754 3.28850409 6.81374172 6.43497893 9 12 C9.70125 12.86625 10.4025 13.7325 11.125 14.625 C13.16653162 17.21094005 13.4808047 18.81065747 14 22 C14.39268066 21.40985107 14.78536133 20.81970215 15.18994141 20.21166992 C16.98764148 17.52727 18.80596886 14.85748635 20.625 12.1875 C21.55119141 10.7943457 21.55119141 10.7943457 22.49609375 9.37304688 C28.44483902 0.70040246 28.44483902 0.70040246 34 -1 C38.81095138 -1.51316815 42.30913438 -0.43498946 46.375 2.125 C49.36874347 5.4038619 50.44747726 7.88581474 52 12 C52.99 12.99 52.99 12.99 54 14 C54.37125 12.1746875 54.37125 12.1746875 54.75 10.3125 C55.72609819 6.40810723 57.11046834 3.88953166 60 1 C62.93861243 0.02046252 64.87886873 -0.13747364 67.94287109 -0.16113281 C68.94756439 -0.17074036 69.95225769 -0.1803479 70.98739624 -0.19024658 C72.07178986 -0.19449646 73.15618347 -0.19874634 74.2734375 -0.203125 C75.38933258 -0.20882507 76.50522766 -0.21452515 77.65493774 -0.22039795 C80.01701916 -0.22984834 82.37911376 -0.23638208 84.74121094 -0.24023438 C88.35374951 -0.24994289 91.96571991 -0.28096782 95.578125 -0.3125 C97.87239245 -0.31902981 100.16666398 -0.32428037 102.4609375 -0.328125 C103.54128265 -0.3404718 104.62162781 -0.3528186 105.73471069 -0.36553955 C115.05422034 -0.33787503 115.05422034 -0.33787503 119 3 C121.82037114 6.01487949 122 6.66722334 122 11 C121.37217117 10.99555878 120.74434235 10.99111755 120.0974884 10.98654175 C113.56005124 10.94227725 107.02265669 10.91212054 100.48510742 10.89013672 C98.0456367 10.8800824 95.60617803 10.86643708 93.16674805 10.84912109 C89.65931221 10.82484818 86.15203579 10.81351109 82.64453125 10.8046875 C81.55477493 10.79436493 80.46501862 10.78404236 79.34223938 10.77340698 C78.32155869 10.77325592 77.30087799 10.77310486 76.24926758 10.77294922 C75.35436111 10.768508 74.45945465 10.76406677 73.53742981 10.75949097 C70.66133826 11.03209989 68.57895362 11.7045929 66 13 C63.16020055 16.54974931 61.53297764 19.46969009 61 24 C59.68 23.01 58.36 22.02 57 21 C56.814375 22.6396875 56.814375 22.6396875 56.625 24.3125 C54.99470258 30.9392485 49.61315882 35.2625345 45 40 C43.67534838 41.44730455 42.36114351 42.90431397 41.0625 44.375 C40.53785156 44.96023437 40.01320313 45.54546875 39.47265625 46.1484375 C37.74954934 48.31489022 36.37953935 50.60330776 35 53 C35.34780518 53.46374023 35.69561035 53.92748047 36.05395508 54.40527344 C39.70263672 59.27018229 43.35131836 64.13509115 47 69 C47.52424561 69.67836914 48.04849121 70.35673828 48.58862305 71.05566406 C50.39885674 73.54947156 51.62327344 76.24654688 53 79 C53.53625 79.66 54.0725 80.32 54.625 81 C57.23555706 84.79717391 57.1399913 88.11338842 56.4375 92.5625 C54.75509027 96.58565371 52.96767735 99.17438159 49 101 C44.58384373 101.74191425 40.75637608 101.72589287 36.58984375 100.00390625 C32.78449844 97.05949879 30.3507945 93.368681 27.625 89.4375 C27.05499268 88.63135254 26.48498535 87.82520508 25.89770508 86.99462891 C24.25617217 84.66922137 22.62696723 82.33561109 21 80 C20.20002586 78.86271309 19.39936066 77.7259116 18.59765625 76.58984375 C17.05626634 74.39911576 15.52510734 72.20205429 14 70 C13.99383667 71.04341553 13.99383667 71.04341553 13.98754883 72.10791016 C13.9545111 75.28111803 13.88385534 78.45243191 13.8125 81.625 C13.80669922 82.71941406 13.80089844 83.81382813 13.79492188 84.94140625 C13.54626256 94.05891452 13.54626256 94.05891452 10.57421875 97.7109375 C6.35973714 101.45856454 3.27621355 101.40475906 -2.234375 101.33984375 C-6.69189549 100.79209759 -8.09238696 99.41644532 -11 96 C-12.06902939 93.69747517 -13.07175817 91.3627974 -14 89 C-14.67801163 88.25866821 -15.35602325 87.51733643 -16.05458069 86.75354004 C-18.50358403 83.28722884 -18.55866773 80.53308634 -18.50170898 76.44335938 C-18.50711197 75.69963577 -18.51251495 74.95591217 -18.51808167 74.18965149 C-18.53054997 71.74060805 -18.51409169 69.29274464 -18.49609375 66.84375 C-18.49624878 65.13651467 -18.49773848 63.42927899 -18.50050354 61.7220459 C-18.50188668 58.14770915 -18.48934402 54.57377409 -18.46655273 50.99951172 C-18.4381682 46.42288721 -18.44090649 41.84692993 -18.45364285 37.27025604 C-18.46060508 33.74601566 -18.45280455 30.2219289 -18.44038582 26.69770813 C-18.4358766 25.01044809 -18.43552989 23.32317154 -18.43945122 21.63591003 C-18.44236883 19.27581094 -18.4258312 16.91662427 -18.40405273 14.55664062 C-18.40855438 13.86246536 -18.41305603 13.1682901 -18.41769409 12.45307922 C-18.35177847 8.1436991 -17.66238411 5.41138516 -15 2 C-9.87196928 -1.01648866 -5.61602897 -1.84918027 0 0 Z " fill="#4B2D0F" transform="translate(578,32)"/>
<path d="M0 0 C1.08470078 -0.00945648 2.16940155 -0.01891296 3.28697205 -0.02865601 C5.03706322 -0.01954697 5.03706322 -0.01954697 6.82250977 -0.01025391 C8.62740623 -0.01455917 8.62740623 -0.01455917 10.46876526 -0.01895142 C13.01319855 -0.02099274 15.55764751 -0.01545816 18.10205078 -0.00292969 C21.9955562 0.01310797 25.88802126 -0.00276994 29.78149414 -0.02197266 C32.25350164 -0.01998996 34.72550849 -0.01614575 37.19750977 -0.01025391 C38.36221298 -0.0163266 39.5269162 -0.02239929 40.72691345 -0.02865601 C41.81476639 -0.01919952 42.90261932 -0.00974304 44.0234375 0 C44.97733871 0.00238678 45.93123993 0.00477356 46.91404724 0.00723267 C50.08959018 0.46161226 51.9809113 1.53420343 54.57641602 3.38818359 C55.79907227 5.25537109 55.79907227 5.25537109 56.63891602 7.26318359 C58.21448891 10.76018686 60.16535668 13.39514442 62.57641602 16.38818359 C63.84092405 19.96666117 63.71008232 23.51590895 63.72167969 27.28051758 C63.7250383 27.96557373 63.72839691 28.65062988 63.7318573 29.35644531 C63.74133799 31.61574122 63.74330887 33.8749628 63.74438477 36.13427734 C63.74759904 37.70842011 63.75096324 39.28256257 63.75447083 40.85670471 C63.76045466 44.15439547 63.76231146 47.45206005 63.76171875 50.74975586 C63.7616171 54.97091454 63.77527564 59.19190512 63.79249096 63.41302395 C63.8036199 66.66356678 63.80563769 69.91406905 63.80510902 73.16462898 C63.80628754 74.72071983 63.81070215 76.27681178 63.81844139 77.83288383 C63.82826066 80.01086016 63.8253559 82.18847265 63.81933594 84.36645508 C63.82076096 85.60459457 63.82218597 86.84273407 63.82365417 88.11839294 C63.45580783 92.983259 62.30910987 95.56390301 59.07641602 99.20068359 C55.57489875 101.91264304 52.30558739 102.05209364 47.97875977 101.79833984 C44.2531222 101.16225538 42.27877868 100.02463497 39.57641602 97.38818359 C38.64388692 95.38345144 37.95283585 93.39273891 37.29516602 91.28271484 C36.30848328 88.68194784 34.61732778 87.22500418 32.57641602 85.38818359 C31.6247923 82.53331244 31.45478463 80.78364042 31.46289062 77.82495117 C31.46296616 76.90422318 31.46304169 75.98349518 31.46311951 75.03486633 C31.46828079 74.04415634 31.47344208 73.05344635 31.47875977 72.03271484 C31.48017471 71.01594162 31.48158966 69.9991684 31.48304749 68.95158386 C31.48864895 65.70125396 31.50120169 62.45099271 31.51391602 59.20068359 C31.51893083 56.99821063 31.52349377 54.79573659 31.52758789 52.59326172 C31.53861885 47.19154252 31.55588447 41.7898747 31.57641602 36.38818359 C27.61641602 36.38818359 23.65641602 36.38818359 19.57641602 36.38818359 C19.59212646 38.74148804 19.59212646 38.74148804 19.6081543 41.14233398 C19.64442545 46.97743436 19.66734251 52.81252481 19.6862793 58.64770508 C19.69632063 61.1705086 19.70995634 63.69330053 19.72729492 66.21606445 C19.75162499 69.8476854 19.76291804 73.4791521 19.77172852 77.11083984 C19.78205109 78.23402115 19.79237366 79.35720245 19.80300903 80.51441956 C19.80488092 93.65651693 19.80488092 93.65651693 15.63891602 98.76318359 C11.95417173 101.66631545 8.37423953 101.72474266 3.86547852 101.67333984 C0.30997178 101.23041836 -1.77196506 99.71643436 -4.42358398 97.38818359 C-6.5036582 94.3626211 -6.42358398 93.2434325 -6.42358398 89.38818359 C-7.35170898 89.01693359 -7.35170898 89.01693359 -8.29858398 88.63818359 C-10.93208361 87.08906617 -11.36161913 86.24088683 -12.42358398 83.38818359 C-12.6842804 80.09352112 -12.6842804 80.09352112 -12.69824219 76.12866211 C-12.70335312 75.40459167 -12.70846405 74.68052124 -12.71372986 73.93450928 C-12.72760939 71.54528496 -12.72667037 69.15634964 -12.72436523 66.76708984 C-12.72825304 65.10326531 -12.73258789 63.43944177 -12.73735046 61.77561951 C-12.74480912 58.28958925 -12.74452396 54.80366028 -12.73925781 51.31762695 C-12.73346332 46.85423975 -12.75039521 42.39126754 -12.77360249 37.92794895 C-12.78834681 34.49209679 -12.78921059 31.05634442 -12.78609276 27.62046623 C-12.78660561 25.97505814 -12.7918366 24.32964441 -12.80190468 22.68426704 C-12.81426572 20.38160494 -12.80748006 18.07974917 -12.79589844 15.77709961 C-12.79652786 14.46790054 -12.79715729 13.15870148 -12.79780579 11.80982971 C-12.29538437 7.21600786 -10.86104054 4.77875921 -7.57505798 1.59994507 C-4.88295612 0.08368908 -3.08271215 0.00771977 0 0 Z " fill="#4D2E0F" transform="translate(146.423583984375,31.61181640625)"/>
<path d="M0 0 C0.94455551 -0.00637985 1.88911102 -0.0127597 2.86228943 -0.01933289 C3.87590042 -0.02044571 4.88951141 -0.02155853 5.93383789 -0.02270508 C6.98172989 -0.02603348 8.02962189 -0.02936188 9.10926819 -0.03279114 C11.32414308 -0.03785082 13.53902558 -0.04019976 15.75390625 -0.04003906 C19.1401831 -0.0422258 22.52613428 -0.06039252 25.91235352 -0.0793457 C28.06534719 -0.08227977 30.21834242 -0.08426448 32.37133789 -0.08520508 C33.38292465 -0.09239059 34.39451141 -0.09957611 35.43675232 -0.10697937 C36.38445999 -0.10390274 37.33216766 -0.10082611 38.30859375 -0.09765625 C39.13814072 -0.09908127 39.96768768 -0.10050629 40.82237244 -0.10197449 C44.8878419 0.31742386 47.54520288 1.49018884 50.46899414 4.33276367 C52.94003506 8.30407943 53.6757833 11.57762779 52.84790039 16.23120117 C51.6617828 20.19474938 50.45774809 21.94630205 47.21899414 24.64526367 C43.93317013 26.26360221 41.10064281 26.30386454 37.46899414 26.23901367 C35.99172852 26.21871094 35.99172852 26.21871094 34.48461914 26.19799805 C33.36313477 26.17189453 33.36313477 26.17189453 32.21899414 26.14526367 C32.22565598 26.8062355 32.23231781 27.46720734 32.23918152 28.14820862 C32.3056778 35.04276656 32.35085423 41.93723302 32.38378906 48.83203125 C32.39885258 51.40335797 32.41930734 53.9746591 32.4453125 56.54589844 C32.48180175 60.24705329 32.49874535 63.94786767 32.51196289 67.64916992 C32.52744675 68.79422501 32.5429306 69.93928009 32.55888367 71.11903381 C32.56043512 78.51771209 32.08018294 83.76385873 27.15649414 89.58276367 C22.84240108 91.87749402 19.00367563 91.91081271 14.21899414 91.14526367 C10.88746585 89.47949953 8.94558324 88.20212054 6.84399414 85.14526367 C6.21899414 83.14526367 6.21899414 83.14526367 6.21899414 79.14526367 C5.60024414 78.89776367 4.98149414 78.65026367 4.34399414 78.39526367 C1.77085076 76.88164992 1.30867403 75.88981872 0.21899414 73.14526367 C-0.02151489 70.87994385 -0.02151489 70.87994385 -0.00805664 68.37670898 C-0.00783005 66.96569916 -0.00783005 66.96569916 -0.00759888 65.52618408 C0.00272369 64.5187616 0.01304626 63.51133911 0.02368164 62.47338867 C0.02651154 61.43583435 0.02934143 60.39828003 0.03225708 59.32928467 C0.04344549 56.01782666 0.06854787 52.70663983 0.09399414 49.39526367 C0.10402566 47.14917383 0.11315121 44.90307975 0.12133789 42.65698242 C0.14338044 37.15298376 0.17684482 31.64914309 0.21899414 26.14526367 C-0.40526962 26.08830322 -1.02953339 26.03134277 -1.67271423 25.97265625 C-2.48825272 25.89168701 -3.3037912 25.81071777 -4.14404297 25.72729492 C-4.95393173 25.64970947 -5.7638205 25.57212402 -6.59825134 25.4921875 C-10.3016992 24.90356688 -11.6164889 23.1314956 -13.74584961 20.24291992 C-15.58258438 16.52093285 -15.65780997 13.1639492 -14.78100586 9.14526367 C-10.78627068 1.82158251 -10.78627068 1.82158251 -6.95481873 0.52934265 C-4.59560253 0.11250578 -2.39598804 0.01102022 0 0 Z " fill="#4C2E0F" transform="translate(653.781005859375,41.854736328125)"/>
<path d="M0 0 C0.88449326 -0.00953201 1.76898651 -0.01906403 2.68028259 -0.02888489 C4.10226707 -0.02751778 4.10226707 -0.02751778 5.55297852 -0.02612305 C6.53428238 -0.03040817 7.51558624 -0.0346933 8.52662659 -0.03910828 C10.60026275 -0.04484666 12.67391904 -0.04535546 14.74755859 -0.04101562 C17.91677257 -0.03785686 21.08505188 -0.06131713 24.25415039 -0.08666992 C26.27042526 -0.08894311 28.28670263 -0.08964632 30.30297852 -0.08862305 C31.72192665 -0.10243767 31.72192665 -0.10243767 33.16954041 -0.11653137 C38.08143083 -0.08206363 41.53399832 0.02015211 45.49438477 3.2746582 C47.53110105 6.28123939 47.49438477 7.46562417 47.49438477 11.2746582 C46.9417244 11.26799637 46.38906403 11.26133453 45.81965637 11.25447083 C40.06081975 11.18803338 34.30209225 11.14282278 28.54296875 11.10986328 C26.39448626 11.09478905 24.24603447 11.07432631 22.09765625 11.04833984 C19.00716568 11.01189706 15.91708246 10.99491802 12.82641602 10.98168945 C11.86790237 10.9662056 10.90938873 10.95072174 9.92182922 10.93476868 C3.19113201 10.91210913 3.19113201 10.91210913 -2.50561523 14.2746582 C-4.36123856 17.04148094 -4.78980988 19.40646447 -4.99780273 22.6965332 C-5.06080566 23.54940918 -5.12380859 24.40228516 -5.1887207 25.28100586 C-5.2520459 26.18641113 -5.31537109 27.09181641 -5.38061523 28.0246582 C-6.69864879 43.92600686 -9.90465117 62.0871271 -19.50561523 75.2746582 C-22.63061523 77.5871582 -22.63061523 77.5871582 -25.50561523 79.2746582 C-28.45317088 82.41044862 -28.90429416 84.66498571 -29.01733398 88.9152832 C-29.0527832 89.98520508 -29.08823242 91.05512695 -29.12475586 92.1574707 C-29.14731445 93.26864258 -29.16987305 94.37981445 -29.19311523 95.5246582 C-29.22727539 96.65129883 -29.26143555 97.77793945 -29.29663086 98.9387207 C-29.37904537 101.71726721 -29.44821821 104.49550072 -29.50561523 107.2746582 C-34.38061523 103.5246582 -34.38061523 103.5246582 -35.50561523 101.2746582 C-35.77825458 96.67572809 -35.73729167 92.06824499 -35.75561523 87.4621582 C-35.77624023 86.17760742 -35.79686523 84.89305664 -35.81811523 83.56958008 C-35.82327148 82.33143555 -35.82842773 81.09329102 -35.83374023 79.81762695 C-35.84308594 78.68349365 -35.85243164 77.54936035 -35.86206055 76.38085938 C-35.460847 72.88453066 -34.62605856 71.06088635 -32.50561523 68.2746582 C-31.41249023 67.6146582 -30.31936523 66.9546582 -29.19311523 66.2746582 C-20.38008303 60.32493182 -17.01298509 44.94490302 -15.06420898 35.02856445 C-13.68369577 27.35490091 -12.54190101 19.68105958 -12.00561523 11.8996582 C-11.69695189 7.99597474 -11.16046759 5.32282202 -8.50561523 2.2746582 C-5.58270685 0.50551721 -3.3963896 0.02017972 0 0 Z " fill="#FDB700" transform="translate(419.505615234375,31.725341796875)"/>
<path d="M0 0 C1.04465927 -0.00945648 2.08931854 -0.01891296 3.16563416 -0.02865601 C4.28861404 -0.02258331 5.41159393 -0.01651062 6.56860352 -0.01025391 C7.72747574 -0.01312408 8.88634796 -0.01599426 10.08033752 -0.01895142 C12.5306141 -0.0209925 14.98090695 -0.01545963 17.43115234 -0.00292969 C21.17981483 0.01310789 24.9273967 -0.00277038 28.67602539 -0.02197266 C31.05688714 -0.01998995 33.43774823 -0.01614571 35.81860352 -0.01025391 C36.93955917 -0.0163266 38.06051483 -0.02239929 39.21543884 -0.02865601 C40.26325027 -0.01919952 41.31106171 -0.00974304 42.390625 0 C43.76818214 0.00358017 43.76818214 0.00358017 45.17356873 0.00723267 C48.33189114 0.47241468 50.19430917 1.51023465 52.76000977 3.38818359 C55.76000977 8.45714911 55.76000977 8.45714911 55.76000977 11.38818359 C55.10712479 11.38152176 54.45423981 11.37485992 53.78157043 11.36799622 C46.98463873 11.30161134 40.18779918 11.25636972 33.390625 11.22338867 C30.85412861 11.20830496 28.31765829 11.18783529 25.78125 11.16186523 C22.13478155 11.12546479 18.48865804 11.10845277 14.84204102 11.09521484 C13.70853714 11.07973099 12.57503326 11.06424713 11.40718079 11.04829407 C10.34645859 11.04806747 9.28573639 11.04784088 8.19287109 11.04760742 C7.26243484 11.04094559 6.3319986 11.03428375 5.37336731 11.02742004 C1.27462543 11.59323496 -1.35769634 13.5058897 -4.23999023 16.38818359 C-4.57336313 19.54594972 -4.57336313 19.54594972 -4.55883789 23.31640625 C-4.56888351 24.02870895 -4.57892914 24.74101166 -4.58927917 25.47489929 C-4.62021927 27.83400653 -4.63717601 30.19299974 -4.65405273 32.55224609 C-4.67275572 34.18607573 -4.69232847 35.81989562 -4.71273804 37.45370483 C-4.76415734 41.7575914 -4.80373041 46.06150932 -4.84088135 50.36553955 C-4.88085977 54.75597959 -4.93198013 59.14628811 -4.98217773 63.53662109 C-5.07905295 72.1537189 -5.16342039 80.77088156 -5.23999023 89.38818359 C-7.05249023 89.26318359 -7.05249023 89.26318359 -9.23999023 88.38818359 C-12.17429735 83.95535563 -12.61828425 80.34430509 -12.62817383 75.10107422 C-12.63343079 74.39782516 -12.63868774 73.69457611 -12.644104 72.97001648 C-12.65723384 70.66125831 -12.64859139 68.35319794 -12.63842773 66.04443359 C-12.6404505 64.43070342 -12.64336362 62.81697413 -12.64712524 61.20324707 C-12.65153908 57.82746647 -12.64514803 54.45192464 -12.63110352 51.07617188 C-12.61401203 46.75863894 -12.62385829 42.44166556 -12.64182091 38.12415314 C-12.65268429 34.79376035 -12.64920073 31.46349926 -12.64143753 28.13310242 C-12.63944258 26.54155917 -12.64186995 24.9500038 -12.64887619 23.35847473 C-12.65653305 21.13042732 -12.64482853 18.90327413 -12.62817383 16.67529297 C-12.62578705 15.40987671 -12.62340027 14.14446045 -12.62094116 12.84069824 C-12.10165882 8.13450183 -10.75135844 4.89202577 -7.37998962 1.53744507 C-4.74908861 0.12455066 -2.98079009 0.00775357 0 0 Z " fill="#FAB400" transform="translate(719.239990234375,31.61181640625)"/>
<path d="M0 0 C1.28201797 -0.00574036 1.28201797 -0.00574036 2.5899353 -0.01159668 C4.39704568 -0.01431337 6.20419554 -0.00696916 8.01123047 0.00976562 C10.74408481 0.0310217 13.47426261 0.01003943 16.20703125 -0.015625 C28.62186541 -0.03649969 39.17311641 0.76921286 48.62109375 9.71484375 C50.65339413 12.13177387 51.54698444 14.44880309 52.1484375 17.53125 C49.70019278 16.568299 47.28127297 15.59370142 44.89990234 14.47412109 C36.73103873 10.94204119 28.94954542 10.98369033 20.21240234 11.11962891 C17.75707002 11.15649576 15.30323867 11.16064473 12.84765625 11.16015625 C11.27342452 11.16997757 9.69920291 11.18163026 8.125 11.1953125 C7.39785797 11.19753815 6.67071594 11.19976379 5.92153931 11.20205688 C1.92435364 11.27652838 -1.3743193 11.47965324 -4.8515625 13.53125 C-7.91563392 17.58960024 -8.23996426 20.68673144 -8.28393555 25.70825195 C-8.2941272 26.41123917 -8.30431885 27.11422638 -8.31481934 27.83851624 C-8.34487617 30.14893641 -8.3542037 32.4589415 -8.36328125 34.76953125 C-8.38013343 36.3766568 -8.3982844 37.98376921 -8.41767883 39.59086609 C-8.46512671 43.8108815 -8.49496963 48.03084363 -8.52111816 52.2510376 C-8.55095009 56.56134562 -8.59747136 60.87147018 -8.64257812 65.18164062 C-8.7285519 73.63142017 -8.79592336 82.08121652 -8.8515625 90.53125 C-12.46218499 88.91597152 -13.65564483 88.0222664 -15.14788818 84.28234863 C-15.83917906 80.59726277 -16.10533901 77.25963186 -16.11035156 73.51367188 C-16.1138562 72.85089737 -16.11736084 72.18812286 -16.12097168 71.50526428 C-16.1297005 69.33673305 -16.12397155 67.16853396 -16.1171875 65 C-16.1185367 63.47977639 -16.12047935 61.9595532 -16.12298584 60.43933105 C-16.12592511 57.26208363 -16.12167814 54.08494909 -16.11230469 50.90771484 C-16.10091082 46.84936281 -16.10747673 42.79127539 -16.11944962 38.73293304 C-16.12670064 35.59639518 -16.12436544 32.45991932 -16.11919403 29.32337952 C-16.11786649 27.8275601 -16.11947363 26.33173493 -16.12415314 24.83592224 C-16.129272 22.74007398 -16.12143389 20.64464539 -16.11035156 18.54882812 C-16.10876038 17.35970825 -16.10716919 16.17058838 -16.10552979 14.94543457 C-15.74016015 10.03362327 -15.03742956 5.9074483 -11.77978516 2.12695312 C-7.77106199 -0.05755701 -4.49884005 -0.04471533 0 0 Z " fill="#FCB600" transform="translate(228.8515625,31.46875)"/>
<path d="M0 0 C1.36267834 0.98836993 2.71813783 1.9868575 4.0625 3 C4.92875 3.5775 5.795 4.155 6.6875 4.75 C10.46985829 8.3332868 13.19534615 12.67034981 16.0625 17 C15.7325 17.66 15.4025 18.32 15.0625 19 C14.37027344 18.32904297 14.37027344 18.32904297 13.6640625 17.64453125 C3.20435676 7.94966566 -9.38883685 3.26275889 -23.66796875 3.65234375 C-32.9846185 4.64300304 -40.56991407 8.38239955 -47.9375 14 C-49.5153125 15.1446875 -49.5153125 15.1446875 -51.125 16.3125 C-58.86655163 23.70998266 -63.75642072 33.11949858 -64.25 43.8671875 C-64.41206918 51.93421831 -64.18297013 59.21270959 -61.9375 67 C-65.29393765 64.00854811 -66.94862646 61.28156025 -68.625 57.125 C-69.04136719 56.11695313 -69.45773438 55.10890625 -69.88671875 54.0703125 C-74.01566559 42.00580613 -72.33698724 29.4385052 -67.3125 17.9375 C-60.54585952 5.35981331 -49.35227109 -2.27779204 -36.140625 -6.5859375 C-23.47904467 -8.96559621 -10.82298861 -7.00206488 0 0 Z " fill="#FCB600" transform="translate(74.9375,38)"/>
<path d="M0 0 C1.08470078 -0.00945648 2.16940155 -0.01891296 3.28697205 -0.02865601 C5.03706322 -0.01954697 5.03706322 -0.01954697 6.82250977 -0.01025391 C8.62740623 -0.01455917 8.62740623 -0.01455917 10.46876526 -0.01895142 C13.01319855 -0.02099274 15.55764751 -0.01545816 18.10205078 -0.00292969 C21.9955562 0.01310797 25.88802126 -0.00276994 29.78149414 -0.02197266 C32.25350164 -0.01998996 34.72550849 -0.01614575 37.19750977 -0.01025391 C38.36221298 -0.0163266 39.5269162 -0.02239929 40.72691345 -0.02865601 C41.81476639 -0.01919952 42.90261932 -0.00974304 44.0234375 0 C44.97733871 0.00238678 45.93123993 0.00477356 46.91404724 0.00723267 C50.08858743 0.46146877 51.98223524 1.53421352 54.57641602 3.38818359 C55.99889785 5.65541573 56.66397235 7.84294601 57.57641602 10.38818359 C54.55106452 11.39663409 52.6080861 11.49279462 49.44995117 11.45410156 C48.40521637 11.44434296 47.36048157 11.43458435 46.28408813 11.42453003 C45.15594696 11.40995758 44.02780579 11.39538513 42.86547852 11.38037109 C40.48267028 11.36285364 38.09985751 11.34594547 35.71704102 11.32958984 C31.95552072 11.29862071 28.19422597 11.26309509 24.43286133 11.21679688 C20.80620495 11.17447162 17.17981436 11.15101901 13.55297852 11.13037109 C11.86683945 11.10243973 11.86683945 11.10243973 10.14663696 11.07394409 C9.09559784 11.07048981 8.04455872 11.06703552 6.96166992 11.06347656 C6.04028229 11.05379852 5.11889465 11.04412048 4.16958618 11.03414917 C0.93231891 11.47611941 -0.85332881 12.37525634 -3.42358398 14.38818359 C-5.66765437 18.29518669 -5.69439289 21.93800732 -5.74243164 26.3815918 C-5.75247726 27.06507187 -5.76252289 27.74855194 -5.77287292 28.45274353 C-5.80361304 30.69814256 -5.82071412 32.94342286 -5.83764648 35.18896484 C-5.85636555 36.75124629 -5.87593952 38.3135177 -5.89633179 39.8757782 C-5.94758107 43.9774076 -5.98724519 48.07906975 -6.0244751 52.18084717 C-6.06456003 56.37048395 -6.11563186 60.55998534 -6.16577148 64.74951172 C-6.26244543 72.96230972 -6.34687733 81.17517494 -6.42358398 89.38818359 C-8.73996757 88.46163016 -10.16101326 87.74413519 -11.65641785 85.71690369 C-12.72718202 82.4666168 -12.68619362 79.55020394 -12.69824219 76.12866211 C-12.70335312 75.40459167 -12.70846405 74.68052124 -12.71372986 73.93450928 C-12.72760939 71.54528496 -12.72667037 69.15634964 -12.72436523 66.76708984 C-12.72825304 65.10326531 -12.73258789 63.43944177 -12.73735046 61.77561951 C-12.74480912 58.28958925 -12.74452396 54.80366028 -12.73925781 51.31762695 C-12.73346332 46.85423975 -12.75039521 42.39126754 -12.77360249 37.92794895 C-12.78834681 34.49209679 -12.78921059 31.05634442 -12.78609276 27.62046623 C-12.78660561 25.97505814 -12.7918366 24.32964441 -12.80190468 22.68426704 C-12.81426572 20.38160494 -12.80748006 18.07974917 -12.79589844 15.77709961 C-12.79652786 14.46790054 -12.79715729 13.15870148 -12.79780579 11.80982971 C-12.29538437 7.21600786 -10.86104054 4.77875921 -7.57505798 1.59994507 C-4.88295612 0.08368908 -3.08271215 0.00771977 0 0 Z " fill="#FEB700" transform="translate(146.423583984375,31.61181640625)"/>
<path d="M0 0 C3.93558052 3.78448876 7.66028743 8.02811078 10 13 C9.67 13.66 9.34 14.32 9 15 C8.52691406 14.55269531 8.05382812 14.10539062 7.56640625 13.64453125 C-2.93266789 4.04596249 -14.51179269 -0.78146763 -28.921875 -0.34765625 C-38.37007534 0.71946282 -46.6444084 4.00344151 -54 10 C-54.68707031 10.55171875 -55.37414062 11.1034375 -56.08203125 11.671875 C-63.16516764 18.01013089 -69.46920846 28.43153714 -70.14526367 38.07128906 C-70.17002481 40.46433373 -70.18565625 42.85681779 -70.1875 45.25 C-70.19974609 46.07113281 -70.21199219 46.89226562 -70.22460938 47.73828125 C-70.23750512 53.16309189 -69.51862187 57.78986647 -68 63 C-73.07705884 58.82955881 -75.7581112 52.36929106 -77 46 C-77.21142547 42.3311463 -77.08561484 38.67242613 -77 35 C-77.00644531 33.89785156 -77.01289063 32.79570313 -77.01953125 31.66015625 C-76.73733708 19.71393644 -72.43641427 10.25286247 -64.3125 1.5 C-45.79759577 -15.63403618 -19.40856755 -15.09894861 0 0 Z " fill="#FCB500" transform="translate(365,42)"/>
<path d="M0 0 C1.50692665 -0.01429802 1.50692665 -0.01429802 3.04429626 -0.02888489 C4.12352859 -0.02797348 5.20276093 -0.02706207 6.31469727 -0.02612305 C7.4291774 -0.03040817 8.54365753 -0.0346933 9.69190979 -0.03910828 C12.04801759 -0.04484932 14.40414311 -0.0453535 16.76025391 -0.04101562 C20.36399592 -0.03785679 23.96691618 -0.06131471 27.57055664 -0.08666992 C29.86026915 -0.08894304 32.14998386 -0.08964635 34.43969727 -0.08862305 C36.05550941 -0.10243767 36.05550941 -0.10243767 37.70396423 -0.11653137 C46.99266634 -0.05912008 46.99266634 -0.05912008 50.94360352 3.2746582 C53.76397465 6.2895377 53.94360352 6.94188154 53.94360352 11.2746582 C53.31577469 11.27021698 52.68794586 11.26577576 52.04109192 11.26119995 C45.50365475 11.21693546 38.96626021 11.18677874 32.42871094 11.16479492 C29.98924022 11.1547406 27.54978154 11.14109528 25.11035156 11.1237793 C21.60291572 11.09950638 18.09563931 11.0881693 14.58813477 11.0793457 C12.95350029 11.06386185 12.95350029 11.06386185 11.2858429 11.04806519 C10.2651622 11.04791412 9.24448151 11.04776306 8.19287109 11.04760742 C6.8505114 11.04094559 6.8505114 11.04094559 5.48103333 11.03414917 C2.60494178 11.30675809 0.52255714 11.9792511 -2.05639648 13.2746582 C-4.89619593 16.82440751 -6.52341885 19.74434829 -7.05639648 24.2746582 C-11.93139648 20.5246582 -11.93139648 20.5246582 -13.05639648 18.2746582 C-13.6089854 13.23794613 -13.59569197 9.35324918 -11.30639648 4.7746582 C-7.82638327 0.90797686 -5.14261774 0.0268626 0 0 Z " fill="#FEB700" transform="translate(646.056396484375,31.725341796875)"/>
<path d="M0 0 C2.96234705 2.18986899 4.12903192 3.7686119 5.0703125 7.33203125 C5.1115625 8.21890625 5.1528125 9.10578125 5.1953125 10.01953125 C4.09123047 9.96732422 4.09123047 9.96732422 2.96484375 9.9140625 C-4.48823886 9.52223695 -4.48823886 9.52223695 -10.8046875 13.01953125 C-13.17218417 16.60551808 -13.07921243 19.8575746 -13.12353516 24.08300781 C-13.13358078 24.785849 -13.1436264 25.48869019 -13.15397644 26.21282959 C-13.18478869 28.52859707 -13.20183786 30.84424904 -13.21875 33.16015625 C-13.23746325 34.7687072 -13.25703679 36.37724835 -13.2774353 37.98577881 C-13.32874601 42.21401185 -13.36837735 46.44227671 -13.40557861 50.6706543 C-13.44562494 54.98754746 -13.49671441 59.30430836 -13.546875 63.62109375 C-13.64362172 72.08714921 -13.72803044 80.55327017 -13.8046875 89.01953125 C-18.6796875 85.26953125 -18.6796875 85.26953125 -19.8046875 83.01953125 C-19.91302647 80.60494007 -19.9619904 78.21874697 -19.96582031 75.8034668 C-19.97078522 75.06018127 -19.97575012 74.31689575 -19.98086548 73.55108643 C-19.99549919 71.08613161 -20.00229156 68.62124117 -20.0078125 66.15625 C-20.01356355 64.44472756 -20.01932129 62.73320514 -20.02508545 61.02168274 C-20.03559928 57.42957254 -20.04143925 53.83748475 -20.04492188 50.24536133 C-20.05040335 45.64518569 -20.07442223 41.04530653 -20.10289383 36.44522381 C-20.12153052 32.90815877 -20.12672639 29.37116494 -20.12825775 25.83405495 C-20.13128316 24.13839919 -20.13930796 22.44274465 -20.15244293 20.74713707 C-20.16952308 18.37245623 -20.16761849 15.99849687 -20.16113281 13.6237793 C-20.1703476 12.9248909 -20.17956238 12.2260025 -20.1890564 11.50593567 C-20.15205561 7.17497008 -19.48636871 4.44478727 -16.8046875 1.01953125 C-11.14679281 -2.3086421 -5.86065562 -3.18403584 0 0 Z " fill="#FEB700" transform="translate(579.8046875,32.98046875)"/>
<path d="M0 0 C2.71705898 1.40071985 3.89407009 2.63082885 6 5 C6.875 8.3125 6.875 8.3125 7 11 C6.19175781 10.94199219 5.38351562 10.88398437 4.55078125 10.82421875 C2.94783203 10.75654297 2.94783203 10.75654297 1.3125 10.6875 C0.25675781 10.62949219 -0.79898438 10.57148437 -1.88671875 10.51171875 C-7.50127846 11.39229587 -9.91953026 15.82322105 -13.12109375 20.14453125 C-14.23125482 21.69717645 -15.33662874 23.25325428 -16.4375 24.8125 C-23.07468986 34.13896348 -23.07468986 34.13896348 -26.34765625 38.57421875 C-26.83371338 39.23381592 -27.31977051 39.89341309 -27.82055664 40.57299805 C-28.20977295 41.04390869 -28.59898926 41.51481934 -29 42 C-29.33 42 -29.66 42 -30 42 C-31.49128856 30.50305743 -30.99460846 22.57716247 -23.8125 13.125 C-11.40765297 -2.81790406 -11.40765297 -2.81790406 0 0 Z " fill="#FCB600" transform="translate(621,32)"/>
<path d="M0 0 C4.83825249 4.45628519 6.77374019 7.23963036 7.3125 13.8125 C7.13583706 19.66445998 5.45201465 24.27327987 1.6875 28.75 C0.800625 29.4925 -0.08625 30.235 -1 31 C-2.2065625 32.1446875 -2.2065625 32.1446875 -3.4375 33.3125 C-9.15957468 36.02295643 -14.78965204 35.82237484 -21 35 C-26.18267479 33.0604714 -30.06377869 29.6979541 -33 25 C-33.75 22.1875 -33.75 22.1875 -34 20 C-33.18208984 20.433125 -33.18208984 20.433125 -32.34765625 20.875 C-26.81774406 23.59741831 -22.16060214 25.18473118 -16 24 C-11.09382651 22.29948264 -7.18037721 20.18037721 -3.5 16.5 C-1.2243897 11.19024263 -0.64401878 5.71142973 0 0 Z " fill="#FBB400" transform="translate(354,73)"/>
<path d="M0 0 C4.83825249 4.45628519 6.77374019 7.23963036 7.3125 13.8125 C7.11572015 19.32233579 5.95904144 23.84166214 2.1953125 27.98828125 C-4.19023513 33.80756333 -9.35499457 35.54477283 -17.9921875 35.375 C-23.48337184 34.69038481 -26.95744681 32.23312634 -30.6328125 28.21484375 C-32.0625 26.375 -32.0625 26.375 -34 23 C-33.505 21.515 -33.505 21.515 -33 20 C-31.865625 20.66 -30.73125 21.32 -29.5625 22 C-24.96478781 24.27047516 -21.06299 24.90851563 -16 24 C-13.78677242 23.14015723 -11.78444685 22.1540343 -9.7265625 20.97265625 C-8 20 -8 20 -5 19 C-3.85790183 17.21771064 -3.85790183 17.21771064 -3 15 C-2.4740625 13.948125 -2.4740625 13.948125 -1.9375 12.875 C-0.56390142 8.66263101 -0.32483327 4.40234558 0 0 Z " fill="#FBB400" transform="translate(70,73)"/>
<path d="M0 0 C3.03941658 2.55587304 4.31216453 4.63803158 5.75 8.3125 C5.75 8.9725 5.75 9.6325 5.75 10.3125 C5.0075 10.065 5.0075 10.065 4.25 9.8125 C-0.54462974 8.85357405 -4.42374189 8.22558187 -8.671875 10.75390625 C-12.19962386 14.25492974 -14.25774884 18.19200892 -16.5625 22.5625 C-17.01689453 23.40296875 -17.47128906 24.2434375 -17.93945312 25.109375 C-19.05282809 27.17204863 -20.15588127 29.23956704 -21.25 31.3125 C-21.91 31.3125 -22.57 31.3125 -23.25 31.3125 C-25.92539551 28.15066895 -27.49517271 25.41013383 -28.25 21.3125 C-26.27630662 13.09633172 -20.83632437 5.48150389 -15.25 -0.6875 C-10.02485299 -3.85008898 -5.22753701 -2.71429806 0 0 Z " fill="#FCB500" transform="translate(545.25,33.6875)"/>
<path d="M0 0 C3.35170548 3.00497732 5.06906502 5.96108157 7 10 C6.4652002 10.79172607 5.93040039 11.58345215 5.37939453 12.39916992 C3.38800243 15.34993555 1.40281537 18.30483185 -0.58056641 21.26098633 C-1.43826518 22.53750482 -2.29762102 23.81291159 -3.15869141 25.0871582 C-4.39928199 26.92366254 -5.63377019 28.76414151 -6.8671875 30.60546875 C-7.25059296 31.17025436 -7.63399841 31.73503998 -8.02902222 32.31694031 C-10.1121962 35.44082769 -11.74902693 38.45749791 -13 42 C-16.05288447 40.94728122 -17.00231602 39.99648603 -18.8125 37.25 C-20.19060531 33.47834335 -19.93708423 31.8551548 -19 28 C-17.7578125 25.5703125 -17.7578125 25.5703125 -16.125 23.125 C-15.50625 22.19171875 -14.8875 21.2584375 -14.25 20.296875 C-13.5075 19.20890625 -12.765 18.1209375 -12 17 C-11.54109375 16.32388672 -11.0821875 15.64777344 -10.609375 14.95117188 C-1.4178273 1.4178273 -1.4178273 1.4178273 0 0 Z " fill="#FDB600" transform="translate(503,78)"/>
<path d="M0 0 C1.98 0 3.96 0 6 0 C6 13.2 6 26.4 6 40 C-0.27 40 -6.54 40 -13 40 C-11.68 36.7 -10.36 33.4 -9 30 C-6.03 30 -3.06 30 0 30 C0 20.1 0 10.2 0 0 Z " fill="#FDB700" transform="translate(442,67)"/>
<path d="M0 0 C5.29977873 3.42926859 7.57383248 7.24855582 10 13 C9.34 12.67 8.68 12.34 8 12 C4.26353263 10.75451088 0.87409175 10.37832579 -3 11 C-6.90978527 13.02729607 -9.61901119 14.73148914 -11 19 C-11.38290462 20.99110401 -11.72604615 22.99100513 -12 25 C-13.36176922 23.35648543 -14.68962066 21.68477344 -16 20 C-16.61875 19.2575 -17.2375 18.515 -17.875 17.75 C-19.60002747 13.53326619 -18.66470202 10.15045617 -17 6 C-12.17135914 -0.13367893 -7.60141303 -2.00037185 0 0 Z " fill="#FDB600" transform="translate(502,32)"/>
<path d="M0 0 C1.98 0 3.96 0 6 0 C6 17.82 6 35.64 6 54 C1.27600703 51.63800352 1.27600703 51.63800352 0 48 C-0.24050903 45.69671631 -0.24050903 45.69671631 -0.22705078 43.13964844 C-0.22689972 42.17895447 -0.22674866 41.2182605 -0.22659302 40.22845459 C-0.21627045 39.19915833 -0.20594788 38.16986206 -0.1953125 37.109375 C-0.1924826 36.04962463 -0.18965271 34.98987427 -0.18673706 33.89801025 C-0.17554734 30.51522503 -0.1504447 27.13270513 -0.125 23.75 C-0.11496865 21.45573299 -0.10584307 19.16146183 -0.09765625 16.8671875 C-0.07561196 11.24470123 -0.04214627 5.62236957 0 0 Z " fill="#FEB700" transform="translate(654,67)"/>
<path d="M0 0 C1.98 0 3.96 0 6 0 C6 17.82 6 35.64 6 54 C2 52 2 52 0.76419067 49.68013 C0.00271447 47.00952006 -0.24197304 44.88599985 -0.22705078 42.11791992 C-0.22689972 41.17732224 -0.22674866 40.23672455 -0.22659302 39.2676239 C-0.21627045 38.2653627 -0.20594788 37.2631015 -0.1953125 36.23046875 C-0.1924826 35.19432938 -0.18965271 34.15819 -0.18673706 33.09065247 C-0.17556454 29.78948293 -0.15046505 26.48858719 -0.125 23.1875 C-0.11496643 20.94596747 -0.10584124 18.70443067 -0.09765625 16.46289062 C-0.07563478 10.9751674 -0.04218621 5.48760326 0 0 Z " fill="#FEB700" transform="translate(178,67)"/>
<path d="M0 0 C2.17764364 2.77837292 2.49666552 4.83832073 2.8125 8.3125 C2.05114746 8.07478882 2.05114746 8.07478882 1.27441406 7.83227539 C-2.00072636 7.14080633 -5.24446069 7.0781084 -8.578125 6.99609375 C-9.28273865 6.97531265 -9.98735229 6.95453156 -10.71331787 6.93312073 C-12.95461681 6.86796163 -15.19602864 6.80889752 -17.4375 6.75 C-18.96094897 6.70678274 -20.48438671 6.66316743 -22.0078125 6.61914062 C-25.73425591 6.51231509 -29.46082494 6.41095361 -33.1875 6.3125 C-33.1875 3.6725 -33.1875 1.0325 -33.1875 -1.6875 C-28.77119908 -1.88438523 -24.35445334 -2.06838923 -19.9375 -2.25 C-18.68324219 -2.30607422 -17.42898438 -2.36214844 -16.13671875 -2.41992188 C-14.93144531 -2.46826172 -13.72617187 -2.51660156 -12.484375 -2.56640625 C-10.81906738 -2.63710327 -10.81906738 -2.63710327 -9.12011719 -2.70922852 C-5.24750604 -2.68053534 -3.07495217 -2.37210596 0 0 Z " fill="#FEB700" transform="translate(772.1875,100.6875)"/>
<path d="M0 0 C4.875 1.875 4.875 1.875 6 3 C6.203125 4.99609375 6.203125 4.99609375 6.25 7.4375 C6.27578125 8.24058594 6.3015625 9.04367188 6.328125 9.87109375 C6.21984375 10.57363281 6.1115625 11.27617188 6 12 C2.90099797 14.06600136 2.1365588 14.198644 -1.375 14.3125 C-5.03249106 14.64553984 -5.90297068 14.92361521 -8.9375 17.3125 C-10.63018644 19.51812172 -11.95566678 21.43663665 -13 24 C-13.66 23.67 -14.32 23.34 -15 23 C-15 17.06 -15 11.12 -15 5 C-10.01953125 3.92578125 -10.01953125 3.92578125 -5.0390625 2.8515625 C-1.91803033 2.24476035 -1.91803033 2.24476035 0 0 Z " fill="#FDB600" transform="translate(260,66)"/>
<path d="M0 0 C4.22864445 -0.17449702 8.45636251 -0.28092495 12.6875 -0.375 C14.48477539 -0.45041016 14.48477539 -0.45041016 16.31835938 -0.52734375 C24.92978215 -0.67126725 24.92978215 -0.67126725 27.94775391 1.22167969 C30.61495142 4.21157517 31 5.99009936 31 10 C20.77 9.67 10.54 9.34 0 9 C0 6.03 0 3.06 0 0 Z " fill="#F5B000" transform="translate(738,67)"/>
<path d="M0 0 C0.99 0 1.98 0 3 0 C4.39453125 1.40527344 4.39453125 1.40527344 5.8125 3.359375 C6.33070313 4.06320313 6.84890625 4.76703125 7.3828125 5.4921875 C8.18332031 6.60980469 8.18332031 6.60980469 9 7.75 C9.53367187 8.47960937 10.06734375 9.20921875 10.6171875 9.9609375 C11.61769577 11.3297921 12.6142304 12.70156629 13.60546875 14.07714844 C15.00779776 16.06092214 15.00779776 16.06092214 16.73828125 18.05566406 C17.15464844 18.69729492 17.57101562 19.33892578 18 20 C17.67 20.99 17.34 21.98 17 23 C14.72454998 20.10776791 12.45547694 17.21059468 10.1875 14.3125 C9.54490234 13.49587891 8.90230469 12.67925781 8.24023438 11.83789062 C7.61826172 11.04189453 6.99628906 10.24589844 6.35546875 9.42578125 C5.78465576 8.69786377 5.21384277 7.96994629 4.62573242 7.2199707 C2.92167468 4.89304519 1.44696915 2.49338658 0 0 Z " fill="#F2AC01" transform="translate(610,85)"/>
<path d="M0 0 C2.375 1.0625 2.375 1.0625 5 3 C6.3125 6.6875 6.3125 6.6875 7 10 C4.69 9.67 2.38 9.34 0 9 C0 6.03 0 3.06 0 0 Z " fill="#FDB600" transform="translate(473,98)"/>
<path d="M0 0 C1.98 0 3.96 0 6 0 C6 1.98 6 3.96 6 6 C4.125 5.8125 4.125 5.8125 2 5 C0.75 2.4375 0.75 2.4375 0 0 Z " fill="#DE9F02" transform="translate(455,132)"/>
</svg>
