<svg width="51" height="51" viewBox="0 0 51 51" fill="none" xmlns="http://www.w3.org/2000/svg">
<g clip-path="url(#clip0_486_798)">
<path d="M33.1734 0.319336H17.825C3.81873 0.319336 0.498413 3.63965 0.498413 17.6459V32.9943C0.498413 47.0006 3.81873 50.3209 17.825 50.3209H33.1734C47.1797 50.3209 50.5 47.0006 50.5 32.9943V17.6459C50.5 3.63965 47.1469 0.319336 33.1734 0.319336ZM40.864 35.9881H37.2344C35.8594 35.9881 35.4359 34.8975 32.9625 32.3912C30.814 30.3084 29.8625 30.0318 29.3328 30.0318C28.5844 30.0318 28.3719 30.2428 28.3719 31.2693V34.549C28.3719 35.4287 28.0953 35.9568 25.7672 35.9568C21.9172 35.9568 17.6453 33.6287 14.65 29.2912C10.1328 22.935 8.89685 18.174 8.89685 17.1897C8.89685 16.66 9.10779 16.1647 10.125 16.1647H13.7625C14.6828 16.1647 15.0328 16.5881 15.3906 17.5725C17.189 22.7647 20.1844 27.3131 21.4203 27.3131C21.8765 27.3131 22.0875 27.1022 22.0875 25.9381V20.5756C21.9484 18.1021 20.6469 17.8897 20.6469 17.0115C20.6469 16.5881 20.9969 16.1647 21.5578 16.1647H27.2781C28.0515 16.1647 28.3359 16.5881 28.3359 17.499V24.7334C28.3359 25.5147 28.6859 25.7912 28.8969 25.7912C29.3531 25.7912 29.7437 25.5147 30.589 24.6678C33.2015 21.7381 35.0734 17.2209 35.0734 17.2209C35.3172 16.6912 35.7406 16.1959 36.6609 16.1959H40.2984C41.389 16.1959 41.6328 16.7568 41.389 17.5381C40.9328 19.6537 36.4812 25.9365 36.4812 25.9365C36.0984 26.5709 35.9515 26.8475 36.4812 27.5553C36.8719 28.085 38.1422 29.1834 38.9875 30.1678C40.5422 31.9334 41.7375 33.4147 42.0562 34.4397C42.414 35.4568 41.8859 35.9865 40.8594 35.9865L40.864 35.9881Z" fill="#FFF4D9"/>
</g>
<defs>
<clipPath id="clip0_486_798">
<rect width="50" height="50" fill="white" transform="translate(0.5 0.319336)"/>
</clipPath>
</defs>
</svg>
